<svg xmlns="http://www.w3.org/2000/svg" xmlns:xlink="http://www.w3.org/1999/xlink" width="150" zoomAndPan="magnify" viewBox="0 0 112.5 52.499999" height="70" preserveAspectRatio="xMidYMid meet" version="1.0"><defs><filter x="0%" y="0%" width="100%" height="100%" id="f4c9df0bc1"><feColorMatrix values="0 0 0 0 1 0 0 0 0 1 0 0 0 0 1 0 0 0 1 0" color-interpolation-filters="sRGB"/></filter><g/><clipPath id="6b254e3f72"><path d="M 0.28125 20 L 48 20 L 48 35 L 0.28125 35 Z M 0.28125 20 " clip-rule="nonzero"/></clipPath><clipPath id="f0caef5b1a"><path d="M 45.191406 14 L 66.804688 14 L 66.804688 19.804688 L 45.191406 19.804688 Z M 45.191406 14 " clip-rule="nonzero"/></clipPath><clipPath id="78b8c49294"><path d="M 45.898438 12.890625 C 45.476562 12.890625 45.222656 13.351562 45.445312 13.703125 C 47.625 17.21875 51.535156 19.5625 56 19.5625 C 60.464844 19.5625 64.378906 17.21875 66.558594 13.703125 C 66.777344 13.351562 66.523438 12.890625 66.105469 12.890625 L 45.894531 12.890625 Z M 45.898438 12.890625 " clip-rule="nonzero"/></clipPath><clipPath id="9ae4451509"><path d="M 45.191406 14 L 66.804688 14 L 66.804688 17 L 45.191406 17 Z M 45.191406 14 " clip-rule="nonzero"/></clipPath><clipPath id="d08709a66a"><path d="M 45.898438 12.890625 C 45.476562 12.890625 45.222656 13.351562 45.445312 13.703125 C 47.625 17.21875 51.535156 19.5625 56 19.5625 C 60.464844 19.5625 64.378906 17.21875 66.558594 13.703125 C 66.777344 13.351562 66.523438 12.890625 66.105469 12.890625 L 45.894531 12.890625 Z M 45.898438 12.890625 " clip-rule="nonzero"/></clipPath><clipPath id="003b193472"><path d="M 54 5.03125 L 58 5.03125 L 58 7 L 54 7 Z M 54 5.03125 " clip-rule="nonzero"/></clipPath><clipPath id="3643fe6332"><path d="M 50 44 L 62 44 L 62 46.636719 L 50 46.636719 Z M 50 44 " clip-rule="nonzero"/></clipPath><clipPath id="469d345597"><path d="M 50 44.578125 L 62 44.578125 L 62 46 L 50 46 Z M 50 44.578125 " clip-rule="nonzero"/></clipPath><clipPath id="ba3b72d073"><path d="M 60.445312 46.570312 L 51.558594 46.570312 L 50.175781 44.800781 L 61.828125 44.800781 Z M 60.445312 46.570312 " clip-rule="nonzero"/></clipPath><clipPath id="2a22dcca0a"><path d="M 50 44 L 62 44 L 62 46.636719 L 50 46.636719 Z M 50 44 " clip-rule="nonzero"/></clipPath><clipPath id="6d81587074"><path d="M 64 20 L 111.722656 20 L 111.722656 35 L 64 35 Z M 64 20 " clip-rule="nonzero"/></clipPath><mask id="7024aa2fe4"><g filter="url(#f4c9df0bc1)"><rect x="-11.25" width="135" fill="#000000" y="-5.25" height="62.999998" fill-opacity="0.8"/></g></mask><clipPath id="e013e0a74b"><path d="M 0.574219 0.605469 L 57.441406 0.605469 L 57.441406 13.398438 L 0.574219 13.398438 Z M 0.574219 0.605469 " clip-rule="nonzero"/></clipPath><clipPath id="0638950872"><path d="M 6.972656 0.605469 L 51.03125 0.605469 C 54.566406 0.605469 57.429688 3.46875 57.429688 7.003906 C 57.429688 10.535156 54.566406 13.398438 51.03125 13.398438 L 6.972656 13.398438 C 3.4375 13.398438 0.574219 10.535156 0.574219 7.003906 C 0.574219 3.46875 3.4375 0.605469 6.972656 0.605469 Z M 6.972656 0.605469 " clip-rule="nonzero"/></clipPath><clipPath id="14d8d0b9a7"><rect x="0" width="58" y="0" height="14"/></clipPath></defs><path stroke-linecap="butt" transform="matrix(-0.240144, 0, 0, -0.238216, 99.786552, 49.689666)" fill-opacity="1" fill="#615b67" fill-rule="nonzero" stroke-linejoin="round" d="M 182.334807 91.525899 L 232.012097 91.525899 L 232.012097 95.936941 L 182.334807 95.936941 Z M 182.334807 91.525899 " stroke="#010101" stroke-width="0.5" stroke-opacity="1" stroke-miterlimit="4"/><g clip-path="url(#6b254e3f72)"><path stroke-linecap="butt" transform="matrix(-0.240144, 0, 0, -0.238216, 47.41602, 49.689666)" fill-opacity="1" fill="#d1c4dd" fill-rule="nonzero" stroke-linejoin="round" d="M 2.317967 64.174164 L 193.951287 64.174164 C 194.520608 64.174164 195.008597 64.387337 195.415254 64.780887 C 195.821912 65.190835 196.017108 65.682773 196.017108 66.2567 L 196.017108 121.20614 C 196.017108 121.763669 195.821912 122.255607 195.415254 122.665555 C 195.008597 123.075503 194.520608 123.272278 193.951287 123.272278 L 2.317967 123.272278 C 1.748647 123.272278 1.260658 123.075503 0.854 122.665555 C 0.447342 122.255607 0.252147 121.763669 0.252147 121.20614 L 0.252147 66.2567 C 0.252147 65.682773 0.447342 65.190835 0.854 64.780887 C 1.260658 64.387337 1.748647 64.174164 2.317967 64.174164 Z M 2.317967 64.174164 " stroke="#010101" stroke-width="0.5" stroke-opacity="1" stroke-miterlimit="4"/></g><path stroke-linecap="butt" transform="matrix(-0.240144, 0, 0, -0.238216, 88.977683, 40.923314)" fill-opacity="1" fill="#615b67" fill-rule="nonzero" stroke-linejoin="round" d="M 176.624189 67.286718 L 192.727829 67.286718 L 192.727829 83.356682 L 176.624189 83.356682 Z M 176.624189 67.286718 " stroke="#010101" stroke-width="0.5" stroke-opacity="1" stroke-miterlimit="4"/><path stroke-linecap="butt" transform="matrix(-0.240144, 0, 0, -0.238216, 88.977683, 49.451452)" fill-opacity="1" fill="#615b67" fill-rule="nonzero" stroke-linejoin="round" d="M 176.624189 85.196585 L 192.727829 85.196585 L 192.727829 101.266549 L 176.624189 101.266549 Z M 176.624189 85.196585 " stroke="#010101" stroke-width="0.5" stroke-opacity="1" stroke-miterlimit="4"/><path stroke-linecap="butt" transform="matrix(-0.240144, 0, 0, -0.238216, 88.977683, 58.215419)" fill-opacity="1" fill="#615b67" fill-rule="nonzero" stroke-linejoin="round" d="M 176.624189 103.079761 L 192.727829 103.079761 L 192.727829 120.149998 L 176.624189 120.149998 Z M 176.624189 103.079761 " stroke="#010101" stroke-width="0.5" stroke-opacity="1" stroke-miterlimit="4"/><path stroke-linecap="butt" transform="matrix(-0.240144, 0, 0, -0.238216, 80.666317, 40.923314)" fill-opacity="1" fill="#615b67" fill-rule="nonzero" stroke-linejoin="round" d="M 159.305298 67.286718 L 175.425204 67.286718 L 175.425204 83.356682 L 159.305298 83.356682 Z M 159.305298 67.286718 " stroke="#010101" stroke-width="0.5" stroke-opacity="1" stroke-miterlimit="4"/><path stroke-linecap="butt" transform="matrix(-0.240144, 0, 0, -0.238216, 80.666317, 49.451452)" fill-opacity="1" fill="#615b67" fill-rule="nonzero" stroke-linejoin="round" d="M 159.305298 85.196585 L 175.425204 85.196585 L 175.425204 101.266549 L 159.305298 101.266549 Z M 159.305298 85.196585 " stroke="#010101" stroke-width="0.5" stroke-opacity="1" stroke-miterlimit="4"/><path stroke-linecap="butt" transform="matrix(-0.240144, 0, 0, -0.238216, 80.666317, 58.215419)" fill-opacity="1" fill="#615b67" fill-rule="nonzero" stroke-linejoin="round" d="M 159.305298 103.079761 L 175.425204 103.079761 L 175.425204 120.149998 L 159.305298 120.149998 Z M 159.305298 103.079761 " stroke="#010101" stroke-width="0.5" stroke-opacity="1" stroke-miterlimit="4"/><path stroke-linecap="butt" transform="matrix(-0.240144, 0, 0, -0.238216, 72.352536, 40.923314)" fill-opacity="1" fill="#615b67" fill-rule="nonzero" stroke-linejoin="round" d="M 141.992615 67.286718 L 158.112522 67.286718 L 158.112522 83.356682 L 141.992615 83.356682 Z M 141.992615 67.286718 " stroke="#010101" stroke-width="0.5" stroke-opacity="1" stroke-miterlimit="4"/><path stroke-linecap="butt" transform="matrix(-0.240144, 0, 0, -0.238216, 72.352536, 49.451452)" fill-opacity="1" fill="#615b67" fill-rule="nonzero" stroke-linejoin="round" d="M 141.992615 85.196585 L 158.112522 85.196585 L 158.112522 101.266549 L 141.992615 101.266549 Z M 141.992615 85.196585 " stroke="#010101" stroke-width="0.5" stroke-opacity="1" stroke-miterlimit="4"/><path stroke-linecap="butt" transform="matrix(-0.240144, 0, 0, -0.238216, 72.352536, 58.215419)" fill-opacity="1" fill="#615b67" fill-rule="nonzero" stroke-linejoin="round" d="M 141.992615 103.079761 L 158.112522 103.079761 L 158.112522 120.149998 L 141.992615 120.149998 Z M 141.992615 103.079761 " stroke="#010101" stroke-width="0.5" stroke-opacity="1" stroke-miterlimit="4"/><path stroke-linecap="butt" transform="matrix(-0.240144, 0, 0, -0.238216, 64.04117, 40.923314)" fill-opacity="1" fill="#615b67" fill-rule="nonzero" stroke-linejoin="round" d="M 124.706257 67.286718 L 140.809897 67.286718 L 140.809897 83.356682 L 124.706257 83.356682 Z M 124.706257 67.286718 " stroke="#010101" stroke-width="0.5" stroke-opacity="1" stroke-miterlimit="4"/><path stroke-linecap="butt" transform="matrix(-0.240144, 0, 0, -0.238216, 64.04117, 49.451452)" fill-opacity="1" fill="#615b67" fill-rule="nonzero" stroke-linejoin="round" d="M 124.706257 85.196585 L 140.809897 85.196585 L 140.809897 101.266549 L 124.706257 101.266549 Z M 124.706257 85.196585 " stroke="#010101" stroke-width="0.5" stroke-opacity="1" stroke-miterlimit="4"/><path stroke-linecap="butt" transform="matrix(-0.240144, 0, 0, -0.238216, 64.04117, 58.215419)" fill-opacity="1" fill="#615b67" fill-rule="nonzero" stroke-linejoin="round" d="M 124.706257 103.079761 L 140.809897 103.079761 L 140.809897 120.149998 L 124.706257 120.149998 Z M 124.706257 103.079761 " stroke="#010101" stroke-width="0.5" stroke-opacity="1" stroke-miterlimit="4"/><path stroke-linecap="butt" transform="matrix(-0.240144, 0, 0, -0.238216, 55.727393, 40.923314)" fill-opacity="1" fill="#615b67" fill-rule="nonzero" stroke-linejoin="round" d="M 107.393594 67.286718 L 123.497235 67.286718 L 123.497235 83.356682 L 107.393594 83.356682 Z M 107.393594 67.286718 " stroke="#010101" stroke-width="0.5" stroke-opacity="1" stroke-miterlimit="4"/><path stroke-linecap="butt" transform="matrix(-0.240144, 0, 0, -0.238216, 55.727393, 49.451452)" fill-opacity="1" fill="#615b67" fill-rule="nonzero" stroke-linejoin="round" d="M 107.393594 85.196585 L 123.497235 85.196585 L 123.497235 101.266549 L 107.393594 101.266549 Z M 107.393594 85.196585 " stroke="#010101" stroke-width="0.5" stroke-opacity="1" stroke-miterlimit="4"/><path stroke-linecap="butt" transform="matrix(-0.240144, 0, 0, -0.238216, 55.727393, 58.215419)" fill-opacity="1" fill="#615b67" fill-rule="nonzero" stroke-linejoin="round" d="M 107.393594 103.079761 L 123.497235 103.079761 L 123.497235 120.149998 L 107.393594 120.149998 Z M 107.393594 103.079761 " stroke="#010101" stroke-width="0.5" stroke-opacity="1" stroke-miterlimit="4"/><path stroke-linecap="butt" transform="matrix(-0.240144, 0, 0, -0.238216, 47.41602, 40.923314)" fill-opacity="1" fill="#615b67" fill-rule="nonzero" stroke-linejoin="round" d="M 90.074674 67.286718 L 106.194581 67.286718 L 106.194581 83.356682 L 90.074674 83.356682 Z M 90.074674 67.286718 " stroke="#010101" stroke-width="0.5" stroke-opacity="1" stroke-miterlimit="4"/><path stroke-linecap="butt" transform="matrix(-0.240144, 0, 0, -0.238216, 47.41602, 49.451452)" fill-opacity="1" fill="#615b67" fill-rule="nonzero" stroke-linejoin="round" d="M 90.074674 85.196585 L 106.194581 85.196585 L 106.194581 101.266549 L 90.074674 101.266549 Z M 90.074674 85.196585 " stroke="#010101" stroke-width="0.5" stroke-opacity="1" stroke-miterlimit="4"/><path stroke-linecap="butt" transform="matrix(-0.240144, 0, 0, -0.238216, 47.41602, 58.215419)" fill-opacity="1" fill="#615b67" fill-rule="nonzero" stroke-linejoin="round" d="M 90.074674 103.079761 L 106.194581 103.079761 L 106.194581 120.149998 L 90.074674 120.149998 Z M 90.074674 103.079761 " stroke="#010101" stroke-width="0.5" stroke-opacity="1" stroke-miterlimit="4"/><path stroke-linecap="butt" transform="matrix(-0.240144, 0, 0, -0.238216, 39.104648, 40.923314)" fill-opacity="1" fill="#615b67" fill-rule="nonzero" stroke-linejoin="round" d="M 72.772023 67.286718 L 88.875663 67.286718 L 88.875663 83.356682 L 72.772023 83.356682 Z M 72.772023 67.286718 " stroke="#010101" stroke-width="0.5" stroke-opacity="1" stroke-miterlimit="4"/><path stroke-linecap="butt" transform="matrix(-0.240144, 0, 0, -0.238216, 39.104648, 49.451452)" fill-opacity="1" fill="#615b67" fill-rule="nonzero" stroke-linejoin="round" d="M 72.772023 85.196585 L 88.875663 85.196585 L 88.875663 101.266549 L 72.772023 101.266549 Z M 72.772023 85.196585 " stroke="#010101" stroke-width="0.5" stroke-opacity="1" stroke-miterlimit="4"/><path stroke-linecap="butt" transform="matrix(-0.240144, 0, 0, -0.238216, 39.104648, 58.215419)" fill-opacity="1" fill="#615b67" fill-rule="nonzero" stroke-linejoin="round" d="M 72.772023 103.079761 L 88.875663 103.079761 L 88.875663 120.149998 L 72.772023 120.149998 Z M 72.772023 103.079761 " stroke="#010101" stroke-width="0.5" stroke-opacity="1" stroke-miterlimit="4"/><path stroke-linecap="butt" transform="matrix(-0.240144, 0, 0, -0.238216, 30.790873, 40.923314)" fill-opacity="1" fill="#615b67" fill-rule="nonzero" stroke-linejoin="round" d="M 55.475634 67.286718 L 71.579275 67.286718 L 71.579275 83.356682 L 55.475634 83.356682 Z M 55.475634 67.286718 " stroke="#010101" stroke-width="0.5" stroke-opacity="1" stroke-miterlimit="4"/><path stroke-linecap="butt" transform="matrix(-0.240144, 0, 0, -0.238216, 30.790873, 49.451452)" fill-opacity="1" fill="#615b67" fill-rule="nonzero" stroke-linejoin="round" d="M 55.475634 85.196585 L 71.579275 85.196585 L 71.579275 101.266549 L 55.475634 101.266549 Z M 55.475634 85.196585 " stroke="#010101" stroke-width="0.5" stroke-opacity="1" stroke-miterlimit="4"/><path stroke-linecap="butt" transform="matrix(-0.240144, 0, 0, -0.238216, 30.790873, 58.215419)" fill-opacity="1" fill="#615b67" fill-rule="nonzero" stroke-linejoin="round" d="M 55.475634 103.079761 L 71.579275 103.079761 L 71.579275 120.149998 L 55.475634 120.149998 Z M 55.475634 103.079761 " stroke="#010101" stroke-width="0.5" stroke-opacity="1" stroke-miterlimit="4"/><path stroke-linecap="butt" transform="matrix(-0.240144, 0, 0, -0.238216, 22.4795, 40.923314)" fill-opacity="1" fill="#615b67" fill-rule="nonzero" stroke-linejoin="round" d="M 38.156713 67.286718 L 54.276619 67.286718 L 54.276619 83.356682 L 38.156713 83.356682 Z M 38.156713 67.286718 " stroke="#010101" stroke-width="0.5" stroke-opacity="1" stroke-miterlimit="4"/><path stroke-linecap="butt" transform="matrix(-0.240144, 0, 0, -0.238216, 22.4795, 49.451452)" fill-opacity="1" fill="#615b67" fill-rule="nonzero" stroke-linejoin="round" d="M 38.156713 85.196585 L 54.276619 85.196585 L 54.276619 101.266549 L 38.156713 101.266549 Z M 38.156713 85.196585 " stroke="#010101" stroke-width="0.5" stroke-opacity="1" stroke-miterlimit="4"/><path stroke-linecap="butt" transform="matrix(-0.240144, 0, 0, -0.238216, 22.4795, 58.215419)" fill-opacity="1" fill="#615b67" fill-rule="nonzero" stroke-linejoin="round" d="M 38.156713 103.079761 L 54.276619 103.079761 L 54.276619 120.149998 L 38.156713 120.149998 Z M 38.156713 103.079761 " stroke="#010101" stroke-width="0.5" stroke-opacity="1" stroke-miterlimit="4"/><path stroke-linecap="butt" transform="matrix(-0.240144, 0, 0, -0.238216, 14.168127, 40.923314)" fill-opacity="1" fill="#615b67" fill-rule="nonzero" stroke-linejoin="round" d="M 20.854062 67.286718 L 36.957702 67.286718 L 36.957702 83.356682 L 20.854062 83.356682 Z M 20.854062 67.286718 " stroke="#010101" stroke-width="0.5" stroke-opacity="1" stroke-miterlimit="4"/><path stroke-linecap="butt" transform="matrix(-0.240144, 0, 0, -0.238216, 14.168127, 49.451452)" fill-opacity="1" fill="#615b67" fill-rule="nonzero" stroke-linejoin="round" d="M 20.854062 85.196585 L 36.957702 85.196585 L 36.957702 101.266549 L 20.854062 101.266549 Z M 20.854062 85.196585 " stroke="#010101" stroke-width="0.5" stroke-opacity="1" stroke-miterlimit="4"/><path stroke-linecap="butt" transform="matrix(-0.240144, 0, 0, -0.238216, 14.168127, 58.215419)" fill-opacity="1" fill="#615b67" fill-rule="nonzero" stroke-linejoin="round" d="M 20.854062 103.079761 L 36.957702 103.079761 L 36.957702 120.149998 L 20.854062 120.149998 Z M 20.854062 103.079761 " stroke="#010101" stroke-width="0.5" stroke-opacity="1" stroke-miterlimit="4"/><path stroke-linecap="butt" transform="matrix(-0.240144, 0, 0, -0.238216, 5.854354, 40.923314)" fill-opacity="1" fill="#615b67" fill-rule="nonzero" stroke-linejoin="round" d="M 3.557679 67.286718 L 19.661319 67.286718 L 19.661319 83.356682 L 3.557679 83.356682 Z M 3.557679 67.286718 " stroke="#010101" stroke-width="0.5" stroke-opacity="1" stroke-miterlimit="4"/><path stroke-linecap="butt" transform="matrix(-0.240144, 0, 0, -0.238216, 5.854354, 49.451452)" fill-opacity="1" fill="#615b67" fill-rule="nonzero" stroke-linejoin="round" d="M 3.557679 85.196585 L 19.661319 85.196585 L 19.661319 101.266549 L 3.557679 101.266549 Z M 3.557679 85.196585 " stroke="#010101" stroke-width="0.5" stroke-opacity="1" stroke-miterlimit="4"/><path stroke-linecap="butt" transform="matrix(-0.240144, 0, 0, -0.238216, 5.854354, 58.215419)" fill-opacity="1" fill="#615b67" fill-rule="nonzero" stroke-linejoin="round" d="M 3.557679 103.079761 L 19.661319 103.079761 L 19.661319 120.149998 L 3.557679 120.149998 Z M 3.557679 103.079761 " stroke="#010101" stroke-width="0.5" stroke-opacity="1" stroke-miterlimit="4"/><path stroke-linecap="butt" transform="matrix(0.240144, 0, 0, 0.238216, 0.28302, 5.036049)" fill-opacity="1" fill="#615b67" fill-rule="nonzero" stroke-linejoin="round" d="M 232.015179 91.513059 L 281.708736 91.513059 L 281.708736 95.9241 L 232.015179 95.9241 Z M 232.015179 91.513059 " stroke="#010101" stroke-width="0.5" stroke-opacity="1" stroke-miterlimit="4"/><path stroke-linecap="butt" transform="matrix(0.240144, 0, 0, 0.238216, 0.28302, 5.036049)" fill-opacity="1" fill="#615b67" fill-rule="nonzero" stroke-linejoin="round" d="M 224.79294 112.207238 L 239.237418 112.207238 L 239.237418 125.096005 L 224.79294 125.096005 Z M 224.79294 112.207238 " stroke="#010101" stroke-width="0.5" stroke-opacity="1" stroke-miterlimit="4"/><path stroke-linecap="butt" transform="matrix(0.240144, 0, 0, 0.238216, 0.28302, 5.036049)" fill-opacity="1" fill="#615b67" fill-rule="nonzero" stroke-linejoin="round" d="M 228.095 57.831725 L 235.935358 57.831725 L 235.935358 75.246319 L 228.095 75.246319 Z M 228.095 57.831725 " stroke="#010101" stroke-width="0.5" stroke-opacity="1" stroke-miterlimit="4"/><path stroke-linecap="butt" transform="matrix(0.240144, 0, 0, 0.238216, 0.28302, 5.036049)" fill-opacity="1" fill="#d1c4dd" fill-rule="nonzero" stroke-linejoin="round" d="M 233.853271 36.596415 L 230.193353 36.596415 L 231.21813 4.587669 L 232.828494 4.587669 Z M 233.853271 36.596415 " stroke="#010101" stroke-width="0.5" stroke-opacity="1" stroke-miterlimit="4"/><path fill="#d1c4dd" d="M 45.898438 12.890625 C 45.476562 12.890625 45.222656 13.351562 45.445312 13.703125 C 47.625 17.21875 51.535156 19.5625 56 19.5625 C 60.464844 19.5625 64.378906 17.21875 66.558594 13.703125 C 66.777344 13.351562 66.523438 12.890625 66.105469 12.890625 L 45.894531 12.890625 Z M 45.898438 12.890625 " fill-opacity="1" fill-rule="nonzero"/><g clip-path="url(#f0caef5b1a)"><g clip-path="url(#78b8c49294)"><path fill="#010101" d="M 67.21875 14.136719 C 67.257812 19.828125 44.816406 19.851562 44.78125 14.136719 L 44.78125 19.886719 L 67.21875 19.886719 Z M 67.21875 14.136719 " fill-opacity="1" fill-rule="nonzero"/></g></g><g clip-path="url(#9ae4451509)"><g clip-path="url(#d08709a66a)"><path stroke-linecap="butt" transform="matrix(0.240144, 0, 0, 0.238216, 0.28302, 5.036049)" fill-opacity="1" fill="#77acdd" fill-rule="nonzero" stroke-linejoin="round" d="M 185.314622 39.154491 L 278.748269 39.154491 L 278.748269 46.943504 L 185.314622 46.943504 Z M 185.314622 39.154491 " stroke="#010101" stroke-width="0.5" stroke-opacity="1" stroke-miterlimit="4"/></g></g><path stroke-linecap="butt" transform="matrix(0.240144, 0, 0, 0.238216, 0.28302, 5.036049)" fill="none" stroke-linejoin="round" d="M 189.950519 32.972474 C 188.193758 32.972474 187.136448 34.907429 188.063627 36.383242 C 197.140225 51.141372 213.422794 60.980126 232.015179 60.980126 C 250.607564 60.980126 266.9064 51.141372 275.982997 36.383242 C 276.89391 34.907429 275.8366 32.972474 274.096106 32.972474 L 189.934252 32.972474 Z M 189.950519 32.972474 " stroke="#010101" stroke-width="0.5" stroke-opacity="1" stroke-miterlimit="4"/><g clip-path="url(#003b193472)"><path stroke-linecap="butt" transform="matrix(0.240144, 0, 0, 0.238216, 0.28302, 5.036049)" fill-opacity="1" fill="#d1c4dd" fill-rule="nonzero" stroke-linejoin="round" d="M 232.015179 0.242219 C 228.875782 0.242219 226.321973 2.783897 226.321973 5.932299 L 237.692119 5.932299 C 237.692119 2.800295 235.154576 0.242219 232.015179 0.242219 Z M 232.015179 0.242219 " stroke="#010101" stroke-width="0.5" stroke-opacity="1" stroke-miterlimit="4"/></g><path stroke-linecap="butt" transform="matrix(0.240144, 0, 0, 0.238216, 0.28302, 5.036049)" fill-opacity="1" fill="#615b67" fill-rule="nonzero" stroke-linejoin="round" d="M 226.338239 5.932299 L 237.708385 5.932299 L 237.708385 7.539295 L 226.338239 7.539295 Z M 226.338239 5.932299 " stroke="#010101" stroke-width="0.5" stroke-opacity="1" stroke-miterlimit="4"/><path fill="#010101" d="M 55.785156 6.832031 L 56.242188 6.832031 L 56.242188 7.613281 L 55.785156 7.613281 Z M 55.785156 6.832031 " fill-opacity="1" fill-rule="nonzero"/><path stroke-linecap="butt" transform="matrix(0.240144, 0, 0, 0.238216, 0.28302, 5.036049)" fill-opacity="1" fill="#d1c4dd" fill-rule="nonzero" stroke-linejoin="round" d="M 212.658278 79.690156 L 251.37208 79.690156 L 251.37208 107.7634 L 212.658278 107.7634 Z M 212.658278 79.690156 " stroke="#010101" stroke-width="0.5" stroke-opacity="1" stroke-miterlimit="4"/><path stroke-linecap="butt" transform="matrix(0.240144, 0, 0, 0.238216, 0.28302, 5.036049)" fill-opacity="1" fill="#615b67" fill-rule="nonzero" stroke-linejoin="round" d="M 246.784982 112.207238 L 217.245376 112.207238 L 212.658278 107.7634 L 251.388346 107.7634 Z M 246.784982 112.207238 " stroke="#010101" stroke-width="0.5" stroke-opacity="1" stroke-miterlimit="4"/><path stroke-linecap="butt" transform="matrix(0.240144, 0, 0, 0.238216, 0.28302, 5.036049)" fill-opacity="1" fill="#615b67" fill-rule="nonzero" stroke-linejoin="round" d="M 250.526232 123.275836 L 213.520392 123.275836 L 207.762121 128.506773 L 256.284504 128.506773 Z M 250.526232 123.275836 " stroke="#010101" stroke-width="0.5" stroke-opacity="1" stroke-miterlimit="4"/><path stroke-linecap="butt" transform="matrix(0.240144, 0, 0, 0.238216, 0.28302, 5.036049)" fill-opacity="1" fill="#615b67" fill-rule="nonzero" stroke-linejoin="round" d="M 246.784982 75.246319 L 217.245376 75.246319 L 212.658278 79.690156 L 251.388346 79.690156 Z M 246.784982 75.246319 " stroke="#010101" stroke-width="0.5" stroke-opacity="1" stroke-miterlimit="4"/><g clip-path="url(#3643fe6332)"><path fill="#615b67" d="M 60.445312 46.570312 L 51.558594 46.570312 L 50.175781 44.800781 L 61.828125 44.800781 Z M 60.445312 46.570312 " fill-opacity="1" fill-rule="nonzero"/></g><g clip-path="url(#469d345597)"><g clip-path="url(#ba3b72d073)"><path fill="#010101" d="M 48.71875 43.992188 L 63.289062 43.992188 L 63.289062 45.898438 L 48.71875 45.898438 Z M 48.71875 43.992188 " fill-opacity="1" fill-rule="nonzero"/></g></g><g clip-path="url(#2a22dcca0a)"><path stroke-linecap="butt" transform="matrix(0.240144, 0, 0, 0.238216, 0.28302, 5.036049)" fill="none" stroke-linejoin="round" d="M 250.526232 174.355366 L 213.520392 174.355366 L 207.762121 166.927107 L 256.284504 166.927107 Z M 250.526232 174.355366 " stroke="#010101" stroke-width="0.5" stroke-opacity="1" stroke-miterlimit="4"/></g><path stroke-linecap="butt" transform="matrix(0.240144, 0, 0, 0.238216, 0.28302, 5.036049)" fill-opacity="1" fill="#d1c4dd" fill-rule="nonzero" stroke-linejoin="round" d="M 207.762121 128.539569 L 256.284504 128.539569 L 256.284504 155.743723 L 207.762121 155.743723 Z M 207.762121 128.539569 " stroke="#010101" stroke-width="0.5" stroke-opacity="1" stroke-miterlimit="4"/><path stroke-linecap="butt" transform="matrix(0.240144, 0, 0, 0.238216, 0.28302, 5.036049)" fill-opacity="1" fill="#615b67" fill-rule="nonzero" stroke-linejoin="round" d="M 201.69479 155.743723 L 262.368101 155.743723 L 262.368101 166.910709 L 201.69479 166.910709 Z M 201.69479 155.743723 " stroke="#010101" stroke-width="0.5" stroke-opacity="1" stroke-miterlimit="4"/><path fill="#010101" d="M 54.265625 31.765625 L 57.734375 31.765625 L 57.734375 32.9375 L 54.265625 32.9375 Z M 54.265625 31.765625 " fill-opacity="1" fill-rule="nonzero"/><g clip-path="url(#6d81587074)"><path stroke-linecap="butt" transform="matrix(0.240144, 0, 0, 0.238216, 0.28302, 5.036049)" fill-opacity="1" fill="#d1c4dd" fill-rule="nonzero" stroke-linejoin="round" d="M 270.094595 64.177721 L 461.727915 64.177721 C 462.297236 64.177721 462.785225 64.374496 463.191882 64.784444 C 463.59854 65.194392 463.793736 65.68633 463.793736 66.243859 L 463.793736 121.193299 C 463.793736 121.767227 463.59854 122.259164 463.191882 122.669112 C 462.785225 123.062663 462.297236 123.275836 461.727915 123.275836 L 270.094595 123.275836 C 269.525275 123.275836 269.037285 123.062663 268.630628 122.669112 C 268.22397 122.259164 268.028775 121.767227 268.028775 121.193299 L 268.028775 66.243859 C 268.028775 65.68633 268.22397 65.194392 268.630628 64.784444 C 269.037285 64.374496 269.525275 64.177721 270.094595 64.177721 Z M 270.094595 64.177721 " stroke="#010101" stroke-width="0.5" stroke-opacity="1" stroke-miterlimit="4"/></g><path stroke-linecap="butt" transform="matrix(0.240144, 0, 0, 0.238216, 0.28302, 5.036049)" fill-opacity="1" fill="#615b67" fill-rule="nonzero" stroke-linejoin="round" d="M 271.314568 67.293327 L 287.434475 67.293327 L 287.434475 83.363291 L 271.314568 83.363291 Z M 271.314568 67.293327 " stroke="#010101" stroke-width="0.5" stroke-opacity="1" stroke-miterlimit="4"/><path stroke-linecap="butt" transform="matrix(0.240144, 0, 0, 0.238216, 0.28302, 5.036049)" fill-opacity="1" fill="#615b67" fill-rule="nonzero" stroke-linejoin="round" d="M 271.314568 85.183461 L 287.434475 85.183461 L 287.434475 101.253425 L 271.314568 101.253425 Z M 271.314568 85.183461 " stroke="#010101" stroke-width="0.5" stroke-opacity="1" stroke-miterlimit="4"/><path stroke-linecap="butt" transform="matrix(0.240144, 0, 0, 0.238216, 0.28302, 5.036049)" fill-opacity="1" fill="#615b67" fill-rule="nonzero" stroke-linejoin="round" d="M 271.314568 103.073595 L 287.434475 103.073595 L 287.434475 120.143832 L 271.314568 120.143832 Z M 271.314568 103.073595 " stroke="#010101" stroke-width="0.5" stroke-opacity="1" stroke-miterlimit="4"/><path stroke-linecap="butt" transform="matrix(0.240144, 0, 0, 0.238216, 0.28302, 5.036049)" fill-opacity="1" fill="#615b67" fill-rule="nonzero" stroke-linejoin="round" d="M 288.621915 67.293327 L 304.741821 67.293327 L 304.741821 83.363291 L 288.621915 83.363291 Z M 288.621915 67.293327 " stroke="#010101" stroke-width="0.5" stroke-opacity="1" stroke-miterlimit="4"/><path stroke-linecap="butt" transform="matrix(0.240144, 0, 0, 0.238216, 0.28302, 5.036049)" fill-opacity="1" fill="#615b67" fill-rule="nonzero" stroke-linejoin="round" d="M 288.621915 85.183461 L 304.741821 85.183461 L 304.741821 101.253425 L 288.621915 101.253425 Z M 288.621915 85.183461 " stroke="#010101" stroke-width="0.5" stroke-opacity="1" stroke-miterlimit="4"/><path stroke-linecap="butt" transform="matrix(0.240144, 0, 0, 0.238216, 0.28302, 5.036049)" fill-opacity="1" fill="#615b67" fill-rule="nonzero" stroke-linejoin="round" d="M 288.621915 103.073595 L 304.741821 103.073595 L 304.741821 120.143832 L 288.621915 120.143832 Z M 288.621915 103.073595 " stroke="#010101" stroke-width="0.5" stroke-opacity="1" stroke-miterlimit="4"/><path stroke-linecap="butt" transform="matrix(0.240144, 0, 0, 0.238216, 0.28302, 5.036049)" fill-opacity="1" fill="#615b67" fill-rule="nonzero" stroke-linejoin="round" d="M 305.945528 67.293327 L 322.049168 67.293327 L 322.049168 83.363291 L 305.945528 83.363291 Z M 305.945528 67.293327 " stroke="#010101" stroke-width="0.5" stroke-opacity="1" stroke-miterlimit="4"/><path stroke-linecap="butt" transform="matrix(0.240144, 0, 0, 0.238216, 0.28302, 5.036049)" fill-opacity="1" fill="#615b67" fill-rule="nonzero" stroke-linejoin="round" d="M 305.945528 85.183461 L 322.049168 85.183461 L 322.049168 101.253425 L 305.945528 101.253425 Z M 305.945528 85.183461 " stroke="#010101" stroke-width="0.5" stroke-opacity="1" stroke-miterlimit="4"/><path stroke-linecap="butt" transform="matrix(0.240144, 0, 0, 0.238216, 0.28302, 5.036049)" fill-opacity="1" fill="#615b67" fill-rule="nonzero" stroke-linejoin="round" d="M 305.945528 103.073595 L 322.049168 103.073595 L 322.049168 120.143832 L 305.945528 120.143832 Z M 305.945528 103.073595 " stroke="#010101" stroke-width="0.5" stroke-opacity="1" stroke-miterlimit="4"/><path stroke-linecap="butt" transform="matrix(0.240144, 0, 0, 0.238216, 0.28302, 5.036049)" fill-opacity="1" fill="#615b67" fill-rule="nonzero" stroke-linejoin="round" d="M 323.236608 67.293327 L 339.356515 67.293327 L 339.356515 83.363291 L 323.236608 83.363291 Z M 323.236608 67.293327 " stroke="#010101" stroke-width="0.5" stroke-opacity="1" stroke-miterlimit="4"/><path stroke-linecap="butt" transform="matrix(0.240144, 0, 0, 0.238216, 0.28302, 5.036049)" fill-opacity="1" fill="#615b67" fill-rule="nonzero" stroke-linejoin="round" d="M 323.236608 85.183461 L 339.356515 85.183461 L 339.356515 101.253425 L 323.236608 101.253425 Z M 323.236608 85.183461 " stroke="#010101" stroke-width="0.5" stroke-opacity="1" stroke-miterlimit="4"/><path stroke-linecap="butt" transform="matrix(0.240144, 0, 0, 0.238216, 0.28302, 5.036049)" fill-opacity="1" fill="#615b67" fill-rule="nonzero" stroke-linejoin="round" d="M 323.236608 103.073595 L 339.356515 103.073595 L 339.356515 120.143832 L 323.236608 120.143832 Z M 323.236608 103.073595 " stroke="#010101" stroke-width="0.5" stroke-opacity="1" stroke-miterlimit="4"/><path stroke-linecap="butt" transform="matrix(0.240144, 0, 0, 0.238216, 0.28302, 5.036049)" fill-opacity="1" fill="#615b67" fill-rule="nonzero" stroke-linejoin="round" d="M 340.543955 67.293327 L 356.663862 67.293327 L 356.663862 83.363291 L 340.543955 83.363291 Z M 340.543955 67.293327 " stroke="#010101" stroke-width="0.5" stroke-opacity="1" stroke-miterlimit="4"/><path stroke-linecap="butt" transform="matrix(0.240144, 0, 0, 0.238216, 0.28302, 5.036049)" fill-opacity="1" fill="#615b67" fill-rule="nonzero" stroke-linejoin="round" d="M 340.543955 85.183461 L 356.663862 85.183461 L 356.663862 101.253425 L 340.543955 101.253425 Z M 340.543955 85.183461 " stroke="#010101" stroke-width="0.5" stroke-opacity="1" stroke-miterlimit="4"/><path stroke-linecap="butt" transform="matrix(0.240144, 0, 0, 0.238216, 0.28302, 5.036049)" fill-opacity="1" fill="#615b67" fill-rule="nonzero" stroke-linejoin="round" d="M 340.543955 103.073595 L 356.663862 103.073595 L 356.663862 120.143832 L 340.543955 120.143832 Z M 340.543955 103.073595 " stroke="#010101" stroke-width="0.5" stroke-opacity="1" stroke-miterlimit="4"/><path stroke-linecap="butt" transform="matrix(0.240144, 0, 0, 0.238216, 0.28302, 5.036049)" fill-opacity="1" fill="#615b67" fill-rule="nonzero" stroke-linejoin="round" d="M 357.867568 67.293327 L 373.971208 67.293327 L 373.971208 83.363291 L 357.867568 83.363291 Z M 357.867568 67.293327 " stroke="#010101" stroke-width="0.5" stroke-opacity="1" stroke-miterlimit="4"/><path stroke-linecap="butt" transform="matrix(0.240144, 0, 0, 0.238216, 0.28302, 5.036049)" fill-opacity="1" fill="#615b67" fill-rule="nonzero" stroke-linejoin="round" d="M 357.867568 85.183461 L 373.971208 85.183461 L 373.971208 101.253425 L 357.867568 101.253425 Z M 357.867568 85.183461 " stroke="#010101" stroke-width="0.5" stroke-opacity="1" stroke-miterlimit="4"/><path stroke-linecap="butt" transform="matrix(0.240144, 0, 0, 0.238216, 0.28302, 5.036049)" fill-opacity="1" fill="#615b67" fill-rule="nonzero" stroke-linejoin="round" d="M 357.867568 103.073595 L 373.971208 103.073595 L 373.971208 120.143832 L 357.867568 120.143832 Z M 357.867568 103.073595 " stroke="#010101" stroke-width="0.5" stroke-opacity="1" stroke-miterlimit="4"/><path stroke-linecap="butt" transform="matrix(0.240144, 0, 0, 0.238216, 0.28302, 5.036049)" fill-opacity="1" fill="#615b67" fill-rule="nonzero" stroke-linejoin="round" d="M 375.174915 67.293327 L 391.278555 67.293327 L 391.278555 83.363291 L 375.174915 83.363291 Z M 375.174915 67.293327 " stroke="#010101" stroke-width="0.5" stroke-opacity="1" stroke-miterlimit="4"/><path stroke-linecap="butt" transform="matrix(0.240144, 0, 0, 0.238216, 0.28302, 5.036049)" fill-opacity="1" fill="#615b67" fill-rule="nonzero" stroke-linejoin="round" d="M 375.174915 85.183461 L 391.278555 85.183461 L 391.278555 101.253425 L 375.174915 101.253425 Z M 375.174915 85.183461 " stroke="#010101" stroke-width="0.5" stroke-opacity="1" stroke-miterlimit="4"/><path stroke-linecap="butt" transform="matrix(0.240144, 0, 0, 0.238216, 0.28302, 5.036049)" fill-opacity="1" fill="#615b67" fill-rule="nonzero" stroke-linejoin="round" d="M 375.174915 103.073595 L 391.278555 103.073595 L 391.278555 120.143832 L 375.174915 120.143832 Z M 375.174915 103.073595 " stroke="#010101" stroke-width="0.5" stroke-opacity="1" stroke-miterlimit="4"/><path stroke-linecap="butt" transform="matrix(0.240144, 0, 0, 0.238216, 0.28302, 5.036049)" fill-opacity="1" fill="#615b67" fill-rule="nonzero" stroke-linejoin="round" d="M 392.465995 67.293327 L 408.585902 67.293327 L 408.585902 83.363291 L 392.465995 83.363291 Z M 392.465995 67.293327 " stroke="#010101" stroke-width="0.5" stroke-opacity="1" stroke-miterlimit="4"/><path stroke-linecap="butt" transform="matrix(0.240144, 0, 0, 0.238216, 0.28302, 5.036049)" fill-opacity="1" fill="#615b67" fill-rule="nonzero" stroke-linejoin="round" d="M 392.465995 85.183461 L 408.585902 85.183461 L 408.585902 101.253425 L 392.465995 101.253425 Z M 392.465995 85.183461 " stroke="#010101" stroke-width="0.5" stroke-opacity="1" stroke-miterlimit="4"/><path stroke-linecap="butt" transform="matrix(0.240144, 0, 0, 0.238216, 0.28302, 5.036049)" fill-opacity="1" fill="#615b67" fill-rule="nonzero" stroke-linejoin="round" d="M 392.465995 103.073595 L 408.585902 103.073595 L 408.585902 120.143832 L 392.465995 120.143832 Z M 392.465995 103.073595 " stroke="#010101" stroke-width="0.5" stroke-opacity="1" stroke-miterlimit="4"/><path stroke-linecap="butt" transform="matrix(0.240144, 0, 0, 0.238216, 0.28302, 5.036049)" fill-opacity="1" fill="#615b67" fill-rule="nonzero" stroke-linejoin="round" d="M 409.773342 67.293327 L 425.893249 67.293327 L 425.893249 83.363291 L 409.773342 83.363291 Z M 409.773342 67.293327 " stroke="#010101" stroke-width="0.5" stroke-opacity="1" stroke-miterlimit="4"/><path stroke-linecap="butt" transform="matrix(0.240144, 0, 0, 0.238216, 0.28302, 5.036049)" fill-opacity="1" fill="#615b67" fill-rule="nonzero" stroke-linejoin="round" d="M 409.773342 85.183461 L 425.893249 85.183461 L 425.893249 101.253425 L 409.773342 101.253425 Z M 409.773342 85.183461 " stroke="#010101" stroke-width="0.5" stroke-opacity="1" stroke-miterlimit="4"/><path stroke-linecap="butt" transform="matrix(0.240144, 0, 0, 0.238216, 0.28302, 5.036049)" fill-opacity="1" fill="#615b67" fill-rule="nonzero" stroke-linejoin="round" d="M 409.773342 103.073595 L 425.893249 103.073595 L 425.893249 120.143832 L 409.773342 120.143832 Z M 409.773342 103.073595 " stroke="#010101" stroke-width="0.5" stroke-opacity="1" stroke-miterlimit="4"/><path stroke-linecap="butt" transform="matrix(0.240144, 0, 0, 0.238216, 0.28302, 5.036049)" fill-opacity="1" fill="#615b67" fill-rule="nonzero" stroke-linejoin="round" d="M 427.096955 67.293327 L 443.200596 67.293327 L 443.200596 83.363291 L 427.096955 83.363291 Z M 427.096955 67.293327 " stroke="#010101" stroke-width="0.5" stroke-opacity="1" stroke-miterlimit="4"/><path stroke-linecap="butt" transform="matrix(0.240144, 0, 0, 0.238216, 0.28302, 5.036049)" fill-opacity="1" fill="#615b67" fill-rule="nonzero" stroke-linejoin="round" d="M 427.096955 85.183461 L 443.200596 85.183461 L 443.200596 101.253425 L 427.096955 101.253425 Z M 427.096955 85.183461 " stroke="#010101" stroke-width="0.5" stroke-opacity="1" stroke-miterlimit="4"/><path stroke-linecap="butt" transform="matrix(0.240144, 0, 0, 0.238216, 0.28302, 5.036049)" fill-opacity="1" fill="#615b67" fill-rule="nonzero" stroke-linejoin="round" d="M 427.096955 103.073595 L 443.200596 103.073595 L 443.200596 120.143832 L 427.096955 120.143832 Z M 427.096955 103.073595 " stroke="#010101" stroke-width="0.5" stroke-opacity="1" stroke-miterlimit="4"/><path stroke-linecap="butt" transform="matrix(0.240144, 0, 0, 0.238216, 0.28302, 5.036049)" fill-opacity="1" fill="#615b67" fill-rule="nonzero" stroke-linejoin="round" d="M 444.388036 67.293327 L 460.507942 67.293327 L 460.507942 83.363291 L 444.388036 83.363291 Z M 444.388036 67.293327 " stroke="#010101" stroke-width="0.5" stroke-opacity="1" stroke-miterlimit="4"/><path stroke-linecap="butt" transform="matrix(0.240144, 0, 0, 0.238216, 0.28302, 5.036049)" fill-opacity="1" fill="#615b67" fill-rule="nonzero" stroke-linejoin="round" d="M 444.388036 85.183461 L 460.507942 85.183461 L 460.507942 101.253425 L 444.388036 101.253425 Z M 444.388036 85.183461 " stroke="#010101" stroke-width="0.5" stroke-opacity="1" stroke-miterlimit="4"/><path stroke-linecap="butt" transform="matrix(0.240144, 0, 0, 0.238216, 0.28302, 5.036049)" fill-opacity="1" fill="#615b67" fill-rule="nonzero" stroke-linejoin="round" d="M 444.388036 103.073595 L 460.507942 103.073595 L 460.507942 120.143832 L 444.388036 120.143832 Z M 444.388036 103.073595 " stroke="#010101" stroke-width="0.5" stroke-opacity="1" stroke-miterlimit="4"/><path fill="#010101" d="M 55.058594 18.8125 L 56.941406 18.8125 L 56.941406 21.066406 L 55.058594 21.066406 Z M 55.058594 18.8125 " fill-opacity="1" fill-rule="nonzero"/><path stroke-linecap="butt" transform="matrix(0.240144, 0, 0, 0.238216, 0.28302, 5.036049)" fill="none" stroke-linejoin="round" d="M 212.658278 89.332135 L 251.37208 89.332135 L 251.37208 98.105024 L 212.658278 98.105024 Z M 212.658278 89.332135 " stroke="#010101" stroke-width="0.5" stroke-opacity="1" stroke-miterlimit="4"/><path stroke-linecap="butt" transform="matrix(0.240144, 0, 0, 0.238216, 0.28302, 5.036049)" fill="none" stroke-linejoin="round" d="M 207.762121 141.08398 L 256.284504 141.08398 L 256.284504 143.182914 L 207.762121 143.182914 Z M 207.762121 141.08398 " stroke="#010101" stroke-width="0.5" stroke-opacity="1" stroke-miterlimit="4"/><g mask="url(#7024aa2fe4)"><g transform="matrix(1, 0, 0, 1, 27, 19)"><g clip-path="url(#14d8d0b9a7)"><g clip-path="url(#e013e0a74b)"><g clip-path="url(#0638950872)"><path fill="#e4e4e4" d="M 0.574219 0.605469 L 57.441406 0.605469 L 57.441406 13.398438 L 0.574219 13.398438 Z M 0.574219 0.605469 " fill-opacity="1" fill-rule="nonzero"/></g></g><g fill="#000000" fill-opacity="1"><g transform="translate(12.357565, 9.521092)"><g><path d="M 2.421875 0 L 1.875 0 L 1.875 -3.53125 C 1.875 -3.820312 1.882812 -4.097656 1.90625 -4.359375 C 1.851562 -4.316406 1.796875 -4.269531 1.734375 -4.21875 C 1.679688 -4.164062 1.414062 -3.941406 0.9375 -3.546875 L 0.640625 -3.9375 L 1.953125 -4.953125 L 2.421875 -4.953125 Z M 2.421875 0 "/></g></g></g><g fill="#000000" fill-opacity="1"><g transform="translate(16.32004, 9.521092)"><g><path d="M 3.59375 0 L 0.34375 0 L 0.34375 -0.484375 L 1.640625 -1.796875 C 2.035156 -2.191406 2.296875 -2.472656 2.421875 -2.640625 C 2.554688 -2.816406 2.65625 -2.988281 2.71875 -3.15625 C 2.78125 -3.320312 2.8125 -3.5 2.8125 -3.6875 C 2.8125 -3.945312 2.726562 -4.15625 2.5625 -4.3125 C 2.40625 -4.46875 2.1875 -4.546875 1.90625 -4.546875 C 1.695312 -4.546875 1.5 -4.507812 1.3125 -4.4375 C 1.132812 -4.375 0.929688 -4.253906 0.703125 -4.078125 L 0.40625 -4.453125 C 0.863281 -4.835938 1.359375 -5.03125 1.890625 -5.03125 C 2.359375 -5.03125 2.722656 -4.910156 2.984375 -4.671875 C 3.253906 -4.429688 3.390625 -4.109375 3.390625 -3.703125 C 3.390625 -3.390625 3.300781 -3.078125 3.125 -2.765625 C 2.945312 -2.460938 2.613281 -2.078125 2.125 -1.609375 L 1.046875 -0.546875 L 1.046875 -0.515625 L 3.59375 -0.515625 Z M 3.59375 0 "/></g></g></g><g fill="#000000" fill-opacity="1"><g transform="translate(20.282516, 9.521092)"><g><path d="M 3.40625 -3.78125 C 3.40625 -3.46875 3.316406 -3.207031 3.140625 -3 C 2.960938 -2.800781 2.710938 -2.671875 2.390625 -2.609375 L 2.390625 -2.578125 C 2.785156 -2.523438 3.078125 -2.394531 3.265625 -2.1875 C 3.460938 -1.988281 3.5625 -1.726562 3.5625 -1.40625 C 3.5625 -0.925781 3.394531 -0.5625 3.0625 -0.3125 C 2.738281 -0.0625 2.273438 0.0625 1.671875 0.0625 C 1.410156 0.0625 1.171875 0.0390625 0.953125 0 C 0.734375 -0.03125 0.519531 -0.0976562 0.3125 -0.203125 L 0.3125 -0.734375 C 0.53125 -0.628906 0.757812 -0.546875 1 -0.484375 C 1.25 -0.429688 1.476562 -0.40625 1.6875 -0.40625 C 2.550781 -0.40625 2.984375 -0.742188 2.984375 -1.421875 C 2.984375 -2.015625 2.507812 -2.3125 1.5625 -2.3125 L 1.078125 -2.3125 L 1.078125 -2.796875 L 1.5625 -2.796875 C 1.945312 -2.796875 2.253906 -2.878906 2.484375 -3.046875 C 2.710938 -3.222656 2.828125 -3.460938 2.828125 -3.765625 C 2.828125 -4.003906 2.742188 -4.191406 2.578125 -4.328125 C 2.410156 -4.472656 2.1875 -4.546875 1.90625 -4.546875 C 1.6875 -4.546875 1.476562 -4.515625 1.28125 -4.453125 C 1.09375 -4.390625 0.875 -4.28125 0.625 -4.125 L 0.34375 -4.515625 C 0.550781 -4.671875 0.785156 -4.796875 1.046875 -4.890625 C 1.316406 -4.984375 1.597656 -5.03125 1.890625 -5.03125 C 2.367188 -5.03125 2.738281 -4.914062 3 -4.6875 C 3.269531 -4.46875 3.40625 -4.164062 3.40625 -3.78125 Z M 3.40625 -3.78125 "/></g></g></g><g fill="#000000" fill-opacity="1"><g transform="translate(24.244991, 9.521092)"><g><path d="M 0.515625 -0.359375 C 0.515625 -0.515625 0.546875 -0.628906 0.609375 -0.703125 C 0.679688 -0.773438 0.785156 -0.8125 0.921875 -0.8125 C 1.046875 -0.8125 1.144531 -0.773438 1.21875 -0.703125 C 1.289062 -0.628906 1.328125 -0.515625 1.328125 -0.359375 C 1.328125 -0.210938 1.289062 -0.0976562 1.21875 -0.015625 C 1.144531 0.0546875 1.046875 0.09375 0.921875 0.09375 C 0.796875 0.09375 0.695312 0.0625 0.625 0 C 0.550781 -0.0703125 0.515625 -0.191406 0.515625 -0.359375 Z M 0.515625 -0.359375 "/></g></g></g><g fill="#000000" fill-opacity="1"><g transform="translate(26.089187, 9.521092)"><g><path d="M 1.984375 -5.03125 C 2.429688 -5.03125 2.785156 -4.921875 3.046875 -4.703125 C 3.316406 -4.492188 3.453125 -4.207031 3.453125 -3.84375 C 3.453125 -3.59375 3.375 -3.367188 3.21875 -3.171875 C 3.070312 -2.972656 2.832031 -2.789062 2.5 -2.625 C 2.894531 -2.425781 3.175781 -2.222656 3.34375 -2.015625 C 3.519531 -1.804688 3.609375 -1.5625 3.609375 -1.28125 C 3.609375 -0.875 3.460938 -0.546875 3.171875 -0.296875 C 2.890625 -0.0546875 2.5 0.0625 2 0.0625 C 1.46875 0.0625 1.0625 -0.0507812 0.78125 -0.28125 C 0.5 -0.507812 0.359375 -0.835938 0.359375 -1.265625 C 0.359375 -1.828125 0.703125 -2.269531 1.390625 -2.59375 C 1.078125 -2.769531 0.851562 -2.957031 0.71875 -3.15625 C 0.582031 -3.363281 0.515625 -3.59375 0.515625 -3.84375 C 0.515625 -4.207031 0.644531 -4.492188 0.90625 -4.703125 C 1.175781 -4.921875 1.535156 -5.03125 1.984375 -5.03125 Z M 0.90625 -1.25 C 0.90625 -0.976562 1 -0.765625 1.1875 -0.609375 C 1.375 -0.460938 1.640625 -0.390625 1.984375 -0.390625 C 2.316406 -0.390625 2.578125 -0.46875 2.765625 -0.625 C 2.953125 -0.78125 3.046875 -1 3.046875 -1.28125 C 3.046875 -1.5 2.957031 -1.691406 2.78125 -1.859375 C 2.613281 -2.023438 2.304688 -2.191406 1.859375 -2.359375 C 1.523438 -2.210938 1.28125 -2.050781 1.125 -1.875 C 0.976562 -1.695312 0.90625 -1.488281 0.90625 -1.25 Z M 1.96875 -4.5625 C 1.6875 -4.5625 1.460938 -4.492188 1.296875 -4.359375 C 1.140625 -4.222656 1.0625 -4.046875 1.0625 -3.828125 C 1.0625 -3.617188 1.128906 -3.4375 1.265625 -3.28125 C 1.398438 -3.132812 1.644531 -2.988281 2 -2.84375 C 2.320312 -2.976562 2.550781 -3.125 2.6875 -3.28125 C 2.820312 -3.4375 2.890625 -3.617188 2.890625 -3.828125 C 2.890625 -4.046875 2.804688 -4.222656 2.640625 -4.359375 C 2.484375 -4.492188 2.257812 -4.5625 1.96875 -4.5625 Z M 1.96875 -4.5625 "/></g></g></g><g fill="#000000" fill-opacity="1"><g transform="translate(30.051662, 9.521092)"><g><path d="M 3.59375 -2.84375 C 3.59375 -0.90625 2.84375 0.0625 1.34375 0.0625 C 1.082031 0.0625 0.875 0.0390625 0.71875 0 L 0.71875 -0.484375 C 0.90625 -0.421875 1.113281 -0.390625 1.34375 -0.390625 C 1.882812 -0.390625 2.289062 -0.554688 2.5625 -0.890625 C 2.84375 -1.234375 2.992188 -1.75 3.015625 -2.4375 L 2.984375 -2.4375 C 2.859375 -2.25 2.691406 -2.101562 2.484375 -2 C 2.273438 -1.90625 2.039062 -1.859375 1.78125 -1.859375 C 1.34375 -1.859375 0.992188 -1.988281 0.734375 -2.25 C 0.484375 -2.519531 0.359375 -2.890625 0.359375 -3.359375 C 0.359375 -3.867188 0.5 -4.273438 0.78125 -4.578125 C 1.070312 -4.878906 1.453125 -5.03125 1.921875 -5.03125 C 2.265625 -5.03125 2.5625 -4.941406 2.8125 -4.765625 C 3.0625 -4.585938 3.253906 -4.332031 3.390625 -4 C 3.523438 -3.675781 3.59375 -3.289062 3.59375 -2.84375 Z M 1.921875 -4.546875 C 1.597656 -4.546875 1.347656 -4.441406 1.171875 -4.234375 C 1.003906 -4.023438 0.921875 -3.734375 0.921875 -3.359375 C 0.921875 -3.035156 1 -2.78125 1.15625 -2.59375 C 1.320312 -2.40625 1.570312 -2.3125 1.90625 -2.3125 C 2.101562 -2.3125 2.289062 -2.351562 2.46875 -2.4375 C 2.644531 -2.519531 2.78125 -2.632812 2.875 -2.78125 C 2.976562 -2.925781 3.03125 -3.078125 3.03125 -3.234375 C 3.03125 -3.472656 2.984375 -3.691406 2.890625 -3.890625 C 2.796875 -4.097656 2.664062 -4.257812 2.5 -4.375 C 2.332031 -4.488281 2.140625 -4.546875 1.921875 -4.546875 Z M 1.921875 -4.546875 "/></g></g></g><g fill="#000000" fill-opacity="1"><g transform="translate(34.014138, 9.521092)"><g><path d="M 0.515625 -0.359375 C 0.515625 -0.515625 0.546875 -0.628906 0.609375 -0.703125 C 0.679688 -0.773438 0.785156 -0.8125 0.921875 -0.8125 C 1.046875 -0.8125 1.144531 -0.773438 1.21875 -0.703125 C 1.289062 -0.628906 1.328125 -0.515625 1.328125 -0.359375 C 1.328125 -0.210938 1.289062 -0.0976562 1.21875 -0.015625 C 1.144531 0.0546875 1.046875 0.09375 0.921875 0.09375 C 0.796875 0.09375 0.695312 0.0625 0.625 0 C 0.550781 -0.0703125 0.515625 -0.191406 0.515625 -0.359375 Z M 0.515625 -0.359375 "/></g></g></g><g fill="#000000" fill-opacity="1"><g transform="translate(35.858333, 9.521092)"><g><path d="M 3.625 -2.484375 C 3.625 -1.628906 3.488281 -0.988281 3.21875 -0.5625 C 2.945312 -0.144531 2.535156 0.0625 1.984375 0.0625 C 1.441406 0.0625 1.03125 -0.148438 0.75 -0.578125 C 0.476562 -1.015625 0.34375 -1.648438 0.34375 -2.484375 C 0.34375 -3.347656 0.476562 -3.988281 0.75 -4.40625 C 1.019531 -4.820312 1.429688 -5.03125 1.984375 -5.03125 C 2.515625 -5.03125 2.921875 -4.8125 3.203125 -4.375 C 3.484375 -3.9375 3.625 -3.304688 3.625 -2.484375 Z M 0.921875 -2.484375 C 0.921875 -1.765625 1.003906 -1.238281 1.171875 -0.90625 C 1.335938 -0.582031 1.609375 -0.421875 1.984375 -0.421875 C 2.359375 -0.421875 2.628906 -0.585938 2.796875 -0.921875 C 2.960938 -1.253906 3.046875 -1.773438 3.046875 -2.484375 C 3.046875 -3.191406 2.960938 -3.710938 2.796875 -4.046875 C 2.628906 -4.378906 2.359375 -4.546875 1.984375 -4.546875 C 1.609375 -4.546875 1.335938 -4.378906 1.171875 -4.046875 C 1.003906 -3.722656 0.921875 -3.203125 0.921875 -2.484375 Z M 0.921875 -2.484375 "/></g></g></g><g fill="#000000" fill-opacity="1"><g transform="translate(39.820809, 9.521092)"><g><path d="M 0.515625 -0.359375 C 0.515625 -0.515625 0.546875 -0.628906 0.609375 -0.703125 C 0.679688 -0.773438 0.785156 -0.8125 0.921875 -0.8125 C 1.046875 -0.8125 1.144531 -0.773438 1.21875 -0.703125 C 1.289062 -0.628906 1.328125 -0.515625 1.328125 -0.359375 C 1.328125 -0.210938 1.289062 -0.0976562 1.21875 -0.015625 C 1.144531 0.0546875 1.046875 0.09375 0.921875 0.09375 C 0.796875 0.09375 0.695312 0.0625 0.625 0 C 0.550781 -0.0703125 0.515625 -0.191406 0.515625 -0.359375 Z M 0.515625 -0.359375 "/></g></g></g><g fill="#000000" fill-opacity="1"><g transform="translate(41.665004, 9.521092)"><g><path d="M 2.421875 0 L 1.875 0 L 1.875 -3.53125 C 1.875 -3.820312 1.882812 -4.097656 1.90625 -4.359375 C 1.851562 -4.316406 1.796875 -4.269531 1.734375 -4.21875 C 1.679688 -4.164062 1.414062 -3.941406 0.9375 -3.546875 L 0.640625 -3.9375 L 1.953125 -4.953125 L 2.421875 -4.953125 Z M 2.421875 0 "/></g></g></g></g></g></g></svg>