<svg xmlns="http://www.w3.org/2000/svg" xmlns:xlink="http://www.w3.org/1999/xlink" width="90" zoomAndPan="magnify" viewBox="0 0 67.5 52.499999" height="70" preserveAspectRatio="xMidYMid meet" version="1.0"><defs><filter x="0%" y="0%" width="100%" height="100%" id="40c3816a04"><feColorMatrix values="0 0 0 0 1 0 0 0 0 1 0 0 0 0 1 0 0 0 1 0" color-interpolation-filters="sRGB"/></filter><g/><clipPath id="fb93771863"><path d="M 5.679688 0 L 25 0 L 25 50 L 5.679688 50 Z M 5.679688 0 " clip-rule="nonzero"/></clipPath><clipPath id="c077c93ed6"><path d="M 5.679688 0 L 30 0 L 30 52.003906 L 5.679688 52.003906 Z M 5.679688 0 " clip-rule="nonzero"/></clipPath><clipPath id="29c5241225"><path d="M 42 0 L 61.398438 0 L 61.398438 50 L 42 50 Z M 42 0 " clip-rule="nonzero"/></clipPath><clipPath id="3ee5fedb4b"><path d="M 37 0 L 61.398438 0 L 61.398438 52.003906 L 37 52.003906 Z M 37 0 " clip-rule="nonzero"/></clipPath><clipPath id="a9e98f81a2"><path d="M 5.679688 49 L 61.398438 49 L 61.398438 52 L 5.679688 52 Z M 5.679688 49 " clip-rule="nonzero"/></clipPath><clipPath id="0d97a07e3d"><path d="M 5.679688 37 L 61.398438 37 L 61.398438 51 L 5.679688 51 Z M 5.679688 37 " clip-rule="nonzero"/></clipPath><clipPath id="4c531a8f2e"><path d="M 5.679688 32 L 61.398438 32 L 61.398438 52.003906 L 5.679688 52.003906 Z M 5.679688 32 " clip-rule="nonzero"/></clipPath><clipPath id="794b08e5a9"><path d="M 51 39 L 61.398438 39 L 61.398438 52 L 51 52 Z M 51 39 " clip-rule="nonzero"/></clipPath><mask id="94e6349ee1"><g filter="url(#40c3816a04)"><rect x="-6.75" width="81" fill="#000000" y="-5.25" height="62.999998" fill-opacity="0.8"/></g></mask><clipPath id="9d7f481183"><path d="M 0.0742188 0.605469 L 56.941406 0.605469 L 56.941406 13.398438 L 0.0742188 13.398438 Z M 0.0742188 0.605469 " clip-rule="nonzero"/></clipPath><clipPath id="ca71eab5a3"><path d="M 6.472656 0.605469 L 50.53125 0.605469 C 54.066406 0.605469 56.929688 3.46875 56.929688 7.003906 C 56.929688 10.535156 54.066406 13.398438 50.53125 13.398438 L 6.472656 13.398438 C 2.9375 13.398438 0.0742188 10.535156 0.0742188 7.003906 C 0.0742188 3.46875 2.9375 0.605469 6.472656 0.605469 Z M 6.472656 0.605469 " clip-rule="nonzero"/></clipPath><clipPath id="ca36aa75b6"><rect x="0" width="58" y="0" height="14"/></clipPath></defs><g clip-path="url(#fb93771863)"><path fill="#615b67" d="M 23.289062 49.429688 L 22.882812 49.558594 C 21.671875 49.949219 20.34375 49.121094 19.917969 47.730469 L 5.886719 1.726562 C 5.738281 1.21875 6.191406 0.628906 6.90625 0.398438 L 7.144531 0.320312 C 7.859375 0.0898438 8.574219 0.304688 8.753906 0.800781 L 24.609375 46.207031 C 25.085938 47.578125 24.5 49.03125 23.292969 49.421875 Z M 23.289062 49.429688 " fill-opacity="1" fill-rule="nonzero"/></g><g clip-path="url(#c077c93ed6)"><path stroke-linecap="butt" transform="matrix(0.72166, 0, 0, 0.720607, 5.678823, 0.0460863)" fill="none" stroke-linejoin="miter" d="M 24.402418 68.530546 L 23.839479 68.709432 C 22.161489 69.251509 20.321113 68.102305 19.731111 66.172508 L 0.28808 2.332028 C 0.0823905 1.627327 0.710283 0.80879 1.700839 0.488964 L 2.031024 0.380549 C 3.021579 0.060723 4.012134 0.358866 4.261127 1.047304 L 26.231968 64.058406 C 26.892338 65.961098 26.080408 67.977627 24.407831 68.519705 Z M 24.402418 68.530546 " stroke="#010101" stroke-width="0.5" stroke-opacity="1" stroke-miterlimit="10"/></g><g clip-path="url(#29c5241225)"><path fill="#615b67" d="M 43.789062 49.429688 L 44.195312 49.558594 C 45.40625 49.949219 46.734375 49.121094 47.160156 47.730469 L 61.183594 1.726562 C 61.332031 1.21875 60.878906 0.621094 60.171875 0.390625 L 59.933594 0.3125 C 59.21875 0.0820312 58.503906 0.296875 58.324219 0.796875 L 42.46875 46.199219 C 41.992188 47.570312 42.578125 49.027344 43.78125 49.414062 Z M 43.789062 49.429688 " fill-opacity="1" fill-rule="nonzero"/></g><g clip-path="url(#3ee5fedb4b)"><path stroke-linecap="butt" transform="matrix(0.72166, 0, 0, 0.720607, 5.678823, 0.0460863)" fill="none" stroke-linejoin="miter" d="M 52.809162 68.530546 L 53.372101 68.709432 C 55.050091 69.251509 56.890467 68.102305 57.48047 66.172508 L 76.912675 2.332028 C 77.118364 1.627327 76.490471 0.797949 75.510741 0.478123 L 75.180556 0.369707 C 74.190001 0.0498814 73.199446 0.348024 72.950454 1.041883 L 50.979612 64.047564 C 50.319242 65.950257 51.131173 67.972206 52.798337 68.508863 Z M 52.809162 68.530546 " stroke="#010101" stroke-width="0.5" stroke-opacity="1" stroke-miterlimit="10"/></g><path fill="#010101" d="M 21.257812 36.476562 C 21.355469 36.792969 21.441406 37.113281 21.507812 37.429688 C 21.578125 37.75 21.628906 38.066406 21.664062 38.375 C 21.703125 38.6875 21.71875 38.984375 21.71875 39.273438 C 21.71875 39.5625 21.703125 39.835938 21.667969 40.09375 C 21.632812 40.351562 21.582031 40.585938 21.515625 40.800781 C 21.445312 41.015625 21.363281 41.203125 21.261719 41.367188 C 21.164062 41.53125 21.050781 41.667969 20.925781 41.777344 C 20.800781 41.882812 20.660156 41.960938 20.511719 42.007812 C 20.363281 42.054688 20.207031 42.070312 20.042969 42.054688 C 19.875 42.039062 19.707031 41.992188 19.53125 41.914062 C 19.355469 41.835938 19.175781 41.730469 19 41.59375 C 18.820312 41.457031 18.640625 41.292969 18.464844 41.101562 C 18.289062 40.910156 18.121094 40.695312 17.953125 40.460938 C 17.789062 40.222656 17.632812 39.96875 17.480469 39.691406 C 17.332031 39.417969 17.195312 39.128906 17.066406 38.828125 C 16.941406 38.527344 16.828125 38.21875 16.726562 37.902344 C 16.628906 37.585938 16.542969 37.269531 16.472656 36.949219 C 16.40625 36.628906 16.351562 36.316406 16.316406 36.003906 C 16.28125 35.695312 16.265625 35.394531 16.265625 35.105469 C 16.261719 34.816406 16.28125 34.542969 16.316406 34.289062 C 16.347656 34.03125 16.402344 33.796875 16.46875 33.582031 C 16.535156 33.367188 16.621094 33.175781 16.71875 33.011719 C 16.820312 32.847656 16.929688 32.710938 17.058594 32.605469 C 17.183594 32.496094 17.320312 32.417969 17.46875 32.371094 C 17.617188 32.324219 17.777344 32.3125 17.941406 32.328125 C 18.105469 32.34375 18.277344 32.390625 18.453125 32.464844 C 18.628906 32.542969 18.804688 32.652344 18.984375 32.789062 C 19.164062 32.925781 19.339844 33.089844 19.515625 33.28125 C 19.691406 33.46875 19.863281 33.683594 20.027344 33.921875 C 20.195312 34.160156 20.351562 34.414062 20.5 34.6875 C 20.652344 34.960938 20.789062 35.25 20.914062 35.550781 C 21.042969 35.851562 21.15625 36.160156 21.257812 36.476562 Z M 21.257812 36.476562 " fill-opacity="1" fill-rule="nonzero"/><path fill="#010101" d="M 49.460938 32.378906 C 49.609375 32.425781 49.75 32.5 49.875 32.609375 C 50 32.714844 50.113281 32.851562 50.214844 33.015625 C 50.3125 33.179688 50.394531 33.371094 50.464844 33.585938 C 50.53125 33.800781 50.582031 34.035156 50.617188 34.292969 C 50.652344 34.550781 50.667969 34.820312 50.667969 35.109375 C 50.667969 35.398438 50.652344 35.699219 50.617188 36.011719 C 50.582031 36.320312 50.527344 36.636719 50.460938 36.953125 C 50.390625 37.273438 50.304688 37.589844 50.207031 37.90625 C 50.105469 38.222656 49.992188 38.53125 49.867188 38.835938 C 49.738281 39.136719 49.601562 39.421875 49.453125 39.695312 C 49.300781 39.972656 49.144531 40.226562 48.980469 40.464844 C 48.8125 40.703125 48.644531 40.914062 48.46875 41.105469 C 48.292969 41.296875 48.113281 41.460938 47.933594 41.597656 C 47.753906 41.734375 47.578125 41.839844 47.402344 41.917969 C 47.226562 41.996094 47.054688 42.042969 46.890625 42.058594 C 46.726562 42.074219 46.570312 42.058594 46.421875 42.011719 C 46.273438 41.964844 46.132812 41.886719 46.007812 41.78125 C 45.882812 41.671875 45.769531 41.539062 45.667969 41.375 C 45.570312 41.207031 45.488281 41.019531 45.417969 40.804688 C 45.351562 40.589844 45.300781 40.355469 45.265625 40.097656 C 45.230469 39.839844 45.214844 39.566406 45.214844 39.277344 C 45.214844 38.988281 45.230469 38.691406 45.265625 38.378906 C 45.300781 38.070312 45.355469 37.753906 45.421875 37.4375 C 45.492188 37.117188 45.578125 36.796875 45.675781 36.480469 C 45.777344 36.164062 45.890625 35.855469 46.015625 35.554688 C 46.144531 35.253906 46.28125 34.96875 46.429688 34.691406 C 46.582031 34.417969 46.738281 34.164062 46.902344 33.925781 C 47.070312 33.6875 47.238281 33.476562 47.414062 33.285156 C 47.589844 33.09375 47.769531 32.929688 47.949219 32.792969 C 48.128906 32.65625 48.304688 32.550781 48.480469 32.472656 C 48.65625 32.394531 48.828125 32.347656 48.992188 32.332031 C 49.15625 32.316406 49.3125 32.332031 49.460938 32.378906 Z M 49.460938 32.378906 " fill-opacity="1" fill-rule="nonzero"/><g clip-path="url(#a9e98f81a2)"><path fill="#010101" d="M 7.300781 49.078125 L 59.773438 49.078125 C 59.964844 49.078125 60.148438 49.113281 60.328125 49.1875 C 60.503906 49.257812 60.660156 49.363281 60.796875 49.5 C 60.929688 49.632812 61.035156 49.789062 61.109375 49.964844 C 61.179688 50.140625 61.21875 50.328125 61.21875 50.515625 C 61.21875 50.707031 61.179688 50.890625 61.109375 51.070312 C 61.035156 51.246094 60.929688 51.402344 60.796875 51.535156 C 60.660156 51.671875 60.503906 51.777344 60.328125 51.847656 C 60.148438 51.921875 59.964844 51.957031 59.773438 51.957031 L 7.300781 51.957031 C 7.109375 51.957031 6.925781 51.921875 6.75 51.847656 C 6.574219 51.777344 6.417969 51.671875 6.28125 51.535156 C 6.148438 51.402344 6.042969 51.246094 5.96875 51.070312 C 5.894531 50.890625 5.859375 50.707031 5.859375 50.515625 C 5.859375 50.328125 5.894531 50.140625 5.96875 49.964844 C 6.042969 49.789062 6.148438 49.632812 6.28125 49.5 C 6.417969 49.363281 6.574219 49.257812 6.75 49.1875 C 6.925781 49.113281 7.109375 49.078125 7.300781 49.078125 Z M 7.300781 49.078125 " fill-opacity="1" fill-rule="nonzero"/></g><g clip-path="url(#0d97a07e3d)"><path fill="#615b67" d="M 7.300781 37.613281 L 59.773438 37.613281 C 59.964844 37.613281 60.148438 37.648438 60.328125 37.722656 C 60.503906 37.792969 60.660156 37.898438 60.796875 38.035156 C 60.929688 38.167969 61.035156 38.324219 61.109375 38.5 C 61.179688 38.675781 61.21875 38.863281 61.21875 39.050781 L 61.21875 48.585938 C 61.21875 48.777344 61.179688 48.960938 61.109375 49.136719 C 61.035156 49.3125 60.929688 49.46875 60.796875 49.605469 C 60.660156 49.742188 60.503906 49.84375 60.328125 49.917969 C 60.148438 49.992188 59.964844 50.027344 59.773438 50.027344 L 7.300781 50.027344 C 7.109375 50.027344 6.925781 49.992188 6.75 49.917969 C 6.574219 49.84375 6.417969 49.742188 6.28125 49.605469 C 6.148438 49.46875 6.042969 49.3125 5.96875 49.136719 C 5.894531 48.960938 5.859375 48.777344 5.859375 48.585938 L 5.859375 39.050781 C 5.859375 38.863281 5.894531 38.675781 5.96875 38.5 C 6.042969 38.324219 6.148438 38.167969 6.28125 38.035156 C 6.417969 37.898438 6.574219 37.792969 6.75 37.722656 C 6.925781 37.648438 7.109375 37.613281 7.300781 37.613281 Z M 7.300781 37.613281 " fill-opacity="1" fill-rule="nonzero"/></g><g clip-path="url(#4c531a8f2e)"><path stroke-linecap="butt" transform="matrix(0.72166, 0, 0, 0.720607, 5.678823, 0.0460863)" fill="none" stroke-linejoin="miter" d="M 2.247539 52.132698 L 74.958629 52.132698 C 75.223859 52.132698 75.478264 52.181485 75.727256 52.28448 C 75.970835 52.382054 76.18735 52.528415 76.376801 52.718142 C 76.560838 52.902449 76.706986 53.11928 76.80983 53.363214 C 76.907262 53.607149 76.961391 53.867347 76.961391 54.127544 L 76.961391 67.359658 C 76.961391 67.625276 76.907262 67.880053 76.80983 68.123988 C 76.706986 68.367923 76.560838 68.584754 76.376801 68.774481 C 76.18735 68.964208 75.970835 69.105148 75.727256 69.208143 C 75.478264 69.311138 75.223859 69.359925 74.958629 69.359925 L 2.247539 69.359925 C 1.982308 69.359925 1.727903 69.311138 1.484324 69.208143 C 1.240745 69.105148 1.02423 68.964208 0.834779 68.774481 C 0.650742 68.584754 0.504594 68.367923 0.40175 68.123988 C 0.298905 67.880053 0.250189 67.625276 0.250189 67.359658 L 0.250189 54.127544 C 0.250189 53.867347 0.298905 53.607149 0.40175 53.363214 C 0.504594 53.11928 0.650742 52.902449 0.834779 52.718142 C 1.02423 52.528415 1.240745 52.382054 1.484324 52.28448 C 1.727903 52.181485 1.982308 52.132698 2.247539 52.132698 Z M 2.247539 52.132698 " stroke="#010101" stroke-width="0.5" stroke-opacity="1" stroke-miterlimit="10"/></g><path stroke-linecap="butt" transform="matrix(0.72166, 0, 0, 0.720607, 5.678823, 0.0460863)" fill-opacity="1" fill="#fec75f" fill-rule="nonzero" stroke-linejoin="miter" d="M 4.910671 55.190016 L 12.60236 55.190016 L 12.60236 57.157758 L 4.910671 57.157758 Z M 4.910671 55.190016 " stroke="#010101" stroke-width="0.5" stroke-opacity="1" stroke-miterlimit="10"/><path stroke-linecap="butt" transform="matrix(0.72166, 0, 0, 0.720607, 5.678823, 0.0460863)" fill-opacity="1" fill="#ffffff" fill-rule="nonzero" stroke-linejoin="miter" d="M 28.537851 55.190016 L 36.22954 55.190016 L 36.22954 57.157758 L 28.537851 57.157758 Z M 28.537851 55.190016 " stroke="#010101" stroke-width="0.5" stroke-opacity="1" stroke-miterlimit="10"/><path stroke-linecap="butt" transform="matrix(0.72166, 0, 0, 0.720607, 5.678823, 0.0460863)" fill-opacity="1" fill="#67c189" fill-rule="nonzero" stroke-linejoin="miter" d="M 42.270303 55.190016 L 49.961993 55.190016 L 49.961993 57.157758 L 42.270303 57.157758 Z M 42.270303 55.190016 " stroke="#010101" stroke-width="0.5" stroke-opacity="1" stroke-miterlimit="10"/><path stroke-linecap="butt" transform="matrix(0.72166, 0, 0, 0.720607, 5.678823, 0.0460863)" fill-opacity="1" fill="#ffffff" fill-rule="nonzero" stroke-linejoin="miter" d="M 49.961993 55.190016 L 57.648269 55.190016 L 57.648269 57.157758 L 49.961993 57.157758 Z M 49.961993 55.190016 " stroke="#010101" stroke-width="0.5" stroke-opacity="1" stroke-miterlimit="10"/><path stroke-linecap="butt" transform="matrix(0.72166, 0, 0, 0.720607, 5.678823, 0.0460863)" fill-opacity="1" fill="#67c189" fill-rule="nonzero" stroke-linejoin="miter" d="M 63.678206 55.190016 L 72.880086 55.190016 L 72.880086 57.157758 L 63.678206 57.157758 Z M 63.678206 55.190016 " stroke="#010101" stroke-width="0.5" stroke-opacity="1" stroke-miterlimit="10"/><path stroke-linecap="butt" transform="matrix(0.72166, 0, 0, 0.720607, 5.678823, 0.0460863)" fill-opacity="1" fill="#67c189" fill-rule="nonzero" stroke-linejoin="miter" d="M 36.22954 55.190016 L 39.249922 55.190016 L 39.249922 57.157758 L 36.22954 57.157758 Z M 36.22954 55.190016 " stroke="#010101" stroke-width="0.5" stroke-opacity="1" stroke-miterlimit="10"/><path stroke-linecap="butt" transform="matrix(0.72166, 0, 0, 0.720607, 5.678823, 0.0460863)" fill-opacity="1" fill="#fec75f" fill-rule="nonzero" stroke-linejoin="miter" d="M 39.249922 55.190016 L 42.270303 55.190016 L 42.270303 57.157758 L 39.249922 57.157758 Z M 39.249922 55.190016 " stroke="#010101" stroke-width="0.5" stroke-opacity="1" stroke-miterlimit="10"/><path stroke-linecap="butt" transform="matrix(0.72166, 0, 0, 0.720607, 5.678823, 0.0460863)" fill-opacity="1" fill="#fec75f" fill-rule="nonzero" stroke-linejoin="miter" d="M 57.648269 55.190016 L 60.66865 55.190016 L 60.66865 57.157758 L 57.648269 57.157758 Z M 57.648269 55.190016 " stroke="#010101" stroke-width="0.5" stroke-opacity="1" stroke-miterlimit="10"/><path stroke-linecap="butt" transform="matrix(0.72166, 0, 0, 0.720607, 5.678823, 0.0460863)" fill-opacity="1" fill="#77acdd" fill-rule="nonzero" stroke-linejoin="miter" d="M 60.66865 55.190016 L 63.689032 55.190016 L 63.689032 57.157758 L 60.66865 57.157758 Z M 60.66865 55.190016 " stroke="#010101" stroke-width="0.5" stroke-opacity="1" stroke-miterlimit="10"/><path fill="#67c189" d="M 57.5625 44.671875 C 57.757812 44.671875 57.925781 44.742188 58.066406 44.882812 C 58.203125 45.019531 58.273438 45.1875 58.273438 45.382812 C 58.273438 45.578125 58.203125 45.746094 58.066406 45.886719 C 57.925781 46.023438 57.757812 46.09375 57.5625 46.09375 C 57.367188 46.09375 57.199219 46.023438 57.058594 45.886719 C 56.921875 45.746094 56.851562 45.578125 56.851562 45.382812 C 56.851562 45.1875 56.921875 45.019531 57.058594 44.882812 C 57.199219 44.742188 57.367188 44.671875 57.5625 44.671875 Z M 57.5625 44.671875 " fill-opacity="1" fill-rule="nonzero"/><g clip-path="url(#794b08e5a9)"><path stroke-linecap="butt" transform="matrix(0.72166, 0, 0, 0.720607, 5.678823, 0.0460863)" fill="none" stroke-linejoin="miter" d="M 71.894944 61.928041 C 72.165587 61.928041 72.398341 62.025615 72.593204 62.220763 C 72.782655 62.41049 72.880086 62.643583 72.880086 62.914622 C 72.880086 63.185661 72.782655 63.418754 72.593204 63.613902 C 72.398341 63.803629 72.165587 63.901203 71.894944 63.901203 C 71.6243 63.901203 71.391547 63.803629 71.196684 63.613902 C 71.007233 63.418754 70.909802 63.185661 70.909802 62.914622 C 70.909802 62.643583 71.007233 62.41049 71.196684 62.220763 C 71.391547 62.025615 71.6243 61.928041 71.894944 61.928041 Z M 71.894944 61.928041 " stroke="#010101" stroke-width="0.5" stroke-opacity="1" stroke-miterlimit="10"/></g><g mask="url(#94e6349ee1)"><g transform="matrix(1, 0, 0, 1, 5, 19)"><g clip-path="url(#ca36aa75b6)"><g clip-path="url(#9d7f481183)"><g clip-path="url(#ca71eab5a3)"><path fill="#e4e4e4" d="M 0.0742188 0.605469 L 56.941406 0.605469 L 56.941406 13.398438 L 0.0742188 13.398438 Z M 0.0742188 0.605469 " fill-opacity="1" fill-rule="nonzero"/></g></g><g fill="#000000" fill-opacity="1"><g transform="translate(9.872565, 9.521092)"><g><path d="M 1.890625 -3.03125 C 2.410156 -3.03125 2.816406 -2.898438 3.109375 -2.640625 C 3.410156 -2.378906 3.5625 -2.023438 3.5625 -1.578125 C 3.5625 -1.066406 3.398438 -0.664062 3.078125 -0.375 C 2.753906 -0.0820312 2.304688 0.0625 1.734375 0.0625 C 1.171875 0.0625 0.742188 -0.0234375 0.453125 -0.203125 L 0.453125 -0.734375 C 0.609375 -0.640625 0.800781 -0.5625 1.03125 -0.5 C 1.269531 -0.445312 1.503906 -0.421875 1.734375 -0.421875 C 2.128906 -0.421875 2.4375 -0.515625 2.65625 -0.703125 C 2.875 -0.890625 2.984375 -1.160156 2.984375 -1.515625 C 2.984375 -2.203125 2.5625 -2.546875 1.71875 -2.546875 C 1.507812 -2.546875 1.222656 -2.515625 0.859375 -2.453125 L 0.5625 -2.640625 L 0.75 -4.953125 L 3.21875 -4.953125 L 3.21875 -4.4375 L 1.234375 -4.4375 L 1.109375 -2.953125 C 1.367188 -3.003906 1.628906 -3.03125 1.890625 -3.03125 Z M 1.890625 -3.03125 "/></g></g></g><g fill="#000000" fill-opacity="1"><g transform="translate(13.835041, 9.521092)"><g><path d="M 2.421875 0 L 1.875 0 L 1.875 -3.53125 C 1.875 -3.820312 1.882812 -4.097656 1.90625 -4.359375 C 1.851562 -4.316406 1.796875 -4.269531 1.734375 -4.21875 C 1.679688 -4.164062 1.414062 -3.941406 0.9375 -3.546875 L 0.640625 -3.9375 L 1.953125 -4.953125 L 2.421875 -4.953125 Z M 2.421875 0 "/></g></g></g><g fill="#000000" fill-opacity="1"><g transform="translate(17.797516, 9.521092)"><g><path d="M 0.515625 -0.359375 C 0.515625 -0.515625 0.546875 -0.628906 0.609375 -0.703125 C 0.679688 -0.773438 0.785156 -0.8125 0.921875 -0.8125 C 1.046875 -0.8125 1.144531 -0.773438 1.21875 -0.703125 C 1.289062 -0.628906 1.328125 -0.515625 1.328125 -0.359375 C 1.328125 -0.210938 1.289062 -0.0976562 1.21875 -0.015625 C 1.144531 0.0546875 1.046875 0.09375 0.921875 0.09375 C 0.796875 0.09375 0.695312 0.0625 0.625 0 C 0.550781 -0.0703125 0.515625 -0.191406 0.515625 -0.359375 Z M 0.515625 -0.359375 "/></g></g></g><g fill="#000000" fill-opacity="1"><g transform="translate(19.641712, 9.521092)"><g><path d="M 3.40625 -3.78125 C 3.40625 -3.46875 3.316406 -3.207031 3.140625 -3 C 2.960938 -2.800781 2.710938 -2.671875 2.390625 -2.609375 L 2.390625 -2.578125 C 2.785156 -2.523438 3.078125 -2.394531 3.265625 -2.1875 C 3.460938 -1.988281 3.5625 -1.726562 3.5625 -1.40625 C 3.5625 -0.925781 3.394531 -0.5625 3.0625 -0.3125 C 2.738281 -0.0625 2.273438 0.0625 1.671875 0.0625 C 1.410156 0.0625 1.171875 0.0390625 0.953125 0 C 0.734375 -0.03125 0.519531 -0.0976562 0.3125 -0.203125 L 0.3125 -0.734375 C 0.53125 -0.628906 0.757812 -0.546875 1 -0.484375 C 1.25 -0.429688 1.476562 -0.40625 1.6875 -0.40625 C 2.550781 -0.40625 2.984375 -0.742188 2.984375 -1.421875 C 2.984375 -2.015625 2.507812 -2.3125 1.5625 -2.3125 L 1.078125 -2.3125 L 1.078125 -2.796875 L 1.5625 -2.796875 C 1.945312 -2.796875 2.253906 -2.878906 2.484375 -3.046875 C 2.710938 -3.222656 2.828125 -3.460938 2.828125 -3.765625 C 2.828125 -4.003906 2.742188 -4.191406 2.578125 -4.328125 C 2.410156 -4.472656 2.1875 -4.546875 1.90625 -4.546875 C 1.6875 -4.546875 1.476562 -4.515625 1.28125 -4.453125 C 1.09375 -4.390625 0.875 -4.28125 0.625 -4.125 L 0.34375 -4.515625 C 0.550781 -4.671875 0.785156 -4.796875 1.046875 -4.890625 C 1.316406 -4.984375 1.597656 -5.03125 1.890625 -5.03125 C 2.367188 -5.03125 2.738281 -4.914062 3 -4.6875 C 3.269531 -4.46875 3.40625 -4.164062 3.40625 -3.78125 Z M 3.40625 -3.78125 "/></g></g></g><g fill="#000000" fill-opacity="1"><g transform="translate(23.604187, 9.521092)"><g><path d="M 3.59375 -2.84375 C 3.59375 -0.90625 2.84375 0.0625 1.34375 0.0625 C 1.082031 0.0625 0.875 0.0390625 0.71875 0 L 0.71875 -0.484375 C 0.90625 -0.421875 1.113281 -0.390625 1.34375 -0.390625 C 1.882812 -0.390625 2.289062 -0.554688 2.5625 -0.890625 C 2.84375 -1.234375 2.992188 -1.75 3.015625 -2.4375 L 2.984375 -2.4375 C 2.859375 -2.25 2.691406 -2.101562 2.484375 -2 C 2.273438 -1.90625 2.039062 -1.859375 1.78125 -1.859375 C 1.34375 -1.859375 0.992188 -1.988281 0.734375 -2.25 C 0.484375 -2.519531 0.359375 -2.890625 0.359375 -3.359375 C 0.359375 -3.867188 0.5 -4.273438 0.78125 -4.578125 C 1.070312 -4.878906 1.453125 -5.03125 1.921875 -5.03125 C 2.265625 -5.03125 2.5625 -4.941406 2.8125 -4.765625 C 3.0625 -4.585938 3.253906 -4.332031 3.390625 -4 C 3.523438 -3.675781 3.59375 -3.289062 3.59375 -2.84375 Z M 1.921875 -4.546875 C 1.597656 -4.546875 1.347656 -4.441406 1.171875 -4.234375 C 1.003906 -4.023438 0.921875 -3.734375 0.921875 -3.359375 C 0.921875 -3.035156 1 -2.78125 1.15625 -2.59375 C 1.320312 -2.40625 1.570312 -2.3125 1.90625 -2.3125 C 2.101562 -2.3125 2.289062 -2.351562 2.46875 -2.4375 C 2.644531 -2.519531 2.78125 -2.632812 2.875 -2.78125 C 2.976562 -2.925781 3.03125 -3.078125 3.03125 -3.234375 C 3.03125 -3.472656 2.984375 -3.691406 2.890625 -3.890625 C 2.796875 -4.097656 2.664062 -4.257812 2.5 -4.375 C 2.332031 -4.488281 2.140625 -4.546875 1.921875 -4.546875 Z M 1.921875 -4.546875 "/></g></g></g><g fill="#000000" fill-opacity="1"><g transform="translate(27.566663, 9.521092)"><g><path d="M 0.515625 -0.359375 C 0.515625 -0.515625 0.546875 -0.628906 0.609375 -0.703125 C 0.679688 -0.773438 0.785156 -0.8125 0.921875 -0.8125 C 1.046875 -0.8125 1.144531 -0.773438 1.21875 -0.703125 C 1.289062 -0.628906 1.328125 -0.515625 1.328125 -0.359375 C 1.328125 -0.210938 1.289062 -0.0976562 1.21875 -0.015625 C 1.144531 0.0546875 1.046875 0.09375 0.921875 0.09375 C 0.796875 0.09375 0.695312 0.0625 0.625 0 C 0.550781 -0.0703125 0.515625 -0.191406 0.515625 -0.359375 Z M 0.515625 -0.359375 "/></g></g></g><g fill="#000000" fill-opacity="1"><g transform="translate(29.410858, 9.521092)"><g><path d="M 3.59375 -2.84375 C 3.59375 -0.90625 2.84375 0.0625 1.34375 0.0625 C 1.082031 0.0625 0.875 0.0390625 0.71875 0 L 0.71875 -0.484375 C 0.90625 -0.421875 1.113281 -0.390625 1.34375 -0.390625 C 1.882812 -0.390625 2.289062 -0.554688 2.5625 -0.890625 C 2.84375 -1.234375 2.992188 -1.75 3.015625 -2.4375 L 2.984375 -2.4375 C 2.859375 -2.25 2.691406 -2.101562 2.484375 -2 C 2.273438 -1.90625 2.039062 -1.859375 1.78125 -1.859375 C 1.34375 -1.859375 0.992188 -1.988281 0.734375 -2.25 C 0.484375 -2.519531 0.359375 -2.890625 0.359375 -3.359375 C 0.359375 -3.867188 0.5 -4.273438 0.78125 -4.578125 C 1.070312 -4.878906 1.453125 -5.03125 1.921875 -5.03125 C 2.265625 -5.03125 2.5625 -4.941406 2.8125 -4.765625 C 3.0625 -4.585938 3.253906 -4.332031 3.390625 -4 C 3.523438 -3.675781 3.59375 -3.289062 3.59375 -2.84375 Z M 1.921875 -4.546875 C 1.597656 -4.546875 1.347656 -4.441406 1.171875 -4.234375 C 1.003906 -4.023438 0.921875 -3.734375 0.921875 -3.359375 C 0.921875 -3.035156 1 -2.78125 1.15625 -2.59375 C 1.320312 -2.40625 1.570312 -2.3125 1.90625 -2.3125 C 2.101562 -2.3125 2.289062 -2.351562 2.46875 -2.4375 C 2.644531 -2.519531 2.78125 -2.632812 2.875 -2.78125 C 2.976562 -2.925781 3.03125 -3.078125 3.03125 -3.234375 C 3.03125 -3.472656 2.984375 -3.691406 2.890625 -3.890625 C 2.796875 -4.097656 2.664062 -4.257812 2.5 -4.375 C 2.332031 -4.488281 2.140625 -4.546875 1.921875 -4.546875 Z M 1.921875 -4.546875 "/></g></g></g><g fill="#000000" fill-opacity="1"><g transform="translate(33.373334, 9.521092)"><g><path d="M 3.625 -2.484375 C 3.625 -1.628906 3.488281 -0.988281 3.21875 -0.5625 C 2.945312 -0.144531 2.535156 0.0625 1.984375 0.0625 C 1.441406 0.0625 1.03125 -0.148438 0.75 -0.578125 C 0.476562 -1.015625 0.34375 -1.648438 0.34375 -2.484375 C 0.34375 -3.347656 0.476562 -3.988281 0.75 -4.40625 C 1.019531 -4.820312 1.429688 -5.03125 1.984375 -5.03125 C 2.515625 -5.03125 2.921875 -4.8125 3.203125 -4.375 C 3.484375 -3.9375 3.625 -3.304688 3.625 -2.484375 Z M 0.921875 -2.484375 C 0.921875 -1.765625 1.003906 -1.238281 1.171875 -0.90625 C 1.335938 -0.582031 1.609375 -0.421875 1.984375 -0.421875 C 2.359375 -0.421875 2.628906 -0.585938 2.796875 -0.921875 C 2.960938 -1.253906 3.046875 -1.773438 3.046875 -2.484375 C 3.046875 -3.191406 2.960938 -3.710938 2.796875 -4.046875 C 2.628906 -4.378906 2.359375 -4.546875 1.984375 -4.546875 C 1.609375 -4.546875 1.335938 -4.378906 1.171875 -4.046875 C 1.003906 -3.722656 0.921875 -3.203125 0.921875 -2.484375 Z M 0.921875 -2.484375 "/></g></g></g><g fill="#000000" fill-opacity="1"><g transform="translate(37.335809, 9.521092)"><g><path d="M 0.515625 -0.359375 C 0.515625 -0.515625 0.546875 -0.628906 0.609375 -0.703125 C 0.679688 -0.773438 0.785156 -0.8125 0.921875 -0.8125 C 1.046875 -0.8125 1.144531 -0.773438 1.21875 -0.703125 C 1.289062 -0.628906 1.328125 -0.515625 1.328125 -0.359375 C 1.328125 -0.210938 1.289062 -0.0976562 1.21875 -0.015625 C 1.144531 0.0546875 1.046875 0.09375 0.921875 0.09375 C 0.796875 0.09375 0.695312 0.0625 0.625 0 C 0.550781 -0.0703125 0.515625 -0.191406 0.515625 -0.359375 Z M 0.515625 -0.359375 "/></g></g></g><g fill="#000000" fill-opacity="1"><g transform="translate(39.180004, 9.521092)"><g><path d="M 1.984375 -5.03125 C 2.429688 -5.03125 2.785156 -4.921875 3.046875 -4.703125 C 3.316406 -4.492188 3.453125 -4.207031 3.453125 -3.84375 C 3.453125 -3.59375 3.375 -3.367188 3.21875 -3.171875 C 3.070312 -2.972656 2.832031 -2.789062 2.5 -2.625 C 2.894531 -2.425781 3.175781 -2.222656 3.34375 -2.015625 C 3.519531 -1.804688 3.609375 -1.5625 3.609375 -1.28125 C 3.609375 -0.875 3.460938 -0.546875 3.171875 -0.296875 C 2.890625 -0.0546875 2.5 0.0625 2 0.0625 C 1.46875 0.0625 1.0625 -0.0507812 0.78125 -0.28125 C 0.5 -0.507812 0.359375 -0.835938 0.359375 -1.265625 C 0.359375 -1.828125 0.703125 -2.269531 1.390625 -2.59375 C 1.078125 -2.769531 0.851562 -2.957031 0.71875 -3.15625 C 0.582031 -3.363281 0.515625 -3.59375 0.515625 -3.84375 C 0.515625 -4.207031 0.644531 -4.492188 0.90625 -4.703125 C 1.175781 -4.921875 1.535156 -5.03125 1.984375 -5.03125 Z M 0.90625 -1.25 C 0.90625 -0.976562 1 -0.765625 1.1875 -0.609375 C 1.375 -0.460938 1.640625 -0.390625 1.984375 -0.390625 C 2.316406 -0.390625 2.578125 -0.46875 2.765625 -0.625 C 2.953125 -0.78125 3.046875 -1 3.046875 -1.28125 C 3.046875 -1.5 2.957031 -1.691406 2.78125 -1.859375 C 2.613281 -2.023438 2.304688 -2.191406 1.859375 -2.359375 C 1.523438 -2.210938 1.28125 -2.050781 1.125 -1.875 C 0.976562 -1.695312 0.90625 -1.488281 0.90625 -1.25 Z M 1.96875 -4.5625 C 1.6875 -4.5625 1.460938 -4.492188 1.296875 -4.359375 C 1.140625 -4.222656 1.0625 -4.046875 1.0625 -3.828125 C 1.0625 -3.617188 1.128906 -3.4375 1.265625 -3.28125 C 1.398438 -3.132812 1.644531 -2.988281 2 -2.84375 C 2.320312 -2.976562 2.550781 -3.125 2.6875 -3.28125 C 2.820312 -3.4375 2.890625 -3.617188 2.890625 -3.828125 C 2.890625 -4.046875 2.804688 -4.222656 2.640625 -4.359375 C 2.484375 -4.492188 2.257812 -4.5625 1.96875 -4.5625 Z M 1.96875 -4.5625 "/></g></g></g><g fill="#000000" fill-opacity="1"><g transform="translate(43.14248, 9.521092)"><g><path d="M 3.59375 0 L 0.34375 0 L 0.34375 -0.484375 L 1.640625 -1.796875 C 2.035156 -2.191406 2.296875 -2.472656 2.421875 -2.640625 C 2.554688 -2.816406 2.65625 -2.988281 2.71875 -3.15625 C 2.78125 -3.320312 2.8125 -3.5 2.8125 -3.6875 C 2.8125 -3.945312 2.726562 -4.15625 2.5625 -4.3125 C 2.40625 -4.46875 2.1875 -4.546875 1.90625 -4.546875 C 1.695312 -4.546875 1.5 -4.507812 1.3125 -4.4375 C 1.132812 -4.375 0.929688 -4.253906 0.703125 -4.078125 L 0.40625 -4.453125 C 0.863281 -4.835938 1.359375 -5.03125 1.890625 -5.03125 C 2.359375 -5.03125 2.722656 -4.910156 2.984375 -4.671875 C 3.253906 -4.429688 3.390625 -4.109375 3.390625 -3.703125 C 3.390625 -3.390625 3.300781 -3.078125 3.125 -2.765625 C 2.945312 -2.460938 2.613281 -2.078125 2.125 -1.609375 L 1.046875 -0.546875 L 1.046875 -0.515625 L 3.59375 -0.515625 Z M 3.59375 0 "/></g></g></g></g></g></g></svg>