<svg xmlns="http://www.w3.org/2000/svg" xmlns:xlink="http://www.w3.org/1999/xlink" width="500" zoomAndPan="magnify" viewBox="0 0 375 374.999991" height="500" preserveAspectRatio="xMidYMid meet" version="1.0"><defs><g/><clipPath id="8be73925a8"><path d="M 14.738281 93 L 355.238281 93 L 355.238281 234 L 14.738281 234 Z M 14.738281 93 " clip-rule="nonzero"/></clipPath></defs><path fill="#fec75f" d="M 353.019531 163.628906 L 301.398438 95.511719 L 16.953125 95.511719 L 68.574219 163.628906 L 16.953125 231.746094 L 301.398438 231.746094 Z M 353.019531 163.628906 " fill-opacity="1" fill-rule="nonzero"/><g clip-path="url(#8be73925a8)"><path stroke-linecap="butt" transform="matrix(8.869497, 0, 0, 8.869497, 14.737695, 81.054494)" fill="none" stroke-linejoin="round" d="M 38.139914 9.309932 L 32.319844 1.629994 L 0.249781 1.629994 L 6.069851 9.309932 L 0.249781 16.989871 L 32.319844 16.989871 Z M 38.139914 9.309932 " stroke="#010101" stroke-width="0.5" stroke-opacity="1" stroke-miterlimit="4"/></g><path stroke-linecap="butt" transform="matrix(8.869497, 0, 0, 8.869497, 14.737695, 81.054494)" fill-opacity="1" fill="#ffffff" fill-rule="nonzero" stroke-linejoin="round" d="M 7.410031 5.739937 L 11.400181 0.250177 L 26.989954 0.250177 L 30.980105 5.739937 " stroke="#010101" stroke-width="0.5" stroke-opacity="1" stroke-miterlimit="4"/><path stroke-linecap="butt" transform="matrix(8.869497, 0, 0, 8.869497, 14.737695, 81.054494)" fill-opacity="1" fill="#fec75f" fill-rule="nonzero" stroke-linejoin="round" d="M 7.410031 5.739937 L 30.980105 5.739937 L 30.980105 18.359999 L 7.410031 18.359999 Z M 7.410031 5.739937 " stroke="#010101" stroke-width="0.5" stroke-opacity="1" stroke-miterlimit="4"/><g fill="#000000" fill-opacity="1"><g transform="translate(136.814028, 116.496569)"><g><path d="M 14.96875 -12.25 C 14.96875 -10.238281 14.375 -8.6875 13.1875 -7.59375 C 12.007812 -6.5 10.332031 -5.953125 8.15625 -5.953125 L 6.796875 -5.953125 L 6.796875 0 L 1.9375 0 L 1.9375 -17.953125 L 8.15625 -17.953125 C 10.425781 -17.953125 12.128906 -17.457031 13.265625 -16.46875 C 14.398438 -15.476562 14.96875 -14.070312 14.96875 -12.25 Z M 6.796875 -9.90625 L 7.671875 -9.90625 C 8.398438 -9.90625 8.976562 -10.109375 9.40625 -10.515625 C 9.84375 -10.929688 10.0625 -11.5 10.0625 -12.21875 C 10.0625 -13.4375 9.390625 -14.046875 8.046875 -14.046875 L 6.796875 -14.046875 Z M 6.796875 -9.90625 "/></g></g></g><g fill="#000000" fill-opacity="1"><g transform="translate(152.705555, 116.496569)"><g><path d="M 12.953125 0 L 12.078125 -3.359375 L 6.234375 -3.359375 L 5.328125 0 L 0 0 L 5.859375 -18.03125 L 12.328125 -18.03125 L 18.265625 0 Z M 11.0625 -7.34375 L 10.296875 -10.296875 C 10.109375 -10.953125 9.882812 -11.796875 9.625 -12.828125 C 9.375 -13.867188 9.207031 -14.617188 9.125 -15.078125 C 9.050781 -14.648438 8.90625 -13.957031 8.6875 -13 C 8.46875 -12.050781 7.988281 -10.164062 7.25 -7.34375 Z M 11.0625 -7.34375 "/></g></g></g><g fill="#000000" fill-opacity="1"><g transform="translate(170.96731, 116.496569)"><g><path d="M 17.28125 0 L 11.796875 0 L 8.25 -6.859375 L 6.8125 -6 L 6.8125 0 L 1.9375 0 L 1.9375 -17.953125 L 6.8125 -17.953125 L 6.8125 -10.15625 C 7.0625 -10.644531 7.554688 -11.410156 8.296875 -12.453125 L 12.078125 -17.953125 L 17.375 -17.953125 L 11.71875 -9.90625 Z M 17.28125 0 "/></g></g></g><g fill="#000000" fill-opacity="1"><g transform="translate(188.24659, 116.496569)"><g><path d="M 12.609375 0 L 1.9375 0 L 1.9375 -17.953125 L 12.609375 -17.953125 L 12.609375 -14.0625 L 6.796875 -14.0625 L 6.796875 -11.234375 L 12.171875 -11.234375 L 12.171875 -7.34375 L 6.796875 -7.34375 L 6.796875 -3.953125 L 12.609375 -3.953125 Z M 12.609375 0 "/></g></g></g><g fill="#000000" fill-opacity="1"><g transform="translate(202.050358, 116.496569)"><g><path d="M 9.859375 0 L 5.015625 0 L 5.015625 -13.984375 L 0.625 -13.984375 L 0.625 -17.953125 L 14.234375 -17.953125 L 14.234375 -13.984375 L 9.859375 -13.984375 Z M 9.859375 0 "/></g></g></g><g fill="#000000" fill-opacity="1"><g transform="translate(216.910286, 116.496569)"><g/></g></g><g fill="#000000" fill-opacity="1"><g transform="translate(223.443742, 116.496569)"><g><path d="M 13.78125 0 L 0.75 0 L 0.75 -3.1875 L 5.140625 -7.625 C 6.390625 -8.9375 7.207031 -9.832031 7.59375 -10.3125 C 7.976562 -10.789062 8.242188 -11.203125 8.390625 -11.546875 C 8.546875 -11.890625 8.625 -12.25 8.625 -12.625 C 8.625 -13.09375 8.472656 -13.460938 8.171875 -13.734375 C 7.867188 -14.003906 7.441406 -14.140625 6.890625 -14.140625 C 6.328125 -14.140625 5.753906 -13.976562 5.171875 -13.65625 C 4.597656 -13.332031 3.945312 -12.851562 3.21875 -12.21875 L 0.546875 -15.34375 C 1.472656 -16.164062 2.25 -16.753906 2.875 -17.109375 C 3.507812 -17.472656 4.195312 -17.75 4.9375 -17.9375 C 5.6875 -18.125 6.519531 -18.21875 7.4375 -18.21875 C 8.601562 -18.21875 9.640625 -18.007812 10.546875 -17.59375 C 11.460938 -17.1875 12.171875 -16.601562 12.671875 -15.84375 C 13.179688 -15.09375 13.4375 -14.242188 13.4375 -13.296875 C 13.4375 -12.597656 13.347656 -11.945312 13.171875 -11.34375 C 12.992188 -10.75 12.71875 -10.160156 12.34375 -9.578125 C 11.976562 -9.003906 11.488281 -8.398438 10.875 -7.765625 C 10.269531 -7.128906 8.972656 -5.914062 6.984375 -4.125 L 6.984375 -4 L 13.78125 -4 Z M 13.78125 0 "/></g></g></g></svg>