<svg xmlns="http://www.w3.org/2000/svg" xmlns:xlink="http://www.w3.org/1999/xlink" width="82" zoomAndPan="magnify" viewBox="0 0 61.5 52.499999" height="70" preserveAspectRatio="xMidYMid meet" version="1.0"><defs><filter x="0%" y="0%" width="100%" height="100%" id="8630735d70"><feColorMatrix values="0 0 0 0 1 0 0 0 0 1 0 0 0 0 1 0 0 0 1 0" color-interpolation-filters="sRGB"/></filter><g/><clipPath id="5763ffbee9"><path d="M 1 47 L 60.347656 47 L 60.347656 49.40625 L 1 49.40625 Z M 1 47 " clip-rule="nonzero"/></clipPath><clipPath id="37e1c57737"><path d="M 1 45 L 60.347656 45 L 60.347656 49 L 1 49 Z M 1 45 " clip-rule="nonzero"/></clipPath><clipPath id="cb5152cf98"><path d="M 6 2.601562 L 55 2.601562 L 55 41 L 6 41 Z M 6 2.601562 " clip-rule="nonzero"/></clipPath><clipPath id="430d9df5b8"><path d="M 3 2.601562 L 58 2.601562 L 58 44 L 3 44 Z M 3 2.601562 " clip-rule="nonzero"/></clipPath><clipPath id="fd069231ec"><path d="M 42 2.601562 L 50 2.601562 L 50 10 L 42 10 Z M 42 2.601562 " clip-rule="nonzero"/></clipPath><clipPath id="de29bfbe57"><path d="M 45 2.601562 L 53 2.601562 L 53 10 L 45 10 Z M 45 2.601562 " clip-rule="nonzero"/></clipPath><clipPath id="9e4028ea9c"><path d="M 48 2.601562 L 56 2.601562 L 56 10 L 48 10 Z M 48 2.601562 " clip-rule="nonzero"/></clipPath><clipPath id="e3fb96e6b4"><path d="M 1 40 L 60.347656 40 L 60.347656 46 L 1 46 Z M 1 40 " clip-rule="nonzero"/></clipPath><clipPath id="500cd2a64b"><path d="M 1 46 L 60.347656 46 L 60.347656 47 L 1 47 Z M 1 46 " clip-rule="nonzero"/></clipPath><mask id="01792b430b"><g filter="url(#8630735d70)"><rect x="-6.15" width="73.8" fill="#000000" y="-5.25" height="62.999998" fill-opacity="0.8"/></g></mask><clipPath id="0dff58a155"><path d="M 1.074219 0.605469 L 57.941406 0.605469 L 57.941406 13.398438 L 1.074219 13.398438 Z M 1.074219 0.605469 " clip-rule="nonzero"/></clipPath><clipPath id="b0744ac291"><path d="M 7.472656 0.605469 L 51.53125 0.605469 C 55.066406 0.605469 57.929688 3.46875 57.929688 7.003906 C 57.929688 10.535156 55.066406 13.398438 51.53125 13.398438 L 7.472656 13.398438 C 3.9375 13.398438 1.074219 10.535156 1.074219 7.003906 C 1.074219 3.46875 3.9375 0.605469 7.472656 0.605469 Z M 7.472656 0.605469 " clip-rule="nonzero"/></clipPath><clipPath id="9537b6307e"><rect x="0" width="58" y="0" height="14"/></clipPath></defs><g clip-path="url(#5763ffbee9)"><path fill="#010101" d="M 2.015625 47.707031 L 59.214844 47.707031 C 59.453125 47.707031 59.652344 47.789062 59.820312 47.953125 C 59.984375 48.121094 60.070312 48.320312 60.070312 48.554688 C 60.070312 48.789062 59.984375 48.988281 59.820312 49.15625 C 59.652344 49.320312 59.453125 49.40625 59.214844 49.40625 L 2.015625 49.40625 C 1.78125 49.40625 1.578125 49.320312 1.410156 49.15625 C 1.246094 48.988281 1.160156 48.789062 1.160156 48.554688 C 1.160156 48.320312 1.246094 48.121094 1.410156 47.953125 C 1.578125 47.789062 1.78125 47.707031 2.015625 47.707031 Z M 2.015625 47.707031 " fill-opacity="1" fill-rule="nonzero"/></g><g clip-path="url(#37e1c57737)"><path stroke-linecap="butt" transform="matrix(0.426521, 0, 0, 0.424605, 1.085319, 2.600236)" fill-opacity="1" fill="#615b67" fill-rule="nonzero" stroke-linejoin="round" d="M 0.248728 100.749261 L 0.248728 105.477917 C 0.248728 106.453088 1.027191 107.225864 1.997981 107.225864 L 136.525638 107.225864 C 137.496428 107.225864 138.28405 106.453088 138.28405 105.477917 L 138.28405 100.749261 Z M 0.248728 100.749261 " stroke="#010101" stroke-width="0.5" stroke-opacity="1" stroke-miterlimit="4"/></g><path fill="#ffffff" d="M 8.015625 6.761719 L 53.015625 6.761719 L 53.015625 39.996094 L 8.015625 39.996094 Z M 8.015625 6.761719 " fill-opacity="1" fill-rule="nonzero"/><path fill="#ffffff" d="M 8.015625 6.761719 L 53.015625 6.761719 L 53.015625 39.996094 L 8.015625 39.996094 Z M 8.015625 6.761719 " fill-opacity="1" fill-rule="nonzero"/><path stroke-linecap="butt" transform="matrix(0.426521, 0, 0, 0.424605, 1.085319, 2.600236)" fill-opacity="1" fill="#ffffff" fill-rule="nonzero" stroke-linejoin="miter" d="M 39.455815 36.958401 L 98.545776 36.958401 L 98.545776 84.714149 L 39.455815 84.714149 Z M 39.455815 36.958401 " stroke="#010101" stroke-width="0.5" stroke-opacity="1" stroke-miterlimit="10"/><path stroke-linecap="butt" transform="matrix(0.426521, 0, 0, 0.424605, 1.085319, 2.600236)" fill-opacity="1" fill="#ffffff" fill-rule="nonzero" stroke-linejoin="miter" d="M 39.455815 12.891933 L 98.545776 12.891933 L 98.545776 23.572808 L 39.455815 23.572808 Z M 39.455815 12.891933 " stroke="#010101" stroke-width="0.5" stroke-opacity="1" stroke-miterlimit="10"/><g clip-path="url(#cb5152cf98)"><path fill="#615b67" d="M 7.320312 2.707031 L 53.941406 2.707031 C 54.160156 2.707031 54.347656 2.785156 54.5 2.9375 C 54.65625 3.09375 54.734375 3.277344 54.734375 3.496094 L 54.734375 40.066406 C 54.734375 40.285156 54.65625 40.472656 54.5 40.625 C 54.347656 40.78125 54.160156 40.855469 53.941406 40.855469 L 7.320312 40.855469 C 7.101562 40.855469 6.914062 40.78125 6.761719 40.625 C 6.605469 40.472656 6.527344 40.285156 6.527344 40.066406 L 6.527344 3.496094 C 6.527344 3.277344 6.605469 3.09375 6.761719 2.9375 C 6.914062 2.785156 7.101562 2.707031 7.320312 2.707031 Z M 7.320312 2.707031 " fill-opacity="1" fill-rule="nonzero"/></g><g clip-path="url(#430d9df5b8)"><path stroke-linecap="butt" transform="matrix(0.426521, 0, 0, 0.424605, 1.085319, 2.600236)" fill="none" stroke-linejoin="miter" d="M 14.618249 0.251517 L 123.923687 0.251517 C 124.436557 0.251517 124.87616 0.435512 125.233338 0.794301 C 125.599674 1.16229 125.782841 1.594676 125.782841 2.109861 L 125.782841 88.237642 C 125.782841 88.752826 125.599674 89.194413 125.233338 89.553202 C 124.87616 89.921191 124.436557 90.095985 123.923687 90.095985 L 14.618249 90.095985 C 14.105379 90.095985 13.665776 89.921191 13.308598 89.553202 C 12.942263 89.194413 12.759095 88.752826 12.759095 88.237642 L 12.759095 2.109861 C 12.759095 1.594676 12.942263 1.16229 13.308598 0.794301 C 13.665776 0.435512 14.105379 0.251517 14.618249 0.251517 Z M 14.618249 0.251517 " stroke="#010101" stroke-width="0.5" stroke-opacity="1" stroke-miterlimit="10"/></g><path stroke-linecap="butt" transform="matrix(0.426521, 0, 0, 0.424605, 1.085319, 2.600236)" fill-opacity="1" fill="#ffffff" fill-rule="nonzero" stroke-linejoin="miter" d="M 15.506613 3.591016 L 123.026165 3.591016 L 123.026165 86.756487 L 15.506613 86.756487 Z M 15.506613 3.591016 " stroke="#010101" stroke-width="0.5" stroke-opacity="1" stroke-miterlimit="10"/><path stroke-linecap="butt" transform="matrix(0.426521, 0, 0, 0.424605, 1.085319, 2.600236)" fill-opacity="1" fill="#fec75f" fill-rule="nonzero" stroke-linejoin="miter" d="M 15.506613 82.083029 L 123.026165 82.083029 L 123.026165 86.756487 L 15.506613 86.756487 Z M 15.506613 82.083029 " stroke="#010101" stroke-width="0.5" stroke-opacity="1" stroke-miterlimit="10"/><path stroke-linecap="butt" transform="matrix(0.426521, 0, 0, 0.424605, 1.085319, 2.600236)" fill-opacity="1" fill="#d1c4dd" fill-rule="nonzero" stroke-linejoin="miter" d="M 15.506613 3.591016 L 123.026165 3.591016 L 123.026165 9.800827 L 15.506613 9.800827 Z M 15.506613 3.591016 " stroke="#010101" stroke-width="0.5" stroke-opacity="1" stroke-miterlimit="10"/><path stroke-linecap="butt" transform="matrix(0.426521, 0, 0, 0.424605, 1.085319, 2.600236)" fill-opacity="1" fill="#77acdd" fill-rule="nonzero" stroke-linejoin="miter" d="M 42.459768 13.581912 L 95.38613 13.581912 L 95.38613 24.83317 L 42.459768 24.83317 Z M 42.459768 13.581912 " stroke="#010101" stroke-width="0.5" stroke-opacity="1" stroke-miterlimit="10"/><path stroke-linecap="butt" transform="matrix(0.426521, 0, 0, 0.424605, 1.085319, 2.600236)" fill-opacity="1" fill="#f47c4a" fill-rule="nonzero" stroke-linejoin="miter" d="M 42.459768 30.435799 L 95.38613 30.435799 L 95.38613 77.326774 L 42.459768 77.326774 Z M 42.459768 30.435799 " stroke="#010101" stroke-width="0.5" stroke-opacity="1" stroke-miterlimit="10"/><path stroke-linecap="butt" transform="matrix(0.426521, 0, 0, 0.424605, 1.085319, 2.600236)" fill-opacity="1" fill="#fec75f" fill-rule="nonzero" stroke-linejoin="miter" d="M 37.816462 22.073254 C 37.816462 23.19562 37.605819 24.281187 37.175374 25.320755 C 36.74493 26.360323 36.131317 27.280295 35.334537 28.071471 C 34.537757 28.871847 33.621917 29.479029 32.57786 29.911415 C 31.542962 30.343802 30.453113 30.564596 29.32663 30.564596 C 28.200148 30.564596 27.119457 30.343802 26.084559 29.911415 C 25.040502 29.479029 24.124662 28.871847 23.327882 28.071471 C 22.531102 27.280295 21.917489 26.360323 21.487045 25.320755 C 21.0566 24.281187 20.836799 23.19562 20.836799 22.073254 C 20.836799 20.941688 21.0566 19.865321 21.487045 18.816553 C 21.917489 17.776984 22.531102 16.866212 23.327882 16.065836 C 24.124662 15.27466 25.040502 14.658279 26.084559 14.225892 C 27.119457 13.793506 28.200148 13.581912 29.32663 13.581912 C 30.453113 13.581912 31.542962 13.793506 32.57786 14.225892 C 33.621917 14.658279 34.537757 15.27466 35.334537 16.065836 C 36.131317 16.866212 36.74493 17.776984 37.175374 18.816553 C 37.605819 19.865321 37.816462 20.941688 37.816462 22.073254 Z M 37.816462 22.073254 " stroke="#010101" stroke-width="0.5" stroke-opacity="1" stroke-miterlimit="10"/><path fill="#010101" d="M 7.699219 4.125 L 53.558594 4.125 L 53.558594 4.972656 L 7.699219 4.972656 Z M 7.699219 4.125 " fill-opacity="1" fill-rule="nonzero"/><path fill="#67c189" d="M 46.710938 5.867188 C 46.710938 6.019531 46.65625 6.148438 46.546875 6.257812 C 46.4375 6.367188 46.304688 6.421875 46.152344 6.421875 C 45.996094 6.421875 45.867188 6.367188 45.757812 6.257812 C 45.648438 6.148438 45.59375 6.019531 45.59375 5.867188 C 45.59375 5.710938 45.648438 5.582031 45.757812 5.472656 C 45.867188 5.363281 45.996094 5.308594 46.152344 5.308594 C 46.304688 5.308594 46.4375 5.363281 46.546875 5.472656 C 46.65625 5.582031 46.710938 5.710938 46.710938 5.867188 Z M 46.710938 5.867188 " fill-opacity="1" fill-rule="nonzero"/><g clip-path="url(#fd069231ec)"><path stroke-linecap="butt" transform="matrix(0.426521, 0, 0, 0.424605, 1.085319, 2.600236)" fill="none" stroke-linejoin="miter" d="M 106.971499 7.694091 C 106.971499 8.05288 106.843282 8.356471 106.586846 8.614063 C 106.330411 8.871655 106.019026 9.000451 105.661849 9.000451 C 105.295513 9.000451 104.993286 8.871655 104.736851 8.614063 C 104.480416 8.356471 104.352198 8.05288 104.352198 7.694091 C 104.352198 7.326102 104.480416 7.022511 104.736851 6.764919 C 104.993286 6.507327 105.295513 6.378531 105.661849 6.378531 C 106.019026 6.378531 106.330411 6.507327 106.586846 6.764919 C 106.843282 7.022511 106.971499 7.326102 106.971499 7.694091 Z M 106.971499 7.694091 " stroke="#010101" stroke-width="0.5" stroke-opacity="1" stroke-miterlimit="10"/></g><path fill="#fec75f" d="M 49.4375 5.867188 C 49.4375 6.019531 49.382812 6.148438 49.273438 6.257812 C 49.164062 6.367188 49.03125 6.421875 48.878906 6.421875 C 48.722656 6.421875 48.589844 6.367188 48.480469 6.257812 C 48.371094 6.148438 48.316406 6.019531 48.316406 5.867188 C 48.316406 5.710938 48.371094 5.582031 48.480469 5.472656 C 48.589844 5.363281 48.722656 5.308594 48.878906 5.308594 C 49.03125 5.308594 49.164062 5.363281 49.273438 5.472656 C 49.382812 5.582031 49.4375 5.710938 49.4375 5.867188 Z M 49.4375 5.867188 " fill-opacity="1" fill-rule="nonzero"/><g clip-path="url(#de29bfbe57)"><path stroke-linecap="butt" transform="matrix(0.426521, 0, 0, 0.424605, 1.085319, 2.600236)" fill="none" stroke-linejoin="miter" d="M 113.364058 7.694091 C 113.364058 8.05288 113.235841 8.356471 112.979406 8.614063 C 112.722971 8.871655 112.411585 9.000451 112.054408 9.000451 C 111.688072 9.000451 111.376687 8.871655 111.120252 8.614063 C 110.863817 8.356471 110.735599 8.05288 110.735599 7.694091 C 110.735599 7.326102 110.863817 7.022511 111.120252 6.764919 C 111.376687 6.507327 111.688072 6.378531 112.054408 6.378531 C 112.411585 6.378531 112.722971 6.507327 112.979406 6.764919 C 113.235841 7.022511 113.364058 7.326102 113.364058 7.694091 Z M 113.364058 7.694091 " stroke="#010101" stroke-width="0.5" stroke-opacity="1" stroke-miterlimit="10"/></g><path fill="#f47c4a" d="M 52.160156 5.867188 C 52.160156 6.019531 52.105469 6.148438 51.996094 6.257812 C 51.886719 6.367188 51.757812 6.421875 51.601562 6.421875 C 51.449219 6.421875 51.316406 6.367188 51.207031 6.257812 C 51.097656 6.148438 51.042969 6.019531 51.042969 5.867188 C 51.042969 5.710938 51.097656 5.582031 51.207031 5.472656 C 51.316406 5.363281 51.449219 5.308594 51.601562 5.308594 C 51.757812 5.308594 51.886719 5.363281 51.996094 5.472656 C 52.105469 5.582031 52.160156 5.710938 52.160156 5.867188 Z M 52.160156 5.867188 " fill-opacity="1" fill-rule="nonzero"/><g clip-path="url(#9e4028ea9c)"><path stroke-linecap="butt" transform="matrix(0.426521, 0, 0, 0.424605, 1.085319, 2.600236)" fill="none" stroke-linejoin="miter" d="M 119.747459 7.694091 C 119.747459 8.05288 119.619242 8.356471 119.362807 8.614063 C 119.106372 8.871655 118.804145 9.000451 118.437809 9.000451 C 118.080632 9.000451 117.769246 8.871655 117.512811 8.614063 C 117.256376 8.356471 117.128159 8.05288 117.128159 7.694091 C 117.128159 7.326102 117.256376 7.022511 117.512811 6.764919 C 117.769246 6.507327 118.080632 6.378531 118.437809 6.378531 C 118.804145 6.378531 119.106372 6.507327 119.362807 6.764919 C 119.619242 7.022511 119.747459 7.326102 119.747459 7.694091 Z M 119.747459 7.694091 " stroke="#010101" stroke-width="0.5" stroke-opacity="1" stroke-miterlimit="10"/></g><g clip-path="url(#e3fb96e6b4)"><path stroke-linecap="butt" transform="matrix(0.426521, 0, 0, 0.424605, 1.085319, 2.600236)" fill-opacity="1" fill="#d1c4dd" fill-rule="nonzero" stroke-linejoin="round" d="M 127.651154 91.089555 C 126.945957 90.445575 126.030118 90.095985 125.077645 90.095985 L 13.464291 90.095985 C 12.511818 90.095985 11.58682 90.445575 10.890782 91.089555 L 0.248728 100.749261 L 138.293208 100.749261 Z M 127.651154 91.089555 " stroke="#010101" stroke-width="0.5" stroke-opacity="1" stroke-miterlimit="4"/></g><path stroke-linecap="butt" transform="matrix(0.426521, 0, 0, 0.424605, 1.085319, 2.600236)" fill-opacity="1" fill="#615b67" fill-rule="nonzero" stroke-linejoin="round" d="M 124.097697 91.393146 L 14.444239 91.393146 L 8.308115 96.912978 L 130.233821 96.912978 Z M 124.097697 91.393146 " stroke="#010101" stroke-width="0.5" stroke-opacity="1" stroke-miterlimit="4"/><path stroke-linecap="butt" transform="matrix(0.426521, 0, 0, 0.424605, 1.085319, 2.600236)" fill-opacity="1" fill="#d1c4dd" fill-rule="nonzero" stroke-linejoin="round" d="M 99.507408 97.860549 L 39.016212 97.860549 L 37.761512 99.682094 L 100.771266 99.682094 Z M 99.507408 97.860549 " stroke="#010101" stroke-width="0.5" stroke-opacity="1" stroke-miterlimit="4"/><path stroke-linecap="butt" transform="matrix(0.426521, 0, 0, 0.424605, 1.085319, 2.600236)" fill="none" stroke-linejoin="round" d="M 11.779146 93.775873 L 126.76279 93.775873 " stroke="#010101" stroke-width="0.5" stroke-opacity="1" stroke-miterlimit="4"/><path stroke-linecap="butt" transform="matrix(0.426521, 0, 0, 0.424605, 1.085319, 2.600236)" fill="none" stroke-linejoin="round" d="M 17.567252 96.912978 L 20.223186 93.775873 " stroke="#010101" stroke-width="0.42" stroke-opacity="1" stroke-miterlimit="4"/><path stroke-linecap="butt" transform="matrix(0.426521, 0, 0, 0.424605, 1.085319, 2.600236)" fill="none" stroke-linejoin="round" d="M 26.212776 96.912978 L 28.419949 93.775873 " stroke="#010101" stroke-width="0.42" stroke-opacity="1" stroke-miterlimit="4"/><path stroke-linecap="butt" transform="matrix(0.426521, 0, 0, 0.424605, 1.085319, 2.600236)" fill="none" stroke-linejoin="round" d="M 34.858301 96.912978 L 36.625871 93.775873 " stroke="#010101" stroke-width="0.42" stroke-opacity="1" stroke-miterlimit="4"/><path stroke-linecap="butt" transform="matrix(0.426521, 0, 0, 0.424605, 1.085319, 2.600236)" fill="none" stroke-linejoin="round" d="M 43.503825 96.912978 L 44.831792 93.775873 " stroke="#010101" stroke-width="0.42" stroke-opacity="1" stroke-miterlimit="4"/><path stroke-linecap="butt" transform="matrix(0.426521, 0, 0, 0.424605, 1.085319, 2.600236)" fill="none" stroke-linejoin="round" d="M 52.149349 96.912978 L 53.028555 93.775873 " stroke="#010101" stroke-width="0.42" stroke-opacity="1" stroke-miterlimit="4"/><path stroke-linecap="butt" transform="matrix(0.426521, 0, 0, 0.424605, 1.085319, 2.600236)" fill="none" stroke-linejoin="round" d="M 60.785715 96.912978 L 61.243635 93.775873 " stroke="#010101" stroke-width="0.42" stroke-opacity="1" stroke-miterlimit="4"/><path stroke-linecap="butt" transform="matrix(0.426521, 0, 0, 0.424605, 1.085319, 2.600236)" fill="none" stroke-linejoin="round" d="M 69.440398 96.912978 L 69.440398 93.775873 " stroke="#010101" stroke-width="0.42" stroke-opacity="1" stroke-miterlimit="4"/><path stroke-linecap="butt" transform="matrix(0.426521, 0, 0, 0.424605, 1.085319, 2.600236)" fill="none" stroke-linejoin="round" d="M 78.085923 96.912978 L 77.637161 93.775873 " stroke="#010101" stroke-width="0.42" stroke-opacity="1" stroke-miterlimit="4"/><path stroke-linecap="butt" transform="matrix(0.426521, 0, 0, 0.424605, 1.085319, 2.600236)" fill="none" stroke-linejoin="round" d="M 86.731447 96.912978 L 85.852241 93.775873 " stroke="#010101" stroke-width="0.42" stroke-opacity="1" stroke-miterlimit="4"/><path stroke-linecap="butt" transform="matrix(0.426521, 0, 0, 0.424605, 1.085319, 2.600236)" fill="none" stroke-linejoin="round" d="M 95.376972 96.912978 L 94.049004 93.775873 " stroke="#010101" stroke-width="0.42" stroke-opacity="1" stroke-miterlimit="4"/><path stroke-linecap="butt" transform="matrix(0.426521, 0, 0, 0.424605, 1.085319, 2.600236)" fill="none" stroke-linejoin="round" d="M 104.022496 96.912978 L 102.245767 93.775873 " stroke="#010101" stroke-width="0.42" stroke-opacity="1" stroke-miterlimit="4"/><path stroke-linecap="butt" transform="matrix(0.426521, 0, 0, 0.424605, 1.085319, 2.600236)" fill="none" stroke-linejoin="round" d="M 112.66802 96.912978 L 110.460847 93.775873 " stroke="#010101" stroke-width="0.42" stroke-opacity="1" stroke-miterlimit="4"/><path stroke-linecap="butt" transform="matrix(0.426521, 0, 0, 0.424605, 1.085319, 2.600236)" fill="none" stroke-linejoin="round" d="M 121.313545 96.912978 L 118.65761 93.775873 " stroke="#010101" stroke-width="0.42" stroke-opacity="1" stroke-miterlimit="4"/><path stroke-linecap="butt" transform="matrix(0.426521, 0, 0, 0.424605, 1.085319, 2.600236)" fill="none" stroke-linejoin="round" d="M 24.207088 93.775873 L 26.029608 91.393146 " stroke="#010101" stroke-width="0.42" stroke-opacity="1" stroke-miterlimit="4"/><path stroke-linecap="butt" transform="matrix(0.426521, 0, 0, 0.424605, 1.085319, 2.600236)" fill="none" stroke-linejoin="round" d="M 32.477118 93.775873 L 33.969936 91.393146 " stroke="#010101" stroke-width="0.42" stroke-opacity="1" stroke-miterlimit="4"/><path stroke-linecap="butt" transform="matrix(0.426521, 0, 0, 0.424605, 1.085319, 2.600236)" fill="none" stroke-linejoin="round" d="M 40.747148 93.775873 L 41.919423 91.393146 " stroke="#010101" stroke-width="0.42" stroke-opacity="1" stroke-miterlimit="4"/><path stroke-linecap="butt" transform="matrix(0.426521, 0, 0, 0.424605, 1.085319, 2.600236)" fill="none" stroke-linejoin="round" d="M 49.017179 93.775873 L 49.859751 91.393146 " stroke="#010101" stroke-width="0.42" stroke-opacity="1" stroke-miterlimit="4"/><path stroke-linecap="butt" transform="matrix(0.426521, 0, 0, 0.424605, 1.085319, 2.600236)" fill="none" stroke-linejoin="round" d="M 57.296367 93.775873 L 57.800079 91.393146 " stroke="#010101" stroke-width="0.42" stroke-opacity="1" stroke-miterlimit="4"/><path stroke-linecap="butt" transform="matrix(0.426521, 0, 0, 0.424605, 1.085319, 2.600236)" fill="none" stroke-linejoin="round" d="M 65.566397 93.775873 L 65.740407 91.393146 " stroke="#010101" stroke-width="0.42" stroke-opacity="1" stroke-miterlimit="4"/><path stroke-linecap="butt" transform="matrix(0.426521, 0, 0, 0.424605, 1.085319, 2.600236)" fill="none" stroke-linejoin="round" d="M 73.836428 93.775873 L 73.689893 91.393146 " stroke="#010101" stroke-width="0.42" stroke-opacity="1" stroke-miterlimit="4"/><path stroke-linecap="butt" transform="matrix(0.426521, 0, 0, 0.424605, 1.085319, 2.600236)" fill="none" stroke-linejoin="round" d="M 82.106458 93.775873 L 81.630221 91.393146 " stroke="#010101" stroke-width="0.42" stroke-opacity="1" stroke-miterlimit="4"/><path stroke-linecap="butt" transform="matrix(0.426521, 0, 0, 0.424605, 1.085319, 2.600236)" fill="none" stroke-linejoin="round" d="M 90.376488 93.775873 L 89.570549 91.393146 " stroke="#010101" stroke-width="0.42" stroke-opacity="1" stroke-miterlimit="4"/><path stroke-linecap="butt" transform="matrix(0.426521, 0, 0, 0.424605, 1.085319, 2.600236)" fill="none" stroke-linejoin="round" d="M 98.655677 93.775873 L 97.510878 91.393146 " stroke="#010101" stroke-width="0.42" stroke-opacity="1" stroke-miterlimit="4"/><path stroke-linecap="butt" transform="matrix(0.426521, 0, 0, 0.424605, 1.085319, 2.600236)" fill="none" stroke-linejoin="round" d="M 106.925707 93.775873 L 105.460364 91.393146 " stroke="#010101" stroke-width="0.42" stroke-opacity="1" stroke-miterlimit="4"/><path stroke-linecap="butt" transform="matrix(0.426521, 0, 0, 0.424605, 1.085319, 2.600236)" fill="none" stroke-linejoin="round" d="M 115.195737 93.775873 L 113.400692 91.393146 " stroke="#010101" stroke-width="0.42" stroke-opacity="1" stroke-miterlimit="4"/><g clip-path="url(#500cd2a64b)"><path stroke-linecap="butt" transform="matrix(0.426521, 0, 0, 0.424605, 1.085319, 2.600236)" fill="none" stroke-linejoin="round" d="M 0.248728 103.858767 L 138.293208 103.858767 " stroke="#010101" stroke-width="0.5" stroke-opacity="1" stroke-miterlimit="4"/></g><g mask="url(#01792b430b)"><g transform="matrix(1, 0, 0, 1, 1, 19)"><g clip-path="url(#9537b6307e)"><g clip-path="url(#0dff58a155)"><g clip-path="url(#b0744ac291)"><path fill="#e4e4e4" d="M 1.074219 0.605469 L 57.941406 0.605469 L 57.941406 13.398438 L 1.074219 13.398438 Z M 1.074219 0.605469 " fill-opacity="1" fill-rule="nonzero"/></g></g><g fill="#000000" fill-opacity="1"><g transform="translate(8.899172, 9.521092)"><g><path d="M 2.421875 0 L 1.875 0 L 1.875 -3.53125 C 1.875 -3.820312 1.882812 -4.097656 1.90625 -4.359375 C 1.851562 -4.316406 1.796875 -4.269531 1.734375 -4.21875 C 1.679688 -4.164062 1.414062 -3.941406 0.9375 -3.546875 L 0.640625 -3.9375 L 1.953125 -4.953125 L 2.421875 -4.953125 Z M 2.421875 0 "/></g></g></g><g fill="#000000" fill-opacity="1"><g transform="translate(12.861647, 9.521092)"><g><path d="M 1.890625 -3.03125 C 2.410156 -3.03125 2.816406 -2.898438 3.109375 -2.640625 C 3.410156 -2.378906 3.5625 -2.023438 3.5625 -1.578125 C 3.5625 -1.066406 3.398438 -0.664062 3.078125 -0.375 C 2.753906 -0.0820312 2.304688 0.0625 1.734375 0.0625 C 1.171875 0.0625 0.742188 -0.0234375 0.453125 -0.203125 L 0.453125 -0.734375 C 0.609375 -0.640625 0.800781 -0.5625 1.03125 -0.5 C 1.269531 -0.445312 1.503906 -0.421875 1.734375 -0.421875 C 2.128906 -0.421875 2.4375 -0.515625 2.65625 -0.703125 C 2.875 -0.890625 2.984375 -1.160156 2.984375 -1.515625 C 2.984375 -2.203125 2.5625 -2.546875 1.71875 -2.546875 C 1.507812 -2.546875 1.222656 -2.515625 0.859375 -2.453125 L 0.5625 -2.640625 L 0.75 -4.953125 L 3.21875 -4.953125 L 3.21875 -4.4375 L 1.234375 -4.4375 L 1.109375 -2.953125 C 1.367188 -3.003906 1.628906 -3.03125 1.890625 -3.03125 Z M 1.890625 -3.03125 "/></g></g></g><g fill="#000000" fill-opacity="1"><g transform="translate(16.824123, 9.521092)"><g><path d="M 0.515625 -0.359375 C 0.515625 -0.515625 0.546875 -0.628906 0.609375 -0.703125 C 0.679688 -0.773438 0.785156 -0.8125 0.921875 -0.8125 C 1.046875 -0.8125 1.144531 -0.773438 1.21875 -0.703125 C 1.289062 -0.628906 1.328125 -0.515625 1.328125 -0.359375 C 1.328125 -0.210938 1.289062 -0.0976562 1.21875 -0.015625 C 1.144531 0.0546875 1.046875 0.09375 0.921875 0.09375 C 0.796875 0.09375 0.695312 0.0625 0.625 0 C 0.550781 -0.0703125 0.515625 -0.191406 0.515625 -0.359375 Z M 0.515625 -0.359375 "/></g></g></g><g fill="#000000" fill-opacity="1"><g transform="translate(18.668318, 9.521092)"><g><path d="M 2.421875 0 L 1.875 0 L 1.875 -3.53125 C 1.875 -3.820312 1.882812 -4.097656 1.90625 -4.359375 C 1.851562 -4.316406 1.796875 -4.269531 1.734375 -4.21875 C 1.679688 -4.164062 1.414062 -3.941406 0.9375 -3.546875 L 0.640625 -3.9375 L 1.953125 -4.953125 L 2.421875 -4.953125 Z M 2.421875 0 "/></g></g></g><g fill="#000000" fill-opacity="1"><g transform="translate(22.630794, 9.521092)"><g><path d="M 3.625 -2.484375 C 3.625 -1.628906 3.488281 -0.988281 3.21875 -0.5625 C 2.945312 -0.144531 2.535156 0.0625 1.984375 0.0625 C 1.441406 0.0625 1.03125 -0.148438 0.75 -0.578125 C 0.476562 -1.015625 0.34375 -1.648438 0.34375 -2.484375 C 0.34375 -3.347656 0.476562 -3.988281 0.75 -4.40625 C 1.019531 -4.820312 1.429688 -5.03125 1.984375 -5.03125 C 2.515625 -5.03125 2.921875 -4.8125 3.203125 -4.375 C 3.484375 -3.9375 3.625 -3.304688 3.625 -2.484375 Z M 0.921875 -2.484375 C 0.921875 -1.765625 1.003906 -1.238281 1.171875 -0.90625 C 1.335938 -0.582031 1.609375 -0.421875 1.984375 -0.421875 C 2.359375 -0.421875 2.628906 -0.585938 2.796875 -0.921875 C 2.960938 -1.253906 3.046875 -1.773438 3.046875 -2.484375 C 3.046875 -3.191406 2.960938 -3.710938 2.796875 -4.046875 C 2.628906 -4.378906 2.359375 -4.546875 1.984375 -4.546875 C 1.609375 -4.546875 1.335938 -4.378906 1.171875 -4.046875 C 1.003906 -3.722656 0.921875 -3.203125 0.921875 -2.484375 Z M 0.921875 -2.484375 "/></g></g></g><g fill="#000000" fill-opacity="1"><g transform="translate(26.593269, 9.521092)"><g><path d="M 3.40625 -3.78125 C 3.40625 -3.46875 3.316406 -3.207031 3.140625 -3 C 2.960938 -2.800781 2.710938 -2.671875 2.390625 -2.609375 L 2.390625 -2.578125 C 2.785156 -2.523438 3.078125 -2.394531 3.265625 -2.1875 C 3.460938 -1.988281 3.5625 -1.726562 3.5625 -1.40625 C 3.5625 -0.925781 3.394531 -0.5625 3.0625 -0.3125 C 2.738281 -0.0625 2.273438 0.0625 1.671875 0.0625 C 1.410156 0.0625 1.171875 0.0390625 0.953125 0 C 0.734375 -0.03125 0.519531 -0.0976562 0.3125 -0.203125 L 0.3125 -0.734375 C 0.53125 -0.628906 0.757812 -0.546875 1 -0.484375 C 1.25 -0.429688 1.476562 -0.40625 1.6875 -0.40625 C 2.550781 -0.40625 2.984375 -0.742188 2.984375 -1.421875 C 2.984375 -2.015625 2.507812 -2.3125 1.5625 -2.3125 L 1.078125 -2.3125 L 1.078125 -2.796875 L 1.5625 -2.796875 C 1.945312 -2.796875 2.253906 -2.878906 2.484375 -3.046875 C 2.710938 -3.222656 2.828125 -3.460938 2.828125 -3.765625 C 2.828125 -4.003906 2.742188 -4.191406 2.578125 -4.328125 C 2.410156 -4.472656 2.1875 -4.546875 1.90625 -4.546875 C 1.6875 -4.546875 1.476562 -4.515625 1.28125 -4.453125 C 1.09375 -4.390625 0.875 -4.28125 0.625 -4.125 L 0.34375 -4.515625 C 0.550781 -4.671875 0.785156 -4.796875 1.046875 -4.890625 C 1.316406 -4.984375 1.597656 -5.03125 1.890625 -5.03125 C 2.367188 -5.03125 2.738281 -4.914062 3 -4.6875 C 3.269531 -4.46875 3.40625 -4.164062 3.40625 -3.78125 Z M 3.40625 -3.78125 "/></g></g></g><g fill="#000000" fill-opacity="1"><g transform="translate(30.555745, 9.521092)"><g><path d="M 0.515625 -0.359375 C 0.515625 -0.515625 0.546875 -0.628906 0.609375 -0.703125 C 0.679688 -0.773438 0.785156 -0.8125 0.921875 -0.8125 C 1.046875 -0.8125 1.144531 -0.773438 1.21875 -0.703125 C 1.289062 -0.628906 1.328125 -0.515625 1.328125 -0.359375 C 1.328125 -0.210938 1.289062 -0.0976562 1.21875 -0.015625 C 1.144531 0.0546875 1.046875 0.09375 0.921875 0.09375 C 0.796875 0.09375 0.695312 0.0625 0.625 0 C 0.550781 -0.0703125 0.515625 -0.191406 0.515625 -0.359375 Z M 0.515625 -0.359375 "/></g></g></g><g fill="#000000" fill-opacity="1"><g transform="translate(32.39994, 9.521092)"><g><path d="M 3.828125 -1.140625 L 3.09375 -1.140625 L 3.09375 0 L 2.546875 0 L 2.546875 -1.140625 L 0.140625 -1.140625 L 0.140625 -1.625 L 2.5 -4.984375 L 3.09375 -4.984375 L 3.09375 -1.65625 L 3.828125 -1.65625 Z M 2.546875 -1.65625 L 2.546875 -3.296875 C 2.546875 -3.617188 2.5625 -3.984375 2.59375 -4.390625 L 2.5625 -4.390625 C 2.445312 -4.171875 2.34375 -3.988281 2.25 -3.84375 L 0.703125 -1.65625 Z M 2.546875 -1.65625 "/></g></g></g><g fill="#000000" fill-opacity="1"><g transform="translate(36.362416, 9.521092)"><g><path d="M 0.390625 -2.109375 C 0.390625 -3.085938 0.578125 -3.816406 0.953125 -4.296875 C 1.335938 -4.785156 1.898438 -5.03125 2.640625 -5.03125 C 2.898438 -5.03125 3.101562 -5.003906 3.25 -4.953125 L 3.25 -4.46875 C 3.070312 -4.53125 2.875 -4.5625 2.65625 -4.5625 C 2.125 -4.5625 1.71875 -4.394531 1.4375 -4.0625 C 1.15625 -3.726562 1 -3.207031 0.96875 -2.5 L 1.015625 -2.5 C 1.265625 -2.894531 1.65625 -3.09375 2.1875 -3.09375 C 2.632812 -3.09375 2.984375 -2.957031 3.234375 -2.6875 C 3.492188 -2.414062 3.625 -2.050781 3.625 -1.59375 C 3.625 -1.070312 3.484375 -0.664062 3.203125 -0.375 C 2.921875 -0.0820312 2.539062 0.0625 2.0625 0.0625 C 1.550781 0.0625 1.144531 -0.128906 0.84375 -0.515625 C 0.539062 -0.898438 0.390625 -1.429688 0.390625 -2.109375 Z M 2.0625 -0.40625 C 2.382812 -0.40625 2.632812 -0.503906 2.8125 -0.703125 C 2.988281 -0.910156 3.078125 -1.207031 3.078125 -1.59375 C 3.078125 -1.914062 2.992188 -2.171875 2.828125 -2.359375 C 2.660156 -2.546875 2.414062 -2.640625 2.09375 -2.640625 C 1.882812 -2.640625 1.695312 -2.597656 1.53125 -2.515625 C 1.363281 -2.429688 1.226562 -2.316406 1.125 -2.171875 C 1.019531 -2.023438 0.96875 -1.875 0.96875 -1.71875 C 0.96875 -1.476562 1.015625 -1.257812 1.109375 -1.0625 C 1.203125 -0.863281 1.328125 -0.703125 1.484375 -0.578125 C 1.648438 -0.460938 1.84375 -0.40625 2.0625 -0.40625 Z M 2.0625 -0.40625 "/></g></g></g><g fill="#000000" fill-opacity="1"><g transform="translate(40.324891, 9.521092)"><g><path d="M 0.515625 -0.359375 C 0.515625 -0.515625 0.546875 -0.628906 0.609375 -0.703125 C 0.679688 -0.773438 0.785156 -0.8125 0.921875 -0.8125 C 1.046875 -0.8125 1.144531 -0.773438 1.21875 -0.703125 C 1.289062 -0.628906 1.328125 -0.515625 1.328125 -0.359375 C 1.328125 -0.210938 1.289062 -0.0976562 1.21875 -0.015625 C 1.144531 0.0546875 1.046875 0.09375 0.921875 0.09375 C 0.796875 0.09375 0.695312 0.0625 0.625 0 C 0.550781 -0.0703125 0.515625 -0.191406 0.515625 -0.359375 Z M 0.515625 -0.359375 "/></g></g></g><g fill="#000000" fill-opacity="1"><g transform="translate(42.169086, 9.521092)"><g><path d="M 2.421875 0 L 1.875 0 L 1.875 -3.53125 C 1.875 -3.820312 1.882812 -4.097656 1.90625 -4.359375 C 1.851562 -4.316406 1.796875 -4.269531 1.734375 -4.21875 C 1.679688 -4.164062 1.414062 -3.941406 0.9375 -3.546875 L 0.640625 -3.9375 L 1.953125 -4.953125 L 2.421875 -4.953125 Z M 2.421875 0 "/></g></g></g><g fill="#000000" fill-opacity="1"><g transform="translate(46.131562, 9.521092)"><g><path d="M 3.59375 0 L 0.34375 0 L 0.34375 -0.484375 L 1.640625 -1.796875 C 2.035156 -2.191406 2.296875 -2.472656 2.421875 -2.640625 C 2.554688 -2.816406 2.65625 -2.988281 2.71875 -3.15625 C 2.78125 -3.320312 2.8125 -3.5 2.8125 -3.6875 C 2.8125 -3.945312 2.726562 -4.15625 2.5625 -4.3125 C 2.40625 -4.46875 2.1875 -4.546875 1.90625 -4.546875 C 1.695312 -4.546875 1.5 -4.507812 1.3125 -4.4375 C 1.132812 -4.375 0.929688 -4.253906 0.703125 -4.078125 L 0.40625 -4.453125 C 0.863281 -4.835938 1.359375 -5.03125 1.890625 -5.03125 C 2.359375 -5.03125 2.722656 -4.910156 2.984375 -4.671875 C 3.253906 -4.429688 3.390625 -4.109375 3.390625 -3.703125 C 3.390625 -3.390625 3.300781 -3.078125 3.125 -2.765625 C 2.945312 -2.460938 2.613281 -2.078125 2.125 -1.609375 L 1.046875 -0.546875 L 1.046875 -0.515625 L 3.59375 -0.515625 Z M 3.59375 0 "/></g></g></g></g></g></g></svg>