<svg xmlns="http://www.w3.org/2000/svg" xmlns:xlink="http://www.w3.org/1999/xlink" width="40" zoomAndPan="magnify" viewBox="0 0 30 52.499999" height="70" preserveAspectRatio="xMidYMid meet" version="1.0"><defs><filter x="0%" y="0%" width="100%" height="100%" id="620f20ef5b"><feColorMatrix values="0 0 0 0 1 0 0 0 0 1 0 0 0 0 1 0 0 0 1 0" color-interpolation-filters="sRGB"/></filter><g/><clipPath id="ecbec43469"><path d="M 1 1.867188 L 28 1.867188 L 28 50.636719 L 1 50.636719 Z M 1 1.867188 " clip-rule="nonzero"/></clipPath><clipPath id="0e599afb14"><path d="M 7.535156 1.867188 L 21.464844 1.867188 C 25.070312 1.867188 28 4.839844 28 8.507812 L 28 43.953125 C 28 47.621094 25.070312 50.59375 21.464844 50.59375 L 7.535156 50.59375 C 3.929688 50.59375 1 47.621094 1 43.953125 L 1 8.507812 C 1 4.839844 3.929688 1.867188 7.535156 1.867188 Z M 7.535156 1.867188 " clip-rule="nonzero"/></clipPath><clipPath id="92b573bfc0"><path d="M 1 1.867188 L 27.984375 1.867188 L 27.984375 50.605469 L 1 50.605469 Z M 1 1.867188 " clip-rule="nonzero"/></clipPath><clipPath id="27d412c755"><path d="M 7.535156 1.867188 L 21.460938 1.867188 C 25.070312 1.867188 27.996094 4.839844 27.996094 8.507812 L 27.996094 43.949219 C 27.996094 47.617188 25.070312 50.589844 21.460938 50.589844 L 7.535156 50.589844 C 3.925781 50.589844 1 47.617188 1 43.949219 L 1 8.507812 C 1 4.839844 3.925781 1.867188 7.535156 1.867188 Z M 7.535156 1.867188 " clip-rule="nonzero"/></clipPath><clipPath id="53f9db9719"><path d="M 1.917969 0.621094 L 28.917969 0.621094 L 28.917969 49.386719 L 1.917969 49.386719 Z M 1.917969 0.621094 " clip-rule="nonzero"/></clipPath><clipPath id="e04b2e154c"><path d="M 8.453125 0.621094 L 22.382812 0.621094 C 25.992188 0.621094 28.917969 3.59375 28.917969 7.261719 L 28.917969 42.707031 C 28.917969 46.375 25.992188 49.347656 22.382812 49.347656 L 8.453125 49.347656 C 4.847656 49.347656 1.917969 46.375 1.917969 42.707031 L 1.917969 7.261719 C 1.917969 3.59375 4.847656 0.621094 8.453125 0.621094 Z M 8.453125 0.621094 " clip-rule="nonzero"/></clipPath><clipPath id="e3a7b3d27d"><path d="M 1.917969 0.621094 L 28.90625 0.621094 L 28.90625 49.359375 L 1.917969 49.359375 Z M 1.917969 0.621094 " clip-rule="nonzero"/></clipPath><clipPath id="1d78a4ba2d"><path d="M 8.453125 0.621094 L 22.378906 0.621094 C 25.988281 0.621094 28.914062 3.59375 28.914062 7.261719 L 28.914062 42.703125 C 28.914062 46.371094 25.988281 49.34375 22.378906 49.34375 L 8.453125 49.34375 C 4.84375 49.34375 1.917969 46.371094 1.917969 42.703125 L 1.917969 7.261719 C 1.917969 3.59375 4.84375 0.621094 8.453125 0.621094 Z M 8.453125 0.621094 " clip-rule="nonzero"/></clipPath><clipPath id="14a0e5a1ad"><path d="M 10.1875 2.148438 L 20.648438 2.148438 L 20.648438 4.292969 L 10.1875 4.292969 Z M 10.1875 2.148438 " clip-rule="nonzero"/></clipPath><clipPath id="4c19f60906"><path d="M 11.242188 2.148438 L 19.59375 2.148438 C 20.175781 2.148438 20.648438 2.628906 20.648438 3.21875 C 20.648438 3.8125 20.175781 4.292969 19.59375 4.292969 L 11.242188 4.292969 C 10.660156 4.292969 10.1875 3.8125 10.1875 3.21875 C 10.1875 2.628906 10.660156 2.148438 11.242188 2.148438 Z M 11.242188 2.148438 " clip-rule="nonzero"/></clipPath><clipPath id="afda83a205"><path d="M 10.1875 2.148438 L 20.695312 2.148438 L 20.695312 4.171875 L 10.1875 4.171875 Z M 10.1875 2.148438 " clip-rule="nonzero"/></clipPath><clipPath id="657136a69e"><path d="M 11.242188 2.148438 L 19.589844 2.148438 C 20.171875 2.148438 20.644531 2.628906 20.644531 3.21875 C 20.644531 3.8125 20.171875 4.292969 19.589844 4.292969 L 11.242188 4.292969 C 10.660156 4.292969 10.1875 3.8125 10.1875 3.21875 C 10.1875 2.628906 10.660156 2.148438 11.242188 2.148438 Z M 11.242188 2.148438 " clip-rule="nonzero"/></clipPath><clipPath id="027ab68da5"><path d="M 3.210938 5.949219 L 27.625 5.949219 L 27.625 41.039062 L 3.210938 41.039062 Z M 3.210938 5.949219 " clip-rule="nonzero"/></clipPath><clipPath id="668a7150c2"><path d="M 4.632812 5.949219 L 26.207031 5.949219 C 26.582031 5.949219 26.945312 6.101562 27.210938 6.371094 C 27.476562 6.644531 27.625 7.007812 27.625 7.394531 L 27.625 39.59375 C 27.625 39.976562 27.476562 40.34375 27.210938 40.617188 C 26.945312 40.886719 26.582031 41.039062 26.207031 41.039062 L 4.632812 41.039062 C 4.253906 41.039062 3.894531 40.886719 3.625 40.617188 C 3.359375 40.34375 3.210938 39.976562 3.210938 39.59375 L 3.210938 7.394531 C 3.210938 7.007812 3.359375 6.644531 3.625 6.371094 C 3.894531 6.101562 4.253906 5.949219 4.632812 5.949219 Z M 4.632812 5.949219 " clip-rule="nonzero"/></clipPath><clipPath id="96fba8a8ec"><path d="M 3.210938 5.949219 L 27.640625 5.949219 L 27.640625 41.171875 L 3.210938 41.171875 Z M 3.210938 5.949219 " clip-rule="nonzero"/></clipPath><clipPath id="82b05cd3ff"><path d="M 4.632812 5.949219 L 26.203125 5.949219 C 26.578125 5.949219 26.9375 6.101562 27.207031 6.375 C 27.472656 6.644531 27.621094 7.011719 27.621094 7.394531 L 27.621094 39.59375 C 27.621094 39.972656 27.472656 40.339844 27.207031 40.609375 C 26.9375 40.882812 26.578125 41.035156 26.203125 41.035156 L 4.632812 41.035156 C 4.253906 41.035156 3.894531 40.882812 3.625 40.609375 C 3.359375 40.339844 3.210938 39.972656 3.210938 39.59375 L 3.210938 7.394531 C 3.210938 7.011719 3.359375 6.644531 3.625 6.375 C 3.894531 6.101562 4.253906 5.949219 4.632812 5.949219 Z M 4.632812 5.949219 " clip-rule="nonzero"/></clipPath><clipPath id="fc897eaf41"><path d="M 12.691406 42.640625 L 18.148438 42.640625 L 18.148438 48.1875 L 12.691406 48.1875 Z M 12.691406 42.640625 " clip-rule="nonzero"/></clipPath><clipPath id="c6ff599b99"><path d="M 15.417969 42.640625 C 13.914062 42.640625 12.691406 43.882812 12.691406 45.414062 C 12.691406 46.945312 13.914062 48.1875 15.417969 48.1875 C 16.925781 48.1875 18.148438 46.945312 18.148438 45.414062 C 18.148438 43.882812 16.925781 42.640625 15.417969 42.640625 Z M 15.417969 42.640625 " clip-rule="nonzero"/></clipPath><clipPath id="bd45dea6a8"><path d="M 12.691406 42.640625 L 18.085938 42.640625 L 18.085938 48.128906 L 12.691406 48.128906 Z M 12.691406 42.640625 " clip-rule="nonzero"/></clipPath><clipPath id="72c8df3a2a"><path d="M 15.414062 42.640625 C 13.914062 42.640625 12.691406 43.882812 12.691406 45.410156 C 12.691406 46.941406 13.914062 48.179688 15.414062 48.179688 C 16.921875 48.179688 18.140625 46.941406 18.140625 45.410156 C 18.140625 43.882812 16.921875 42.640625 15.414062 42.640625 Z M 15.414062 42.640625 " clip-rule="nonzero"/></clipPath><clipPath id="60183a1fb2"><path d="M 4.96875 20.359375 L 25.882812 20.359375 L 25.882812 25.070312 L 4.96875 25.070312 Z M 4.96875 20.359375 " clip-rule="nonzero"/></clipPath><clipPath id="f9d0323ab3"><path d="M 6.671875 20.359375 L 24.164062 20.359375 C 25.105469 20.359375 25.867188 21.132812 25.867188 22.089844 L 25.867188 23.339844 C 25.867188 24.296875 25.105469 25.070312 24.164062 25.070312 L 6.671875 25.070312 C 5.734375 25.070312 4.96875 24.296875 4.96875 23.339844 L 4.96875 22.089844 C 4.96875 21.132812 5.734375 20.359375 6.671875 20.359375 Z M 6.671875 20.359375 " clip-rule="nonzero"/></clipPath><clipPath id="b99588df4d"><path d="M 4.972656 20.359375 L 25.941406 20.359375 L 25.941406 24.976562 L 4.972656 24.976562 Z M 4.972656 20.359375 " clip-rule="nonzero"/></clipPath><clipPath id="da05f15586"><path d="M 6.679688 20.359375 L 24.15625 20.359375 C 25.097656 20.359375 25.859375 21.132812 25.859375 22.089844 L 25.859375 23.335938 C 25.859375 24.292969 25.097656 25.066406 24.15625 25.066406 L 6.679688 25.066406 C 5.738281 25.066406 4.972656 24.292969 4.972656 23.335938 L 4.972656 22.089844 C 4.972656 21.132812 5.738281 20.359375 6.679688 20.359375 Z M 6.679688 20.359375 " clip-rule="nonzero"/></clipPath><clipPath id="f8d790a109"><path d="M 5.363281 26.65625 L 10.199219 26.65625 L 10.199219 31.363281 L 5.363281 31.363281 Z M 5.363281 26.65625 " clip-rule="nonzero"/></clipPath><clipPath id="b56a614a95"><path d="M 7.070312 26.65625 L 8.484375 26.65625 C 9.425781 26.65625 10.1875 27.429688 10.1875 28.386719 L 10.1875 29.632812 C 10.1875 30.589844 9.425781 31.363281 8.484375 31.363281 L 7.070312 31.363281 C 6.128906 31.363281 5.363281 30.589844 5.363281 29.632812 L 5.363281 28.386719 C 5.363281 27.429688 6.128906 26.65625 7.070312 26.65625 Z M 7.070312 26.65625 " clip-rule="nonzero"/></clipPath><clipPath id="0c2e106bb6"><path d="M 5.367188 26.65625 L 10.191406 26.65625 L 10.191406 31.273438 L 5.367188 31.273438 Z M 5.367188 26.65625 " clip-rule="nonzero"/></clipPath><clipPath id="2e9b2ccaf3"><path d="M 7.070312 26.65625 L 8.484375 26.65625 C 9.425781 26.65625 10.1875 27.429688 10.1875 28.386719 L 10.1875 29.632812 C 10.1875 30.589844 9.425781 31.363281 8.484375 31.363281 L 7.070312 31.363281 C 6.128906 31.363281 5.367188 30.589844 5.367188 29.632812 L 5.367188 28.386719 C 5.367188 27.429688 6.128906 26.65625 7.070312 26.65625 Z M 7.070312 26.65625 " clip-rule="nonzero"/></clipPath><clipPath id="9d6f705817"><path d="M 20.648438 26.65625 L 25.484375 26.65625 L 25.484375 31.363281 L 20.648438 31.363281 Z M 20.648438 26.65625 " clip-rule="nonzero"/></clipPath><clipPath id="411be44752"><path d="M 22.351562 26.65625 L 23.769531 26.65625 C 24.710938 26.65625 25.472656 27.429688 25.472656 28.386719 L 25.472656 29.632812 C 25.472656 30.589844 24.710938 31.363281 23.769531 31.363281 L 22.351562 31.363281 C 21.410156 31.363281 20.648438 30.589844 20.648438 29.632812 L 20.648438 28.386719 C 20.648438 27.429688 21.410156 26.65625 22.351562 26.65625 Z M 22.351562 26.65625 " clip-rule="nonzero"/></clipPath><clipPath id="45f3a68829"><path d="M 20.648438 26.65625 L 25.476562 26.65625 L 25.476562 31.273438 L 20.648438 31.273438 Z M 20.648438 26.65625 " clip-rule="nonzero"/></clipPath><clipPath id="453d17af29"><path d="M 22.351562 26.65625 L 23.765625 26.65625 C 24.707031 26.65625 25.472656 27.429688 25.472656 28.386719 L 25.472656 29.632812 C 25.472656 30.589844 24.707031 31.363281 23.765625 31.363281 L 22.351562 31.363281 C 21.414062 31.363281 20.648438 30.589844 20.648438 29.632812 L 20.648438 28.386719 C 20.648438 27.429688 21.414062 26.65625 22.351562 26.65625 Z M 22.351562 26.65625 " clip-rule="nonzero"/></clipPath><clipPath id="3e9174d48b"><path d="M 13.007812 26.65625 L 17.839844 26.65625 L 17.839844 31.363281 L 13.007812 31.363281 Z M 13.007812 26.65625 " clip-rule="nonzero"/></clipPath><clipPath id="18f33cb36d"><path d="M 14.710938 26.65625 L 16.125 26.65625 C 17.066406 26.65625 17.832031 27.429688 17.832031 28.386719 L 17.832031 29.632812 C 17.832031 30.589844 17.066406 31.363281 16.125 31.363281 L 14.710938 31.363281 C 13.769531 31.363281 13.007812 30.589844 13.007812 29.632812 L 13.007812 28.386719 C 13.007812 27.429688 13.769531 26.65625 14.710938 26.65625 Z M 14.710938 26.65625 " clip-rule="nonzero"/></clipPath><clipPath id="139b37439f"><path d="M 13.007812 26.65625 L 17.835938 26.65625 L 17.835938 31.273438 L 13.007812 31.273438 Z M 13.007812 26.65625 " clip-rule="nonzero"/></clipPath><clipPath id="f261d356f1"><path d="M 14.710938 26.65625 L 16.125 26.65625 C 17.066406 26.65625 17.828125 27.429688 17.828125 28.386719 L 17.828125 29.632812 C 17.828125 30.589844 17.066406 31.363281 16.125 31.363281 L 14.710938 31.363281 C 13.769531 31.363281 13.007812 30.589844 13.007812 29.632812 L 13.007812 28.386719 C 13.007812 27.429688 13.769531 26.65625 14.710938 26.65625 Z M 14.710938 26.65625 " clip-rule="nonzero"/></clipPath><clipPath id="614baab32e"><path d="M 5.363281 33.023438 L 10.199219 33.023438 L 10.199219 37.734375 L 5.363281 37.734375 Z M 5.363281 33.023438 " clip-rule="nonzero"/></clipPath><clipPath id="a13a861e2d"><path d="M 7.070312 33.023438 L 8.484375 33.023438 C 9.425781 33.023438 10.1875 33.796875 10.1875 34.753906 L 10.1875 36.003906 C 10.1875 36.957031 9.425781 37.734375 8.484375 37.734375 L 7.070312 37.734375 C 6.128906 37.734375 5.363281 36.957031 5.363281 36.003906 L 5.363281 34.753906 C 5.363281 33.796875 6.128906 33.023438 7.070312 33.023438 Z M 7.070312 33.023438 " clip-rule="nonzero"/></clipPath><clipPath id="e3b43b1035"><path d="M 5.367188 33.023438 L 10.191406 33.023438 L 10.191406 37.640625 L 5.367188 37.640625 Z M 5.367188 33.023438 " clip-rule="nonzero"/></clipPath><clipPath id="c7cb0f5a02"><path d="M 7.070312 33.023438 L 8.484375 33.023438 C 9.425781 33.023438 10.1875 33.796875 10.1875 34.753906 L 10.1875 36 C 10.1875 36.957031 9.425781 37.730469 8.484375 37.730469 L 7.070312 37.730469 C 6.128906 37.730469 5.367188 36.957031 5.367188 36 L 5.367188 34.753906 C 5.367188 33.796875 6.128906 33.023438 7.070312 33.023438 Z M 7.070312 33.023438 " clip-rule="nonzero"/></clipPath><clipPath id="738ed6364e"><path d="M 20.648438 33.023438 L 25.484375 33.023438 L 25.484375 37.734375 L 20.648438 37.734375 Z M 20.648438 33.023438 " clip-rule="nonzero"/></clipPath><clipPath id="e60643528a"><path d="M 22.351562 33.023438 L 23.769531 33.023438 C 24.710938 33.023438 25.472656 33.796875 25.472656 34.753906 L 25.472656 36.003906 C 25.472656 36.957031 24.710938 37.734375 23.769531 37.734375 L 22.351562 37.734375 C 21.410156 37.734375 20.648438 36.957031 20.648438 36.003906 L 20.648438 34.753906 C 20.648438 33.796875 21.410156 33.023438 22.351562 33.023438 Z M 22.351562 33.023438 " clip-rule="nonzero"/></clipPath><clipPath id="887c22a47d"><path d="M 20.648438 33.023438 L 25.476562 33.023438 L 25.476562 37.640625 L 20.648438 37.640625 Z M 20.648438 33.023438 " clip-rule="nonzero"/></clipPath><clipPath id="da84907e3c"><path d="M 22.351562 33.023438 L 23.765625 33.023438 C 24.707031 33.023438 25.472656 33.796875 25.472656 34.753906 L 25.472656 36 C 25.472656 36.957031 24.707031 37.730469 23.765625 37.730469 L 22.351562 37.730469 C 21.414062 37.730469 20.648438 36.957031 20.648438 36 L 20.648438 34.753906 C 20.648438 33.796875 21.414062 33.023438 22.351562 33.023438 Z M 22.351562 33.023438 " clip-rule="nonzero"/></clipPath><clipPath id="259d5953b7"><path d="M 13.007812 33.023438 L 17.839844 33.023438 L 17.839844 37.734375 L 13.007812 37.734375 Z M 13.007812 33.023438 " clip-rule="nonzero"/></clipPath><clipPath id="3c8d0e71aa"><path d="M 14.710938 33.023438 L 16.125 33.023438 C 17.066406 33.023438 17.832031 33.796875 17.832031 34.753906 L 17.832031 36.003906 C 17.832031 36.957031 17.066406 37.734375 16.125 37.734375 L 14.710938 37.734375 C 13.769531 37.734375 13.007812 36.957031 13.007812 36.003906 L 13.007812 34.753906 C 13.007812 33.796875 13.769531 33.023438 14.710938 33.023438 Z M 14.710938 33.023438 " clip-rule="nonzero"/></clipPath><clipPath id="584a787b34"><path d="M 13.007812 33.023438 L 17.835938 33.023438 L 17.835938 37.640625 L 13.007812 37.640625 Z M 13.007812 33.023438 " clip-rule="nonzero"/></clipPath><clipPath id="62abfb2064"><path d="M 14.710938 33.023438 L 16.125 33.023438 C 17.066406 33.023438 17.828125 33.796875 17.828125 34.753906 L 17.828125 36 C 17.828125 36.957031 17.066406 37.730469 16.125 37.730469 L 14.710938 37.730469 C 13.769531 37.730469 13.007812 36.957031 13.007812 36 L 13.007812 34.753906 C 13.007812 33.796875 13.769531 33.023438 14.710938 33.023438 Z M 14.710938 33.023438 " clip-rule="nonzero"/></clipPath><clipPath id="b13b730ee9"><path d="M 22.816406 1.867188 L 25.472656 1.867188 L 25.472656 4.570312 L 22.816406 4.570312 Z M 22.816406 1.867188 " clip-rule="nonzero"/></clipPath><clipPath id="eeda3eee2e"><path d="M 24.144531 1.867188 C 23.410156 1.867188 22.816406 2.472656 22.816406 3.21875 C 22.816406 3.964844 23.410156 4.570312 24.144531 4.570312 C 24.878906 4.570312 25.472656 3.964844 25.472656 3.21875 C 25.472656 2.472656 24.878906 1.867188 24.144531 1.867188 Z M 24.144531 1.867188 " clip-rule="nonzero"/></clipPath><clipPath id="54234e961d"><path d="M 22.816406 1.867188 L 25.371094 1.867188 L 25.371094 4.464844 L 22.816406 4.464844 Z M 22.816406 1.867188 " clip-rule="nonzero"/></clipPath><clipPath id="204d82c2c4"><path d="M 24.140625 1.867188 C 23.410156 1.867188 22.816406 2.46875 22.816406 3.214844 C 22.816406 3.960938 23.410156 4.566406 24.140625 4.566406 C 24.875 4.566406 25.46875 3.960938 25.46875 3.214844 C 25.46875 2.46875 24.875 1.867188 24.140625 1.867188 Z M 24.140625 1.867188 " clip-rule="nonzero"/></clipPath><clipPath id="d806d116ab"><path d="M 0.140625 22 L 29.859375 22 L 29.859375 30 L 0.140625 30 Z M 0.140625 22 " clip-rule="nonzero"/></clipPath><mask id="a8763cd582"><g filter="url(#620f20ef5b)"><rect x="-3" width="36" fill="#000000" y="-5.25" height="62.999998" fill-opacity="0.92"/></g></mask><clipPath id="09abd84fcc"><path d="M 0.667969 0.660156 L 29.859375 0.660156 L 29.859375 7.34375 L 0.667969 7.34375 Z M 0.667969 0.660156 " clip-rule="nonzero"/></clipPath><clipPath id="f43e56c14a"><path d="M 4.007812 0.660156 L 27.039062 0.660156 C 28.886719 0.660156 30.382812 2.15625 30.382812 4.003906 C 30.382812 5.847656 28.886719 7.34375 27.039062 7.34375 L 4.007812 7.34375 C 2.164062 7.34375 0.667969 5.847656 0.667969 4.003906 C 0.667969 2.15625 2.164062 0.660156 4.007812 0.660156 Z M 4.007812 0.660156 " clip-rule="nonzero"/></clipPath><clipPath id="42747af5e5"><rect x="0" width="30" y="0" height="8"/></clipPath></defs><g clip-path="url(#ecbec43469)"><g clip-path="url(#0e599afb14)"><path fill="#413f45" d="M 1 1.867188 L 28 1.867188 L 28 50.636719 L 1 50.636719 Z M 1 1.867188 " fill-opacity="1" fill-rule="nonzero"/></g></g><g clip-path="url(#92b573bfc0)"><g clip-path="url(#27d412c755)"><path stroke-linecap="butt" transform="matrix(0.284039, 0, 0, 0.288707, 1.001638, 1.867932)" fill="none" stroke-linejoin="miter" d="M 22.988463 -0.00257996 L 72.029986 -0.00257996 C 84.737323 -0.00257996 95.037968 10.293871 95.037968 22.99869 L 95.037968 145.757818 C 95.037968 158.462637 84.737323 168.759088 72.029986 168.759088 L 22.988463 168.759088 C 10.294878 168.759088 -0.00576691 158.462637 -0.00576691 145.757818 L -0.00576691 22.99869 C -0.00576691 10.293871 10.294878 -0.00257996 22.988463 -0.00257996 Z M 22.988463 -0.00257996 " stroke="#000000" stroke-width="4" stroke-opacity="1" stroke-miterlimit="4"/></g></g><g clip-path="url(#53f9db9719)"><g clip-path="url(#e04b2e154c)"><path fill="#d1c4dd" d="M 1.917969 0.621094 L 28.917969 0.621094 L 28.917969 49.390625 L 1.917969 49.390625 Z M 1.917969 0.621094 " fill-opacity="1" fill-rule="nonzero"/></g></g><g clip-path="url(#e3a7b3d27d)"><g clip-path="url(#1d78a4ba2d)"><path stroke-linecap="butt" transform="matrix(0.284039, 0, 0, 0.288707, 1.920512, 0.622287)" fill="none" stroke-linejoin="miter" d="M 22.999029 -0.00413423 L 72.026799 -0.00413423 C 84.734136 -0.00413423 95.034781 10.292316 95.034781 22.997135 L 95.034781 145.756264 C 95.034781 158.461083 84.734136 168.757534 72.026799 168.757534 L 22.999029 168.757534 C 10.291691 168.757534 -0.00895374 158.461083 -0.00895374 145.756264 L -0.00895374 22.997135 C -0.00895374 10.292316 10.291691 -0.00413423 22.999029 -0.00413423 Z M 22.999029 -0.00413423 " stroke="#000000" stroke-width="4" stroke-opacity="1" stroke-miterlimit="4"/></g></g><g clip-path="url(#14a0e5a1ad)"><g clip-path="url(#4c19f60906)"><path fill="#413f45" d="M 10.1875 2.148438 L 20.648438 2.148438 L 20.648438 4.292969 L 10.1875 4.292969 Z M 10.1875 2.148438 " fill-opacity="1" fill-rule="nonzero"/></g></g><g clip-path="url(#afda83a205)"><g clip-path="url(#657136a69e)"><path stroke-linecap="butt" transform="matrix(0.284039, 0, 0, 0.288707, 10.188853, 2.149673)" fill="none" stroke-linejoin="miter" d="M 3.708419 -0.00427981 L 33.097575 -0.00427981 C 35.146702 -0.00427981 36.810759 1.65993 36.810759 3.702984 C 36.810759 5.759568 35.146702 7.423777 33.097575 7.423777 L 3.708419 7.423777 C 1.659292 7.423777 -0.00476439 5.759568 -0.00476439 3.702984 C -0.00476439 1.65993 1.659292 -0.00427981 3.708419 -0.00427981 Z M 3.708419 -0.00427981 " stroke="#000000" stroke-width="4" stroke-opacity="1" stroke-miterlimit="4"/></g></g><g clip-path="url(#027ab68da5)"><g clip-path="url(#668a7150c2)"><path fill="#efefef" d="M 3.210938 5.949219 L 27.625 5.949219 L 27.625 41.039062 L 3.210938 41.039062 Z M 3.210938 5.949219 " fill-opacity="1" fill-rule="nonzero"/></g></g><g clip-path="url(#96fba8a8ec)"><g clip-path="url(#82b05cd3ff)"><path stroke-linecap="butt" transform="matrix(0.284039, 0, 0, 0.288707, 3.210997, 5.951109)" fill="none" stroke-linejoin="miter" d="M 5.005713 -0.00654867 L 80.933431 -0.00654867 C 82.267427 -0.00654867 83.53266 0.521128 84.467832 1.468239 C 85.403004 2.40182 85.939352 3.673654 85.939352 4.99961 L 85.939352 116.528707 C 85.939352 117.841132 85.403004 119.112967 84.467832 120.046548 C 83.53266 120.993659 82.267427 121.521336 80.933431 121.521336 L 5.005713 121.521336 C 3.671718 121.521336 2.392732 120.993659 1.45756 120.046548 C 0.522388 119.112967 -0.00020797 117.841132 -0.00020797 116.528707 L -0.00020797 4.99961 C -0.00020797 3.673654 0.522388 2.40182 1.45756 1.468239 C 2.392732 0.521128 3.671718 -0.00654867 5.005713 -0.00654867 Z M 5.005713 -0.00654867 " stroke="#000000" stroke-width="4" stroke-opacity="1" stroke-miterlimit="4"/></g></g><g clip-path="url(#fc897eaf41)"><g clip-path="url(#c6ff599b99)"><path fill="#d1c4dd" d="M 12.691406 42.640625 L 18.148438 42.640625 L 18.148438 48.1875 L 12.691406 48.1875 Z M 12.691406 42.640625 " fill-opacity="1" fill-rule="nonzero"/></g></g><g clip-path="url(#bd45dea6a8)"><g clip-path="url(#72c8df3a2a)"><path stroke-linecap="butt" transform="matrix(0.284039, 0, 0, 0.288707, 12.691134, 42.64294)" fill="none" stroke-linejoin="miter" d="M 9.586472 0.00551089 C 4.305501 0.00551089 0.000958726 4.294571 0.000958726 9.598393 C 0.000958726 14.888685 4.305501 19.191276 9.586472 19.191276 C 14.894949 19.191276 19.185738 14.888685 19.185738 9.598393 C 19.185738 4.294571 14.894949 0.00551089 9.586472 0.00551089 Z M 9.586472 0.00551089 " stroke="#000000" stroke-width="4" stroke-opacity="1" stroke-miterlimit="4"/></g></g><g clip-path="url(#60183a1fb2)"><g clip-path="url(#f9d0323ab3)"><path fill="#ffcc4a" d="M 4.96875 20.359375 L 25.867188 20.359375 L 25.867188 25.070312 L 4.96875 25.070312 Z M 4.96875 20.359375 " fill-opacity="1" fill-rule="nonzero"/></g></g><g clip-path="url(#b99588df4d)"><g clip-path="url(#da05f15586)"><path stroke-linecap="butt" transform="matrix(0.284039, 0, 0, 0.288707, 4.973609, 20.358071)" fill="none" stroke-linejoin="miter" d="M 6.0065 -0.00901458 L 67.535319 -0.00901458 C 70.849679 -0.00901458 73.531422 2.683487 73.531422 5.998376 L 73.531422 10.314496 C 73.531422 13.629385 70.849679 16.308357 67.535319 16.308357 L 6.0065 16.308357 C 2.69214 16.308357 -0.00335606 13.629385 -0.00335606 10.314496 L -0.00335606 5.998376 C -0.00335606 2.683487 2.69214 -0.00901458 6.0065 -0.00901458 Z M 6.0065 -0.00901458 " stroke="#000000" stroke-width="4" stroke-opacity="1" stroke-miterlimit="4"/></g></g><g clip-path="url(#f8d790a109)"><g clip-path="url(#b56a614a95)"><path fill="#ffcc4a" d="M 5.363281 26.65625 L 10.179688 26.65625 L 10.179688 31.363281 L 5.363281 31.363281 Z M 5.363281 26.65625 " fill-opacity="1" fill-rule="nonzero"/></g></g><g clip-path="url(#0c2e106bb6)"><g clip-path="url(#2e9b2ccaf3)"><path stroke-linecap="butt" transform="matrix(0.284039, 0, 0, 0.288707, 5.365527, 26.653377)" fill="none" stroke-linejoin="miter" d="M 6.001948 -0.00357901 L 10.980364 -0.00357901 C 14.294724 -0.00357901 16.976467 2.688923 16.976467 6.003811 L 16.976467 10.319932 C 16.976467 13.621291 14.294724 16.313792 10.980364 16.313792 L 6.001948 16.313792 C 2.687589 16.313792 0.00584518 13.621291 0.00584518 10.319932 L 0.00584518 6.003811 C 0.00584518 2.688923 2.687589 -0.00357901 6.001948 -0.00357901 Z M 6.001948 -0.00357901 " stroke="#000000" stroke-width="4" stroke-opacity="1" stroke-miterlimit="4"/></g></g><g clip-path="url(#9d6f705817)"><g clip-path="url(#411be44752)"><path fill="#ffcc4a" d="M 20.648438 26.65625 L 25.464844 26.65625 L 25.464844 31.363281 L 20.648438 31.363281 Z M 20.648438 26.65625 " fill-opacity="1" fill-rule="nonzero"/></g></g><g clip-path="url(#45f3a68829)"><g clip-path="url(#453d17af29)"><path stroke-linecap="butt" transform="matrix(0.284039, 0, 0, 0.288707, 20.649291, 26.653377)" fill="none" stroke-linejoin="miter" d="M 5.993099 -0.00357901 L 10.971515 -0.00357901 C 14.285875 -0.00357901 16.981371 2.688923 16.981371 6.003811 L 16.981371 10.319932 C 16.981371 13.621291 14.285875 16.313792 10.971515 16.313792 L 5.993099 16.313792 C 2.692492 16.313792 -0.00300408 13.621291 -0.00300408 10.319932 L -0.00300408 6.003811 C -0.00300408 2.688923 2.692492 -0.00357901 5.993099 -0.00357901 Z M 5.993099 -0.00357901 " stroke="#000000" stroke-width="4" stroke-opacity="1" stroke-miterlimit="4"/></g></g><g clip-path="url(#3e9174d48b)"><g clip-path="url(#18f33cb36d)"><path fill="#ff5757" d="M 13.007812 26.65625 L 17.824219 26.65625 L 17.824219 31.363281 L 13.007812 31.363281 Z M 13.007812 26.65625 " fill-opacity="1" fill-rule="nonzero"/></g></g><g clip-path="url(#139b37439f)"><g clip-path="url(#f261d356f1)"><path stroke-linecap="butt" transform="matrix(0.284039, 0, 0, 0.288707, 13.00741, 26.653377)" fill="none" stroke-linejoin="miter" d="M 5.99752 -0.00357901 L 10.975936 -0.00357901 C 14.290296 -0.00357901 16.972039 2.688923 16.972039 6.003811 L 16.972039 10.319932 C 16.972039 13.621291 14.290296 16.313792 10.975936 16.313792 L 5.99752 16.313792 C 2.68316 16.313792 0.00141678 13.621291 0.00141678 10.319932 L 0.00141678 6.003811 C 0.00141678 2.688923 2.68316 -0.00357901 5.99752 -0.00357901 Z M 5.99752 -0.00357901 " stroke="#000000" stroke-width="4" stroke-opacity="1" stroke-miterlimit="4"/></g></g><g clip-path="url(#614baab32e)"><g clip-path="url(#a13a861e2d)"><path fill="#59a474" d="M 5.363281 33.023438 L 10.179688 33.023438 L 10.179688 37.734375 L 5.363281 37.734375 Z M 5.363281 33.023438 " fill-opacity="1" fill-rule="nonzero"/></g></g><g clip-path="url(#e3b43b1035)"><g clip-path="url(#c7cb0f5a02)"><path stroke-linecap="butt" transform="matrix(0.284039, 0, 0, 0.288707, 5.365527, 33.022474)" fill="none" stroke-linejoin="miter" d="M 6.001948 0.0033363 L 10.980364 0.0033363 C 14.294724 0.0033363 16.976467 2.682308 16.976467 5.997197 L 16.976467 10.313317 C 16.976467 13.628206 14.294724 16.320708 10.980364 16.320708 L 6.001948 16.320708 C 2.687589 16.320708 0.00584518 13.628206 0.00584518 10.313317 L 0.00584518 5.997197 C 0.00584518 2.682308 2.687589 0.0033363 6.001948 0.0033363 Z M 6.001948 0.0033363 " stroke="#000000" stroke-width="4" stroke-opacity="1" stroke-miterlimit="4"/></g></g><g clip-path="url(#738ed6364e)"><g clip-path="url(#e60643528a)"><path fill="#0cc0df" d="M 20.648438 33.023438 L 25.464844 33.023438 L 25.464844 37.734375 L 20.648438 37.734375 Z M 20.648438 33.023438 " fill-opacity="1" fill-rule="nonzero"/></g></g><g clip-path="url(#887c22a47d)"><g clip-path="url(#da84907e3c)"><path stroke-linecap="butt" transform="matrix(0.284039, 0, 0, 0.288707, 20.649291, 33.022474)" fill="none" stroke-linejoin="miter" d="M 5.993099 0.0033363 L 10.971515 0.0033363 C 14.285875 0.0033363 16.981371 2.682308 16.981371 5.997197 L 16.981371 10.313317 C 16.981371 13.628206 14.285875 16.320708 10.971515 16.320708 L 5.993099 16.320708 C 2.692492 16.320708 -0.00300408 13.628206 -0.00300408 10.313317 L -0.00300408 5.997197 C -0.00300408 2.682308 2.692492 0.0033363 5.993099 0.0033363 Z M 5.993099 0.0033363 " stroke="#000000" stroke-width="4" stroke-opacity="1" stroke-miterlimit="4"/></g></g><g clip-path="url(#259d5953b7)"><g clip-path="url(#3c8d0e71aa)"><path fill="#b76ac6" d="M 13.007812 33.023438 L 17.824219 33.023438 L 17.824219 37.734375 L 13.007812 37.734375 Z M 13.007812 33.023438 " fill-opacity="1" fill-rule="nonzero"/></g></g><g clip-path="url(#584a787b34)"><g clip-path="url(#62abfb2064)"><path stroke-linecap="butt" transform="matrix(0.284039, 0, 0, 0.288707, 13.00741, 33.022474)" fill="none" stroke-linejoin="miter" d="M 5.99752 0.0033363 L 10.975936 0.0033363 C 14.290296 0.0033363 16.972039 2.682308 16.972039 5.997197 L 16.972039 10.313317 C 16.972039 13.628206 14.290296 16.320708 10.975936 16.320708 L 5.99752 16.320708 C 2.68316 16.320708 0.00141678 13.628206 0.00141678 10.313317 L 0.00141678 5.997197 C 0.00141678 2.682308 2.68316 0.0033363 5.99752 0.0033363 Z M 5.99752 0.0033363 " stroke="#000000" stroke-width="4" stroke-opacity="1" stroke-miterlimit="4"/></g></g><g clip-path="url(#b13b730ee9)"><g clip-path="url(#eeda3eee2e)"><path fill="#413f45" d="M 22.816406 1.867188 L 25.472656 1.867188 L 25.472656 4.570312 L 22.816406 4.570312 Z M 22.816406 1.867188 " fill-opacity="1" fill-rule="nonzero"/></g></g><g clip-path="url(#54234e961d)"><g clip-path="url(#204d82c2c4)"><path stroke-linecap="butt" transform="matrix(0.284039, 0, 0, 0.288707, 22.814482, 1.8669)" fill="none" stroke-linejoin="miter" d="M 4.668882 0.000994724 C 2.097159 0.000994724 0.00677461 2.084639 0.00677461 4.668899 C 0.00677461 7.25316 2.097159 9.350334 4.668882 9.350334 C 7.240605 9.350334 9.344743 7.25316 9.344743 4.668899 C 9.344743 2.084639 7.240605 0.000994724 4.668882 0.000994724 Z M 4.668882 0.000994724 " stroke="#000000" stroke-width="4" stroke-opacity="1" stroke-miterlimit="4"/></g></g><g clip-path="url(#d806d116ab)"><g mask="url(#a8763cd582)"><g transform="matrix(1, 0, 0, 1, 0, 22)"><g clip-path="url(#42747af5e5)"><g clip-path="url(#09abd84fcc)"><g clip-path="url(#f43e56c14a)"><path fill="#e4e4e4" d="M 0.667969 0.660156 L 30.390625 0.660156 L 30.390625 7.34375 L 0.667969 7.34375 Z M 0.667969 0.660156 " fill-opacity="1" fill-rule="nonzero"/></g></g><g fill="#000000" fill-opacity="1"><g transform="translate(4.787201, 5.116607)"><g><path d="M 1.875 0 L 0.171875 0 L 0.171875 -0.25 L 0.859375 -0.9375 C 1.066406 -1.144531 1.203125 -1.289062 1.265625 -1.375 C 1.335938 -1.46875 1.390625 -1.554688 1.421875 -1.640625 C 1.453125 -1.734375 1.46875 -1.828125 1.46875 -1.921875 C 1.46875 -2.054688 1.425781 -2.164062 1.34375 -2.25 C 1.257812 -2.332031 1.144531 -2.375 1 -2.375 C 0.882812 -2.375 0.78125 -2.351562 0.6875 -2.3125 C 0.59375 -2.28125 0.484375 -2.21875 0.359375 -2.125 L 0.203125 -2.328125 C 0.441406 -2.523438 0.703125 -2.625 0.984375 -2.625 C 1.234375 -2.625 1.425781 -2.5625 1.5625 -2.4375 C 1.695312 -2.3125 1.765625 -2.144531 1.765625 -1.9375 C 1.765625 -1.769531 1.71875 -1.601562 1.625 -1.4375 C 1.53125 -1.28125 1.359375 -1.082031 1.109375 -0.84375 L 0.546875 -0.28125 L 0.546875 -0.265625 L 1.875 -0.265625 Z M 1.875 0 "/></g></g></g><g fill="#000000" fill-opacity="1"><g transform="translate(6.851408, 5.116607)"><g><path d="M 1.265625 0 L 0.984375 0 L 0.984375 -1.84375 C 0.984375 -2 0.988281 -2.144531 1 -2.28125 C 0.96875 -2.257812 0.9375 -2.234375 0.90625 -2.203125 C 0.875 -2.171875 0.734375 -2.054688 0.484375 -1.859375 L 0.328125 -2.0625 L 1.015625 -2.59375 L 1.265625 -2.59375 Z M 1.265625 0 "/></g></g></g><g fill="#000000" fill-opacity="1"><g transform="translate(8.915615, 5.116607)"><g><path d="M 2 -0.59375 L 1.609375 -0.59375 L 1.609375 0 L 1.328125 0 L 1.328125 -0.59375 L 0.078125 -0.59375 L 0.078125 -0.84375 L 1.296875 -2.609375 L 1.609375 -2.609375 L 1.609375 -0.859375 L 2 -0.859375 Z M 1.328125 -0.859375 L 1.328125 -1.71875 C 1.328125 -1.882812 1.335938 -2.078125 1.359375 -2.296875 L 1.34375 -2.296875 C 1.28125 -2.179688 1.222656 -2.085938 1.171875 -2.015625 L 0.375 -0.859375 Z M 1.328125 -0.859375 "/></g></g></g><g fill="#000000" fill-opacity="1"><g transform="translate(10.979822, 5.116607)"><g><path d="M 0.265625 -0.1875 C 0.265625 -0.269531 0.28125 -0.328125 0.3125 -0.359375 C 0.351562 -0.398438 0.410156 -0.421875 0.484375 -0.421875 C 0.546875 -0.421875 0.597656 -0.398438 0.640625 -0.359375 C 0.679688 -0.328125 0.703125 -0.269531 0.703125 -0.1875 C 0.703125 -0.113281 0.679688 -0.0546875 0.640625 -0.015625 C 0.597656 0.0234375 0.546875 0.046875 0.484375 0.046875 C 0.421875 0.046875 0.367188 0.03125 0.328125 0 C 0.285156 -0.0390625 0.265625 -0.101562 0.265625 -0.1875 Z M 0.265625 -0.1875 "/></g></g></g><g fill="#000000" fill-opacity="1"><g transform="translate(11.940536, 5.116607)"><g><path d="M 1.265625 0 L 0.984375 0 L 0.984375 -1.84375 C 0.984375 -2 0.988281 -2.144531 1 -2.28125 C 0.96875 -2.257812 0.9375 -2.234375 0.90625 -2.203125 C 0.875 -2.171875 0.734375 -2.054688 0.484375 -1.859375 L 0.328125 -2.0625 L 1.015625 -2.59375 L 1.265625 -2.59375 Z M 1.265625 0 "/></g></g></g><g fill="#000000" fill-opacity="1"><g transform="translate(14.004743, 5.116607)"><g><path d="M 0.5 0 L 1.578125 -2.3125 L 0.171875 -2.3125 L 0.171875 -2.59375 L 1.890625 -2.59375 L 1.890625 -2.359375 L 0.828125 0 Z M 0.5 0 "/></g></g></g><g fill="#000000" fill-opacity="1"><g transform="translate(16.06895, 5.116607)"><g><path d="M 0.265625 -0.1875 C 0.265625 -0.269531 0.28125 -0.328125 0.3125 -0.359375 C 0.351562 -0.398438 0.410156 -0.421875 0.484375 -0.421875 C 0.546875 -0.421875 0.597656 -0.398438 0.640625 -0.359375 C 0.679688 -0.328125 0.703125 -0.269531 0.703125 -0.1875 C 0.703125 -0.113281 0.679688 -0.0546875 0.640625 -0.015625 C 0.597656 0.0234375 0.546875 0.046875 0.484375 0.046875 C 0.421875 0.046875 0.367188 0.03125 0.328125 0 C 0.285156 -0.0390625 0.265625 -0.101562 0.265625 -0.1875 Z M 0.265625 -0.1875 "/></g></g></g><g fill="#000000" fill-opacity="1"><g transform="translate(17.029664, 5.116607)"><g><path d="M 0.984375 -1.578125 C 1.253906 -1.578125 1.46875 -1.507812 1.625 -1.375 C 1.78125 -1.238281 1.859375 -1.054688 1.859375 -0.828125 C 1.859375 -0.554688 1.773438 -0.34375 1.609375 -0.1875 C 1.441406 -0.0390625 1.207031 0.03125 0.90625 0.03125 C 0.613281 0.03125 0.390625 -0.015625 0.234375 -0.109375 L 0.234375 -0.390625 C 0.316406 -0.335938 0.421875 -0.296875 0.546875 -0.265625 C 0.671875 -0.234375 0.789062 -0.21875 0.90625 -0.21875 C 1.113281 -0.21875 1.273438 -0.265625 1.390625 -0.359375 C 1.503906 -0.460938 1.5625 -0.609375 1.5625 -0.796875 C 1.5625 -1.148438 1.34375 -1.328125 0.90625 -1.328125 C 0.789062 -1.328125 0.640625 -1.3125 0.453125 -1.28125 L 0.296875 -1.375 L 0.390625 -2.59375 L 1.6875 -2.59375 L 1.6875 -2.3125 L 0.640625 -2.3125 L 0.578125 -1.546875 C 0.710938 -1.566406 0.847656 -1.578125 0.984375 -1.578125 Z M 0.984375 -1.578125 "/></g></g></g><g fill="#000000" fill-opacity="1"><g transform="translate(19.093871, 5.116607)"><g><path d="M 0.984375 -1.578125 C 1.253906 -1.578125 1.46875 -1.507812 1.625 -1.375 C 1.78125 -1.238281 1.859375 -1.054688 1.859375 -0.828125 C 1.859375 -0.554688 1.773438 -0.34375 1.609375 -0.1875 C 1.441406 -0.0390625 1.207031 0.03125 0.90625 0.03125 C 0.613281 0.03125 0.390625 -0.015625 0.234375 -0.109375 L 0.234375 -0.390625 C 0.316406 -0.335938 0.421875 -0.296875 0.546875 -0.265625 C 0.671875 -0.234375 0.789062 -0.21875 0.90625 -0.21875 C 1.113281 -0.21875 1.273438 -0.265625 1.390625 -0.359375 C 1.503906 -0.460938 1.5625 -0.609375 1.5625 -0.796875 C 1.5625 -1.148438 1.34375 -1.328125 0.90625 -1.328125 C 0.789062 -1.328125 0.640625 -1.3125 0.453125 -1.28125 L 0.296875 -1.375 L 0.390625 -2.59375 L 1.6875 -2.59375 L 1.6875 -2.3125 L 0.640625 -2.3125 L 0.578125 -1.546875 C 0.710938 -1.566406 0.847656 -1.578125 0.984375 -1.578125 Z M 0.984375 -1.578125 "/></g></g></g><g fill="#000000" fill-opacity="1"><g transform="translate(21.158078, 5.116607)"><g><path d="M 0.265625 -0.1875 C 0.265625 -0.269531 0.28125 -0.328125 0.3125 -0.359375 C 0.351562 -0.398438 0.410156 -0.421875 0.484375 -0.421875 C 0.546875 -0.421875 0.597656 -0.398438 0.640625 -0.359375 C 0.679688 -0.328125 0.703125 -0.269531 0.703125 -0.1875 C 0.703125 -0.113281 0.679688 -0.0546875 0.640625 -0.015625 C 0.597656 0.0234375 0.546875 0.046875 0.484375 0.046875 C 0.421875 0.046875 0.367188 0.03125 0.328125 0 C 0.285156 -0.0390625 0.265625 -0.101562 0.265625 -0.1875 Z M 0.265625 -0.1875 "/></g></g></g><g fill="#000000" fill-opacity="1"><g transform="translate(22.118792, 5.116607)"><g><path d="M 1.875 -1.484375 C 1.875 -0.472656 1.484375 0.03125 0.703125 0.03125 C 0.566406 0.03125 0.457031 0.0195312 0.375 0 L 0.375 -0.25 C 0.46875 -0.21875 0.578125 -0.203125 0.703125 -0.203125 C 0.984375 -0.203125 1.195312 -0.289062 1.34375 -0.46875 C 1.488281 -0.644531 1.566406 -0.914062 1.578125 -1.28125 L 1.5625 -1.28125 C 1.488281 -1.175781 1.398438 -1.097656 1.296875 -1.046875 C 1.191406 -0.992188 1.070312 -0.96875 0.9375 -0.96875 C 0.707031 -0.96875 0.523438 -1.035156 0.390625 -1.171875 C 0.253906 -1.316406 0.1875 -1.507812 0.1875 -1.75 C 0.1875 -2.019531 0.257812 -2.234375 0.40625 -2.390625 C 0.5625 -2.546875 0.757812 -2.625 1 -2.625 C 1.175781 -2.625 1.332031 -2.578125 1.46875 -2.484375 C 1.601562 -2.398438 1.703125 -2.269531 1.765625 -2.09375 C 1.835938 -1.914062 1.875 -1.710938 1.875 -1.484375 Z M 1 -2.375 C 0.832031 -2.375 0.703125 -2.316406 0.609375 -2.203125 C 0.523438 -2.097656 0.484375 -1.945312 0.484375 -1.75 C 0.484375 -1.582031 0.523438 -1.445312 0.609375 -1.34375 C 0.691406 -1.25 0.820312 -1.203125 1 -1.203125 C 1.101562 -1.203125 1.195312 -1.222656 1.28125 -1.265625 C 1.375 -1.316406 1.445312 -1.378906 1.5 -1.453125 C 1.550781 -1.523438 1.578125 -1.601562 1.578125 -1.6875 C 1.578125 -1.8125 1.550781 -1.925781 1.5 -2.03125 C 1.457031 -2.132812 1.390625 -2.21875 1.296875 -2.28125 C 1.210938 -2.34375 1.113281 -2.375 1 -2.375 Z M 1 -2.375 "/></g></g></g><g fill="#000000" fill-opacity="1"><g transform="translate(24.182999, 5.116607)"><g><path d="M 1.875 -1.484375 C 1.875 -0.472656 1.484375 0.03125 0.703125 0.03125 C 0.566406 0.03125 0.457031 0.0195312 0.375 0 L 0.375 -0.25 C 0.46875 -0.21875 0.578125 -0.203125 0.703125 -0.203125 C 0.984375 -0.203125 1.195312 -0.289062 1.34375 -0.46875 C 1.488281 -0.644531 1.566406 -0.914062 1.578125 -1.28125 L 1.5625 -1.28125 C 1.488281 -1.175781 1.398438 -1.097656 1.296875 -1.046875 C 1.191406 -0.992188 1.070312 -0.96875 0.9375 -0.96875 C 0.707031 -0.96875 0.523438 -1.035156 0.390625 -1.171875 C 0.253906 -1.316406 0.1875 -1.507812 0.1875 -1.75 C 0.1875 -2.019531 0.257812 -2.234375 0.40625 -2.390625 C 0.5625 -2.546875 0.757812 -2.625 1 -2.625 C 1.175781 -2.625 1.332031 -2.578125 1.46875 -2.484375 C 1.601562 -2.398438 1.703125 -2.269531 1.765625 -2.09375 C 1.835938 -1.914062 1.875 -1.710938 1.875 -1.484375 Z M 1 -2.375 C 0.832031 -2.375 0.703125 -2.316406 0.609375 -2.203125 C 0.523438 -2.097656 0.484375 -1.945312 0.484375 -1.75 C 0.484375 -1.582031 0.523438 -1.445312 0.609375 -1.34375 C 0.691406 -1.25 0.820312 -1.203125 1 -1.203125 C 1.101562 -1.203125 1.195312 -1.222656 1.28125 -1.265625 C 1.375 -1.316406 1.445312 -1.378906 1.5 -1.453125 C 1.550781 -1.523438 1.578125 -1.601562 1.578125 -1.6875 C 1.578125 -1.8125 1.550781 -1.925781 1.5 -2.03125 C 1.457031 -2.132812 1.390625 -2.21875 1.296875 -2.28125 C 1.210938 -2.34375 1.113281 -2.375 1 -2.375 Z M 1 -2.375 "/></g></g></g></g></g></g></g></svg>