<svg xmlns="http://www.w3.org/2000/svg" xmlns:xlink="http://www.w3.org/1999/xlink" width="60" zoomAndPan="magnify" viewBox="0 0 45 112.499997" height="150" preserveAspectRatio="xMidYMid meet" version="1.0"><defs><filter x="0%" y="0%" width="100%" height="100%" id="2410eb97be"><feColorMatrix values="0 0 0 0 1 0 0 0 0 1 0 0 0 0 1 0 0 0 1 0" color-interpolation-filters="sRGB"/></filter><g/><clipPath id="5d3e49dc21"><path d="M 8 30 L 39 30 L 39 111.253906 L 8 111.253906 Z M 8 30 " clip-rule="nonzero"/></clipPath><clipPath id="2250336d17"><path d="M 5.378906 26 L 39.726562 26 L 39.726562 111.253906 L 5.378906 111.253906 Z M 5.378906 26 " clip-rule="nonzero"/></clipPath><clipPath id="28df0311aa"><path d="M 6 27 L 39.726562 27 L 39.726562 111 L 6 111 Z M 6 27 " clip-rule="nonzero"/></clipPath><clipPath id="56f0a9ce42"><path d="M 5.378906 24 L 39.726562 24 L 39.726562 111.253906 L 5.378906 111.253906 Z M 5.378906 24 " clip-rule="nonzero"/></clipPath><clipPath id="3b3c51459b"><path d="M 7 26 L 39.726562 26 L 39.726562 110 L 7 110 Z M 7 26 " clip-rule="nonzero"/></clipPath><clipPath id="351166ccd5"><path d="M 12 26 L 35 26 L 35 41 L 12 41 Z M 12 26 " clip-rule="nonzero"/></clipPath><clipPath id="feb4f49d85"><path d="M 39.425781 108.042969 L 28.5 28.074219 C 28.402344 27.351562 27.875 26.824219 27.257812 26.824219 L 19.207031 26.824219 C 18.589844 26.824219 18.058594 27.351562 17.960938 28.074219 L 7.035156 108.042969 C 6.925781 108.851562 7.390625 109.617188 8.078125 109.75 C 8.144531 109.757812 8.210938 109.769531 8.28125 109.769531 C 8.886719 109.769531 9.421875 109.246094 9.523438 108.519531 L 11.308594 95.460938 L 35.152344 95.460938 L 36.9375 108.519531 C 37.035156 109.253906 37.574219 109.769531 38.183594 109.769531 C 38.25 109.769531 38.316406 109.765625 38.382812 109.75 C 39.074219 109.617188 39.539062 108.859375 39.425781 108.042969 Z M 20.277344 29.792969 L 26.179688 29.792969 L 27.625 40.375 L 18.832031 40.375 Z M 18.425781 43.351562 L 28.03125 43.351562 L 29.40625 53.40625 L 17.050781 53.40625 Z M 16.644531 56.375 L 29.808594 56.375 L 31.179688 66.429688 L 15.265625 66.429688 L 16.640625 56.375 Z M 14.863281 69.398438 L 31.585938 69.398438 L 32.960938 79.457031 L 13.496094 79.457031 L 14.871094 69.398438 Z M 23.230469 92.480469 L 11.714844 92.480469 L 13.089844 82.425781 L 33.371094 82.425781 L 34.746094 92.480469 Z M 23.230469 92.480469 " clip-rule="nonzero"/></clipPath><clipPath id="b921b5a8b3"><path d="M 9 53 L 37 53 L 37 67 L 9 67 Z M 9 53 " clip-rule="nonzero"/></clipPath><clipPath id="4f042fdb51"><path d="M 39.425781 108.042969 L 28.5 28.074219 C 28.402344 27.351562 27.875 26.824219 27.257812 26.824219 L 19.207031 26.824219 C 18.589844 26.824219 18.058594 27.351562 17.960938 28.074219 L 7.035156 108.042969 C 6.925781 108.851562 7.390625 109.617188 8.078125 109.75 C 8.144531 109.757812 8.210938 109.769531 8.28125 109.769531 C 8.886719 109.769531 9.421875 109.246094 9.523438 108.519531 L 11.308594 95.460938 L 35.152344 95.460938 L 36.9375 108.519531 C 37.035156 109.253906 37.574219 109.769531 38.183594 109.769531 C 38.25 109.769531 38.316406 109.765625 38.382812 109.75 C 39.074219 109.617188 39.539062 108.859375 39.425781 108.042969 Z M 20.277344 29.792969 L 26.179688 29.792969 L 27.625 40.375 L 18.832031 40.375 Z M 18.425781 43.351562 L 28.03125 43.351562 L 29.40625 53.40625 L 17.050781 53.40625 Z M 16.644531 56.375 L 29.808594 56.375 L 31.179688 66.429688 L 15.265625 66.429688 L 16.640625 56.375 Z M 14.863281 69.398438 L 31.585938 69.398438 L 32.960938 79.457031 L 13.496094 79.457031 L 14.871094 69.398438 Z M 23.230469 92.480469 L 11.714844 92.480469 L 13.089844 82.425781 L 33.371094 82.425781 L 34.746094 92.480469 Z M 23.230469 92.480469 " clip-rule="nonzero"/></clipPath><clipPath id="c212c7a7a9"><path d="M 9 53 L 38 53 L 38 67 L 9 67 Z M 9 53 " clip-rule="nonzero"/></clipPath><clipPath id="598cf8a8e4"><path d="M 39.425781 108.042969 L 28.5 28.074219 C 28.402344 27.351562 27.875 26.824219 27.257812 26.824219 L 19.207031 26.824219 C 18.589844 26.824219 18.058594 27.351562 17.960938 28.074219 L 7.035156 108.042969 C 6.925781 108.851562 7.390625 109.617188 8.078125 109.75 C 8.144531 109.757812 8.210938 109.769531 8.28125 109.769531 C 8.886719 109.769531 9.421875 109.246094 9.523438 108.519531 L 11.308594 95.460938 L 35.152344 95.460938 L 36.9375 108.519531 C 37.035156 109.253906 37.574219 109.769531 38.183594 109.769531 C 38.25 109.769531 38.316406 109.765625 38.382812 109.75 C 39.074219 109.617188 39.539062 108.859375 39.425781 108.042969 Z M 20.277344 29.792969 L 26.179688 29.792969 L 27.625 40.375 L 18.832031 40.375 Z M 18.425781 43.351562 L 28.03125 43.351562 L 29.40625 53.40625 L 17.050781 53.40625 Z M 16.644531 56.375 L 29.808594 56.375 L 31.179688 66.429688 L 15.265625 66.429688 L 16.640625 56.375 Z M 14.863281 69.398438 L 31.585938 69.398438 L 32.960938 79.457031 L 13.496094 79.457031 L 14.871094 69.398438 Z M 23.230469 92.480469 L 11.714844 92.480469 L 13.089844 82.425781 L 33.371094 82.425781 L 34.746094 92.480469 Z M 23.230469 92.480469 " clip-rule="nonzero"/></clipPath><clipPath id="90316caf82"><path d="M 7 79 L 39 79 L 39 93 L 7 93 Z M 7 79 " clip-rule="nonzero"/></clipPath><clipPath id="af49a734d9"><path d="M 39.425781 108.042969 L 28.5 28.074219 C 28.402344 27.351562 27.875 26.824219 27.257812 26.824219 L 19.207031 26.824219 C 18.589844 26.824219 18.058594 27.351562 17.960938 28.074219 L 7.035156 108.042969 C 6.925781 108.851562 7.390625 109.617188 8.078125 109.75 C 8.144531 109.757812 8.210938 109.769531 8.28125 109.769531 C 8.886719 109.769531 9.421875 109.246094 9.523438 108.519531 L 11.308594 95.460938 L 35.152344 95.460938 L 36.9375 108.519531 C 37.035156 109.253906 37.574219 109.769531 38.183594 109.769531 C 38.25 109.769531 38.316406 109.765625 38.382812 109.75 C 39.074219 109.617188 39.539062 108.859375 39.425781 108.042969 Z M 20.277344 29.792969 L 26.179688 29.792969 L 27.625 40.375 L 18.832031 40.375 Z M 18.425781 43.351562 L 28.03125 43.351562 L 29.40625 53.40625 L 17.050781 53.40625 Z M 16.644531 56.375 L 29.808594 56.375 L 31.179688 66.429688 L 15.265625 66.429688 L 16.640625 56.375 Z M 14.863281 69.398438 L 31.585938 69.398438 L 32.960938 79.457031 L 13.496094 79.457031 L 14.871094 69.398438 Z M 23.230469 92.480469 L 11.714844 92.480469 L 13.089844 82.425781 L 33.371094 82.425781 L 34.746094 92.480469 Z M 23.230469 92.480469 " clip-rule="nonzero"/></clipPath><clipPath id="6ae2ee276c"><path d="M 5.378906 23 L 39.726562 23 L 39.726562 111.253906 L 5.378906 111.253906 Z M 5.378906 23 " clip-rule="nonzero"/></clipPath><clipPath id="a109a5c652"><path d="M 31 14 L 39.726562 14 L 39.726562 23 L 31 23 Z M 31 14 " clip-rule="nonzero"/></clipPath><clipPath id="717f46e8ad"><path d="M 27 10 L 39.726562 10 L 39.726562 27 L 27 27 Z M 27 10 " clip-rule="nonzero"/></clipPath><clipPath id="3e966dc86d"><path d="M 31 23 L 39.726562 23 L 39.726562 32 L 31 32 Z M 31 23 " clip-rule="nonzero"/></clipPath><clipPath id="960add3437"><path d="M 27 20 L 39.726562 20 L 39.726562 36 L 27 36 Z M 27 20 " clip-rule="nonzero"/></clipPath><clipPath id="015c34082d"><path d="M 5.378906 14 L 10 14 L 10 32 L 5.378906 32 Z M 5.378906 14 " clip-rule="nonzero"/></clipPath><clipPath id="41f6d0b6d6"><path d="M 5.378906 21 L 10 21 L 10 25 L 5.378906 25 Z M 5.378906 21 " clip-rule="nonzero"/></clipPath><clipPath id="2257b735f9"><path d="M 0.0976562 55 L 44.898438 55 L 44.898438 67 L 0.0976562 67 Z M 0.0976562 55 " clip-rule="nonzero"/></clipPath><mask id="6d6867d8ea"><g filter="url(#2410eb97be)"><rect x="-4.5" width="54" fill="#000000" y="-11.25" height="134.999996" fill-opacity="0.9"/></g></mask><clipPath id="420cbd004a"><path d="M 0.0976562 1 L 44.898438 1 L 44.898438 11.082031 L 0.0976562 11.082031 Z M 0.0976562 1 " clip-rule="nonzero"/></clipPath><clipPath id="6c241df86f"><path d="M 5.140625 1 L 39.859375 1 C 42.644531 1 44.902344 3.257812 44.902344 6.042969 C 44.902344 8.824219 42.644531 11.082031 39.859375 11.082031 L 5.140625 11.082031 C 2.355469 11.082031 0.0976562 8.824219 0.0976562 6.042969 C 0.0976562 3.257812 2.355469 1 5.140625 1 Z M 5.140625 1 " clip-rule="nonzero"/></clipPath><clipPath id="9ce498e0e8"><rect x="0" width="45" y="0" height="12"/></clipPath></defs><g clip-path="url(#5d3e49dc21)"><path fill="#010101" d="M 38.464844 110.539062 L 24.179688 102.898438 L 36.5625 96.171875 C 36.714844 96.089844 36.808594 95.90625 36.804688 95.710938 C 36.796875 95.515625 36.695312 95.335938 36.542969 95.265625 L 24.167969 89.316406 L 35.101562 84.058594 C 35.253906 83.988281 35.351562 83.8125 35.363281 83.617188 C 35.375 83.421875 35.28125 83.242188 35.132812 83.15625 L 23.988281 76.542969 L 33.515625 70.886719 C 33.65625 70.804688 33.742188 70.640625 33.75 70.460938 C 33.753906 70.28125 33.675781 70.113281 33.542969 70.015625 L 23.882812 63.257812 L 31.480469 57.941406 C 31.597656 57.859375 31.675781 57.710938 31.683594 57.546875 C 31.695312 57.382812 31.632812 57.226562 31.519531 57.121094 L 23.742188 50.074219 L 29.171875 45.152344 C 29.261719 45.070312 29.320312 44.949219 29.328125 44.816406 C 29.339844 44.679688 29.308594 44.546875 29.238281 44.445312 L 23.597656 36.402344 L 26.980469 31.585938 L 26.332031 30.957031 L 23.054688 35.625 L 19.777344 30.957031 L 19.128906 31.585938 L 22.507812 36.402344 L 16.871094 44.445312 C 16.796875 44.546875 16.761719 44.679688 16.777344 44.816406 C 16.792969 44.949219 16.851562 45.070312 16.9375 45.152344 L 22.363281 50.074219 L 14.585938 57.121094 C 14.476562 57.226562 14.417969 57.378906 14.421875 57.546875 C 14.433594 57.710938 14.507812 57.859375 14.628906 57.941406 L 22.226562 63.257812 L 12.566406 70.015625 C 12.429688 70.105469 12.355469 70.277344 12.359375 70.460938 C 12.359375 70.640625 12.453125 70.804688 12.589844 70.886719 L 22.117188 76.542969 L 10.976562 83.15625 C 10.824219 83.242188 10.738281 83.421875 10.742188 83.617188 C 10.75 83.8125 10.851562 83.980469 11.007812 84.058594 L 21.941406 89.316406 L 9.570312 95.265625 C 9.417969 95.34375 9.3125 95.515625 9.308594 95.714844 C 9.308594 95.914062 9.402344 96.09375 9.554688 96.175781 L 22.152344 102.914062 L 8.113281 110.546875 C 8.300781 111.023438 8.867188 111.230469 9.320312 110.984375 L 23.167969 103.457031 L 37.261719 110.992188 C 37.714844 111.234375 38.273438 111.027344 38.460938 110.546875 Z M 17.800781 44.679688 L 23.058594 37.179688 L 28.316406 44.679688 L 23.054688 49.453125 L 17.796875 44.679688 Z M 15.601562 57.464844 L 23.058594 50.703125 L 30.519531 57.464844 L 23.058594 62.683594 Z M 13.664062 70.410156 L 23.0625 63.835938 L 32.460938 70.410156 L 23.0625 75.988281 Z M 12.1875 83.554688 L 23.0625 77.101562 L 33.9375 83.554688 L 23.0625 88.785156 Z M 10.800781 95.746094 L 23.0625 89.855469 L 35.332031 95.75 L 23.171875 102.363281 Z M 10.800781 95.746094 " fill-opacity="1" fill-rule="nonzero"/></g><path fill="#d1c4dd" d="M 38.464844 109.367188 L 24.179688 101.726562 L 36.5625 95 C 36.714844 94.917969 36.808594 94.734375 36.804688 94.539062 C 36.796875 94.34375 36.695312 94.164062 36.542969 94.09375 L 24.167969 88.144531 L 35.101562 82.886719 C 35.253906 82.8125 35.351562 82.640625 35.363281 82.445312 C 35.375 82.25 35.28125 82.070312 35.132812 81.984375 L 23.988281 75.371094 L 33.515625 69.710938 C 33.65625 69.628906 33.742188 69.464844 33.75 69.289062 C 33.753906 69.109375 33.675781 68.9375 33.542969 68.84375 L 23.882812 62.082031 L 31.480469 56.769531 C 31.597656 56.6875 31.675781 56.539062 31.683594 56.375 C 31.695312 56.210938 31.632812 56.050781 31.519531 55.949219 L 23.742188 48.898438 L 29.171875 43.980469 C 29.261719 43.898438 29.320312 43.777344 29.328125 43.640625 C 29.339844 43.507812 29.308594 43.375 29.238281 43.273438 L 23.597656 35.230469 L 26.980469 30.414062 L 26.332031 29.78125 L 23.054688 34.453125 L 19.777344 29.78125 L 19.128906 30.414062 L 22.507812 35.230469 L 16.871094 43.273438 C 16.796875 43.375 16.761719 43.507812 16.777344 43.640625 C 16.792969 43.777344 16.851562 43.898438 16.9375 43.980469 L 22.363281 48.898438 L 14.585938 55.949219 C 14.476562 56.050781 14.417969 56.207031 14.421875 56.375 C 14.433594 56.539062 14.507812 56.6875 14.628906 56.769531 L 22.226562 62.082031 L 12.566406 68.84375 C 12.429688 68.933594 12.355469 69.101562 12.359375 69.289062 C 12.359375 69.464844 12.453125 69.628906 12.589844 69.710938 L 22.117188 75.371094 L 10.976562 81.984375 C 10.824219 82.070312 10.738281 82.25 10.742188 82.445312 C 10.75 82.640625 10.851562 82.808594 11.007812 82.886719 L 21.941406 88.144531 L 9.570312 94.09375 C 9.417969 94.167969 9.3125 94.34375 9.308594 94.542969 C 9.308594 94.742188 9.402344 94.921875 9.554688 95.003906 L 22.152344 101.742188 L 8.113281 109.375 L 8.464844 110.277344 L 23.160156 102.289062 L 38.105469 110.28125 L 38.457031 109.378906 Z M 17.800781 43.507812 L 23.058594 36.007812 L 28.316406 43.507812 L 23.054688 48.28125 L 17.796875 43.507812 Z M 15.601562 56.292969 L 23.058594 49.53125 L 30.519531 56.292969 L 23.058594 61.511719 Z M 13.664062 69.234375 L 23.0625 62.664062 L 32.460938 69.234375 L 23.0625 74.816406 Z M 12.1875 82.382812 L 23.0625 75.929688 L 33.9375 82.382812 L 23.0625 87.609375 Z M 10.800781 94.574219 L 23.0625 88.679688 L 35.332031 94.578125 L 23.171875 101.1875 Z M 10.800781 94.574219 " fill-opacity="1" fill-rule="nonzero"/><g clip-path="url(#2250336d17)"><path stroke-linecap="butt" transform="matrix(0.514413, 0, 0, 0.511981, 5.378394, 0.169958)" fill="none" stroke-linejoin="miter" d="M 64.318865 213.28366 L 36.549036 198.360017 L 60.620777 185.221718 C 60.916928 185.061494 61.099175 184.7029 61.091581 184.321416 C 61.076394 183.939932 60.87896 183.588967 60.582809 183.451633 L 36.526255 171.831639 L 57.780768 161.562098 C 58.076918 161.417134 58.266759 161.081428 58.289539 160.699945 C 58.31232 160.318461 58.130074 159.967496 57.841516 159.799643 L 36.176949 146.882604 L 54.697762 135.827206 C 54.971132 135.666983 55.138192 135.346537 55.153379 135.003202 C 55.160972 134.652237 55.0091 134.316531 54.750917 134.133419 L 35.971922 120.926453 L 50.741492 110.550096 C 50.9693 110.389872 51.121172 110.099945 51.136359 109.779498 C 51.15914 109.459052 51.037643 109.146235 50.817428 108.947864 L 35.698552 95.176302 L 46.253669 85.570542 C 46.428322 85.410319 46.542226 85.173799 46.557413 84.90676 C 46.580194 84.647351 46.519445 84.387942 46.38276 84.189571 L 35.417588 68.480072 L 41.993654 59.072683 L 40.733115 57.836676 L 34.362077 66.961766 L 27.991039 57.836676 L 26.730499 59.072683 L 33.298971 68.480072 L 22.341393 84.189571 C 22.197115 84.387942 22.128772 84.647351 22.159147 84.90676 C 22.189521 85.173799 22.303425 85.410319 22.470485 85.570542 L 33.018008 95.176302 L 17.899132 108.947864 C 17.686511 109.146235 17.572607 109.451422 17.5802 109.779498 C 17.602981 110.099945 17.74726 110.389872 17.982662 110.550096 L 32.752232 120.926453 L 13.973236 134.133419 C 13.70746 134.308901 13.563181 134.636977 13.570775 135.003202 C 13.570775 135.346537 13.753021 135.666983 14.018798 135.827206 L 32.53961 146.882604 L 10.882637 159.799643 C 10.586486 159.967496 10.419427 160.318461 10.42702 160.699945 C 10.442208 161.081428 10.639641 161.409504 10.943386 161.562098 L 32.197898 171.831639 L 8.148938 183.451633 C 7.852787 183.596597 7.647759 183.939932 7.640166 184.329046 C 7.640166 184.718159 7.822412 185.069124 8.118563 185.229347 L 32.607953 198.390535 L 5.316521 213.298919 L 5.999946 215.061374 L 34.567104 199.45869 L 63.620253 215.069003 L 64.303678 213.306549 Z M 24.148672 84.647351 L 34.36967 69.998377 L 44.590668 84.647351 L 34.362077 93.970813 L 24.141079 84.647351 Z M 19.87347 109.619275 L 34.36967 96.412309 L 48.873464 109.619275 L 34.36967 119.81252 Z M 16.10704 134.896386 L 34.377264 122.063274 L 52.647488 134.896386 L 34.377264 145.799191 Z M 13.236656 160.57787 L 34.377264 147.973648 L 55.517872 160.57787 L 34.377264 170.786374 Z M 10.540924 184.390083 L 34.377264 172.876905 L 58.22879 184.397713 L 34.589885 197.307122 Z M 10.540924 184.390083 " stroke="#010101" stroke-width="0.5" stroke-opacity="1" stroke-miterlimit="10"/></g><g clip-path="url(#28df0311aa)"><path fill="#d1c4dd" d="M 39.535156 109.207031 L 28.539062 29.234375 C 28.441406 28.511719 27.90625 27.984375 27.28125 27.984375 L 19.175781 27.984375 C 18.550781 27.984375 18.023438 28.511719 17.917969 29.234375 L 6.921875 109.207031 C 6.808594 110.015625 7.28125 110.777344 7.976562 110.910156 C 8.042969 110.921875 8.113281 110.933594 8.183594 110.933594 C 8.792969 110.933594 9.335938 110.410156 9.433594 109.683594 L 11.226562 96.621094 L 35.230469 96.621094 L 37.023438 109.683594 C 37.128906 110.414062 37.664062 110.933594 38.273438 110.933594 C 38.34375 110.933594 38.410156 110.925781 38.480469 110.910156 C 39.175781 110.777344 39.644531 110.019531 39.535156 109.207031 Z M 20.253906 30.957031 L 26.195312 30.957031 L 27.652344 41.539062 L 18.800781 41.539062 Z M 18.394531 44.511719 L 28.0625 44.511719 L 29.449219 54.566406 L 17.007812 54.566406 Z M 16.601562 57.539062 L 29.859375 57.539062 L 31.242188 67.59375 L 15.222656 67.59375 L 16.609375 57.539062 Z M 14.8125 70.5625 L 31.648438 70.5625 L 33.035156 80.617188 L 13.429688 80.617188 Z M 23.234375 93.640625 L 11.632812 93.640625 L 13.015625 83.585938 L 33.441406 83.585938 L 34.824219 93.640625 L 23.230469 93.640625 Z M 23.234375 93.640625 " fill-opacity="1" fill-rule="nonzero"/></g><g clip-path="url(#56f0a9ce42)"><path stroke-linecap="butt" transform="matrix(0.514413, 0, 0, 0.511981, 5.378394, 0.169958)" fill="none" stroke-linejoin="miter" d="M 66.399514 212.970843 L 45.023504 56.768522 C 44.833664 55.357032 43.793339 54.327026 42.578362 54.327026 L 26.821623 54.327026 C 25.606645 54.327026 24.581508 55.357032 24.376481 56.768522 L 3.000471 212.970843 C 2.780256 214.550186 3.699083 216.037972 5.050745 216.297381 C 5.179836 216.32027 5.316521 216.343159 5.453206 216.343159 C 6.637809 216.343159 7.693321 215.320783 7.883161 213.901663 L 11.368628 188.388032 L 58.031357 188.388032 L 61.516823 213.901663 C 61.721851 215.328412 62.762175 216.343159 63.946778 216.343159 C 64.083463 216.343159 64.212555 216.3279 64.34924 216.297381 C 65.700902 216.037972 66.612135 214.557815 66.399514 212.970843 Z M 28.917459 60.133208 L 40.467338 60.133208 L 43.299755 80.801996 L 26.092636 80.801996 Z M 25.302901 86.608178 L 44.097084 86.608178 L 46.792815 106.246959 L 22.60717 106.246959 Z M 21.817434 112.053141 L 47.590144 112.053141 L 50.278282 131.691923 L 19.13689 131.691923 L 21.832621 112.053141 Z M 18.339561 137.490475 L 51.068017 137.490475 L 53.763748 157.129257 L 15.651424 157.129257 Z M 34.711383 182.566591 L 12.158363 182.566591 L 14.846501 162.927809 L 54.553484 162.927809 L 57.241621 182.566591 L 34.703789 182.566591 Z M 34.711383 182.566591 " stroke="#010101" stroke-width="0.5" stroke-opacity="1" stroke-miterlimit="10"/></g><g clip-path="url(#3b3c51459b)"><path fill="#ffffff" d="M 39.425781 108.042969 L 28.5 28.074219 C 28.402344 27.351562 27.875 26.824219 27.257812 26.824219 L 19.207031 26.824219 C 18.589844 26.824219 18.058594 27.351562 17.960938 28.074219 L 7.035156 108.042969 C 6.925781 108.851562 7.390625 109.617188 8.078125 109.75 C 8.144531 109.757812 8.210938 109.769531 8.28125 109.769531 C 8.886719 109.769531 9.421875 109.246094 9.523438 108.519531 L 11.308594 95.460938 L 35.152344 95.460938 L 36.9375 108.519531 C 37.035156 109.253906 37.574219 109.769531 38.183594 109.769531 C 38.25 109.769531 38.316406 109.765625 38.382812 109.75 C 39.074219 109.617188 39.539062 108.859375 39.425781 108.042969 Z M 20.277344 29.792969 L 26.179688 29.792969 L 27.625 40.375 L 18.832031 40.375 Z M 18.425781 43.351562 L 28.03125 43.351562 L 29.40625 53.40625 L 17.050781 53.40625 Z M 16.644531 56.375 L 29.808594 56.375 L 31.179688 66.429688 L 15.265625 66.429688 L 16.640625 56.375 Z M 14.863281 69.398438 L 31.585938 69.398438 L 32.960938 79.457031 L 13.496094 79.457031 L 14.871094 69.398438 Z M 23.230469 92.480469 L 11.714844 92.480469 L 13.089844 82.425781 L 33.371094 82.425781 L 34.746094 92.480469 Z M 23.230469 92.480469 " fill-opacity="1" fill-rule="nonzero"/></g><g clip-path="url(#351166ccd5)"><g clip-path="url(#feb4f49d85)"><path stroke-linecap="butt" transform="matrix(0.514413, 0, 0, 0.511981, 5.378394, 0.169958)" fill-opacity="1" fill="#f47c4a" fill-rule="nonzero" stroke-linejoin="miter" d="M 13.449277 38.77775 L 55.958301 38.77775 L 55.958301 78.543612 L 13.449277 78.543612 Z M 13.449277 38.77775 " stroke="#010101" stroke-width="0.5" stroke-opacity="1" stroke-miterlimit="10"/></g></g><g clip-path="url(#b921b5a8b3)"><g clip-path="url(#4f042fdb51)"><path fill="#f47c4a" d="M 9.519531 53.40625 L 36.882812 53.40625 L 36.882812 66.429688 L 9.519531 66.429688 Z M 9.519531 53.40625 " fill-opacity="1" fill-rule="nonzero"/></g></g><g clip-path="url(#c212c7a7a9)"><g clip-path="url(#598cf8a8e4)"><path stroke-linecap="butt" transform="matrix(0.514413, 0, 0, 0.511981, 5.378394, 0.169958)" fill="none" stroke-linejoin="miter" d="M 8.050221 103.980946 L 61.243453 103.980946 L 61.243453 129.41828 L 8.050221 129.41828 Z M 8.050221 103.980946 " stroke="#010101" stroke-width="0.5" stroke-opacity="1" stroke-miterlimit="10"/></g></g><g clip-path="url(#90316caf82)"><g clip-path="url(#af49a734d9)"><path stroke-linecap="butt" transform="matrix(0.514413, 0, 0, 0.511981, 5.378394, 0.169958)" fill-opacity="1" fill="#f47c4a" fill-rule="nonzero" stroke-linejoin="miter" d="M 4.519192 154.870873 L 64.759294 154.870873 L 64.759294 180.308207 L 4.519192 180.308207 Z M 4.519192 154.870873 " stroke="#010101" stroke-width="0.5" stroke-opacity="1" stroke-miterlimit="10"/></g></g><g clip-path="url(#6ae2ee276c)"><path stroke-linecap="butt" transform="matrix(0.514413, 0, 0, 0.511981, 5.378394, 0.169958)" fill="none" stroke-linejoin="miter" d="M 66.186893 210.6972 L 44.947568 54.502508 C 44.757728 53.091019 43.73259 52.061013 42.5328 52.061013 L 26.882372 52.061013 C 25.682581 52.061013 24.64985 53.091019 24.46001 54.502508 L 3.220685 210.6972 C 3.008064 212.276543 3.911704 213.771959 5.248179 214.031368 C 5.37727 214.046627 5.506362 214.069516 5.643047 214.069516 C 6.820056 214.069516 7.86038 213.04714 8.057814 211.62802 L 11.528094 186.122019 L 57.879484 186.122019 L 61.349764 211.62802 C 61.539604 213.062399 62.587522 214.069516 63.772125 214.069516 C 63.901217 214.069516 64.030308 214.061886 64.159399 214.031368 C 65.503468 213.771959 66.407108 212.291802 66.186893 210.6972 Z M 28.96302 57.859565 L 40.436964 57.859565 L 43.246599 78.528353 L 26.153385 78.528353 Z M 25.36365 84.342164 L 44.036335 84.342164 L 46.709285 103.980946 L 22.690699 103.980946 Z M 21.900964 109.779498 L 47.491427 109.779498 L 50.156784 129.41828 L 19.22042 129.41828 L 21.89337 109.779498 Z M 18.438278 135.216832 L 50.946519 135.216832 L 53.61947 154.863244 L 15.780515 154.863244 L 18.453465 135.216832 Z M 34.703789 180.300578 L 12.317829 180.300578 L 14.99078 160.661796 L 54.416799 160.661796 L 57.089749 180.300578 Z M 34.703789 180.300578 " stroke="#010101" stroke-width="0.5" stroke-opacity="1" stroke-miterlimit="10"/></g><path fill="#010101" d="M 11.632812 21.6875 L 36.882812 21.6875 L 36.882812 24.535156 L 11.632812 24.535156 Z M 11.632812 21.6875 " fill-opacity="1" fill-rule="nonzero"/><g clip-path="url(#a109a5c652)"><path fill="#ffffff" d="M 39.59375 18.507812 C 39.59375 18.773438 39.566406 19.035156 39.515625 19.292969 C 39.460938 19.550781 39.386719 19.800781 39.285156 20.046875 C 39.183594 20.289062 39.058594 20.519531 38.914062 20.738281 C 38.765625 20.957031 38.597656 21.160156 38.410156 21.347656 C 38.222656 21.535156 38.019531 21.699219 37.800781 21.847656 C 37.578125 21.992188 37.347656 22.117188 37.101562 22.21875 C 36.859375 22.320312 36.605469 22.394531 36.347656 22.445312 C 36.085938 22.496094 35.824219 22.523438 35.558594 22.523438 C 35.292969 22.523438 35.03125 22.496094 34.773438 22.445312 C 34.511719 22.394531 34.261719 22.320312 34.015625 22.21875 C 33.769531 22.117188 33.539062 21.992188 33.320312 21.847656 C 33.097656 21.699219 32.894531 21.535156 32.707031 21.347656 C 32.519531 21.160156 32.351562 20.957031 32.207031 20.738281 C 32.058594 20.519531 31.933594 20.289062 31.832031 20.046875 C 31.730469 19.800781 31.65625 19.550781 31.601562 19.292969 C 31.550781 19.035156 31.527344 18.773438 31.527344 18.507812 C 31.527344 18.246094 31.550781 17.984375 31.601562 17.726562 C 31.65625 17.46875 31.730469 17.214844 31.832031 16.972656 C 31.933594 16.730469 32.058594 16.5 32.207031 16.277344 C 32.351562 16.058594 32.519531 15.855469 32.707031 15.671875 C 32.894531 15.484375 33.097656 15.316406 33.320312 15.171875 C 33.539062 15.023438 33.769531 14.902344 34.015625 14.800781 C 34.261719 14.699219 34.511719 14.625 34.773438 14.574219 C 35.03125 14.519531 35.292969 14.496094 35.558594 14.496094 C 35.824219 14.496094 36.085938 14.519531 36.347656 14.574219 C 36.605469 14.625 36.859375 14.699219 37.101562 14.800781 C 37.347656 14.902344 37.578125 15.023438 37.800781 15.171875 C 38.019531 15.316406 38.222656 15.484375 38.410156 15.671875 C 38.597656 15.855469 38.765625 16.058594 38.914062 16.277344 C 39.058594 16.5 39.183594 16.730469 39.285156 16.972656 C 39.386719 17.214844 39.460938 17.46875 39.515625 17.726562 C 39.566406 17.984375 39.59375 18.246094 39.59375 18.507812 Z M 39.59375 18.507812 " fill-opacity="1" fill-rule="nonzero"/></g><g clip-path="url(#717f46e8ad)"><path stroke-linecap="butt" transform="matrix(0.514413, 0, 0, 0.511981, 5.378394, 0.169958)" fill="none" stroke-linejoin="miter" d="M 66.513418 35.817436 C 66.513418 36.336254 66.460263 36.847442 66.361546 37.351001 C 66.255235 37.854559 66.110957 38.342858 65.913523 38.823528 C 65.716089 39.296567 65.473094 39.746718 65.19213 40.17398 C 64.903573 40.601242 64.577048 40.997985 64.212555 41.364209 C 63.848061 41.730434 63.453194 42.05088 63.027952 42.340807 C 62.595116 42.623105 62.147093 42.867255 61.668695 43.065627 C 61.197892 43.263998 60.704307 43.408962 60.203129 43.508148 C 59.694357 43.607333 59.185585 43.660741 58.66922 43.660741 C 58.152854 43.660741 57.644083 43.607333 57.142904 43.508148 C 56.634133 43.408962 56.148142 43.263998 55.669744 43.065627 C 55.191347 42.867255 54.743324 42.623105 54.318082 42.340807 C 53.885246 42.05088 53.490378 41.730434 53.125885 41.364209 C 52.761392 40.997985 52.434867 40.601242 52.153903 40.17398 C 51.865346 39.746718 51.62235 39.296567 51.424917 38.823528 C 51.227483 38.342858 51.083204 37.854559 50.976894 37.351001 C 50.878177 36.847442 50.832615 36.336254 50.832615 35.817436 C 50.832615 35.306248 50.878177 34.79506 50.976894 34.291501 C 51.083204 33.787943 51.227483 33.292014 51.424917 32.818974 C 51.62235 32.345934 51.865346 31.895783 52.153903 31.460892 C 52.434867 31.03363 52.761392 30.636887 53.125885 30.278292 C 53.490378 29.912068 53.885246 29.583992 54.318082 29.301694 C 54.743324 29.011767 55.191347 28.775247 55.669744 28.576875 C 56.148142 28.378504 56.634133 28.23354 57.142904 28.134354 C 57.644083 28.027539 58.152854 27.98176 58.66922 27.98176 C 59.185585 27.98176 59.694357 28.027539 60.203129 28.134354 C 60.704307 28.23354 61.197892 28.378504 61.668695 28.576875 C 62.147093 28.775247 62.595116 29.011767 63.027952 29.301694 C 63.453194 29.583992 63.848061 29.912068 64.212555 30.278292 C 64.577048 30.636887 64.903573 31.03363 65.19213 31.460892 C 65.473094 31.895783 65.716089 32.345934 65.913523 32.818974 C 66.110957 33.292014 66.255235 33.787943 66.361546 34.291501 C 66.460263 34.79506 66.513418 35.306248 66.513418 35.817436 Z M 66.513418 35.817436 " stroke="#010101" stroke-width="0.5" stroke-opacity="1" stroke-miterlimit="10"/></g><g clip-path="url(#3e966dc86d)"><path fill="#ffffff" d="M 39.59375 27.710938 C 39.59375 27.972656 39.566406 28.234375 39.515625 28.492188 C 39.460938 28.75 39.386719 29.003906 39.285156 29.246094 C 39.183594 29.488281 39.058594 29.71875 38.914062 29.9375 C 38.765625 30.160156 38.597656 30.363281 38.410156 30.546875 C 38.222656 30.734375 38.019531 30.902344 37.800781 31.046875 C 37.578125 31.191406 37.347656 31.316406 37.101562 31.417969 C 36.859375 31.519531 36.605469 31.59375 36.347656 31.644531 C 36.085938 31.699219 35.824219 31.722656 35.558594 31.722656 C 35.292969 31.722656 35.03125 31.699219 34.773438 31.644531 C 34.511719 31.59375 34.261719 31.519531 34.015625 31.417969 C 33.769531 31.316406 33.539062 31.191406 33.320312 31.046875 C 33.097656 30.902344 32.894531 30.734375 32.707031 30.546875 C 32.519531 30.363281 32.351562 30.160156 32.207031 29.9375 C 32.058594 29.71875 31.933594 29.488281 31.832031 29.246094 C 31.730469 29.003906 31.65625 28.75 31.601562 28.492188 C 31.550781 28.234375 31.527344 27.972656 31.527344 27.710938 C 31.527344 27.445312 31.550781 27.183594 31.601562 26.925781 C 31.65625 26.667969 31.730469 26.417969 31.832031 26.171875 C 31.933594 25.929688 32.058594 25.699219 32.207031 25.480469 C 32.351562 25.261719 32.519531 25.058594 32.707031 24.871094 C 32.894531 24.683594 33.097656 24.519531 33.320312 24.371094 C 33.539062 24.226562 33.769531 24.101562 34.015625 24 C 34.261719 23.898438 34.511719 23.824219 34.773438 23.773438 C 35.03125 23.722656 35.292969 23.695312 35.558594 23.695312 C 35.824219 23.695312 36.085938 23.722656 36.347656 23.773438 C 36.605469 23.824219 36.859375 23.898438 37.101562 24 C 37.347656 24.101562 37.578125 24.226562 37.800781 24.371094 C 38.019531 24.519531 38.222656 24.683594 38.410156 24.871094 C 38.597656 25.058594 38.765625 25.261719 38.914062 25.480469 C 39.058594 25.699219 39.183594 25.929688 39.285156 26.171875 C 39.386719 26.417969 39.460938 26.667969 39.515625 26.925781 C 39.566406 27.183594 39.59375 27.445312 39.59375 27.710938 Z M 39.59375 27.710938 " fill-opacity="1" fill-rule="nonzero"/></g><g clip-path="url(#960add3437)"><path stroke-linecap="butt" transform="matrix(0.514413, 0, 0, 0.511981, 5.378394, 0.169958)" fill="none" stroke-linejoin="miter" d="M 66.513418 53.792949 C 66.513418 54.304137 66.460263 54.815325 66.361546 55.318883 C 66.255235 55.822442 66.110957 56.318371 65.913523 56.791411 C 65.716089 57.26445 65.473094 57.714601 65.19213 58.141863 C 64.903573 58.576754 64.577048 58.973497 64.212555 59.332092 C 63.848061 59.698316 63.453194 60.026392 63.027952 60.30869 C 62.595116 60.590988 62.147093 60.835138 61.668695 61.033509 C 61.197892 61.231881 60.704307 61.376845 60.203129 61.476031 C 59.694357 61.582846 59.185585 61.628624 58.66922 61.628624 C 58.152854 61.628624 57.644083 61.582846 57.142904 61.476031 C 56.634133 61.376845 56.148142 61.231881 55.669744 61.033509 C 55.191347 60.835138 54.743324 60.590988 54.318082 60.30869 C 53.885246 60.026392 53.490378 59.698316 53.125885 59.332092 C 52.761392 58.973497 52.434867 58.576754 52.153903 58.141863 C 51.865346 57.714601 51.62235 57.26445 51.424917 56.791411 C 51.227483 56.318371 51.083204 55.822442 50.976894 55.318883 C 50.878177 54.815325 50.832615 54.304137 50.832615 53.792949 C 50.832615 53.274131 50.878177 52.762943 50.976894 52.259384 C 51.083204 51.755826 51.227483 51.267526 51.424917 50.786857 C 51.62235 50.313817 51.865346 49.863666 52.153903 49.436405 C 52.434867 49.009143 52.761392 48.6124 53.125885 48.246175 C 53.490378 47.879951 53.885246 47.559505 54.318082 47.269577 C 54.743324 46.987279 55.191347 46.74313 55.669744 46.544758 C 56.148142 46.346386 56.634133 46.201423 57.142904 46.102237 C 57.644083 46.003051 58.152854 45.949643 58.66922 45.949643 C 59.185585 45.949643 59.694357 46.003051 60.203129 46.102237 C 60.704307 46.201423 61.197892 46.346386 61.668695 46.544758 C 62.147093 46.74313 62.595116 46.987279 63.027952 47.269577 C 63.453194 47.559505 63.848061 47.879951 64.212555 48.246175 C 64.577048 48.6124 64.903573 49.009143 65.19213 49.436405 C 65.473094 49.863666 65.716089 50.313817 65.913523 50.786857 C 66.110957 51.267526 66.255235 51.755826 66.361546 52.259384 C 66.460263 52.762943 66.513418 53.274131 66.513418 53.792949 Z M 66.513418 53.792949 " stroke="#010101" stroke-width="0.5" stroke-opacity="1" stroke-miterlimit="10"/></g><path fill="#010101" d="M 18.03125 11.777344 L 21.160156 11.777344 L 21.160156 19.394531 L 18.03125 19.394531 Z M 18.03125 11.777344 " fill-opacity="1" fill-rule="nonzero"/><path fill="#010101" d="M 18.03125 0.171875 L 18.46875 0.171875 L 18.46875 11.777344 L 18.03125 11.777344 Z M 18.03125 0.171875 " fill-opacity="1" fill-rule="nonzero"/><path fill="#010101" d="M 20.722656 3.460938 L 21.160156 3.460938 L 21.160156 11.777344 L 20.722656 11.777344 Z M 20.722656 3.460938 " fill-opacity="1" fill-rule="nonzero"/><path fill="#010101" d="M 25.414062 0.171875 L 25.851562 0.171875 L 25.851562 11.777344 L 25.414062 11.777344 Z M 25.414062 0.171875 " fill-opacity="1" fill-rule="nonzero"/><path fill="#010101" d="M 28.109375 3.460938 L 28.546875 3.460938 L 28.546875 11.777344 L 28.109375 11.777344 Z M 28.109375 3.460938 " fill-opacity="1" fill-rule="nonzero"/><path fill="#010101" d="M 25.414062 11.777344 L 28.542969 11.777344 L 28.542969 19.394531 L 25.414062 19.394531 Z M 25.414062 11.777344 " fill-opacity="1" fill-rule="nonzero"/><path stroke-linecap="butt" transform="matrix(0.514413, 0, 0, 0.511981, 5.378394, 0.169958)" fill-opacity="1" fill="#615b67" fill-rule="nonzero" stroke-linejoin="miter" d="M 6.463156 36.961887 L 12.841788 36.961887 L 12.841788 52.648497 L 6.463156 52.648497 Z M 6.463156 36.961887 " stroke="#010101" stroke-width="0.5" stroke-opacity="1" stroke-miterlimit="10"/><g clip-path="url(#015c34082d)"><path stroke-linecap="butt" transform="matrix(0.514413, 0, 0, 0.511981, 5.378394, 0.169958)" fill-opacity="1" fill="#ffffff" fill-rule="nonzero" stroke-linejoin="miter" d="M 0.251584 28.256429 L 8.050221 28.256429 L 8.050221 61.361585 L 0.251584 61.361585 Z M 0.251584 28.256429 " stroke="#010101" stroke-width="0.5" stroke-opacity="1" stroke-miterlimit="10"/></g><path stroke-linecap="butt" transform="matrix(0.514413, 0, 0, 0.511981, 5.378394, 0.169958)" fill-opacity="1" fill="#ffffff" fill-rule="nonzero" stroke-linejoin="miter" d="M 10.753546 28.256429 L 18.552182 28.256429 L 18.552182 61.361585 L 10.753546 61.361585 Z M 10.753546 28.256429 " stroke="#010101" stroke-width="0.5" stroke-opacity="1" stroke-miterlimit="10"/><g clip-path="url(#41f6d0b6d6)"><path stroke-linecap="butt" transform="matrix(0.514413, 0, 0, 0.511981, 5.378394, 0.169958)" fill-opacity="1" fill="#f47c4a" fill-rule="nonzero" stroke-linejoin="miter" d="M 0.251584 42.027991 L 8.050221 42.027991 L 8.050221 47.590023 L 0.251584 47.590023 Z M 0.251584 42.027991 " stroke="#010101" stroke-width="0.5" stroke-opacity="1" stroke-miterlimit="10"/></g><path stroke-linecap="butt" transform="matrix(0.514413, 0, 0, 0.511981, 5.378394, 0.169958)" fill-opacity="1" fill="#f47c4a" fill-rule="nonzero" stroke-linejoin="miter" d="M 10.753546 42.027991 L 18.552182 42.027991 L 18.552182 47.590023 L 10.753546 47.590023 Z M 10.753546 42.027991 " stroke="#010101" stroke-width="0.5" stroke-opacity="1" stroke-miterlimit="10"/><path stroke-linecap="butt" transform="matrix(0.514413, 0, 0, 0.511981, 5.378394, 0.169958)" fill-opacity="1" fill="#d1c4dd" fill-rule="nonzero" stroke-linejoin="miter" d="M 20.989731 28.256429 L 48.40266 28.256429 L 48.40266 52.061013 L 20.989731 52.061013 Z M 20.989731 28.256429 " stroke="#010101" stroke-width="0.5" stroke-opacity="1" stroke-miterlimit="10"/><path fill="#010101" d="M 17.652344 26.824219 L 28.800781 26.824219 L 28.800781 29.792969 L 17.652344 29.792969 Z M 17.652344 26.824219 " fill-opacity="1" fill-rule="nonzero"/><g clip-path="url(#2257b735f9)"><g mask="url(#6d6867d8ea)"><g transform="matrix(1, 0, 0, 1, 0.000000000000000014, 55)"><g clip-path="url(#9ce498e0e8)"><g clip-path="url(#420cbd004a)"><g clip-path="url(#6c241df86f)"><path fill="#e4e4e4" d="M 0.0976562 1 L 44.910156 1 L 44.910156 11.082031 L 0.0976562 11.082031 Z M 0.0976562 1 " fill-opacity="1" fill-rule="nonzero"/></g></g><g fill="#000000" fill-opacity="1"><g transform="translate(4.742983, 7.721234)"><g><path d="M 1.90625 0 L 1.46875 0 L 1.46875 -2.78125 C 1.46875 -3.007812 1.476562 -3.222656 1.5 -3.421875 C 1.457031 -3.390625 1.410156 -3.351562 1.359375 -3.3125 C 1.316406 -3.269531 1.109375 -3.097656 0.734375 -2.796875 L 0.5 -3.09375 L 1.53125 -3.890625 L 1.90625 -3.890625 Z M 1.90625 0 "/></g></g></g><g fill="#000000" fill-opacity="1"><g transform="translate(7.858283, 7.721234)"><g><path d="M 2.84375 -1.953125 C 2.84375 -1.273438 2.734375 -0.769531 2.515625 -0.4375 C 2.304688 -0.113281 1.988281 0.046875 1.5625 0.046875 C 1.132812 0.046875 0.8125 -0.117188 0.59375 -0.453125 C 0.375 -0.796875 0.265625 -1.296875 0.265625 -1.953125 C 0.265625 -2.628906 0.367188 -3.128906 0.578125 -3.453125 C 0.796875 -3.785156 1.125 -3.953125 1.5625 -3.953125 C 1.976562 -3.953125 2.296875 -3.78125 2.515625 -3.4375 C 2.734375 -3.09375 2.84375 -2.597656 2.84375 -1.953125 Z M 0.71875 -1.953125 C 0.71875 -1.390625 0.785156 -0.976562 0.921875 -0.71875 C 1.054688 -0.457031 1.269531 -0.328125 1.5625 -0.328125 C 1.851562 -0.328125 2.0625 -0.457031 2.1875 -0.71875 C 2.320312 -0.976562 2.390625 -1.390625 2.390625 -1.953125 C 2.390625 -2.515625 2.320312 -2.925781 2.1875 -3.1875 C 2.0625 -3.445312 1.851562 -3.578125 1.5625 -3.578125 C 1.269531 -3.578125 1.054688 -3.445312 0.921875 -3.1875 C 0.785156 -2.925781 0.71875 -2.515625 0.71875 -1.953125 Z M 0.71875 -1.953125 "/></g></g></g><g fill="#000000" fill-opacity="1"><g transform="translate(10.973584, 7.721234)"><g><path d="M 2.84375 -1.953125 C 2.84375 -1.273438 2.734375 -0.769531 2.515625 -0.4375 C 2.304688 -0.113281 1.988281 0.046875 1.5625 0.046875 C 1.132812 0.046875 0.8125 -0.117188 0.59375 -0.453125 C 0.375 -0.796875 0.265625 -1.296875 0.265625 -1.953125 C 0.265625 -2.628906 0.367188 -3.128906 0.578125 -3.453125 C 0.796875 -3.785156 1.125 -3.953125 1.5625 -3.953125 C 1.976562 -3.953125 2.296875 -3.78125 2.515625 -3.4375 C 2.734375 -3.09375 2.84375 -2.597656 2.84375 -1.953125 Z M 0.71875 -1.953125 C 0.71875 -1.390625 0.785156 -0.976562 0.921875 -0.71875 C 1.054688 -0.457031 1.269531 -0.328125 1.5625 -0.328125 C 1.851562 -0.328125 2.0625 -0.457031 2.1875 -0.71875 C 2.320312 -0.976562 2.390625 -1.390625 2.390625 -1.953125 C 2.390625 -2.515625 2.320312 -2.925781 2.1875 -3.1875 C 2.0625 -3.445312 1.851562 -3.578125 1.5625 -3.578125 C 1.269531 -3.578125 1.054688 -3.445312 0.921875 -3.1875 C 0.785156 -2.925781 0.71875 -2.515625 0.71875 -1.953125 Z M 0.71875 -1.953125 "/></g></g></g><g fill="#000000" fill-opacity="1"><g transform="translate(14.099834, 7.721234)"><g><path d="M 0.40625 -0.28125 C 0.40625 -0.394531 0.429688 -0.484375 0.484375 -0.546875 C 0.535156 -0.609375 0.613281 -0.640625 0.71875 -0.640625 C 0.820312 -0.640625 0.898438 -0.609375 0.953125 -0.546875 C 1.015625 -0.484375 1.046875 -0.394531 1.046875 -0.28125 C 1.046875 -0.164062 1.015625 -0.078125 0.953125 -0.015625 C 0.898438 0.046875 0.820312 0.078125 0.71875 0.078125 C 0.625 0.078125 0.546875 0.0507812 0.484375 0 C 0.429688 -0.0625 0.40625 -0.15625 0.40625 -0.28125 Z M 0.40625 -0.28125 "/></g></g></g><g fill="#000000" fill-opacity="1"><g transform="translate(15.549742, 7.721234)"><g><path d="M 1.90625 0 L 1.46875 0 L 1.46875 -2.78125 C 1.46875 -3.007812 1.476562 -3.222656 1.5 -3.421875 C 1.457031 -3.390625 1.410156 -3.351562 1.359375 -3.3125 C 1.316406 -3.269531 1.109375 -3.097656 0.734375 -2.796875 L 0.5 -3.09375 L 1.53125 -3.890625 L 1.90625 -3.890625 Z M 1.90625 0 "/></g></g></g><g fill="#000000" fill-opacity="1"><g transform="translate(18.665042, 7.721234)"><g><path d="M 2.828125 -2.234375 C 2.828125 -0.710938 2.238281 0.046875 1.0625 0.046875 C 0.851562 0.046875 0.6875 0.03125 0.5625 0 L 0.5625 -0.375 C 0.707031 -0.332031 0.867188 -0.3125 1.046875 -0.3125 C 1.472656 -0.3125 1.796875 -0.441406 2.015625 -0.703125 C 2.234375 -0.972656 2.351562 -1.378906 2.375 -1.921875 L 2.34375 -1.921875 C 2.238281 -1.773438 2.101562 -1.660156 1.9375 -1.578125 C 1.78125 -1.503906 1.601562 -1.46875 1.40625 -1.46875 C 1.0625 -1.46875 0.785156 -1.566406 0.578125 -1.765625 C 0.378906 -1.972656 0.28125 -2.265625 0.28125 -2.640625 C 0.28125 -3.046875 0.394531 -3.363281 0.625 -3.59375 C 0.851562 -3.832031 1.148438 -3.953125 1.515625 -3.953125 C 1.773438 -3.953125 2.003906 -3.882812 2.203125 -3.75 C 2.398438 -3.613281 2.550781 -3.414062 2.65625 -3.15625 C 2.769531 -2.894531 2.828125 -2.585938 2.828125 -2.234375 Z M 1.515625 -3.578125 C 1.265625 -3.578125 1.066406 -3.492188 0.921875 -3.328125 C 0.785156 -3.160156 0.71875 -2.929688 0.71875 -2.640625 C 0.71875 -2.390625 0.78125 -2.191406 0.90625 -2.046875 C 1.039062 -1.898438 1.238281 -1.828125 1.5 -1.828125 C 1.65625 -1.828125 1.800781 -1.859375 1.9375 -1.921875 C 2.070312 -1.984375 2.175781 -2.070312 2.25 -2.1875 C 2.332031 -2.300781 2.375 -2.421875 2.375 -2.546875 C 2.375 -2.734375 2.335938 -2.90625 2.265625 -3.0625 C 2.191406 -3.21875 2.085938 -3.34375 1.953125 -3.4375 C 1.828125 -3.53125 1.679688 -3.578125 1.515625 -3.578125 Z M 1.515625 -3.578125 "/></g></g></g><g fill="#000000" fill-opacity="1"><g transform="translate(21.780343, 7.721234)"><g><path d="M 2.828125 -2.234375 C 2.828125 -0.710938 2.238281 0.046875 1.0625 0.046875 C 0.851562 0.046875 0.6875 0.03125 0.5625 0 L 0.5625 -0.375 C 0.707031 -0.332031 0.867188 -0.3125 1.046875 -0.3125 C 1.472656 -0.3125 1.796875 -0.441406 2.015625 -0.703125 C 2.234375 -0.972656 2.351562 -1.378906 2.375 -1.921875 L 2.34375 -1.921875 C 2.238281 -1.773438 2.101562 -1.660156 1.9375 -1.578125 C 1.78125 -1.503906 1.601562 -1.46875 1.40625 -1.46875 C 1.0625 -1.46875 0.785156 -1.566406 0.578125 -1.765625 C 0.378906 -1.972656 0.28125 -2.265625 0.28125 -2.640625 C 0.28125 -3.046875 0.394531 -3.363281 0.625 -3.59375 C 0.851562 -3.832031 1.148438 -3.953125 1.515625 -3.953125 C 1.773438 -3.953125 2.003906 -3.882812 2.203125 -3.75 C 2.398438 -3.613281 2.550781 -3.414062 2.65625 -3.15625 C 2.769531 -2.894531 2.828125 -2.585938 2.828125 -2.234375 Z M 1.515625 -3.578125 C 1.265625 -3.578125 1.066406 -3.492188 0.921875 -3.328125 C 0.785156 -3.160156 0.71875 -2.929688 0.71875 -2.640625 C 0.71875 -2.390625 0.78125 -2.191406 0.90625 -2.046875 C 1.039062 -1.898438 1.238281 -1.828125 1.5 -1.828125 C 1.65625 -1.828125 1.800781 -1.859375 1.9375 -1.921875 C 2.070312 -1.984375 2.175781 -2.070312 2.25 -2.1875 C 2.332031 -2.300781 2.375 -2.421875 2.375 -2.546875 C 2.375 -2.734375 2.335938 -2.90625 2.265625 -3.0625 C 2.191406 -3.21875 2.085938 -3.34375 1.953125 -3.4375 C 1.828125 -3.53125 1.679688 -3.578125 1.515625 -3.578125 Z M 1.515625 -3.578125 "/></g></g></g><g fill="#000000" fill-opacity="1"><g transform="translate(24.895643, 7.721234)"><g><path d="M 0.40625 -0.28125 C 0.40625 -0.394531 0.429688 -0.484375 0.484375 -0.546875 C 0.535156 -0.609375 0.613281 -0.640625 0.71875 -0.640625 C 0.820312 -0.640625 0.898438 -0.609375 0.953125 -0.546875 C 1.015625 -0.484375 1.046875 -0.394531 1.046875 -0.28125 C 1.046875 -0.164062 1.015625 -0.078125 0.953125 -0.015625 C 0.898438 0.046875 0.820312 0.078125 0.71875 0.078125 C 0.625 0.078125 0.546875 0.0507812 0.484375 0 C 0.429688 -0.0625 0.40625 -0.15625 0.40625 -0.28125 Z M 0.40625 -0.28125 "/></g></g></g><g fill="#000000" fill-opacity="1"><g transform="translate(26.345552, 7.721234)"><g><path d="M 2.671875 -2.984375 C 2.671875 -2.734375 2.601562 -2.523438 2.46875 -2.359375 C 2.332031 -2.203125 2.132812 -2.097656 1.875 -2.046875 L 1.875 -2.03125 C 2.1875 -1.988281 2.414062 -1.882812 2.5625 -1.71875 C 2.71875 -1.5625 2.796875 -1.359375 2.796875 -1.109375 C 2.796875 -0.734375 2.664062 -0.445312 2.40625 -0.25 C 2.15625 -0.0507812 1.789062 0.046875 1.3125 0.046875 C 1.101562 0.046875 0.914062 0.03125 0.75 0 C 0.582031 -0.03125 0.414062 -0.0820312 0.25 -0.15625 L 0.25 -0.578125 C 0.414062 -0.492188 0.59375 -0.429688 0.78125 -0.390625 C 0.976562 -0.347656 1.160156 -0.328125 1.328125 -0.328125 C 2.003906 -0.328125 2.34375 -0.585938 2.34375 -1.109375 C 2.34375 -1.585938 1.972656 -1.828125 1.234375 -1.828125 L 0.84375 -1.828125 L 0.84375 -2.203125 L 1.234375 -2.203125 C 1.535156 -2.203125 1.773438 -2.269531 1.953125 -2.40625 C 2.128906 -2.539062 2.21875 -2.722656 2.21875 -2.953125 C 2.21875 -3.148438 2.148438 -3.300781 2.015625 -3.40625 C 1.890625 -3.519531 1.71875 -3.578125 1.5 -3.578125 C 1.320312 -3.578125 1.15625 -3.550781 1 -3.5 C 0.851562 -3.457031 0.6875 -3.375 0.5 -3.25 L 0.265625 -3.546875 C 0.429688 -3.671875 0.617188 -3.769531 0.828125 -3.84375 C 1.035156 -3.914062 1.253906 -3.953125 1.484375 -3.953125 C 1.859375 -3.953125 2.148438 -3.863281 2.359375 -3.6875 C 2.566406 -3.507812 2.671875 -3.273438 2.671875 -2.984375 Z M 2.671875 -2.984375 "/></g></g></g><g fill="#000000" fill-opacity="1"><g transform="translate(29.460852, 7.721234)"><g><path d="M 0.765625 0 L 2.375 -3.484375 L 0.25 -3.484375 L 0.25 -3.890625 L 2.84375 -3.890625 L 2.84375 -3.53125 L 1.25 0 Z M 0.765625 0 "/></g></g></g><g fill="#000000" fill-opacity="1"><g transform="translate(32.576153, 7.721234)"><g><path d="M 0.40625 -0.28125 C 0.40625 -0.394531 0.429688 -0.484375 0.484375 -0.546875 C 0.535156 -0.609375 0.613281 -0.640625 0.71875 -0.640625 C 0.820312 -0.640625 0.898438 -0.609375 0.953125 -0.546875 C 1.015625 -0.484375 1.046875 -0.394531 1.046875 -0.28125 C 1.046875 -0.164062 1.015625 -0.078125 0.953125 -0.015625 C 0.898438 0.046875 0.820312 0.078125 0.71875 0.078125 C 0.625 0.078125 0.546875 0.0507812 0.484375 0 C 0.429688 -0.0625 0.40625 -0.15625 0.40625 -0.28125 Z M 0.40625 -0.28125 "/></g></g></g><g fill="#000000" fill-opacity="1"><g transform="translate(34.026061, 7.721234)"><g><path d="M 2.671875 -2.984375 C 2.671875 -2.734375 2.601562 -2.523438 2.46875 -2.359375 C 2.332031 -2.203125 2.132812 -2.097656 1.875 -2.046875 L 1.875 -2.03125 C 2.1875 -1.988281 2.414062 -1.882812 2.5625 -1.71875 C 2.71875 -1.5625 2.796875 -1.359375 2.796875 -1.109375 C 2.796875 -0.734375 2.664062 -0.445312 2.40625 -0.25 C 2.15625 -0.0507812 1.789062 0.046875 1.3125 0.046875 C 1.101562 0.046875 0.914062 0.03125 0.75 0 C 0.582031 -0.03125 0.414062 -0.0820312 0.25 -0.15625 L 0.25 -0.578125 C 0.414062 -0.492188 0.59375 -0.429688 0.78125 -0.390625 C 0.976562 -0.347656 1.160156 -0.328125 1.328125 -0.328125 C 2.003906 -0.328125 2.34375 -0.585938 2.34375 -1.109375 C 2.34375 -1.585938 1.972656 -1.828125 1.234375 -1.828125 L 0.84375 -1.828125 L 0.84375 -2.203125 L 1.234375 -2.203125 C 1.535156 -2.203125 1.773438 -2.269531 1.953125 -2.40625 C 2.128906 -2.539062 2.21875 -2.722656 2.21875 -2.953125 C 2.21875 -3.148438 2.148438 -3.300781 2.015625 -3.40625 C 1.890625 -3.519531 1.71875 -3.578125 1.5 -3.578125 C 1.320312 -3.578125 1.15625 -3.550781 1 -3.5 C 0.851562 -3.457031 0.6875 -3.375 0.5 -3.25 L 0.265625 -3.546875 C 0.429688 -3.671875 0.617188 -3.769531 0.828125 -3.84375 C 1.035156 -3.914062 1.253906 -3.953125 1.484375 -3.953125 C 1.859375 -3.953125 2.148438 -3.863281 2.359375 -3.6875 C 2.566406 -3.507812 2.671875 -3.273438 2.671875 -2.984375 Z M 2.671875 -2.984375 "/></g></g></g><g fill="#000000" fill-opacity="1"><g transform="translate(37.141361, 7.721234)"><g><path d="M 0.765625 0 L 2.375 -3.484375 L 0.25 -3.484375 L 0.25 -3.890625 L 2.84375 -3.890625 L 2.84375 -3.53125 L 1.25 0 Z M 0.765625 0 "/></g></g></g></g></g></g></g></svg>