<svg xmlns="http://www.w3.org/2000/svg" xmlns:xlink="http://www.w3.org/1999/xlink" width="70" zoomAndPan="magnify" viewBox="0 0 52.5 52.499999" height="70" preserveAspectRatio="xMidYMid meet" version="1.0"><defs><filter x="0%" y="0%" width="100%" height="100%" id="7e22060047"><feColorMatrix values="0 0 0 0 1 0 0 0 0 1 0 0 0 0 1 0 0 0 1 0" color-interpolation-filters="sRGB"/></filter><g/><clipPath id="6c8b396e23"><path d="M 15 49 L 28 49 L 28 52.003906 L 15 52.003906 Z M 15 49 " clip-rule="nonzero"/></clipPath><clipPath id="2f7ac0828a"><path d="M 15 33 L 27.785156 33 L 27.785156 45 L 15 45 Z M 15 33 " clip-rule="nonzero"/></clipPath><clipPath id="2679c9d0a3"><path d="M 25.796875 50.539062 L 16.898438 50.539062 C 15.972656 50.539062 15.285156 49.664062 15.515625 48.761719 L 19.074219 34.683594 C 19.234375 34.054688 19.808594 33.613281 20.457031 33.613281 L 22.234375 33.613281 C 22.886719 33.613281 23.453125 34.054688 23.613281 34.683594 L 27.171875 48.761719 C 27.402344 49.664062 26.71875 50.539062 25.792969 50.539062 Z M 25.796875 50.539062 " clip-rule="nonzero"/></clipPath><clipPath id="8426d303ab"><path d="M 5 7 L 51.980469 7 L 51.980469 35.945312 L 5 35.945312 Z M 5 7 " clip-rule="nonzero"/></clipPath><clipPath id="0165076c19"><path d="M 6.925781 6.210938 C 6.007812 5.734375 4.929688 6.453125 5.007812 7.484375 C 5.75 17.667969 11.605469 27.230469 21.339844 32.28125 C 31.078125 37.332031 42.285156 36.605469 51.054688 31.363281 C 51.941406 30.832031 51.910156 29.542969 50.996094 29.0625 Z M 6.925781 6.210938 " clip-rule="nonzero"/></clipPath><clipPath id="86b1ed9045"><path d="M 5 8 L 51.980469 8 L 51.980469 35.945312 L 5 35.945312 Z M 5 8 " clip-rule="nonzero"/></clipPath><clipPath id="4dbde765ed"><path d="M 6.925781 6.210938 C 6.007812 5.734375 4.929688 6.453125 5.007812 7.484375 C 5.75 17.667969 11.605469 27.230469 21.339844 32.28125 C 31.078125 37.332031 42.285156 36.605469 51.054688 31.363281 C 51.941406 30.832031 51.910156 29.542969 50.996094 29.0625 Z M 6.925781 6.210938 " clip-rule="nonzero"/></clipPath><mask id="e2d4221316"><g filter="url(#7e22060047)"><rect x="-5.25" width="63" fill="#000000" y="-5.25" height="62.999999" fill-opacity="0.9"/></g></mask><clipPath id="b7f30c7c7f"><path d="M 0 1.152344 L 50.234375 1.152344 L 50.234375 12.851562 L 0 12.851562 Z M 0 1.152344 " clip-rule="nonzero"/></clipPath><clipPath id="a051640047"><path d="M 4.066406 1.152344 L 44.371094 1.152344 C 47.601562 1.152344 50.222656 3.769531 50.222656 7.003906 C 50.222656 10.234375 47.601562 12.851562 44.371094 12.851562 L 4.066406 12.851562 C 0.835938 12.851562 -1.78125 10.234375 -1.78125 7.003906 C -1.78125 3.769531 0.835938 1.152344 4.066406 1.152344 Z M 4.066406 1.152344 " clip-rule="nonzero"/></clipPath><clipPath id="c024c0bfba"><rect x="0" width="51" y="0" height="13"/></clipPath></defs><g clip-path="url(#6c8b396e23)"><path fill="#010101" d="M 16.695312 49.648438 L 26.003906 49.648438 C 26.160156 49.648438 26.3125 49.675781 26.457031 49.738281 C 26.601562 49.796875 26.726562 49.882812 26.839844 49.992188 C 26.949219 50.101562 27.035156 50.230469 27.09375 50.375 C 27.152344 50.519531 27.183594 50.667969 27.183594 50.824219 C 27.183594 50.984375 27.152344 51.132812 27.09375 51.277344 C 27.035156 51.421875 26.949219 51.550781 26.839844 51.660156 C 26.726562 51.769531 26.601562 51.855469 26.457031 51.914062 C 26.3125 51.976562 26.160156 52.003906 26.003906 52.003906 L 16.695312 52.003906 C 16.539062 52.003906 16.390625 51.976562 16.246094 51.914062 C 16.101562 51.855469 15.972656 51.769531 15.863281 51.660156 C 15.75 51.550781 15.667969 51.421875 15.605469 51.277344 C 15.546875 51.132812 15.515625 50.984375 15.515625 50.824219 C 15.515625 50.667969 15.546875 50.519531 15.605469 50.375 C 15.667969 50.230469 15.75 50.101562 15.863281 49.992188 C 15.972656 49.882812 16.101562 49.796875 16.246094 49.738281 C 16.390625 49.675781 16.539062 49.648438 16.695312 49.648438 Z M 16.695312 49.648438 " fill-opacity="1" fill-rule="nonzero"/></g><path fill="#d1c4dd" d="M 25.796875 50.539062 L 16.898438 50.539062 C 15.972656 50.539062 15.285156 49.664062 15.515625 48.761719 L 19.074219 34.683594 C 19.234375 34.054688 19.808594 33.613281 20.457031 33.613281 L 22.234375 33.613281 C 22.886719 33.613281 23.453125 34.054688 23.613281 34.683594 L 27.171875 48.761719 C 27.402344 49.664062 26.71875 50.539062 25.792969 50.539062 Z M 25.796875 50.539062 " fill-opacity="1" fill-rule="nonzero"/><g clip-path="url(#2f7ac0828a)"><g clip-path="url(#2679c9d0a3)"><path stroke-linecap="butt" transform="matrix(0.590149, 0, 0, 0.589289, -3.491959, 0.000000990566)" fill-opacity="1" fill="#615b67" fill-rule="nonzero" stroke-linejoin="round" d="M 57.711444 75.362324 C 57.711444 67.010092 26.462728 67.010092 26.462728 75.362324 L 26.462728 47.567951 L 57.711444 47.567951 Z M 57.711444 75.362324 " stroke="#010101" stroke-width="0.5" stroke-opacity="1" stroke-miterlimit="4"/></g></g><path stroke-linecap="butt" transform="matrix(0.590149, 0, 0, 0.589289, -3.491959, 0.000000990566)" fill="none" stroke-linejoin="round" d="M 49.629537 85.762842 L 34.551254 85.762842 C 32.98253 85.762842 31.817571 84.278001 32.208097 82.746758 L 38.238086 58.856722 C 38.509469 57.789492 39.482475 57.040443 40.581243 57.040443 L 43.592929 57.040443 C 44.698316 57.040443 45.658084 57.789492 45.929467 58.856722 L 51.959456 82.746758 C 52.349982 84.278001 51.191642 85.762842 49.622918 85.762842 Z M 49.629537 85.762842 " stroke="#010101" stroke-width="0.5" stroke-opacity="1" stroke-miterlimit="4"/><path stroke-linecap="butt" transform="matrix(0.590149, 0, 0, 0.589289, -3.491959, 0.000000990566)" fill-opacity="1" fill="#615b67" fill-rule="nonzero" stroke-linejoin="miter" d="M 50.357637 54.780037 C 50.357637 55.323595 50.304684 55.860524 50.198779 56.390825 C 50.092873 56.927754 49.940634 57.444797 49.728823 57.941954 C 49.523632 58.445739 49.265487 58.92301 48.967628 59.373765 C 48.66315 59.82452 48.318958 60.242132 47.93505 60.6266 C 47.551143 61.011068 47.134141 61.355763 46.684043 61.654057 C 46.233945 61.95898 45.75737 62.210873 45.25432 62.422993 C 44.751269 62.628484 44.23498 62.787574 43.705453 62.893634 C 43.169307 62.999695 42.633161 63.052725 42.090395 63.052725 C 41.54763 63.052725 41.011484 62.999695 40.475338 62.893634 C 39.945811 62.787574 39.429522 62.628484 38.926471 62.422993 C 38.423421 62.210873 37.946846 61.95898 37.496748 61.654057 C 37.04665 61.355763 36.623029 61.011068 36.239121 60.6266 C 35.855214 60.242132 35.517641 59.82452 35.213163 59.373765 C 34.915304 58.92301 34.657159 58.445739 34.451968 57.941954 C 34.240157 57.444797 34.087918 56.927754 33.982012 56.390825 C 33.876107 55.860524 33.823154 55.323595 33.823154 54.780037 C 33.823154 54.236479 33.876107 53.69955 33.982012 53.16925 C 34.087918 52.63232 34.240157 52.115277 34.451968 51.618121 C 34.657159 51.114335 34.915304 50.637065 35.213163 50.186309 C 35.517641 49.735554 35.855214 49.317942 36.239121 48.933474 C 36.623029 48.549007 37.04665 48.204311 37.496748 47.906017 C 37.946846 47.601095 38.423421 47.349202 38.926471 47.137082 C 39.429522 46.93159 39.945811 46.7725 40.475338 46.66644 C 41.011484 46.56038 41.54763 46.50735 42.090395 46.50735 C 42.633161 46.50735 43.169307 46.56038 43.705453 46.66644 C 44.23498 46.7725 44.751269 46.93159 45.25432 47.137082 C 45.75737 47.349202 46.233945 47.601095 46.684043 47.906017 C 47.134141 48.204311 47.551143 48.549007 47.93505 48.933474 C 48.318958 49.317942 48.66315 49.735554 48.967628 50.186309 C 49.265487 50.637065 49.523632 51.114335 49.728823 51.618121 C 49.940634 52.115277 50.092873 52.63232 50.198779 53.16925 C 50.304684 53.69955 50.357637 54.236479 50.357637 54.780037 Z M 50.357637 54.780037 " stroke="#010101" stroke-width="0.5" stroke-opacity="1" stroke-miterlimit="10"/><path stroke-linecap="butt" transform="matrix(0.590149, 0, 0, 0.589289, -3.491959, 0.000000990566)" fill-opacity="1" fill="#d1c4dd" fill-rule="nonzero" stroke-linejoin="round" d="M 54.957903 33.992259 L 51.701312 32.288668 L 67.362074 4.368348 L 68.791797 5.110769 Z M 54.957903 33.992259 " stroke="#010101" stroke-width="0.5" stroke-opacity="1" stroke-miterlimit="4"/><path fill="#d1c4dd" d="M 6.925781 6.210938 C 6.007812 5.734375 4.929688 6.453125 5.007812 7.484375 C 5.75 17.667969 11.605469 27.230469 21.339844 32.28125 C 31.078125 37.332031 42.285156 36.605469 51.054688 31.363281 C 51.941406 30.832031 51.910156 29.542969 50.996094 29.0625 Z M 6.925781 6.210938 " fill-opacity="1" fill-rule="nonzero"/><g clip-path="url(#8426d303ab)"><g clip-path="url(#0165076c19)"><path fill="#010101" d="M 52.011719 33.058594 C 45.589844 45.59375 -3.378906 20.265625 3.070312 7.683594 L -3.492188 20.308594 L 45.441406 45.683594 L 52.003906 33.058594 Z M 52.011719 33.058594 " fill-opacity="1" fill-rule="nonzero"/></g></g><g clip-path="url(#86b1ed9045)"><g clip-path="url(#4dbde765ed)"><path stroke-linecap="butt" transform="matrix(0.523754, 0.271556, -0.271952, 0.52299, 10.423665, -11.096218)" fill-opacity="1" fill="#f47c4a" fill-rule="nonzero" stroke-linejoin="round" d="M 3.630651 34.979423 L 97.068206 34.9823 L 97.067471 42.780393 L 3.629917 42.777515 Z M 3.630651 34.979423 " stroke="#010101" stroke-width="0.5" stroke-opacity="1" stroke-miterlimit="4"/></g></g><path stroke-linecap="butt" transform="matrix(0.590149, 0, 0, 0.589289, -3.491959, 0.000000990566)" fill="none" stroke-linejoin="round" d="M 17.652722 10.53972 C 16.097236 9.731012 14.270368 10.950703 14.402749 12.700695 C 15.660376 29.981861 25.582389 46.209056 42.077157 54.780037 C 58.578544 63.351019 77.568709 62.11807 92.428562 53.22228 C 93.931095 52.320769 93.878142 50.133279 92.329275 49.317942 Z M 17.652722 10.53972 " stroke="#010101" stroke-width="0.5" stroke-opacity="1" stroke-miterlimit="4"/><path stroke-linecap="butt" transform="matrix(0.590149, 0, 0, 0.589289, -3.491959, 0.000000990566)" fill-opacity="1" fill="#d1c4dd" fill-rule="nonzero" stroke-linejoin="round" d="M 70.08252 0.888252 C 67.289264 -0.556817 63.860577 0.530299 62.410996 3.321005 L 72.498487 8.557722 C 73.948067 5.767016 72.862537 2.339949 70.069282 0.888252 Z M 70.08252 0.888252 " stroke="#010101" stroke-width="0.5" stroke-opacity="1" stroke-miterlimit="4"/><path stroke-linecap="butt" transform="matrix(0.523754, 0.271556, -0.271952, 0.52299, 2.769492, -17.778724)" fill-opacity="1" fill="#615b67" fill-rule="nonzero" stroke-linejoin="round" d="M 61.397406 5.849132 L 72.772102 5.851007 L 72.767867 7.451588 L 61.4021 7.452545 Z M 61.397406 5.849132 " stroke="#010101" stroke-width="0.5" stroke-opacity="1" stroke-miterlimit="4"/><path fill="#010101" d="M 35.40625 4.085938 L 36.40625 4.605469 L 35.515625 6.320312 L 34.515625 5.804688 Z M 35.40625 4.085938 " fill-opacity="1" fill-rule="nonzero"/><g mask="url(#e2d4221316)"><g transform="matrix(1, 0, 0, 1, 0, 19)"><g clip-path="url(#c024c0bfba)"><g clip-path="url(#b7f30c7c7f)"><g clip-path="url(#a051640047)"><path fill="#e4e4e4" d="M -1.78125 1.152344 L 50.234375 1.152344 L 50.234375 12.851562 L -1.78125 12.851562 Z M -1.78125 1.152344 " fill-opacity="1" fill-rule="nonzero"/></g></g><g fill="#000000" fill-opacity="1"><g transform="translate(9.024211, 8.580837)"><g><path d="M 3.28125 0 L 0.3125 0 L 0.3125 -0.4375 L 1.5 -1.640625 C 1.863281 -2.003906 2.101562 -2.265625 2.21875 -2.421875 C 2.332031 -2.578125 2.414062 -2.726562 2.46875 -2.875 C 2.53125 -3.03125 2.5625 -3.191406 2.5625 -3.359375 C 2.5625 -3.609375 2.488281 -3.800781 2.34375 -3.9375 C 2.195312 -4.082031 1.992188 -4.15625 1.734375 -4.15625 C 1.546875 -4.15625 1.367188 -4.125 1.203125 -4.0625 C 1.035156 -4 0.847656 -3.882812 0.640625 -3.71875 L 0.375 -4.078125 C 0.789062 -4.421875 1.242188 -4.59375 1.734375 -4.59375 C 2.160156 -4.59375 2.492188 -4.484375 2.734375 -4.265625 C 2.972656 -4.046875 3.09375 -3.753906 3.09375 -3.390625 C 3.09375 -3.097656 3.007812 -2.8125 2.84375 -2.53125 C 2.6875 -2.25 2.390625 -1.894531 1.953125 -1.46875 L 0.953125 -0.5 L 0.953125 -0.484375 L 3.28125 -0.484375 Z M 3.28125 0 "/></g></g></g><g fill="#000000" fill-opacity="1"><g transform="translate(12.641547, 8.580837)"><g><path d="M 3.28125 0 L 0.3125 0 L 0.3125 -0.4375 L 1.5 -1.640625 C 1.863281 -2.003906 2.101562 -2.265625 2.21875 -2.421875 C 2.332031 -2.578125 2.414062 -2.726562 2.46875 -2.875 C 2.53125 -3.03125 2.5625 -3.191406 2.5625 -3.359375 C 2.5625 -3.609375 2.488281 -3.800781 2.34375 -3.9375 C 2.195312 -4.082031 1.992188 -4.15625 1.734375 -4.15625 C 1.546875 -4.15625 1.367188 -4.125 1.203125 -4.0625 C 1.035156 -4 0.847656 -3.882812 0.640625 -3.71875 L 0.375 -4.078125 C 0.789062 -4.421875 1.242188 -4.59375 1.734375 -4.59375 C 2.160156 -4.59375 2.492188 -4.484375 2.734375 -4.265625 C 2.972656 -4.046875 3.09375 -3.753906 3.09375 -3.390625 C 3.09375 -3.097656 3.007812 -2.8125 2.84375 -2.53125 C 2.6875 -2.25 2.390625 -1.894531 1.953125 -1.46875 L 0.953125 -0.5 L 0.953125 -0.484375 L 3.28125 -0.484375 Z M 3.28125 0 "/></g></g></g><g fill="#000000" fill-opacity="1"><g transform="translate(16.258883, 8.580837)"><g><path d="M 0.46875 -0.328125 C 0.46875 -0.460938 0.5 -0.566406 0.5625 -0.640625 C 0.625 -0.710938 0.71875 -0.75 0.84375 -0.75 C 0.957031 -0.75 1.046875 -0.710938 1.109375 -0.640625 C 1.179688 -0.566406 1.21875 -0.460938 1.21875 -0.328125 C 1.21875 -0.191406 1.179688 -0.0859375 1.109375 -0.015625 C 1.046875 0.0546875 0.957031 0.09375 0.84375 0.09375 C 0.726562 0.09375 0.632812 0.0625 0.5625 0 C 0.5 -0.0703125 0.46875 -0.179688 0.46875 -0.328125 Z M 0.46875 -0.328125 "/></g></g></g><g fill="#000000" fill-opacity="1"><g transform="translate(17.942445, 8.580837)"><g><path d="M 3.28125 -2.59375 C 3.28125 -0.820312 2.597656 0.0625 1.234375 0.0625 C 0.992188 0.0625 0.800781 0.0390625 0.65625 0 L 0.65625 -0.4375 C 0.820312 -0.382812 1.007812 -0.359375 1.21875 -0.359375 C 1.71875 -0.359375 2.09375 -0.507812 2.34375 -0.8125 C 2.59375 -1.125 2.734375 -1.597656 2.765625 -2.234375 L 2.71875 -2.234375 C 2.601562 -2.054688 2.453125 -1.921875 2.265625 -1.828125 C 2.078125 -1.742188 1.867188 -1.703125 1.640625 -1.703125 C 1.234375 -1.703125 0.910156 -1.820312 0.671875 -2.0625 C 0.441406 -2.300781 0.328125 -2.632812 0.328125 -3.0625 C 0.328125 -3.539062 0.457031 -3.914062 0.71875 -4.1875 C 0.988281 -4.457031 1.335938 -4.59375 1.765625 -4.59375 C 2.066406 -4.59375 2.332031 -4.515625 2.5625 -4.359375 C 2.800781 -4.203125 2.976562 -3.972656 3.09375 -3.671875 C 3.21875 -3.367188 3.28125 -3.007812 3.28125 -2.59375 Z M 1.765625 -4.15625 C 1.460938 -4.15625 1.234375 -4.054688 1.078125 -3.859375 C 0.921875 -3.671875 0.84375 -3.410156 0.84375 -3.078125 C 0.84375 -2.773438 0.914062 -2.539062 1.0625 -2.375 C 1.207031 -2.207031 1.429688 -2.125 1.734375 -2.125 C 1.921875 -2.125 2.09375 -2.160156 2.25 -2.234375 C 2.414062 -2.304688 2.539062 -2.410156 2.625 -2.546875 C 2.71875 -2.679688 2.765625 -2.820312 2.765625 -2.96875 C 2.765625 -3.175781 2.722656 -3.375 2.640625 -3.5625 C 2.554688 -3.75 2.4375 -3.894531 2.28125 -4 C 2.132812 -4.101562 1.960938 -4.15625 1.765625 -4.15625 Z M 1.765625 -4.15625 "/></g></g></g><g fill="#000000" fill-opacity="1"><g transform="translate(21.559781, 8.580837)"><g><path d="M 0.46875 -0.328125 C 0.46875 -0.460938 0.5 -0.566406 0.5625 -0.640625 C 0.625 -0.710938 0.71875 -0.75 0.84375 -0.75 C 0.957031 -0.75 1.046875 -0.710938 1.109375 -0.640625 C 1.179688 -0.566406 1.21875 -0.460938 1.21875 -0.328125 C 1.21875 -0.191406 1.179688 -0.0859375 1.109375 -0.015625 C 1.046875 0.0546875 0.957031 0.09375 0.84375 0.09375 C 0.726562 0.09375 0.632812 0.0625 0.5625 0 C 0.5 -0.0703125 0.46875 -0.179688 0.46875 -0.328125 Z M 0.46875 -0.328125 "/></g></g></g><g fill="#000000" fill-opacity="1"><g transform="translate(23.243343, 8.580837)"><g><path d="M 1.8125 -4.59375 C 2.21875 -4.59375 2.539062 -4.492188 2.78125 -4.296875 C 3.03125 -4.109375 3.15625 -3.847656 3.15625 -3.515625 C 3.15625 -3.285156 3.082031 -3.078125 2.9375 -2.890625 C 2.800781 -2.710938 2.582031 -2.546875 2.28125 -2.390625 C 2.644531 -2.222656 2.90625 -2.039062 3.0625 -1.84375 C 3.21875 -1.65625 3.296875 -1.429688 3.296875 -1.171875 C 3.296875 -0.796875 3.164062 -0.492188 2.90625 -0.265625 C 2.644531 -0.046875 2.285156 0.0625 1.828125 0.0625 C 1.347656 0.0625 0.976562 -0.0390625 0.71875 -0.25 C 0.457031 -0.46875 0.328125 -0.769531 0.328125 -1.15625 C 0.328125 -1.675781 0.640625 -2.078125 1.265625 -2.359375 C 0.984375 -2.523438 0.78125 -2.703125 0.65625 -2.890625 C 0.53125 -3.078125 0.46875 -3.285156 0.46875 -3.515625 C 0.46875 -3.847656 0.585938 -4.109375 0.828125 -4.296875 C 1.078125 -4.492188 1.40625 -4.59375 1.8125 -4.59375 Z M 0.828125 -1.140625 C 0.828125 -0.890625 0.910156 -0.695312 1.078125 -0.5625 C 1.253906 -0.425781 1.5 -0.359375 1.8125 -0.359375 C 2.125 -0.359375 2.363281 -0.429688 2.53125 -0.578125 C 2.707031 -0.722656 2.796875 -0.921875 2.796875 -1.171875 C 2.796875 -1.367188 2.710938 -1.546875 2.546875 -1.703125 C 2.390625 -1.859375 2.109375 -2.007812 1.703125 -2.15625 C 1.398438 -2.019531 1.175781 -1.875 1.03125 -1.71875 C 0.894531 -1.5625 0.828125 -1.367188 0.828125 -1.140625 Z M 1.796875 -4.171875 C 1.546875 -4.171875 1.34375 -4.109375 1.1875 -3.984375 C 1.039062 -3.859375 0.96875 -3.695312 0.96875 -3.5 C 0.96875 -3.300781 1.03125 -3.132812 1.15625 -3 C 1.28125 -2.863281 1.503906 -2.726562 1.828125 -2.59375 C 2.128906 -2.71875 2.335938 -2.847656 2.453125 -2.984375 C 2.578125 -3.128906 2.640625 -3.300781 2.640625 -3.5 C 2.640625 -3.707031 2.566406 -3.867188 2.421875 -3.984375 C 2.273438 -4.109375 2.066406 -4.171875 1.796875 -4.171875 Z M 1.796875 -4.171875 "/></g></g></g><g fill="#000000" fill-opacity="1"><g transform="translate(26.860679, 8.580837)"><g><path d="M 3.109375 -3.46875 C 3.109375 -3.175781 3.023438 -2.9375 2.859375 -2.75 C 2.703125 -2.570312 2.476562 -2.453125 2.1875 -2.390625 L 2.1875 -2.359375 C 2.550781 -2.316406 2.816406 -2.203125 2.984375 -2.015625 C 3.160156 -1.828125 3.25 -1.582031 3.25 -1.28125 C 3.25 -0.851562 3.097656 -0.519531 2.796875 -0.28125 C 2.503906 -0.0507812 2.082031 0.0625 1.53125 0.0625 C 1.289062 0.0625 1.070312 0.0390625 0.875 0 C 0.675781 -0.03125 0.484375 -0.09375 0.296875 -0.1875 L 0.296875 -0.671875 C 0.484375 -0.578125 0.6875 -0.503906 0.90625 -0.453125 C 1.132812 -0.398438 1.347656 -0.375 1.546875 -0.375 C 2.328125 -0.375 2.71875 -0.679688 2.71875 -1.296875 C 2.71875 -1.847656 2.285156 -2.125 1.421875 -2.125 L 0.984375 -2.125 L 0.984375 -2.5625 L 1.4375 -2.5625 C 1.789062 -2.5625 2.066406 -2.640625 2.265625 -2.796875 C 2.472656 -2.953125 2.578125 -3.164062 2.578125 -3.4375 C 2.578125 -3.664062 2.5 -3.84375 2.34375 -3.96875 C 2.195312 -4.09375 1.992188 -4.15625 1.734375 -4.15625 C 1.535156 -4.15625 1.347656 -4.128906 1.171875 -4.078125 C 0.992188 -4.023438 0.796875 -3.925781 0.578125 -3.78125 L 0.3125 -4.125 C 0.5 -4.269531 0.710938 -4.382812 0.953125 -4.46875 C 1.203125 -4.550781 1.457031 -4.59375 1.71875 -4.59375 C 2.164062 -4.59375 2.507812 -4.488281 2.75 -4.28125 C 2.988281 -4.082031 3.109375 -3.8125 3.109375 -3.46875 Z M 3.109375 -3.46875 "/></g></g></g><g fill="#000000" fill-opacity="1"><g transform="translate(30.478015, 8.580837)"><g><path d="M 0.46875 -0.328125 C 0.46875 -0.460938 0.5 -0.566406 0.5625 -0.640625 C 0.625 -0.710938 0.71875 -0.75 0.84375 -0.75 C 0.957031 -0.75 1.046875 -0.710938 1.109375 -0.640625 C 1.179688 -0.566406 1.21875 -0.460938 1.21875 -0.328125 C 1.21875 -0.191406 1.179688 -0.0859375 1.109375 -0.015625 C 1.046875 0.0546875 0.957031 0.09375 0.84375 0.09375 C 0.726562 0.09375 0.632812 0.0625 0.5625 0 C 0.5 -0.0703125 0.46875 -0.179688 0.46875 -0.328125 Z M 0.46875 -0.328125 "/></g></g></g><g fill="#000000" fill-opacity="1"><g transform="translate(32.161577, 8.580837)"><g><path d="M 3.28125 -2.59375 C 3.28125 -0.820312 2.597656 0.0625 1.234375 0.0625 C 0.992188 0.0625 0.800781 0.0390625 0.65625 0 L 0.65625 -0.4375 C 0.820312 -0.382812 1.007812 -0.359375 1.21875 -0.359375 C 1.71875 -0.359375 2.09375 -0.507812 2.34375 -0.8125 C 2.59375 -1.125 2.734375 -1.597656 2.765625 -2.234375 L 2.71875 -2.234375 C 2.601562 -2.054688 2.453125 -1.921875 2.265625 -1.828125 C 2.078125 -1.742188 1.867188 -1.703125 1.640625 -1.703125 C 1.234375 -1.703125 0.910156 -1.820312 0.671875 -2.0625 C 0.441406 -2.300781 0.328125 -2.632812 0.328125 -3.0625 C 0.328125 -3.539062 0.457031 -3.914062 0.71875 -4.1875 C 0.988281 -4.457031 1.335938 -4.59375 1.765625 -4.59375 C 2.066406 -4.59375 2.332031 -4.515625 2.5625 -4.359375 C 2.800781 -4.203125 2.976562 -3.972656 3.09375 -3.671875 C 3.21875 -3.367188 3.28125 -3.007812 3.28125 -2.59375 Z M 1.765625 -4.15625 C 1.460938 -4.15625 1.234375 -4.054688 1.078125 -3.859375 C 0.921875 -3.671875 0.84375 -3.410156 0.84375 -3.078125 C 0.84375 -2.773438 0.914062 -2.539062 1.0625 -2.375 C 1.207031 -2.207031 1.429688 -2.125 1.734375 -2.125 C 1.921875 -2.125 2.09375 -2.160156 2.25 -2.234375 C 2.414062 -2.304688 2.539062 -2.410156 2.625 -2.546875 C 2.71875 -2.679688 2.765625 -2.820312 2.765625 -2.96875 C 2.765625 -3.175781 2.722656 -3.375 2.640625 -3.5625 C 2.554688 -3.75 2.4375 -3.894531 2.28125 -4 C 2.132812 -4.101562 1.960938 -4.15625 1.765625 -4.15625 Z M 1.765625 -4.15625 "/></g></g></g><g fill="#000000" fill-opacity="1"><g transform="translate(35.778913, 8.580837)"><g><path d="M 3.3125 -2.265625 C 3.3125 -1.484375 3.1875 -0.898438 2.9375 -0.515625 C 2.695312 -0.128906 2.320312 0.0625 1.8125 0.0625 C 1.320312 0.0625 0.945312 -0.132812 0.6875 -0.53125 C 0.4375 -0.925781 0.3125 -1.503906 0.3125 -2.265625 C 0.3125 -3.054688 0.429688 -3.640625 0.671875 -4.015625 C 0.921875 -4.398438 1.300781 -4.59375 1.8125 -4.59375 C 2.300781 -4.59375 2.671875 -4.394531 2.921875 -4 C 3.179688 -3.601562 3.3125 -3.023438 3.3125 -2.265625 Z M 0.84375 -2.265625 C 0.84375 -1.609375 0.914062 -1.128906 1.0625 -0.828125 C 1.21875 -0.523438 1.46875 -0.375 1.8125 -0.375 C 2.15625 -0.375 2.398438 -0.523438 2.546875 -0.828125 C 2.703125 -1.140625 2.78125 -1.617188 2.78125 -2.265625 C 2.78125 -2.921875 2.703125 -3.398438 2.546875 -3.703125 C 2.398438 -4.003906 2.15625 -4.15625 1.8125 -4.15625 C 1.46875 -4.15625 1.21875 -4.003906 1.0625 -3.703125 C 0.914062 -3.410156 0.84375 -2.929688 0.84375 -2.265625 Z M 0.84375 -2.265625 "/></g></g></g></g></g></g></svg>