<svg xmlns="http://www.w3.org/2000/svg" xmlns:xlink="http://www.w3.org/1999/xlink" width="140" zoomAndPan="magnify" viewBox="0 0 104.88 30.000001" height="40" preserveAspectRatio="xMidYMid meet" version="1.0"><defs><filter x="0%" y="0%" width="100%" height="100%" id="b4ff9afe38"><feColorMatrix values="0 0 0 0 1 0 0 0 0 1 0 0 0 0 1 0 0 0 1 0" color-interpolation-filters="sRGB"/></filter><g/><clipPath id="0c4e4fcadb"><path d="M 1.632812 22 L 103.128906 22 L 103.128906 25.804688 L 1.632812 25.804688 Z M 1.632812 22 " clip-rule="nonzero"/></clipPath><clipPath id="66ff4ba821"><path d="M 1.632812 3.304688 L 9 3.304688 L 9 23.765625 L 1.632812 23.765625 Z M 1.632812 3.304688 " clip-rule="nonzero"/></clipPath><clipPath id="eb499226b1"><path d="M 1.464844 21.992188 L 1.464844 5.007812 C 1.464844 4.589844 1.613281 4.234375 1.90625 3.9375 C 2.203125 3.640625 2.5625 3.492188 2.980469 3.492188 L 102.046875 3.492188 C 102.464844 3.492188 102.824219 3.640625 103.117188 3.9375 C 103.414062 4.234375 103.5625 4.589844 103.5625 5.007812 L 103.5625 21.992188 C 103.5625 22.414062 103.414062 22.769531 103.117188 23.066406 C 102.824219 23.363281 102.464844 23.511719 102.046875 23.511719 L 2.980469 23.511719 C 2.5625 23.511719 2.203125 23.363281 1.90625 23.066406 C 1.613281 22.769531 1.464844 22.414062 1.464844 21.992188 Z M 1.464844 21.992188 " clip-rule="nonzero"/></clipPath><clipPath id="6b443b2102"><path d="M 1.632812 3.304688 L 103.128906 3.304688 L 103.128906 24 L 1.632812 24 Z M 1.632812 3.304688 " clip-rule="nonzero"/></clipPath><clipPath id="98e0fd6c44"><path d="M 1.632812 3.304688 L 9 3.304688 L 9 23.765625 L 1.632812 23.765625 Z M 1.632812 3.304688 " clip-rule="nonzero"/></clipPath><clipPath id="9b4f8f02b0"><path d="M 1.464844 21.992188 L 1.464844 5.007812 C 1.464844 4.589844 1.613281 4.234375 1.90625 3.9375 C 2.203125 3.640625 2.5625 3.492188 2.980469 3.492188 L 102.046875 3.492188 C 102.464844 3.492188 102.824219 3.640625 103.117188 3.9375 C 103.414062 4.234375 103.5625 4.589844 103.5625 5.007812 L 103.5625 21.992188 C 103.5625 22.414062 103.414062 22.769531 103.117188 23.066406 C 102.824219 23.363281 102.464844 23.511719 102.046875 23.511719 L 2.980469 23.511719 C 2.5625 23.511719 2.203125 23.363281 1.90625 23.066406 C 1.613281 22.769531 1.464844 22.414062 1.464844 21.992188 Z M 1.464844 21.992188 " clip-rule="nonzero"/></clipPath><clipPath id="020bb1de2a"><path d="M 1.632812 3.304688 L 103.128906 3.304688 L 103.128906 25.804688 L 1.632812 25.804688 Z M 1.632812 3.304688 " clip-rule="nonzero"/></clipPath><clipPath id="0b3f4ba7e2"><path d="M 1.632812 3.304688 L 9 3.304688 L 9 23.765625 L 1.632812 23.765625 Z M 1.632812 3.304688 " clip-rule="nonzero"/></clipPath><clipPath id="305c91a966"><path d="M 1.464844 21.992188 L 1.464844 5.007812 C 1.464844 4.589844 1.613281 4.234375 1.90625 3.9375 C 2.203125 3.640625 2.5625 3.492188 2.980469 3.492188 L 102.046875 3.492188 C 102.464844 3.492188 102.824219 3.640625 103.117188 3.9375 C 103.414062 4.234375 103.5625 4.589844 103.5625 5.007812 L 103.5625 21.992188 C 103.5625 22.414062 103.414062 22.769531 103.117188 23.066406 C 102.824219 23.363281 102.464844 23.511719 102.046875 23.511719 L 2.980469 23.511719 C 2.5625 23.511719 2.203125 23.363281 1.90625 23.066406 C 1.613281 22.769531 1.464844 22.414062 1.464844 21.992188 Z M 1.464844 21.992188 " clip-rule="nonzero"/></clipPath><clipPath id="60495e1455"><path d="M 56 3.304688 L 75 3.304688 L 75 19 L 56 19 Z M 56 3.304688 " clip-rule="nonzero"/></clipPath><clipPath id="65e034ef71"><path d="M 63 3.304688 L 82 3.304688 L 82 19 L 63 19 Z M 63 3.304688 " clip-rule="nonzero"/></clipPath><clipPath id="c9f56ed18d"><path d="M 70 3.304688 L 89 3.304688 L 89 19 L 70 19 Z M 70 3.304688 " clip-rule="nonzero"/></clipPath><clipPath id="a8bf023613"><path d="M 77 3.304688 L 96 3.304688 L 96 19 L 77 19 Z M 77 3.304688 " clip-rule="nonzero"/></clipPath><clipPath id="f7b7f32809"><path d="M 56 8 L 75 8 L 75 25.804688 L 56 25.804688 Z M 56 8 " clip-rule="nonzero"/></clipPath><clipPath id="667f93232b"><path d="M 63 8 L 82 8 L 82 25.804688 L 63 25.804688 Z M 63 8 " clip-rule="nonzero"/></clipPath><clipPath id="3238cd80c5"><path d="M 70 8 L 89 8 L 89 25.804688 L 70 25.804688 Z M 70 8 " clip-rule="nonzero"/></clipPath><clipPath id="f0fb23856d"><path d="M 77 8 L 96 8 L 96 25.804688 L 77 25.804688 Z M 77 8 " clip-rule="nonzero"/></clipPath><clipPath id="75c49802da"><path d="M 93 10 L 103.128906 10 L 103.128906 25 L 93 25 Z M 93 10 " clip-rule="nonzero"/></clipPath><clipPath id="67ce40069c"><path d="M 1.632812 3.304688 L 12 3.304688 L 12 15 L 1.632812 15 Z M 1.632812 3.304688 " clip-rule="nonzero"/></clipPath><clipPath id="f85ab4083d"><path d="M 6 3.304688 L 63 3.304688 L 63 25.804688 L 6 25.804688 Z M 6 3.304688 " clip-rule="nonzero"/></clipPath><clipPath id="6f85d2d987"><path d="M 59 3.304688 L 60 3.304688 L 60 24 L 59 24 Z M 59 3.304688 " clip-rule="nonzero"/></clipPath><clipPath id="78fd67502d"><path d="M 92 3.304688 L 93 3.304688 L 93 24 L 92 24 Z M 92 3.304688 " clip-rule="nonzero"/></clipPath><mask id="130c07b35b"><g filter="url(#b4ff9afe38)"><rect x="-10.488" width="125.856" fill="#000000" y="-3" height="36.000001" fill-opacity="0.9"/></g></mask><clipPath id="7534811d6e"><path d="M 0.667969 0.265625 L 56.226562 0.265625 L 56.226562 12.765625 L 0.667969 12.765625 Z M 0.667969 0.265625 " clip-rule="nonzero"/></clipPath><clipPath id="507d5bc6c3"><path d="M 6.917969 0.265625 L 49.964844 0.265625 C 53.414062 0.265625 56.210938 3.066406 56.210938 6.515625 C 56.210938 9.96875 53.414062 12.765625 49.964844 12.765625 L 6.917969 12.765625 C 3.464844 12.765625 0.667969 9.96875 0.667969 6.515625 C 0.667969 3.066406 3.464844 0.265625 6.917969 0.265625 Z M 6.917969 0.265625 " clip-rule="nonzero"/></clipPath><clipPath id="79e8229865"><rect x="0" width="57" y="0" height="13"/></clipPath></defs><g clip-path="url(#0c4e4fcadb)"><path fill="#010101" d="M 2.980469 22.394531 L 102.046875 22.394531 C 102.25 22.394531 102.441406 22.433594 102.628906 22.507812 C 102.8125 22.585938 102.976562 22.695312 103.117188 22.839844 C 103.261719 22.980469 103.371094 23.144531 103.449219 23.332031 C 103.523438 23.515625 103.5625 23.710938 103.5625 23.910156 L 103.5625 24.285156 C 103.5625 24.488281 103.523438 24.683594 103.449219 24.867188 C 103.371094 25.054688 103.261719 25.21875 103.117188 25.359375 C 102.976562 25.503906 102.8125 25.613281 102.628906 25.6875 C 102.441406 25.765625 102.25 25.804688 102.046875 25.804688 L 2.980469 25.804688 C 2.777344 25.804688 2.585938 25.765625 2.398438 25.6875 C 2.214844 25.613281 2.050781 25.503906 1.90625 25.359375 C 1.765625 25.21875 1.65625 25.054688 1.578125 24.867188 C 1.503906 24.683594 1.464844 24.488281 1.464844 24.285156 L 1.464844 23.910156 C 1.464844 23.710938 1.503906 23.515625 1.578125 23.332031 C 1.65625 23.144531 1.765625 22.980469 1.90625 22.839844 C 2.050781 22.695312 2.214844 22.585938 2.398438 22.507812 C 2.585938 22.433594 2.777344 22.394531 2.980469 22.394531 Z M 2.980469 22.394531 " fill-opacity="1" fill-rule="nonzero"/></g><g clip-path="url(#66ff4ba821)"><g clip-path="url(#eb499226b1)"><path fill="#d1c4dd" d="M 1.464844 3.492188 L 8.492188 3.492188 L 8.492188 23.511719 L 1.464844 23.511719 Z M 1.464844 3.492188 " fill-opacity="1" fill-rule="nonzero"/></g></g><g clip-path="url(#6b443b2102)"><path fill="#615b67" d="M 2.980469 3.492188 L 102.046875 3.492188 C 102.25 3.492188 102.441406 3.53125 102.628906 3.609375 C 102.8125 3.683594 102.976562 3.792969 103.117188 3.9375 C 103.261719 4.078125 103.371094 4.242188 103.449219 4.429688 C 103.523438 4.613281 103.5625 4.808594 103.5625 5.007812 L 103.5625 21.992188 C 103.5625 22.195312 103.523438 22.386719 103.449219 22.574219 C 103.371094 22.761719 103.261719 22.925781 103.117188 23.066406 C 102.976562 23.207031 102.8125 23.320312 102.628906 23.394531 C 102.441406 23.472656 102.25 23.511719 102.046875 23.511719 L 2.980469 23.511719 C 2.777344 23.511719 2.585938 23.472656 2.398438 23.394531 C 2.214844 23.320312 2.050781 23.207031 1.90625 23.066406 C 1.765625 22.925781 1.65625 22.761719 1.578125 22.574219 C 1.503906 22.386719 1.464844 22.195312 1.464844 21.992188 L 1.464844 5.007812 C 1.464844 4.808594 1.503906 4.613281 1.578125 4.429688 C 1.65625 4.242188 1.765625 4.078125 1.90625 3.9375 C 2.050781 3.792969 2.214844 3.683594 2.398438 3.609375 C 2.585938 3.53125 2.777344 3.492188 2.980469 3.492188 Z M 2.980469 3.492188 " fill-opacity="1" fill-rule="nonzero"/></g><g clip-path="url(#98e0fd6c44)"><g clip-path="url(#9b4f8f02b0)"><path fill="#615b67" d="M 1.464844 3.492188 L 8.492188 3.492188 L 8.492188 23.511719 L 1.464844 23.511719 Z M 1.464844 3.492188 " fill-opacity="1" fill-rule="nonzero"/></g></g><g clip-path="url(#020bb1de2a)"><path stroke-linecap="butt" transform="matrix(0.850889, 0, 0, 0.852596, 1.277235, 3.304494)" fill="none" stroke-linejoin="miter" d="M 2.001711 0.220144 L 118.428649 0.220144 C 118.66737 0.220144 118.892318 0.26596 119.112676 0.357591 C 119.328443 0.444642 119.521256 0.572927 119.686525 0.742446 C 119.856384 0.907383 119.984926 1.09981 120.076741 1.319727 C 120.163966 1.535062 120.209874 1.764142 120.209874 1.997803 L 120.209874 21.918587 C 120.209874 22.15683 120.163966 22.381329 120.076741 22.601245 C 119.984926 22.821162 119.856384 23.013589 119.686525 23.178527 C 119.521256 23.343464 119.328443 23.47633 119.112676 23.563381 C 118.892318 23.655013 118.66737 23.700829 118.428649 23.700829 L 2.001711 23.700829 C 1.76299 23.700829 1.538042 23.655013 1.317684 23.563381 C 1.101917 23.47633 0.909104 23.343464 0.739245 23.178527 C 0.573977 23.013589 0.445435 22.821162 0.353619 22.601245 C 0.266394 22.381329 0.220486 22.15683 0.220486 21.918587 L 0.220486 1.997803 C 0.220486 1.764142 0.266394 1.535062 0.353619 1.319727 C 0.445435 1.09981 0.573977 0.907383 0.739245 0.742446 C 0.909104 0.572927 1.101917 0.444642 1.317684 0.357591 C 1.538042 0.26596 1.76299 0.220144 2.001711 0.220144 Z M 2.001711 0.220144 " stroke="#010101" stroke-width="0.45" stroke-opacity="1" stroke-miterlimit="10"/></g><g clip-path="url(#0b3f4ba7e2)"><g clip-path="url(#305c91a966)"><path stroke-linecap="butt" transform="matrix(0.850889, 0, 0, 0.852596, 1.277235, 3.304494)" fill="none" stroke-linejoin="miter" d="M 0.220486 0.220144 L 8.479311 0.220144 L 8.479311 23.700829 L 0.220486 23.700829 Z M 0.220486 0.220144 " stroke="#010101" stroke-width="0.5" stroke-opacity="1" stroke-miterlimit="10"/></g></g><path fill="#d1c4dd" d="M 63.5625 6.535156 L 67.570312 6.535156 C 67.804688 6.535156 68.003906 6.617188 68.171875 6.785156 C 68.335938 6.953125 68.421875 7.152344 68.421875 7.386719 L 68.421875 12.035156 C 68.421875 12.269531 68.335938 12.472656 68.171875 12.636719 C 68.003906 12.804688 67.804688 12.886719 67.570312 12.886719 L 63.5625 12.886719 C 63.328125 12.886719 63.125 12.804688 62.960938 12.636719 C 62.792969 12.472656 62.710938 12.269531 62.710938 12.035156 L 62.710938 7.386719 C 62.710938 7.152344 62.792969 6.953125 62.960938 6.785156 C 63.125 6.617188 63.328125 6.535156 63.5625 6.535156 Z M 63.5625 6.535156 " fill-opacity="1" fill-rule="nonzero"/><g clip-path="url(#60495e1455)"><path stroke-linecap="butt" transform="matrix(0.850889, 0, 0, 0.852596, 1.277235, 3.304494)" fill="none" stroke-linejoin="miter" d="M 73.20022 3.789208 L 77.910367 3.789208 C 78.185814 3.789208 78.419944 3.885421 78.617348 4.08243 C 78.810161 4.279439 78.911158 4.5131 78.911158 4.787996 L 78.911158 10.240096 C 78.911158 10.514992 78.810161 10.753235 78.617348 10.945662 C 78.419944 11.142671 78.185814 11.238885 77.910367 11.238885 L 73.20022 11.238885 C 72.924773 11.238885 72.686052 11.142671 72.493239 10.945662 C 72.295835 10.753235 72.199428 10.514992 72.199428 10.240096 L 72.199428 4.787996 C 72.199428 4.5131 72.295835 4.279439 72.493239 4.08243 C 72.686052 3.885421 72.924773 3.789208 73.20022 3.789208 Z M 73.20022 3.789208 " stroke="#010101" stroke-width="0.5" stroke-opacity="1" stroke-miterlimit="10"/></g><path stroke-linecap="round" transform="matrix(0.850889, 0, 0, 0.852596, 1.277235, 3.304494)" fill-opacity="1" fill="#615b67" fill-rule="nonzero" stroke-linejoin="round" d="M 76.358681 5.461491 L 76.358681 4.820067 L 74.751906 4.820067 L 74.751906 5.461491 L 73.310399 5.461491 L 73.310399 9.951456 L 77.800188 9.951456 L 77.800188 5.461491 Z M 76.358681 5.461491 " stroke="#010101" stroke-width="0.5" stroke-opacity="1" stroke-miterlimit="4"/><path stroke-linecap="round" transform="matrix(0.850889, 0, 0, 0.852596, 1.277235, 3.304494)" fill="none" stroke-linejoin="miter" d="M 74.118377 9.291706 L 74.118377 8.338734 " stroke="#010101" stroke-width="0.5" stroke-opacity="1" stroke-miterlimit="10"/><path stroke-linecap="round" transform="matrix(0.850889, 0, 0, 0.852596, 1.277235, 3.304494)" fill="none" stroke-linejoin="miter" d="M 75.077852 9.291706 L 75.077852 8.338734 " stroke="#010101" stroke-width="0.5" stroke-opacity="1" stroke-miterlimit="10"/><path stroke-linecap="round" transform="matrix(0.850889, 0, 0, 0.852596, 1.277235, 3.304494)" fill="none" stroke-linejoin="miter" d="M 76.041917 9.291706 L 76.041917 8.338734 " stroke="#010101" stroke-width="0.5" stroke-opacity="1" stroke-miterlimit="10"/><path stroke-linecap="round" transform="matrix(0.850889, 0, 0, 0.852596, 1.277235, 3.304494)" fill="none" stroke-linejoin="miter" d="M 77.001391 9.291706 L 77.001391 8.338734 " stroke="#010101" stroke-width="0.5" stroke-opacity="1" stroke-miterlimit="10"/><path fill="#d1c4dd" d="M 70.496094 6.535156 L 74.503906 6.535156 C 74.738281 6.535156 74.941406 6.617188 75.105469 6.785156 C 75.273438 6.953125 75.355469 7.152344 75.355469 7.386719 L 75.355469 12.035156 C 75.355469 12.269531 75.273438 12.472656 75.105469 12.636719 C 74.941406 12.804688 74.738281 12.886719 74.503906 12.886719 L 70.496094 12.886719 C 70.261719 12.886719 70.0625 12.804688 69.894531 12.636719 C 69.730469 12.472656 69.644531 12.269531 69.644531 12.035156 L 69.644531 7.386719 C 69.644531 7.152344 69.730469 6.953125 69.894531 6.785156 C 70.0625 6.617188 70.261719 6.535156 70.496094 6.535156 Z M 70.496094 6.535156 " fill-opacity="1" fill-rule="nonzero"/><g clip-path="url(#65e034ef71)"><path stroke-linecap="butt" transform="matrix(0.850889, 0, 0, 0.852596, 1.277235, 3.304494)" fill="none" stroke-linejoin="miter" d="M 81.348866 3.789208 L 86.059013 3.789208 C 86.33446 3.789208 86.573181 3.885421 86.765994 4.08243 C 86.963398 4.279439 87.059804 4.5131 87.059804 4.787996 L 87.059804 10.240096 C 87.059804 10.514992 86.963398 10.753235 86.765994 10.945662 C 86.573181 11.142671 86.33446 11.238885 86.059013 11.238885 L 81.348866 11.238885 C 81.073419 11.238885 80.839289 11.142671 80.641885 10.945662 C 80.449072 10.753235 80.348075 10.514992 80.348075 10.240096 L 80.348075 4.787996 C 80.348075 4.5131 80.449072 4.279439 80.641885 4.08243 C 80.839289 3.885421 81.073419 3.789208 81.348866 3.789208 Z M 81.348866 3.789208 " stroke="#010101" stroke-width="0.5" stroke-opacity="1" stroke-miterlimit="10"/></g><path stroke-linecap="round" transform="matrix(0.850889, 0, 0, 0.852596, 1.277235, 3.304494)" fill-opacity="1" fill="#615b67" fill-rule="nonzero" stroke-linejoin="round" d="M 84.511918 5.461491 L 84.511918 4.820067 L 82.900552 4.820067 L 82.900552 5.461491 L 81.459045 5.461491 L 81.459045 9.951456 L 85.948834 9.951456 L 85.948834 5.461491 Z M 84.511918 5.461491 " stroke="#010101" stroke-width="0.5" stroke-opacity="1" stroke-miterlimit="4"/><path stroke-linecap="round" transform="matrix(0.850889, 0, 0, 0.852596, 1.277235, 3.304494)" fill="none" stroke-linejoin="miter" d="M 82.271614 9.291706 L 82.271614 8.338734 " stroke="#010101" stroke-width="0.5" stroke-opacity="1" stroke-miterlimit="10"/><path stroke-linecap="round" transform="matrix(0.850889, 0, 0, 0.852596, 1.277235, 3.304494)" fill="none" stroke-linejoin="miter" d="M 83.231089 9.291706 L 83.231089 8.338734 " stroke="#010101" stroke-width="0.5" stroke-opacity="1" stroke-miterlimit="10"/><path stroke-linecap="round" transform="matrix(0.850889, 0, 0, 0.852596, 1.277235, 3.304494)" fill="none" stroke-linejoin="miter" d="M 84.190563 9.291706 L 84.190563 8.338734 " stroke="#010101" stroke-width="0.5" stroke-opacity="1" stroke-miterlimit="10"/><path stroke-linecap="round" transform="matrix(0.850889, 0, 0, 0.852596, 1.277235, 3.304494)" fill="none" stroke-linejoin="miter" d="M 85.150037 9.291706 L 85.150037 8.338734 " stroke="#010101" stroke-width="0.5" stroke-opacity="1" stroke-miterlimit="10"/><path fill="#d1c4dd" d="M 77.433594 6.535156 L 81.441406 6.535156 C 81.675781 6.535156 81.875 6.617188 82.042969 6.785156 C 82.207031 6.953125 82.289062 7.152344 82.289062 7.386719 L 82.289062 12.035156 C 82.289062 12.269531 82.207031 12.472656 82.042969 12.636719 C 81.875 12.804688 81.675781 12.886719 81.441406 12.886719 L 77.433594 12.886719 C 77.195312 12.886719 76.996094 12.804688 76.832031 12.636719 C 76.664062 12.472656 76.582031 12.269531 76.582031 12.035156 L 76.582031 7.386719 C 76.582031 7.152344 76.664062 6.953125 76.832031 6.785156 C 76.996094 6.617188 77.195312 6.535156 77.433594 6.535156 Z M 77.433594 6.535156 " fill-opacity="1" fill-rule="nonzero"/><g clip-path="url(#c9f56ed18d)"><path stroke-linecap="butt" transform="matrix(0.850889, 0, 0, 0.852596, 1.277235, 3.304494)" fill="none" stroke-linejoin="miter" d="M 89.502103 3.789208 L 94.21225 3.789208 C 94.487697 3.789208 94.721827 3.885421 94.919231 4.08243 C 95.112044 4.279439 95.208451 4.5131 95.208451 4.787996 L 95.208451 10.240096 C 95.208451 10.514992 95.112044 10.753235 94.919231 10.945662 C 94.721827 11.142671 94.487697 11.238885 94.21225 11.238885 L 89.502103 11.238885 C 89.222065 11.238885 88.987935 11.142671 88.795122 10.945662 C 88.597718 10.753235 88.501311 10.514992 88.501311 10.240096 L 88.501311 4.787996 C 88.501311 4.5131 88.597718 4.279439 88.795122 4.08243 C 88.987935 3.885421 89.222065 3.789208 89.502103 3.789208 Z M 89.502103 3.789208 " stroke="#010101" stroke-width="0.5" stroke-opacity="1" stroke-miterlimit="10"/></g><path stroke-linecap="round" transform="matrix(0.850889, 0, 0, 0.852596, 1.277235, 3.304494)" fill-opacity="1" fill="#615b67" fill-rule="nonzero" stroke-linejoin="round" d="M 92.669746 5.461491 L 92.669746 4.820067 L 91.05838 4.820067 L 91.05838 5.461491 L 89.621463 5.461491 L 89.621463 9.951456 L 94.111253 9.951456 L 94.111253 5.461491 Z M 92.669746 5.461491 " stroke="#010101" stroke-width="0.5" stroke-opacity="1" stroke-miterlimit="4"/><path stroke-linecap="round" transform="matrix(0.850889, 0, 0, 0.852596, 1.277235, 3.304494)" fill="none" stroke-linejoin="miter" d="M 90.42026 9.291706 L 90.42026 8.338734 " stroke="#010101" stroke-width="0.5" stroke-opacity="1" stroke-miterlimit="10"/><path stroke-linecap="round" transform="matrix(0.850889, 0, 0, 0.852596, 1.277235, 3.304494)" fill="none" stroke-linejoin="miter" d="M 91.379735 9.291706 L 91.379735 8.338734 " stroke="#010101" stroke-width="0.5" stroke-opacity="1" stroke-miterlimit="10"/><path stroke-linecap="round" transform="matrix(0.850889, 0, 0, 0.852596, 1.277235, 3.304494)" fill="none" stroke-linejoin="miter" d="M 92.339209 9.291706 L 92.339209 8.338734 " stroke="#010101" stroke-width="0.5" stroke-opacity="1" stroke-miterlimit="10"/><path stroke-linecap="round" transform="matrix(0.850889, 0, 0, 0.852596, 1.277235, 3.304494)" fill="none" stroke-linejoin="miter" d="M 93.298683 9.291706 L 93.298683 8.338734 " stroke="#010101" stroke-width="0.5" stroke-opacity="1" stroke-miterlimit="10"/><path fill="#d1c4dd" d="M 84.375 6.535156 L 88.382812 6.535156 C 88.617188 6.535156 88.816406 6.617188 88.984375 6.785156 C 89.152344 6.953125 89.234375 7.152344 89.234375 7.386719 L 89.234375 12.035156 C 89.234375 12.269531 89.152344 12.472656 88.984375 12.636719 C 88.816406 12.804688 88.617188 12.886719 88.382812 12.886719 L 84.375 12.886719 C 84.140625 12.886719 83.941406 12.804688 83.773438 12.636719 C 83.605469 12.472656 83.523438 12.269531 83.523438 12.035156 L 83.523438 7.386719 C 83.523438 7.152344 83.605469 6.953125 83.773438 6.785156 C 83.941406 6.617188 84.140625 6.535156 84.375 6.535156 Z M 84.375 6.535156 " fill-opacity="1" fill-rule="nonzero"/><g clip-path="url(#a8bf023613)"><path stroke-linecap="butt" transform="matrix(0.850889, 0, 0, 0.852596, 1.277235, 3.304494)" fill="none" stroke-linejoin="miter" d="M 97.659931 3.789208 L 102.370078 3.789208 C 102.645525 3.789208 102.879655 3.885421 103.077059 4.08243 C 103.274463 4.279439 103.370869 4.5131 103.370869 4.787996 L 103.370869 10.240096 C 103.370869 10.514992 103.274463 10.753235 103.077059 10.945662 C 102.879655 11.142671 102.645525 11.238885 102.370078 11.238885 L 97.659931 11.238885 C 97.384483 11.238885 97.150353 11.142671 96.95295 10.945662 C 96.755546 10.753235 96.659139 10.514992 96.659139 10.240096 L 96.659139 4.787996 C 96.659139 4.5131 96.755546 4.279439 96.95295 4.08243 C 97.150353 3.885421 97.384483 3.789208 97.659931 3.789208 Z M 97.659931 3.789208 " stroke="#010101" stroke-width="0.5" stroke-opacity="1" stroke-miterlimit="10"/></g><path stroke-linecap="round" transform="matrix(0.850889, 0, 0, 0.852596, 1.277235, 3.304494)" fill-opacity="1" fill="#615b67" fill-rule="nonzero" stroke-linejoin="round" d="M 100.818392 5.461491 L 100.818392 4.820067 L 99.211616 4.820067 L 99.211616 5.461491 L 97.77011 5.461491 L 97.77011 9.951456 L 102.259899 9.951456 L 102.259899 5.461491 Z M 100.818392 5.461491 " stroke="#010101" stroke-width="0.5" stroke-opacity="1" stroke-miterlimit="4"/><path stroke-linecap="round" transform="matrix(0.850889, 0, 0, 0.852596, 1.277235, 3.304494)" fill="none" stroke-linejoin="miter" d="M 98.568906 9.291706 L 98.568906 8.338734 " stroke="#010101" stroke-width="0.5" stroke-opacity="1" stroke-miterlimit="10"/><path stroke-linecap="round" transform="matrix(0.850889, 0, 0, 0.852596, 1.277235, 3.304494)" fill="none" stroke-linejoin="miter" d="M 99.528381 9.291706 L 99.528381 8.338734 " stroke="#010101" stroke-width="0.5" stroke-opacity="1" stroke-miterlimit="10"/><path stroke-linecap="round" transform="matrix(0.850889, 0, 0, 0.852596, 1.277235, 3.304494)" fill="none" stroke-linejoin="miter" d="M 100.487855 9.291706 L 100.487855 8.338734 " stroke="#010101" stroke-width="0.5" stroke-opacity="1" stroke-miterlimit="10"/><path stroke-linecap="round" transform="matrix(0.850889, 0, 0, 0.852596, 1.277235, 3.304494)" fill="none" stroke-linejoin="miter" d="M 101.45192 9.291706 L 101.45192 8.338734 " stroke="#010101" stroke-width="0.5" stroke-opacity="1" stroke-miterlimit="10"/><path fill="#d1c4dd" d="M 63.5625 14.117188 L 67.570312 14.117188 C 67.804688 14.117188 68.003906 14.199219 68.171875 14.363281 C 68.335938 14.53125 68.421875 14.734375 68.421875 14.96875 L 68.421875 19.613281 C 68.421875 19.851562 68.335938 20.050781 68.171875 20.21875 C 68.003906 20.382812 67.804688 20.46875 67.570312 20.46875 L 63.5625 20.46875 C 63.328125 20.46875 63.125 20.382812 62.960938 20.21875 C 62.792969 20.050781 62.710938 19.851562 62.710938 19.613281 L 62.710938 14.96875 C 62.710938 14.734375 62.792969 14.53125 62.960938 14.363281 C 63.125 14.199219 63.328125 14.117188 63.5625 14.117188 Z M 63.5625 14.117188 " fill-opacity="1" fill-rule="nonzero"/><g clip-path="url(#f7b7f32809)"><path stroke-linecap="butt" transform="matrix(0.850889, 0, 0, 0.852596, 1.277235, 3.304494)" fill="none" stroke-linejoin="miter" d="M 73.20022 12.682088 L 77.910367 12.682088 C 78.185814 12.682088 78.419944 12.778301 78.617348 12.970728 C 78.810161 13.167737 78.911158 13.40598 78.911158 13.680876 L 78.911158 19.128395 C 78.911158 19.407872 78.810161 19.641534 78.617348 19.838542 C 78.419944 20.030969 78.185814 20.131765 77.910367 20.131765 L 73.20022 20.131765 C 72.924773 20.131765 72.686052 20.030969 72.493239 19.838542 C 72.295835 19.641534 72.199428 19.407872 72.199428 19.128395 L 72.199428 13.680876 C 72.199428 13.40598 72.295835 13.167737 72.493239 12.970728 C 72.686052 12.778301 72.924773 12.682088 73.20022 12.682088 Z M 73.20022 12.682088 " stroke="#010101" stroke-width="0.5" stroke-opacity="1" stroke-miterlimit="10"/></g><path stroke-linecap="round" transform="matrix(0.850889, 0, 0, 0.852596, 1.277235, 3.304494)" fill-opacity="1" fill="#615b67" fill-rule="nonzero" stroke-linejoin="round" d="M 76.358681 14.349789 L 76.358681 13.72211 L 74.751906 13.72211 L 74.751906 14.349789 L 73.310399 14.349789 L 73.310399 18.839754 L 77.800188 18.839754 L 77.800188 14.349789 Z M 76.358681 14.349789 " stroke="#010101" stroke-width="0.5" stroke-opacity="1" stroke-miterlimit="4"/><path stroke-linecap="round" transform="matrix(0.850889, 0, 0, 0.852596, 1.277235, 3.304494)" fill="none" stroke-linejoin="miter" d="M 74.118377 18.189167 L 74.118377 17.240777 " stroke="#010101" stroke-width="0.5" stroke-opacity="1" stroke-miterlimit="10"/><path stroke-linecap="round" transform="matrix(0.850889, 0, 0, 0.852596, 1.277235, 3.304494)" fill="none" stroke-linejoin="miter" d="M 75.077852 18.189167 L 75.077852 17.240777 " stroke="#010101" stroke-width="0.5" stroke-opacity="1" stroke-miterlimit="10"/><path stroke-linecap="round" transform="matrix(0.850889, 0, 0, 0.852596, 1.277235, 3.304494)" fill="none" stroke-linejoin="miter" d="M 76.041917 18.189167 L 76.041917 17.240777 " stroke="#010101" stroke-width="0.5" stroke-opacity="1" stroke-miterlimit="10"/><path stroke-linecap="round" transform="matrix(0.850889, 0, 0, 0.852596, 1.277235, 3.304494)" fill="none" stroke-linejoin="miter" d="M 77.001391 18.189167 L 77.001391 17.240777 " stroke="#010101" stroke-width="0.5" stroke-opacity="1" stroke-miterlimit="10"/><path fill="#d1c4dd" d="M 70.496094 14.117188 L 74.503906 14.117188 C 74.738281 14.117188 74.941406 14.199219 75.105469 14.363281 C 75.273438 14.53125 75.355469 14.734375 75.355469 14.96875 L 75.355469 19.613281 C 75.355469 19.851562 75.273438 20.050781 75.105469 20.21875 C 74.941406 20.382812 74.738281 20.46875 74.503906 20.46875 L 70.496094 20.46875 C 70.261719 20.46875 70.0625 20.382812 69.894531 20.21875 C 69.730469 20.050781 69.644531 19.851562 69.644531 19.613281 L 69.644531 14.96875 C 69.644531 14.734375 69.730469 14.53125 69.894531 14.363281 C 70.0625 14.199219 70.261719 14.117188 70.496094 14.117188 Z M 70.496094 14.117188 " fill-opacity="1" fill-rule="nonzero"/><g clip-path="url(#667f93232b)"><path stroke-linecap="butt" transform="matrix(0.850889, 0, 0, 0.852596, 1.277235, 3.304494)" fill="none" stroke-linejoin="miter" d="M 81.348866 12.682088 L 86.059013 12.682088 C 86.33446 12.682088 86.573181 12.778301 86.765994 12.970728 C 86.963398 13.167737 87.059804 13.40598 87.059804 13.680876 L 87.059804 19.128395 C 87.059804 19.407872 86.963398 19.641534 86.765994 19.838542 C 86.573181 20.030969 86.33446 20.131765 86.059013 20.131765 L 81.348866 20.131765 C 81.073419 20.131765 80.839289 20.030969 80.641885 19.838542 C 80.449072 19.641534 80.348075 19.407872 80.348075 19.128395 L 80.348075 13.680876 C 80.348075 13.40598 80.449072 13.167737 80.641885 12.970728 C 80.839289 12.778301 81.073419 12.682088 81.348866 12.682088 Z M 81.348866 12.682088 " stroke="#010101" stroke-width="0.5" stroke-opacity="1" stroke-miterlimit="10"/></g><path stroke-linecap="round" transform="matrix(0.850889, 0, 0, 0.852596, 1.277235, 3.304494)" fill-opacity="1" fill="#615b67" fill-rule="nonzero" stroke-linejoin="round" d="M 84.511918 14.349789 L 84.511918 13.72211 L 82.900552 13.72211 L 82.900552 14.349789 L 81.459045 14.349789 L 81.459045 18.839754 L 85.948834 18.839754 L 85.948834 14.349789 Z M 84.511918 14.349789 " stroke="#010101" stroke-width="0.5" stroke-opacity="1" stroke-miterlimit="4"/><path stroke-linecap="round" transform="matrix(0.850889, 0, 0, 0.852596, 1.277235, 3.304494)" fill="none" stroke-linejoin="miter" d="M 82.271614 18.189167 L 82.271614 17.240777 " stroke="#010101" stroke-width="0.5" stroke-opacity="1" stroke-miterlimit="10"/><path stroke-linecap="round" transform="matrix(0.850889, 0, 0, 0.852596, 1.277235, 3.304494)" fill="none" stroke-linejoin="miter" d="M 83.231089 18.189167 L 83.231089 17.240777 " stroke="#010101" stroke-width="0.5" stroke-opacity="1" stroke-miterlimit="10"/><path stroke-linecap="round" transform="matrix(0.850889, 0, 0, 0.852596, 1.277235, 3.304494)" fill="none" stroke-linejoin="miter" d="M 84.190563 18.189167 L 84.190563 17.240777 " stroke="#010101" stroke-width="0.5" stroke-opacity="1" stroke-miterlimit="10"/><path stroke-linecap="round" transform="matrix(0.850889, 0, 0, 0.852596, 1.277235, 3.304494)" fill="none" stroke-linejoin="miter" d="M 85.150037 18.189167 L 85.150037 17.240777 " stroke="#010101" stroke-width="0.5" stroke-opacity="1" stroke-miterlimit="10"/><path fill="#d1c4dd" d="M 77.433594 14.117188 L 81.441406 14.117188 C 81.675781 14.117188 81.875 14.199219 82.042969 14.363281 C 82.207031 14.53125 82.289062 14.734375 82.289062 14.96875 L 82.289062 19.613281 C 82.289062 19.851562 82.207031 20.050781 82.042969 20.21875 C 81.875 20.382812 81.675781 20.46875 81.441406 20.46875 L 77.433594 20.46875 C 77.195312 20.46875 76.996094 20.382812 76.832031 20.21875 C 76.664062 20.050781 76.582031 19.851562 76.582031 19.613281 L 76.582031 14.96875 C 76.582031 14.734375 76.664062 14.53125 76.832031 14.363281 C 76.996094 14.199219 77.195312 14.117188 77.433594 14.117188 Z M 77.433594 14.117188 " fill-opacity="1" fill-rule="nonzero"/><g clip-path="url(#3238cd80c5)"><path stroke-linecap="butt" transform="matrix(0.850889, 0, 0, 0.852596, 1.277235, 3.304494)" fill="none" stroke-linejoin="miter" d="M 89.502103 12.682088 L 94.21225 12.682088 C 94.487697 12.682088 94.721827 12.778301 94.919231 12.970728 C 95.112044 13.167737 95.208451 13.40598 95.208451 13.680876 L 95.208451 19.128395 C 95.208451 19.407872 95.112044 19.641534 94.919231 19.838542 C 94.721827 20.030969 94.487697 20.131765 94.21225 20.131765 L 89.502103 20.131765 C 89.222065 20.131765 88.987935 20.030969 88.795122 19.838542 C 88.597718 19.641534 88.501311 19.407872 88.501311 19.128395 L 88.501311 13.680876 C 88.501311 13.40598 88.597718 13.167737 88.795122 12.970728 C 88.987935 12.778301 89.222065 12.682088 89.502103 12.682088 Z M 89.502103 12.682088 " stroke="#010101" stroke-width="0.5" stroke-opacity="1" stroke-miterlimit="10"/></g><path stroke-linecap="round" transform="matrix(0.850889, 0, 0, 0.852596, 1.277235, 3.304494)" fill-opacity="1" fill="#615b67" fill-rule="nonzero" stroke-linejoin="round" d="M 92.669746 14.349789 L 92.669746 13.72211 L 91.05838 13.72211 L 91.05838 14.349789 L 89.621463 14.349789 L 89.621463 18.839754 L 94.111253 18.839754 L 94.111253 14.349789 Z M 92.669746 14.349789 " stroke="#010101" stroke-width="0.5" stroke-opacity="1" stroke-miterlimit="4"/><path stroke-linecap="round" transform="matrix(0.850889, 0, 0, 0.852596, 1.277235, 3.304494)" fill="none" stroke-linejoin="miter" d="M 90.42026 18.189167 L 90.42026 17.240777 " stroke="#010101" stroke-width="0.5" stroke-opacity="1" stroke-miterlimit="10"/><path stroke-linecap="round" transform="matrix(0.850889, 0, 0, 0.852596, 1.277235, 3.304494)" fill="none" stroke-linejoin="miter" d="M 91.379735 18.189167 L 91.379735 17.240777 " stroke="#010101" stroke-width="0.5" stroke-opacity="1" stroke-miterlimit="10"/><path stroke-linecap="round" transform="matrix(0.850889, 0, 0, 0.852596, 1.277235, 3.304494)" fill="none" stroke-linejoin="miter" d="M 92.339209 18.189167 L 92.339209 17.240777 " stroke="#010101" stroke-width="0.5" stroke-opacity="1" stroke-miterlimit="10"/><path stroke-linecap="round" transform="matrix(0.850889, 0, 0, 0.852596, 1.277235, 3.304494)" fill="none" stroke-linejoin="miter" d="M 93.298683 18.189167 L 93.298683 17.240777 " stroke="#010101" stroke-width="0.5" stroke-opacity="1" stroke-miterlimit="10"/><path fill="#d1c4dd" d="M 84.375 14.117188 L 88.382812 14.117188 C 88.617188 14.117188 88.816406 14.199219 88.984375 14.363281 C 89.152344 14.53125 89.234375 14.734375 89.234375 14.96875 L 89.234375 19.613281 C 89.234375 19.851562 89.152344 20.050781 88.984375 20.21875 C 88.816406 20.382812 88.617188 20.46875 88.382812 20.46875 L 84.375 20.46875 C 84.140625 20.46875 83.941406 20.382812 83.773438 20.21875 C 83.605469 20.050781 83.523438 19.851562 83.523438 19.613281 L 83.523438 14.96875 C 83.523438 14.734375 83.605469 14.53125 83.773438 14.363281 C 83.941406 14.199219 84.140625 14.117188 84.375 14.117188 Z M 84.375 14.117188 " fill-opacity="1" fill-rule="nonzero"/><g clip-path="url(#f0fb23856d)"><path stroke-linecap="butt" transform="matrix(0.850889, 0, 0, 0.852596, 1.277235, 3.304494)" fill="none" stroke-linejoin="miter" d="M 97.659931 12.682088 L 102.370078 12.682088 C 102.645525 12.682088 102.879655 12.778301 103.077059 12.970728 C 103.274463 13.167737 103.370869 13.40598 103.370869 13.680876 L 103.370869 19.128395 C 103.370869 19.407872 103.274463 19.641534 103.077059 19.838542 C 102.879655 20.030969 102.645525 20.131765 102.370078 20.131765 L 97.659931 20.131765 C 97.384483 20.131765 97.150353 20.030969 96.95295 19.838542 C 96.755546 19.641534 96.659139 19.407872 96.659139 19.128395 L 96.659139 13.680876 C 96.659139 13.40598 96.755546 13.167737 96.95295 12.970728 C 97.150353 12.778301 97.384483 12.682088 97.659931 12.682088 Z M 97.659931 12.682088 " stroke="#010101" stroke-width="0.5" stroke-opacity="1" stroke-miterlimit="10"/></g><path stroke-linecap="round" transform="matrix(0.850889, 0, 0, 0.852596, 1.277235, 3.304494)" fill-opacity="1" fill="#615b67" fill-rule="nonzero" stroke-linejoin="round" d="M 100.818392 14.349789 L 100.818392 13.72211 L 99.211616 13.72211 L 99.211616 14.349789 L 97.77011 14.349789 L 97.77011 18.839754 L 102.259899 18.839754 L 102.259899 14.349789 Z M 100.818392 14.349789 " stroke="#010101" stroke-width="0.5" stroke-opacity="1" stroke-miterlimit="4"/><path stroke-linecap="round" transform="matrix(0.850889, 0, 0, 0.852596, 1.277235, 3.304494)" fill="none" stroke-linejoin="miter" d="M 98.568906 18.189167 L 98.568906 17.240777 " stroke="#010101" stroke-width="0.5" stroke-opacity="1" stroke-miterlimit="10"/><path stroke-linecap="round" transform="matrix(0.850889, 0, 0, 0.852596, 1.277235, 3.304494)" fill="none" stroke-linejoin="miter" d="M 99.528381 18.189167 L 99.528381 17.240777 " stroke="#010101" stroke-width="0.5" stroke-opacity="1" stroke-miterlimit="10"/><path stroke-linecap="round" transform="matrix(0.850889, 0, 0, 0.852596, 1.277235, 3.304494)" fill="none" stroke-linejoin="miter" d="M 100.487855 18.189167 L 100.487855 17.240777 " stroke="#010101" stroke-width="0.5" stroke-opacity="1" stroke-miterlimit="10"/><path stroke-linecap="round" transform="matrix(0.850889, 0, 0, 0.852596, 1.277235, 3.304494)" fill="none" stroke-linejoin="miter" d="M 101.45192 18.189167 L 101.45192 17.240777 " stroke="#010101" stroke-width="0.5" stroke-opacity="1" stroke-miterlimit="10"/><path stroke-linecap="butt" transform="matrix(0.850889, 0, 0, 0.852596, 1.277235, 3.304494)" fill-opacity="1" fill="#fec75f" fill-rule="nonzero" stroke-linejoin="miter" d="M 109.73829 8.549487 L 117.427858 8.549487 L 117.427858 10.519574 L 109.73829 10.519574 Z M 109.73829 8.549487 " stroke="#010101" stroke-width="0.5" stroke-opacity="1" stroke-miterlimit="10"/><path stroke-linecap="butt" transform="matrix(0.850889, 0, 0, 0.852596, 1.277235, 3.304494)" fill-opacity="1" fill="#67c189" fill-rule="nonzero" stroke-linejoin="miter" d="M 109.73829 3.789208 L 117.427858 3.789208 L 117.427858 5.759294 L 109.73829 5.759294 Z M 109.73829 3.789208 " stroke="#010101" stroke-width="0.5" stroke-opacity="1" stroke-miterlimit="10"/><path fill="#67c189" d="M 100.359375 16.347656 C 100.589844 16.347656 100.789062 16.429688 100.953125 16.59375 C 101.117188 16.757812 101.195312 16.957031 101.195312 17.1875 C 101.195312 17.421875 101.117188 17.617188 100.953125 17.78125 C 100.789062 17.945312 100.589844 18.027344 100.359375 18.027344 C 100.128906 18.027344 99.929688 17.945312 99.765625 17.78125 C 99.601562 17.617188 99.519531 17.421875 99.519531 17.1875 C 99.519531 16.957031 99.601562 16.757812 99.765625 16.59375 C 99.929688 16.429688 100.128906 16.347656 100.359375 16.347656 Z M 100.359375 16.347656 " fill-opacity="1" fill-rule="nonzero"/><g clip-path="url(#75c49802da)"><path stroke-linecap="butt" transform="matrix(0.850889, 0, 0, 0.852596, 1.277235, 3.304494)" fill="none" stroke-linejoin="miter" d="M 116.445429 15.29818 C 116.716286 15.29818 116.950416 15.394393 117.143229 15.58682 C 117.336042 15.779247 117.427858 16.012909 117.427858 16.283223 C 117.427858 16.558119 117.336042 16.787199 117.143229 16.979626 C 116.950416 17.172053 116.716286 17.268266 116.445429 17.268266 C 116.174573 17.268266 115.940443 17.172053 115.74763 16.979626 C 115.554817 16.787199 115.45841 16.558119 115.45841 16.283223 C 115.45841 16.012909 115.554817 15.779247 115.74763 15.58682 C 115.940443 15.394393 116.174573 15.29818 116.445429 15.29818 Z M 116.445429 15.29818 " stroke="#010101" stroke-width="0.5" stroke-opacity="1" stroke-miterlimit="10"/></g><path fill="#67c189" d="M 5.007812 6.535156 C 5.238281 6.535156 5.4375 6.617188 5.601562 6.78125 C 5.765625 6.945312 5.847656 7.144531 5.847656 7.375 C 5.847656 7.609375 5.765625 7.804688 5.601562 7.96875 C 5.4375 8.132812 5.238281 8.214844 5.007812 8.214844 C 4.777344 8.214844 4.578125 8.132812 4.414062 7.96875 C 4.253906 7.804688 4.171875 7.609375 4.171875 7.375 C 4.171875 7.144531 4.253906 6.945312 4.414062 6.78125 C 4.578125 6.617188 4.777344 6.535156 5.007812 6.535156 Z M 5.007812 6.535156 " fill-opacity="1" fill-rule="nonzero"/><g clip-path="url(#67ce40069c)"><path stroke-linecap="butt" transform="matrix(0.850889, 0, 0, 0.852596, 1.277235, 3.304494)" fill="none" stroke-linejoin="miter" d="M 4.384329 3.789208 C 4.655186 3.789208 4.889316 3.885421 5.082129 4.077848 C 5.274942 4.270275 5.371349 4.503937 5.371349 4.774251 C 5.371349 5.049147 5.274942 5.278227 5.082129 5.470654 C 4.889316 5.663081 4.655186 5.759294 4.384329 5.759294 C 4.113473 5.759294 3.879343 5.663081 3.68653 5.470654 C 3.498308 5.278227 3.401901 5.049147 3.401901 4.774251 C 3.401901 4.503937 3.498308 4.270275 3.68653 4.077848 C 3.879343 3.885421 4.113473 3.789208 4.384329 3.789208 Z M 4.384329 3.789208 " stroke="#010101" stroke-width="0.5" stroke-opacity="1" stroke-miterlimit="10"/></g><path fill="#d1c4dd" d="M 12.984375 6.535156 L 55.316406 6.535156 C 55.550781 6.535156 55.753906 6.617188 55.917969 6.785156 C 56.085938 6.953125 56.167969 7.152344 56.167969 7.386719 L 56.167969 19.625 C 56.167969 19.859375 56.085938 20.058594 55.917969 20.226562 C 55.753906 20.390625 55.550781 20.476562 55.316406 20.476562 L 12.984375 20.476562 C 12.75 20.476562 12.550781 20.390625 12.382812 20.226562 C 12.21875 20.058594 12.132812 19.859375 12.132812 19.625 L 12.132812 7.386719 C 12.132812 7.152344 12.21875 6.953125 12.382812 6.785156 C 12.550781 6.617188 12.75 6.535156 12.984375 6.535156 Z M 12.984375 6.535156 " fill-opacity="1" fill-rule="nonzero"/><g clip-path="url(#f85ab4083d)"><path stroke-linecap="butt" transform="matrix(0.850889, 0, 0, 0.852596, 1.277235, 3.304494)" fill="none" stroke-linejoin="miter" d="M 13.758716 3.789208 L 63.509069 3.789208 C 63.784517 3.789208 64.023238 3.885421 64.216051 4.08243 C 64.413454 4.279439 64.509861 4.5131 64.509861 4.787996 L 64.509861 19.14214 C 64.509861 19.417035 64.413454 19.650697 64.216051 19.847706 C 64.023238 20.040133 63.784517 20.140928 63.509069 20.140928 L 13.758716 20.140928 C 13.483268 20.140928 13.249138 20.040133 13.051735 19.847706 C 12.858921 19.650697 12.757924 19.417035 12.757924 19.14214 L 12.757924 4.787996 C 12.757924 4.5131 12.858921 4.279439 13.051735 4.08243 C 13.249138 3.885421 13.483268 3.789208 13.758716 3.789208 Z M 13.758716 3.789208 " stroke="#010101" stroke-width="0.5" stroke-opacity="1" stroke-miterlimit="10"/></g><path stroke-linecap="butt" transform="matrix(0.850889, 0, 0, 0.852596, 1.277235, 3.304494)" fill-opacity="1" fill="#ffffff" fill-rule="nonzero" stroke-linejoin="miter" d="M 16.031155 6.157893 L 23.720722 6.157893 L 23.720722 8.12798 L 16.031155 8.12798 Z M 16.031155 6.157893 " stroke="#010101" stroke-width="0.5" stroke-opacity="1" stroke-miterlimit="10"/><path stroke-linecap="butt" transform="matrix(0.850889, 0, 0, 0.852596, 1.277235, 3.304494)" fill-opacity="1" fill="#ffffff" fill-rule="nonzero" stroke-linejoin="miter" d="M 22.068039 10.712001 L 29.762198 10.712001 L 29.762198 12.682088 L 22.068039 12.682088 Z M 22.068039 10.712001 " stroke="#010101" stroke-width="0.5" stroke-opacity="1" stroke-miterlimit="10"/><path stroke-linecap="butt" transform="matrix(0.850889, 0, 0, 0.852596, 1.277235, 3.304494)" fill-opacity="1" fill="#77acdd" fill-rule="nonzero" stroke-linejoin="miter" d="M 35.7899 10.712001 L 43.479468 10.712001 L 43.479468 12.682088 L 35.7899 12.682088 Z M 35.7899 10.712001 " stroke="#010101" stroke-width="0.5" stroke-opacity="1" stroke-miterlimit="10"/><path stroke-linecap="butt" transform="matrix(0.850889, 0, 0, 0.852596, 1.277235, 3.304494)" fill-opacity="1" fill="#ffffff" fill-rule="nonzero" stroke-linejoin="miter" d="M 49.658666 10.712001 L 57.348234 10.712001 L 57.348234 12.682088 L 49.658666 12.682088 Z M 49.658666 10.712001 " stroke="#010101" stroke-width="0.5" stroke-opacity="1" stroke-miterlimit="10"/><path stroke-linecap="butt" transform="matrix(0.850889, 0, 0, 0.852596, 1.277235, 3.304494)" fill-opacity="1" fill="#67c189" fill-rule="nonzero" stroke-linejoin="miter" d="M 29.762198 6.157893 L 37.451765 6.157893 L 37.451765 8.12798 L 29.762198 8.12798 Z M 29.762198 6.157893 " stroke="#010101" stroke-width="0.5" stroke-opacity="1" stroke-miterlimit="10"/><path stroke-linecap="butt" transform="matrix(0.850889, 0, 0, 0.852596, 1.277235, 3.304494)" fill-opacity="1" fill="#ffffff" fill-rule="nonzero" stroke-linejoin="miter" d="M 37.451765 6.157893 L 45.141332 6.157893 L 45.141332 8.12798 L 37.451765 8.12798 Z M 37.451765 6.157893 " stroke="#010101" stroke-width="0.5" stroke-opacity="1" stroke-miterlimit="10"/><path stroke-linecap="butt" transform="matrix(0.850889, 0, 0, 0.852596, 1.277235, 3.304494)" fill-opacity="1" fill="#67c189" fill-rule="nonzero" stroke-linejoin="miter" d="M 51.169035 6.157893 L 60.368971 6.157893 L 60.368971 8.12798 L 51.169035 8.12798 Z M 51.169035 6.157893 " stroke="#010101" stroke-width="0.5" stroke-opacity="1" stroke-miterlimit="10"/><path stroke-linecap="butt" transform="matrix(0.850889, 0, 0, 0.852596, 1.277235, 3.304494)" fill-opacity="1" fill="#67c189" fill-rule="nonzero" stroke-linejoin="miter" d="M 23.720722 6.157893 L 26.74146 6.157893 L 26.74146 8.12798 L 23.720722 8.12798 Z M 23.720722 6.157893 " stroke="#010101" stroke-width="0.5" stroke-opacity="1" stroke-miterlimit="10"/><path stroke-linecap="butt" transform="matrix(0.850889, 0, 0, 0.852596, 1.277235, 3.304494)" fill-opacity="1" fill="#fec75f" fill-rule="nonzero" stroke-linejoin="miter" d="M 26.74146 6.157893 L 29.762198 6.157893 L 29.762198 8.12798 L 26.74146 8.12798 Z M 26.74146 6.157893 " stroke="#010101" stroke-width="0.5" stroke-opacity="1" stroke-miterlimit="10"/><path stroke-linecap="butt" transform="matrix(0.850889, 0, 0, 0.852596, 1.277235, 3.304494)" fill-opacity="1" fill="#fec75f" fill-rule="nonzero" stroke-linejoin="miter" d="M 16.031155 10.712001 L 19.051893 10.712001 L 19.051893 12.682088 L 16.031155 12.682088 Z M 16.031155 10.712001 " stroke="#010101" stroke-width="0.5" stroke-opacity="1" stroke-miterlimit="10"/><path stroke-linecap="butt" transform="matrix(0.850889, 0, 0, 0.852596, 1.277235, 3.304494)" fill-opacity="1" fill="#77acdd" fill-rule="nonzero" stroke-linejoin="miter" d="M 19.051893 10.712001 L 22.068039 10.712001 L 22.068039 12.682088 L 19.051893 12.682088 Z M 19.051893 10.712001 " stroke="#010101" stroke-width="0.5" stroke-opacity="1" stroke-miterlimit="10"/><path stroke-linecap="butt" transform="matrix(0.850889, 0, 0, 0.852596, 1.277235, 3.304494)" fill-opacity="1" fill="#fec75f" fill-rule="nonzero" stroke-linejoin="miter" d="M 29.762198 10.712001 L 32.778344 10.712001 L 32.778344 12.682088 L 29.762198 12.682088 Z M 29.762198 10.712001 " stroke="#010101" stroke-width="0.5" stroke-opacity="1" stroke-miterlimit="10"/><path stroke-linecap="butt" transform="matrix(0.850889, 0, 0, 0.852596, 1.277235, 3.304494)" fill-opacity="1" fill="#67c189" fill-rule="nonzero" stroke-linejoin="miter" d="M 32.769163 10.712001 L 35.7899 10.712001 L 35.7899 12.682088 L 32.769163 12.682088 Z M 32.769163 10.712001 " stroke="#010101" stroke-width="0.5" stroke-opacity="1" stroke-miterlimit="10"/><path stroke-linecap="butt" transform="matrix(0.850889, 0, 0, 0.852596, 1.277235, 3.304494)" fill-opacity="1" fill="#ffffff" fill-rule="nonzero" stroke-linejoin="miter" d="M 43.479468 10.712001 L 46.500205 10.712001 L 46.500205 12.682088 L 43.479468 12.682088 Z M 43.479468 10.712001 " stroke="#010101" stroke-width="0.5" stroke-opacity="1" stroke-miterlimit="10"/><path stroke-linecap="butt" transform="matrix(0.850889, 0, 0, 0.852596, 1.277235, 3.304494)" fill-opacity="1" fill="#67c189" fill-rule="nonzero" stroke-linejoin="miter" d="M 46.500205 10.712001 L 49.520943 10.712001 L 49.520943 12.682088 L 46.500205 12.682088 Z M 46.500205 10.712001 " stroke="#010101" stroke-width="0.5" stroke-opacity="1" stroke-miterlimit="10"/><path stroke-linecap="butt" transform="matrix(0.850889, 0, 0, 0.852596, 1.277235, 3.304494)" fill-opacity="1" fill="#fec75f" fill-rule="nonzero" stroke-linejoin="miter" d="M 57.362006 10.712001 L 60.378153 10.712001 L 60.378153 12.682088 L 57.362006 12.682088 Z M 57.362006 10.712001 " stroke="#010101" stroke-width="0.5" stroke-opacity="1" stroke-miterlimit="10"/><path stroke-linecap="butt" transform="matrix(0.850889, 0, 0, 0.852596, 1.277235, 3.304494)" fill-opacity="1" fill="#fec75f" fill-rule="nonzero" stroke-linejoin="miter" d="M 45.141332 6.157893 L 48.16207 6.157893 L 48.16207 8.12798 L 45.141332 8.12798 Z M 45.141332 6.157893 " stroke="#010101" stroke-width="0.5" stroke-opacity="1" stroke-miterlimit="10"/><path stroke-linecap="butt" transform="matrix(0.850889, 0, 0, 0.852596, 1.277235, 3.304494)" fill-opacity="1" fill="#77acdd" fill-rule="nonzero" stroke-linejoin="miter" d="M 48.16207 6.157893 L 51.178217 6.157893 L 51.178217 8.12798 L 48.16207 8.12798 Z M 48.16207 6.157893 " stroke="#010101" stroke-width="0.5" stroke-opacity="1" stroke-miterlimit="10"/><path stroke-linecap="butt" transform="matrix(0.850889, 0, 0, 0.852596, 1.277235, 3.304494)" fill-opacity="1" fill="#67c189" fill-rule="nonzero" stroke-linejoin="miter" d="M 59.386543 15.29818 C 59.6574 15.29818 59.886939 15.394393 60.079752 15.58682 C 60.272565 15.779247 60.368971 16.012909 60.368971 16.283223 C 60.368971 16.558119 60.272565 16.787199 60.079752 16.979626 C 59.886939 17.172053 59.6574 17.268266 59.386543 17.268266 C 59.111096 17.268266 58.881557 17.172053 58.688744 16.979626 C 58.495931 16.787199 58.399524 16.558119 58.399524 16.283223 C 58.399524 16.012909 58.495931 15.779247 58.688744 15.58682 C 58.881557 15.394393 59.111096 15.29818 59.386543 15.29818 Z M 59.386543 15.29818 " stroke="#010101" stroke-width="0.5" stroke-opacity="1" stroke-miterlimit="10"/><path stroke-linecap="butt" transform="matrix(0.850889, 0, 0, 0.852596, 1.277235, 3.304494)" fill-opacity="1" fill="#fec75f" fill-rule="nonzero" stroke-linejoin="miter" d="M 54.786575 15.29818 C 55.057431 15.29818 55.286971 15.394393 55.479784 15.58682 C 55.672597 15.779247 55.769003 16.012909 55.769003 16.283223 C 55.769003 16.558119 55.672597 16.787199 55.479784 16.979626 C 55.286971 17.172053 55.057431 17.268266 54.786575 17.268266 C 54.511128 17.268266 54.281589 17.172053 54.088775 16.979626 C 53.895962 16.787199 53.799556 16.558119 53.799556 16.283223 C 53.799556 16.012909 53.895962 15.779247 54.088775 15.58682 C 54.281589 15.394393 54.511128 15.29818 54.786575 15.29818 Z M 54.786575 15.29818 " stroke="#010101" stroke-width="0.5" stroke-opacity="1" stroke-miterlimit="10"/><g clip-path="url(#6f85d2d987)"><path stroke-linecap="butt" transform="matrix(0.850889, 0, 0, 0.852596, 1.277235, 3.304494)" fill="none" stroke-linejoin="miter" d="M 68.581889 0.220144 L 68.581889 23.700829 " stroke="#010101" stroke-width="0.5" stroke-opacity="1" stroke-miterlimit="10"/></g><g clip-path="url(#78fd67502d)"><path stroke-linecap="butt" transform="matrix(0.850889, 0, 0, 0.852596, 1.277235, 3.304494)" fill="none" stroke-linejoin="miter" d="M 106.988409 0.220144 L 106.988409 23.700829 " stroke="#010101" stroke-width="0.5" stroke-opacity="1" stroke-miterlimit="10"/></g><g mask="url(#130c07b35b)"><g transform="matrix(1, 0, 0, 1, 24, 8)"><g clip-path="url(#79e8229865)"><g clip-path="url(#7534811d6e)"><g clip-path="url(#507d5bc6c3)"><path fill="#e4e4e4" d="M 0.667969 0.265625 L 56.226562 0.265625 L 56.226562 12.765625 L 0.667969 12.765625 Z M 0.667969 0.265625 " fill-opacity="1" fill-rule="nonzero"/></g></g><g fill="#000000" fill-opacity="1"><g transform="translate(8.311539, 8.976831)"><g><path d="M 1.921875 -4.90625 C 2.367188 -4.90625 2.71875 -4.800781 2.96875 -4.59375 C 3.226562 -4.382812 3.359375 -4.101562 3.359375 -3.75 C 3.359375 -3.507812 3.285156 -3.289062 3.140625 -3.09375 C 2.992188 -2.894531 2.757812 -2.71875 2.4375 -2.5625 C 2.820312 -2.375 3.097656 -2.175781 3.265625 -1.96875 C 3.429688 -1.757812 3.515625 -1.519531 3.515625 -1.25 C 3.515625 -0.851562 3.375 -0.535156 3.09375 -0.296875 C 2.8125 -0.0546875 2.429688 0.0625 1.953125 0.0625 C 1.429688 0.0625 1.03125 -0.046875 0.75 -0.265625 C 0.476562 -0.492188 0.34375 -0.816406 0.34375 -1.234375 C 0.34375 -1.785156 0.679688 -2.21875 1.359375 -2.53125 C 1.054688 -2.695312 0.835938 -2.878906 0.703125 -3.078125 C 0.566406 -3.273438 0.5 -3.5 0.5 -3.75 C 0.5 -4.101562 0.628906 -4.382812 0.890625 -4.59375 C 1.148438 -4.800781 1.492188 -4.90625 1.921875 -4.90625 Z M 0.890625 -1.21875 C 0.890625 -0.957031 0.976562 -0.75 1.15625 -0.59375 C 1.34375 -0.445312 1.601562 -0.375 1.9375 -0.375 C 2.257812 -0.375 2.507812 -0.453125 2.6875 -0.609375 C 2.875 -0.765625 2.96875 -0.976562 2.96875 -1.25 C 2.96875 -1.457031 2.882812 -1.644531 2.71875 -1.8125 C 2.550781 -1.976562 2.25 -2.140625 1.8125 -2.296875 C 1.488281 -2.160156 1.253906 -2.003906 1.109375 -1.828125 C 0.960938 -1.660156 0.890625 -1.457031 0.890625 -1.21875 Z M 1.921875 -4.453125 C 1.648438 -4.453125 1.4375 -4.382812 1.28125 -4.25 C 1.125 -4.125 1.046875 -3.945312 1.046875 -3.71875 C 1.046875 -3.519531 1.109375 -3.347656 1.234375 -3.203125 C 1.367188 -3.054688 1.609375 -2.910156 1.953125 -2.765625 C 2.265625 -2.898438 2.488281 -3.039062 2.625 -3.1875 C 2.757812 -3.34375 2.828125 -3.519531 2.828125 -3.71875 C 2.828125 -3.945312 2.742188 -4.125 2.578125 -4.25 C 2.421875 -4.382812 2.203125 -4.453125 1.921875 -4.453125 Z M 1.921875 -4.453125 "/></g></g></g><g fill="#000000" fill-opacity="1"><g transform="translate(12.182713, 8.976831)"><g><path d="M 2.359375 0 L 1.828125 0 L 1.828125 -3.4375 C 1.828125 -3.726562 1.835938 -4 1.859375 -4.25 C 1.804688 -4.207031 1.75 -4.160156 1.6875 -4.109375 C 1.632812 -4.054688 1.375 -3.84375 0.90625 -3.46875 L 0.625 -3.84375 L 1.90625 -4.828125 L 2.359375 -4.828125 Z M 2.359375 0 "/></g></g></g><g fill="#000000" fill-opacity="1"><g transform="translate(16.053888, 8.976831)"><g><path d="M 0.5 -0.34375 C 0.5 -0.5 0.53125 -0.613281 0.59375 -0.6875 C 0.664062 -0.757812 0.765625 -0.796875 0.890625 -0.796875 C 1.015625 -0.796875 1.113281 -0.757812 1.1875 -0.6875 C 1.257812 -0.613281 1.296875 -0.5 1.296875 -0.34375 C 1.296875 -0.207031 1.257812 -0.0976562 1.1875 -0.015625 C 1.113281 0.0546875 1.015625 0.09375 0.890625 0.09375 C 0.773438 0.09375 0.679688 0.0625 0.609375 0 C 0.535156 -0.0703125 0.5 -0.1875 0.5 -0.34375 Z M 0.5 -0.34375 "/></g></g></g><g fill="#000000" fill-opacity="1"><g transform="translate(17.85559, 8.976831)"><g><path d="M 2.359375 0 L 1.828125 0 L 1.828125 -3.4375 C 1.828125 -3.726562 1.835938 -4 1.859375 -4.25 C 1.804688 -4.207031 1.75 -4.160156 1.6875 -4.109375 C 1.632812 -4.054688 1.375 -3.84375 0.90625 -3.46875 L 0.625 -3.84375 L 1.90625 -4.828125 L 2.359375 -4.828125 Z M 2.359375 0 "/></g></g></g><g fill="#000000" fill-opacity="1"><g transform="translate(21.726765, 8.976831)"><g><path d="M 2.359375 0 L 1.828125 0 L 1.828125 -3.4375 C 1.828125 -3.726562 1.835938 -4 1.859375 -4.25 C 1.804688 -4.207031 1.75 -4.160156 1.6875 -4.109375 C 1.632812 -4.054688 1.375 -3.84375 0.90625 -3.46875 L 0.625 -3.84375 L 1.90625 -4.828125 L 2.359375 -4.828125 Z M 2.359375 0 "/></g></g></g><g fill="#000000" fill-opacity="1"><g transform="translate(25.597939, 8.976831)"><g><path d="M 3.5 -2.765625 C 3.5 -0.878906 2.769531 0.0625 1.3125 0.0625 C 1.050781 0.0625 0.847656 0.0390625 0.703125 0 L 0.703125 -0.46875 C 0.878906 -0.414062 1.082031 -0.390625 1.3125 -0.390625 C 1.832031 -0.390625 2.226562 -0.550781 2.5 -0.875 C 2.769531 -1.207031 2.914062 -1.707031 2.9375 -2.375 L 2.90625 -2.375 C 2.78125 -2.195312 2.617188 -2.054688 2.421875 -1.953125 C 2.222656 -1.859375 2 -1.8125 1.75 -1.8125 C 1.320312 -1.8125 0.976562 -1.941406 0.71875 -2.203125 C 0.46875 -2.460938 0.34375 -2.820312 0.34375 -3.28125 C 0.34375 -3.78125 0.484375 -4.175781 0.765625 -4.46875 C 1.046875 -4.757812 1.414062 -4.90625 1.875 -4.90625 C 2.207031 -4.90625 2.492188 -4.816406 2.734375 -4.640625 C 2.984375 -4.472656 3.171875 -4.226562 3.296875 -3.90625 C 3.429688 -3.582031 3.5 -3.203125 3.5 -2.765625 Z M 1.875 -4.4375 C 1.5625 -4.4375 1.316406 -4.332031 1.140625 -4.125 C 0.972656 -3.925781 0.890625 -3.644531 0.890625 -3.28125 C 0.890625 -2.96875 0.96875 -2.71875 1.125 -2.53125 C 1.289062 -2.351562 1.535156 -2.265625 1.859375 -2.265625 C 2.054688 -2.265625 2.238281 -2.300781 2.40625 -2.375 C 2.570312 -2.457031 2.703125 -2.566406 2.796875 -2.703125 C 2.898438 -2.847656 2.953125 -3 2.953125 -3.15625 C 2.953125 -3.382812 2.90625 -3.597656 2.8125 -3.796875 C 2.71875 -3.992188 2.585938 -4.148438 2.421875 -4.265625 C 2.265625 -4.378906 2.082031 -4.4375 1.875 -4.4375 Z M 1.875 -4.4375 "/></g></g></g><g fill="#000000" fill-opacity="1"><g transform="translate(29.469114, 8.976831)"><g><path d="M 0.5 -0.34375 C 0.5 -0.5 0.53125 -0.613281 0.59375 -0.6875 C 0.664062 -0.757812 0.765625 -0.796875 0.890625 -0.796875 C 1.015625 -0.796875 1.113281 -0.757812 1.1875 -0.6875 C 1.257812 -0.613281 1.296875 -0.5 1.296875 -0.34375 C 1.296875 -0.207031 1.257812 -0.0976562 1.1875 -0.015625 C 1.113281 0.0546875 1.015625 0.09375 0.890625 0.09375 C 0.773438 0.09375 0.679688 0.0625 0.609375 0 C 0.535156 -0.0703125 0.5 -0.1875 0.5 -0.34375 Z M 0.5 -0.34375 "/></g></g></g><g fill="#000000" fill-opacity="1"><g transform="translate(31.270816, 8.976831)"><g><path d="M 3.5 -2.765625 C 3.5 -0.878906 2.769531 0.0625 1.3125 0.0625 C 1.050781 0.0625 0.847656 0.0390625 0.703125 0 L 0.703125 -0.46875 C 0.878906 -0.414062 1.082031 -0.390625 1.3125 -0.390625 C 1.832031 -0.390625 2.226562 -0.550781 2.5 -0.875 C 2.769531 -1.207031 2.914062 -1.707031 2.9375 -2.375 L 2.90625 -2.375 C 2.78125 -2.195312 2.617188 -2.054688 2.421875 -1.953125 C 2.222656 -1.859375 2 -1.8125 1.75 -1.8125 C 1.320312 -1.8125 0.976562 -1.941406 0.71875 -2.203125 C 0.46875 -2.460938 0.34375 -2.820312 0.34375 -3.28125 C 0.34375 -3.78125 0.484375 -4.175781 0.765625 -4.46875 C 1.046875 -4.757812 1.414062 -4.90625 1.875 -4.90625 C 2.207031 -4.90625 2.492188 -4.816406 2.734375 -4.640625 C 2.984375 -4.472656 3.171875 -4.226562 3.296875 -3.90625 C 3.429688 -3.582031 3.5 -3.203125 3.5 -2.765625 Z M 1.875 -4.4375 C 1.5625 -4.4375 1.316406 -4.332031 1.140625 -4.125 C 0.972656 -3.925781 0.890625 -3.644531 0.890625 -3.28125 C 0.890625 -2.96875 0.96875 -2.71875 1.125 -2.53125 C 1.289062 -2.351562 1.535156 -2.265625 1.859375 -2.265625 C 2.054688 -2.265625 2.238281 -2.300781 2.40625 -2.375 C 2.570312 -2.457031 2.703125 -2.566406 2.796875 -2.703125 C 2.898438 -2.847656 2.953125 -3 2.953125 -3.15625 C 2.953125 -3.382812 2.90625 -3.597656 2.8125 -3.796875 C 2.71875 -3.992188 2.585938 -4.148438 2.421875 -4.265625 C 2.265625 -4.378906 2.082031 -4.4375 1.875 -4.4375 Z M 1.875 -4.4375 "/></g></g></g><g fill="#000000" fill-opacity="1"><g transform="translate(35.14199, 8.976831)"><g><path d="M 1.84375 -2.953125 C 2.351562 -2.953125 2.753906 -2.820312 3.046875 -2.5625 C 3.335938 -2.3125 3.484375 -1.96875 3.484375 -1.53125 C 3.484375 -1.03125 3.320312 -0.640625 3 -0.359375 C 2.6875 -0.078125 2.25 0.0625 1.6875 0.0625 C 1.144531 0.0625 0.726562 -0.0195312 0.4375 -0.1875 L 0.4375 -0.71875 C 0.59375 -0.625 0.785156 -0.546875 1.015625 -0.484375 C 1.242188 -0.429688 1.46875 -0.40625 1.6875 -0.40625 C 2.070312 -0.40625 2.375 -0.492188 2.59375 -0.671875 C 2.8125 -0.859375 2.921875 -1.125 2.921875 -1.46875 C 2.921875 -2.144531 2.503906 -2.484375 1.671875 -2.484375 C 1.460938 -2.484375 1.1875 -2.453125 0.84375 -2.390625 L 0.5625 -2.5625 L 0.734375 -4.828125 L 3.140625 -4.828125 L 3.140625 -4.328125 L 1.203125 -4.328125 L 1.078125 -2.875 C 1.335938 -2.925781 1.59375 -2.953125 1.84375 -2.953125 Z M 1.84375 -2.953125 "/></g></g></g><g fill="#000000" fill-opacity="1"><g transform="translate(39.013165, 8.976831)"><g><path d="M 0.5 -0.34375 C 0.5 -0.5 0.53125 -0.613281 0.59375 -0.6875 C 0.664062 -0.757812 0.765625 -0.796875 0.890625 -0.796875 C 1.015625 -0.796875 1.113281 -0.757812 1.1875 -0.6875 C 1.257812 -0.613281 1.296875 -0.5 1.296875 -0.34375 C 1.296875 -0.207031 1.257812 -0.0976562 1.1875 -0.015625 C 1.113281 0.0546875 1.015625 0.09375 0.890625 0.09375 C 0.773438 0.09375 0.679688 0.0625 0.609375 0 C 0.535156 -0.0703125 0.5 -0.1875 0.5 -0.34375 Z M 0.5 -0.34375 "/></g></g></g><g fill="#000000" fill-opacity="1"><g transform="translate(40.814867, 8.976831)"><g><path d="M 3.734375 -1.109375 L 3.015625 -1.109375 L 3.015625 0 L 2.484375 0 L 2.484375 -1.109375 L 0.140625 -1.109375 L 0.140625 -1.59375 L 2.4375 -4.859375 L 3.015625 -4.859375 L 3.015625 -1.609375 L 3.734375 -1.609375 Z M 2.484375 -1.609375 L 2.484375 -3.21875 C 2.484375 -3.53125 2.5 -3.882812 2.53125 -4.28125 L 2.5 -4.28125 C 2.394531 -4.070312 2.296875 -3.894531 2.203125 -3.75 L 0.6875 -1.609375 Z M 2.484375 -1.609375 "/></g></g></g><g fill="#000000" fill-opacity="1"><g transform="translate(44.686042, 8.976831)"><g><path d="M 0.9375 0 L 2.9375 -4.328125 L 0.3125 -4.328125 L 0.3125 -4.828125 L 3.53125 -4.828125 L 3.53125 -4.390625 L 1.546875 0 Z M 0.9375 0 "/></g></g></g></g></g></g></svg>