<?xml version="1.0" encoding="UTF-8"?><svg id="b" xmlns="http://www.w3.org/2000/svg" xmlns:xlink="http://www.w3.org/1999/xlink" viewBox="0 0 464.05 174.61"><defs><clipPath id="d"><path d="m189.95,32.98c-1.75,0-2.81,1.92-1.89,3.41,9.08,14.75,25.37,24.59,43.96,24.59s34.88-9.84,43.96-24.59c.92-1.49-.14-3.41-1.89-3.41h-84.15Z" style="fill:#d1c4dd; stroke:#010101; stroke-linejoin:round; stroke-width:.5px;"/></clipPath><clipPath id="e"><polygon points="250.53 174.36 213.52 174.36 207.76 166.92 256.28 166.92 250.53 174.36" style="fill:#615b67; stroke:#010101; stroke-linejoin:round; stroke-width:.5px;"/></clipPath></defs><g id="c"><rect x="182.33" y="91.52" width="49.69" height="4.41" transform="translate(414.35 187.45) rotate(180)" style="fill:#615b67; stroke:#010101; stroke-linejoin:round; stroke-width:.5px;"/><rect x=".25" y="64.18" width="195.77" height="59.09" rx="2.07" ry="2.07" transform="translate(196.27 187.45) rotate(180)" style="fill:#d1c4dd; stroke:#010101; stroke-linejoin:round; stroke-width:.5px;"/><rect x="176.62" y="67.29" width="16.11" height="16.07" transform="translate(369.34 150.65) rotate(180)" style="fill:#615b67; stroke:#010101; stroke-linejoin:round; stroke-width:.5px;"/><rect x="176.62" y="85.19" width="16.11" height="16.07" transform="translate(369.34 186.45) rotate(180)" style="fill:#615b67; stroke:#010101; stroke-linejoin:round; stroke-width:.5px;"/><rect x="176.62" y="103.08" width="16.11" height="17.07" transform="translate(369.34 223.24) rotate(180)" style="fill:#615b67; stroke:#010101; stroke-linejoin:round; stroke-width:.5px;"/><rect x="159.31" y="67.29" width="16.11" height="16.07" transform="translate(334.73 150.65) rotate(180)" style="fill:#615b67; stroke:#010101; stroke-linejoin:round; stroke-width:.5px;"/><rect x="159.31" y="85.19" width="16.11" height="16.07" transform="translate(334.73 186.45) rotate(180)" style="fill:#615b67; stroke:#010101; stroke-linejoin:round; stroke-width:.5px;"/><rect x="159.31" y="103.08" width="16.11" height="17.07" transform="translate(334.73 223.24) rotate(180)" style="fill:#615b67; stroke:#010101; stroke-linejoin:round; stroke-width:.5px;"/><rect x="142" y="67.29" width="16.11" height="16.07" transform="translate(300.11 150.65) rotate(180)" style="fill:#615b67; stroke:#010101; stroke-linejoin:round; stroke-width:.5px;"/><rect x="142" y="85.19" width="16.11" height="16.07" transform="translate(300.11 186.45) rotate(180)" style="fill:#615b67; stroke:#010101; stroke-linejoin:round; stroke-width:.5px;"/><rect x="142" y="103.08" width="16.11" height="17.07" transform="translate(300.11 223.24) rotate(180)" style="fill:#615b67; stroke:#010101; stroke-linejoin:round; stroke-width:.5px;"/><rect x="124.7" y="67.29" width="16.11" height="16.07" transform="translate(265.5 150.65) rotate(180)" style="fill:#615b67; stroke:#010101; stroke-linejoin:round; stroke-width:.5px;"/><rect x="124.7" y="85.19" width="16.11" height="16.07" transform="translate(265.5 186.45) rotate(180)" style="fill:#615b67; stroke:#010101; stroke-linejoin:round; stroke-width:.5px;"/><rect x="124.7" y="103.08" width="16.11" height="17.07" transform="translate(265.5 223.24) rotate(180)" style="fill:#615b67; stroke:#010101; stroke-linejoin:round; stroke-width:.5px;"/><rect x="107.39" y="67.29" width="16.11" height="16.07" transform="translate(230.88 150.65) rotate(180)" style="fill:#615b67; stroke:#010101; stroke-linejoin:round; stroke-width:.5px;"/><rect x="107.39" y="85.19" width="16.11" height="16.07" transform="translate(230.88 186.45) rotate(180)" style="fill:#615b67; stroke:#010101; stroke-linejoin:round; stroke-width:.5px;"/><rect x="107.39" y="103.08" width="16.11" height="17.07" transform="translate(230.88 223.24) rotate(180)" style="fill:#615b67; stroke:#010101; stroke-linejoin:round; stroke-width:.5px;"/><rect x="90.08" y="67.29" width="16.11" height="16.07" transform="translate(196.27 150.65) rotate(180)" style="fill:#615b67; stroke:#010101; stroke-linejoin:round; stroke-width:.5px;"/><rect x="90.08" y="85.19" width="16.11" height="16.07" transform="translate(196.27 186.45) rotate(180)" style="fill:#615b67; stroke:#010101; stroke-linejoin:round; stroke-width:.5px;"/><rect x="90.08" y="103.08" width="16.11" height="17.07" transform="translate(196.27 223.24) rotate(180)" style="fill:#615b67; stroke:#010101; stroke-linejoin:round; stroke-width:.5px;"/><rect x="72.77" y="67.29" width="16.11" height="16.07" transform="translate(161.66 150.65) rotate(180)" style="fill:#615b67; stroke:#010101; stroke-linejoin:round; stroke-width:.5px;"/><rect x="72.77" y="85.19" width="16.11" height="16.07" transform="translate(161.66 186.45) rotate(180)" style="fill:#615b67; stroke:#010101; stroke-linejoin:round; stroke-width:.5px;"/><rect x="72.77" y="103.08" width="16.11" height="17.07" transform="translate(161.66 223.24) rotate(180)" style="fill:#615b67; stroke:#010101; stroke-linejoin:round; stroke-width:.5px;"/><rect x="55.47" y="67.29" width="16.11" height="16.07" transform="translate(127.04 150.65) rotate(180)" style="fill:#615b67; stroke:#010101; stroke-linejoin:round; stroke-width:.5px;"/><rect x="55.47" y="85.19" width="16.11" height="16.07" transform="translate(127.04 186.45) rotate(180)" style="fill:#615b67; stroke:#010101; stroke-linejoin:round; stroke-width:.5px;"/><rect x="55.47" y="103.08" width="16.11" height="17.07" transform="translate(127.04 223.24) rotate(180)" style="fill:#615b67; stroke:#010101; stroke-linejoin:round; stroke-width:.5px;"/><rect x="38.16" y="67.29" width="16.11" height="16.07" transform="translate(92.43 150.65) rotate(180)" style="fill:#615b67; stroke:#010101; stroke-linejoin:round; stroke-width:.5px;"/><rect x="38.16" y="85.19" width="16.11" height="16.07" transform="translate(92.43 186.45) rotate(180)" style="fill:#615b67; stroke:#010101; stroke-linejoin:round; stroke-width:.5px;"/><rect x="38.16" y="103.08" width="16.11" height="17.07" transform="translate(92.43 223.24) rotate(180)" style="fill:#615b67; stroke:#010101; stroke-linejoin:round; stroke-width:.5px;"/><rect x="20.85" y="67.29" width="16.11" height="16.07" transform="translate(57.82 150.65) rotate(180)" style="fill:#615b67; stroke:#010101; stroke-linejoin:round; stroke-width:.5px;"/><rect x="20.85" y="85.19" width="16.11" height="16.07" transform="translate(57.82 186.45) rotate(180)" style="fill:#615b67; stroke:#010101; stroke-linejoin:round; stroke-width:.5px;"/><rect x="20.85" y="103.08" width="16.11" height="17.07" transform="translate(57.82 223.24) rotate(180)" style="fill:#615b67; stroke:#010101; stroke-linejoin:round; stroke-width:.5px;"/><rect x="3.55" y="67.29" width="16.11" height="16.07" transform="translate(23.2 150.65) rotate(180)" style="fill:#615b67; stroke:#010101; stroke-linejoin:round; stroke-width:.5px;"/><rect x="3.55" y="85.19" width="16.11" height="16.07" transform="translate(23.2 186.45) rotate(180)" style="fill:#615b67; stroke:#010101; stroke-linejoin:round; stroke-width:.5px;"/><rect x="3.55" y="103.08" width="16.11" height="17.07" transform="translate(23.2 223.24) rotate(180)" style="fill:#615b67; stroke:#010101; stroke-linejoin:round; stroke-width:.5px;"/><rect x="232.02" y="91.52" width="49.69" height="4.41" style="fill:#615b67; stroke:#010101; stroke-linejoin:round; stroke-width:.5px;"/><rect x="224.8" y="112.2" width="14.44" height="12.9" style="fill:#615b67; stroke:#010101; stroke-linejoin:round; stroke-width:.5px;"/><rect x="228.1" y="57.83" width="7.84" height="17.41" style="fill:#615b67; stroke:#010101; stroke-linejoin:round; stroke-width:.5px;"/><polygon points="233.86 36.59 230.19 36.59 231.22 4.59 232.83 4.59 233.86 36.59" style="fill:#d1c4dd; stroke:#010101; stroke-linejoin:round; stroke-width:.5px;"/><path d="m189.95,32.98c-1.75,0-2.81,1.92-1.89,3.41,9.08,14.75,25.37,24.59,43.96,24.59s34.88-9.84,43.96-24.59c.92-1.49-.14-3.41-1.89-3.41h-84.15Z" style="fill:#d1c4dd;"/><g style="clip-path:url(#d);"><path d="m278.74,38.2c.15,23.89-93.3,23.99-93.44,0v24.14h93.44v-24.14Z" style="fill:#010101;"/><rect x="185.31" y="39.15" width="93.44" height="7.8" style="fill:#77acdd; stroke:#010101; stroke-linejoin:round; stroke-width:.5px;"/></g><path d="m189.95,32.98c-1.75,0-2.81,1.92-1.89,3.41,9.08,14.75,25.37,24.59,43.96,24.59s34.88-9.84,43.96-24.59c.92-1.49-.14-3.41-1.89-3.41h-84.15Z" style="fill:none; stroke:#010101; stroke-linejoin:round; stroke-width:.5px;"/><path d="m232.02.25c-3.14,0-5.69,2.54-5.69,5.69h11.37c0-3.14-2.55-5.69-5.68-5.69Z" style="fill:#d1c4dd; stroke:#010101; stroke-linejoin:round; stroke-width:.5px;"/><rect x="226.34" y="5.94" width="11.37" height="1.6" style="fill:#615b67; stroke:#010101; stroke-linejoin:round; stroke-width:.5px;"/><rect x="231.12" y="7.54" width="1.91" height="3.28" style="fill:#010101;"/><rect x="212.66" y="79.69" width="38.72" height="28.07" style="fill:#d1c4dd; stroke:#010101; stroke-linejoin:round; stroke-width:.5px;"/><polygon points="246.79 112.2 217.25 112.2 212.66 107.76 251.39 107.76 246.79 112.2" style="fill:#615b67; stroke:#010101; stroke-linejoin:round; stroke-width:.5px;"/><polygon points="250.53 123.27 213.52 123.27 207.76 128.5 256.28 128.5 250.53 123.27" style="fill:#615b67; stroke:#010101; stroke-linejoin:round; stroke-width:.5px;"/><polygon points="246.79 75.24 217.25 75.24 212.66 79.69 251.39 79.69 246.79 75.24" style="fill:#615b67; stroke:#010101; stroke-linejoin:round; stroke-width:.5px;"/><polygon points="250.53 174.36 213.52 174.36 207.76 166.92 256.28 166.92 250.53 174.36" style="fill:#615b67;"/><g style="clip-path:url(#e);"><rect x="201.69" y="163.54" width="60.67" height="8" style="fill:#010101;"/></g><polygon points="250.53 174.36 213.52 174.36 207.76 166.92 256.28 166.92 250.53 174.36" style="fill:none; stroke:#010101; stroke-linejoin:round; stroke-width:.5px;"/><rect x="207.76" y="128.54" width="48.52" height="27.21" style="fill:#d1c4dd; stroke:#010101; stroke-linejoin:round; stroke-width:.5px;"/><rect x="201.69" y="155.75" width="60.67" height="11.16" style="fill:#615b67; stroke:#010101; stroke-linejoin:round; stroke-width:.5px;"/><rect x="224.8" y="112.2" width="14.44" height="4.93" style="fill:#010101;"/><rect x="268.03" y="64.18" width="195.77" height="59.09" rx="2.07" ry="2.07" style="fill:#d1c4dd; stroke:#010101; stroke-linejoin:round; stroke-width:.5px;"/><rect x="271.32" y="67.29" width="16.11" height="16.07" style="fill:#615b67; stroke:#010101; stroke-linejoin:round; stroke-width:.5px;"/><rect x="271.32" y="85.19" width="16.11" height="16.07" style="fill:#615b67; stroke:#010101; stroke-linejoin:round; stroke-width:.5px;"/><rect x="271.32" y="103.08" width="16.11" height="17.07" style="fill:#615b67; stroke:#010101; stroke-linejoin:round; stroke-width:.5px;"/><rect x="288.63" y="67.29" width="16.11" height="16.07" style="fill:#615b67; stroke:#010101; stroke-linejoin:round; stroke-width:.5px;"/><rect x="288.63" y="85.19" width="16.11" height="16.07" style="fill:#615b67; stroke:#010101; stroke-linejoin:round; stroke-width:.5px;"/><rect x="288.63" y="103.08" width="16.11" height="17.07" style="fill:#615b67; stroke:#010101; stroke-linejoin:round; stroke-width:.5px;"/><rect x="305.94" y="67.29" width="16.11" height="16.07" style="fill:#615b67; stroke:#010101; stroke-linejoin:round; stroke-width:.5px;"/><rect x="305.94" y="85.19" width="16.11" height="16.07" style="fill:#615b67; stroke:#010101; stroke-linejoin:round; stroke-width:.5px;"/><rect x="305.94" y="103.08" width="16.11" height="17.07" style="fill:#615b67; stroke:#010101; stroke-linejoin:round; stroke-width:.5px;"/><rect x="323.24" y="67.29" width="16.11" height="16.07" style="fill:#615b67; stroke:#010101; stroke-linejoin:round; stroke-width:.5px;"/><rect x="323.24" y="85.19" width="16.11" height="16.07" style="fill:#615b67; stroke:#010101; stroke-linejoin:round; stroke-width:.5px;"/><rect x="323.24" y="103.08" width="16.11" height="17.07" style="fill:#615b67; stroke:#010101; stroke-linejoin:round; stroke-width:.5px;"/><rect x="340.55" y="67.29" width="16.11" height="16.07" style="fill:#615b67; stroke:#010101; stroke-linejoin:round; stroke-width:.5px;"/><rect x="340.55" y="85.19" width="16.11" height="16.07" style="fill:#615b67; stroke:#010101; stroke-linejoin:round; stroke-width:.5px;"/><rect x="340.55" y="103.08" width="16.11" height="17.07" style="fill:#615b67; stroke:#010101; stroke-linejoin:round; stroke-width:.5px;"/><rect x="357.86" y="67.29" width="16.11" height="16.07" style="fill:#615b67; stroke:#010101; stroke-linejoin:round; stroke-width:.5px;"/><rect x="357.86" y="85.19" width="16.11" height="16.07" style="fill:#615b67; stroke:#010101; stroke-linejoin:round; stroke-width:.5px;"/><rect x="357.86" y="103.08" width="16.11" height="17.07" style="fill:#615b67; stroke:#010101; stroke-linejoin:round; stroke-width:.5px;"/><rect x="375.17" y="67.29" width="16.11" height="16.07" style="fill:#615b67; stroke:#010101; stroke-linejoin:round; stroke-width:.5px;"/><rect x="375.17" y="85.19" width="16.11" height="16.07" style="fill:#615b67; stroke:#010101; stroke-linejoin:round; stroke-width:.5px;"/><rect x="375.17" y="103.08" width="16.11" height="17.07" style="fill:#615b67; stroke:#010101; stroke-linejoin:round; stroke-width:.5px;"/><rect x="392.47" y="67.29" width="16.11" height="16.07" style="fill:#615b67; stroke:#010101; stroke-linejoin:round; stroke-width:.5px;"/><rect x="392.47" y="85.19" width="16.11" height="16.07" style="fill:#615b67; stroke:#010101; stroke-linejoin:round; stroke-width:.5px;"/><rect x="392.47" y="103.08" width="16.11" height="17.07" style="fill:#615b67; stroke:#010101; stroke-linejoin:round; stroke-width:.5px;"/><rect x="409.78" y="67.29" width="16.11" height="16.07" style="fill:#615b67; stroke:#010101; stroke-linejoin:round; stroke-width:.5px;"/><rect x="409.78" y="85.19" width="16.11" height="16.07" style="fill:#615b67; stroke:#010101; stroke-linejoin:round; stroke-width:.5px;"/><rect x="409.78" y="103.08" width="16.11" height="17.07" style="fill:#615b67; stroke:#010101; stroke-linejoin:round; stroke-width:.5px;"/><rect x="427.09" y="67.29" width="16.11" height="16.07" style="fill:#615b67; stroke:#010101; stroke-linejoin:round; stroke-width:.5px;"/><rect x="427.09" y="85.19" width="16.11" height="16.07" style="fill:#615b67; stroke:#010101; stroke-linejoin:round; stroke-width:.5px;"/><rect x="427.09" y="103.08" width="16.11" height="17.07" style="fill:#615b67; stroke:#010101; stroke-linejoin:round; stroke-width:.5px;"/><rect x="444.39" y="67.29" width="16.11" height="16.07" style="fill:#615b67; stroke:#010101; stroke-linejoin:round; stroke-width:.5px;"/><rect x="444.39" y="85.19" width="16.11" height="16.07" style="fill:#615b67; stroke:#010101; stroke-linejoin:round; stroke-width:.5px;"/><rect x="444.39" y="103.08" width="16.11" height="17.07" style="fill:#615b67; stroke:#010101; stroke-linejoin:round; stroke-width:.5px;"/><rect x="228.1" y="57.83" width="7.84" height="9.46" style="fill:#010101;"/><rect x="212.66" y="89.34" width="38.72" height="8.77" style="fill:none; stroke:#010101; stroke-linejoin:round; stroke-width:.5px;"/><rect x="207.76" y="141.09" width="48.52" height="2.1" style="fill:none; stroke:#010101; stroke-linejoin:round; stroke-width:.5px;"/></g></svg>