<?xml version="1.0" encoding="UTF-8"?><svg id="b" xmlns="http://www.w3.org/2000/svg" xmlns:xlink="http://www.w3.org/1999/xlink" viewBox="0 0 195.42 171.72"><defs><clipPath id="d"><polygon points="176.93 43.23 97.67 9.14 18.49 43.23 18.49 163.37 176.93 163.37 176.93 43.23" style="fill:#fff; stroke:#010101; stroke-miterlimit:10; stroke-width:.5px;"/></clipPath></defs><g id="c"><ellipse cx="97.71" cy="163.05" rx="84.19" ry="8.67" style="fill:#010101;"/><rect x="136.76" y="10.16" width="7.39" height="12.32" style="fill:#d1c4dd; stroke:#010101; stroke-miterlimit:10; stroke-width:.5px;"/><rect x="135.12" y="6.05" width="10.68" height="5.02" style="fill:#615b67; stroke:#010101; stroke-miterlimit:10; stroke-width:.5px;"/><polygon points="176.93 43.23 97.67 9.14 18.49 43.23 18.49 163.37 176.93 163.37 176.93 43.23" style="fill:#fff;"/><g style="clip-path:url(#d);"><polygon points="195.17 56.6 97.66 14.67 .25 56.6 .25 47.03 97.66 5.1 195.17 47.03 195.17 56.6" style="fill:#615b67; stroke:#010101; stroke-miterlimit:10; stroke-width:.5px;"/></g><polygon points="176.93 43.23 97.67 9.14 18.49 43.23 18.49 163.37 176.93 163.37 176.93 43.23" style="fill:none; stroke:#010101; stroke-miterlimit:10; stroke-width:.5px;"/><polygon points="195.17 51.78 97.66 9.84 .25 51.78 .25 42.21 97.66 .27 195.17 42.21 195.17 51.78" style="fill:#f47c4a; stroke:#010101; stroke-miterlimit:10; stroke-width:.5px;"/></g></svg>