<?xml version="1.0" encoding="UTF-8"?><svg id="b" xmlns="http://www.w3.org/2000/svg" xmlns:xlink="http://www.w3.org/1999/xlink" viewBox="0 0 302.08 116.59"><defs><clipPath id="d"><path d="m102.76,39.53h-6.5c-.68,0-1.17-.64-1.01-1.29l2.6-10.29c.12-.46.53-.79,1.01-.79h1.3c.48,0,.89.32,1.01.79l2.6,10.29c.17.66-.33,1.29-1.01,1.29Z" style="fill:#d1c4dd; stroke:#010101; stroke-linejoin:round; stroke-width:.5px;"/></clipPath><clipPath id="e"><path d="m83.17,11.81c-.75-.1-1.31.66-1,1.35,3.02,6.82,9.41,11.96,17.34,13.04,7.94,1.07,15.46-2.18,20.18-7.95.48-.58.14-1.46-.61-1.57l-35.91-4.86Z" style="fill:#d1c4dd; stroke:#010101; stroke-linejoin:round; stroke-width:.5px;"/></clipPath><clipPath id="f"><path d="m75.19,77.04s3.22-32.11,6.9-35.03,84.16-2.6,87.84,0,22.56,30.03,26.76,35.03-121.5,0-121.5,0Z" style="fill:#fff; stroke:#010101; stroke-miterlimit:10; stroke-width:.5px;"/></clipPath><clipPath id="g"><path d="m7.63,68.27h292.14c1.7,0,2.67,1.94,1.63,3.28-6.05,7.88-24.58,27.92-62.31,37.57H21.27s-14.89-13.86-15.7-38.76c-.04-1.15.91-2.1,2.06-2.1Z" style="fill:#fff; stroke:#010101; stroke-miterlimit:10; stroke-width:.5px;"/></clipPath></defs><g id="c"><rect x="95.25" y="38.88" width="8.51" height="1.72" rx=".53" ry=".53" style="fill:#010101;"/><path d="m102.76,39.53h-6.5c-.68,0-1.17-.64-1.01-1.29l2.6-10.29c.12-.46.53-.79,1.01-.79h1.3c.48,0,.89.32,1.01.79l2.6,10.29c.17.66-.33,1.29-1.01,1.29Z" style="fill:#d1c4dd;"/><g style="clip-path:url(#d);"><path d="m106.24,35.05c0-3.6-13.46-3.6-13.46,0v-11.97h13.46v11.97Z" style="fill:#615b67; stroke:#010101; stroke-linejoin:round; stroke-width:.5px;"/></g><path d="m102.76,39.53h-6.5c-.68,0-1.17-.64-1.01-1.29l2.6-10.29c.12-.46.53-.79,1.01-.79h1.3c.48,0,.89.32,1.01.79l2.6,10.29c.17.66-.33,1.29-1.01,1.29Z" style="fill:none; stroke:#010101; stroke-linejoin:round; stroke-width:.5px;"/><circle cx="99.51" cy="26.19" r="3.56" style="fill:#615b67; stroke:#010101; stroke-miterlimit:10; stroke-width:.5px;"/><polygon points="101.7 15.89 100.14 15.68 102.43 2.08 103.11 2.17 101.7 15.89" style="fill:#d1c4dd; stroke:#010101; stroke-linejoin:round; stroke-width:.5px;"/><path d="m83.17,11.81c-.75-.1-1.31.66-1,1.35,3.02,6.82,9.41,11.96,17.34,13.04,7.94,1.07,15.46-2.18,20.18-7.95.48-.58.14-1.46-.61-1.57l-35.91-4.86Z" style="fill:#d1c4dd;"/><g style="clip-path:url(#e);"><path d="m120.77,19.17c-1.32,10.2-41.21,4.85-39.88-5.4l-1.39,10.3,39.88,5.4,1.39-10.3Z" style="fill:#010101;"/></g><path d="m83.17,11.81c-.75-.1-1.31.66-1,1.35,3.02,6.82,9.41,11.96,17.34,13.04,7.94,1.07,15.46-2.18,20.18-7.95.48-.58.14-1.46-.61-1.57l-35.91-4.86Z" style="fill:none; stroke:#010101; stroke-linejoin:round; stroke-width:.5px;"/><path d="m103.02.27c-1.34-.18-2.57.76-2.75,2.1l4.85.66c.18-1.34-.76-2.57-2.1-2.75Z" style="fill:#d1c4dd; stroke:#010101; stroke-linejoin:round; stroke-width:.5px;"/><rect x="100.2" y="2.7" width="4.9" height=".69" transform="translate(1.34 -13.75) rotate(7.71)" style="fill:#615b67; stroke:#010101; stroke-linejoin:round; stroke-width:.5px;"/><rect x="102.12" y="3.38" width=".82" height="1.41" transform="translate(1.48 -13.72) rotate(7.71)" style="fill:#010101;"/><ellipse cx="135.36" cy="109.13" rx="130.01" ry="7.47" style="fill:#010101;"/><path d="m75.19,77.04s3.22-32.11,6.9-35.03,84.16-2.6,87.84,0,22.56,30.03,26.76,35.03-121.5,0-121.5,0Z" style="fill:#fff;"/><g style="clip-path:url(#f);"><path d="m185,46.85c-36.85-2.49-74.73-2.72-113.94,0v-11.62s113.94,0,113.94,0v11.62Z" style="fill:#f47c4a; stroke:#010101; stroke-miterlimit:10; stroke-width:.5px;"/><rect x="152.03" y="49.89" width="44.75" height="14.52" rx="4.46" ry="4.46" style="fill:#77acdd; stroke:#010101; stroke-miterlimit:10; stroke-width:.5px;"/><rect x="110.41" y="49.63" width="35.35" height="14.77" rx="4" ry="4" style="fill:#77acdd; stroke:#010101; stroke-miterlimit:10; stroke-width:.5px;"/></g><path d="m75.19,77.04s3.22-32.11,6.9-35.03,84.16-2.6,87.84,0,22.56,30.03,26.76,35.03-121.5,0-121.5,0Z" style="fill:none; stroke:#010101; stroke-miterlimit:10; stroke-width:.5px;"/><path d="m7.63,68.27h292.14c1.7,0,2.67,1.94,1.63,3.28-6.05,7.88-24.58,27.92-62.31,37.57H21.27s-14.89-13.86-15.7-38.76c-.04-1.15.91-2.1,2.06-2.1Z" style="fill:#fff;"/><g style="clip-path:url(#g);"><rect x=".25" y="79.21" width="301.58" height="8.89" style="fill:#f47c4a; stroke:#010101; stroke-miterlimit:10; stroke-width:.5px;"/></g><path d="m7.63,68.27h292.14c1.7,0,2.67,1.94,1.63,3.28-6.05,7.88-24.58,27.92-62.31,37.57H21.27s-14.89-13.86-15.7-38.76c-.04-1.15.91-2.1,2.06-2.1Z" style="fill:none; stroke:#010101; stroke-miterlimit:10; stroke-width:.5px;"/></g></svg>