<svg xmlns="http://www.w3.org/2000/svg" xmlns:xlink="http://www.w3.org/1999/xlink" width="500" zoomAndPan="magnify" viewBox="0 0 375 374.999991" height="500" preserveAspectRatio="xMidYMid meet" version="1.0"><defs><g/><clipPath id="3d0a7a9dd7"><path d="M 14.738281 93 L 355.238281 93 L 355.238281 234 L 14.738281 234 Z M 14.738281 93 " clip-rule="nonzero"/></clipPath></defs><path fill="#fec75f" d="M 353.019531 163.628906 L 301.398438 95.511719 L 16.953125 95.511719 L 68.574219 163.628906 L 16.953125 231.746094 L 301.398438 231.746094 Z M 353.019531 163.628906 " fill-opacity="1" fill-rule="nonzero"/><g clip-path="url(#3d0a7a9dd7)"><path stroke-linecap="butt" transform="matrix(8.869497, 0, 0, 8.869497, 14.737695, 81.054494)" fill="none" stroke-linejoin="round" d="M 38.139914 9.309932 L 32.319844 1.629994 L 0.249781 1.629994 L 6.069851 9.309932 L 0.249781 16.989871 L 32.319844 16.989871 Z M 38.139914 9.309932 " stroke="#010101" stroke-width="0.5" stroke-opacity="1" stroke-miterlimit="4"/></g><path stroke-linecap="butt" transform="matrix(8.869497, 0, 0, 8.869497, 14.737695, 81.054494)" fill-opacity="1" fill="#ffffff" fill-rule="nonzero" stroke-linejoin="round" d="M 7.410031 5.739937 L 11.400181 0.250177 L 26.989954 0.250177 L 30.980105 5.739937 " stroke="#010101" stroke-width="0.5" stroke-opacity="1" stroke-miterlimit="4"/><path stroke-linecap="butt" transform="matrix(8.869497, 0, 0, 8.869497, 14.737695, 81.054494)" fill-opacity="1" fill="#fec75f" fill-rule="nonzero" stroke-linejoin="round" d="M 7.410031 5.739937 L 30.980105 5.739937 L 30.980105 18.359999 L 7.410031 18.359999 Z M 7.410031 5.739937 " stroke="#010101" stroke-width="0.5" stroke-opacity="1" stroke-miterlimit="4"/><g fill="#000000" fill-opacity="1"><g transform="translate(136.814028, 116.496569)"><g><path d="M 14.96875 -12.25 C 14.96875 -10.238281 14.375 -8.6875 13.1875 -7.59375 C 12.007812 -6.5 10.332031 -5.953125 8.15625 -5.953125 L 6.796875 -5.953125 L 6.796875 0 L 1.9375 0 L 1.9375 -17.953125 L 8.15625 -17.953125 C 10.425781 -17.953125 12.128906 -17.457031 13.265625 -16.46875 C 14.398438 -15.476562 14.96875 -14.070312 14.96875 -12.25 Z M 6.796875 -9.90625 L 7.671875 -9.90625 C 8.398438 -9.90625 8.976562 -10.109375 9.40625 -10.515625 C 9.84375 -10.929688 10.0625 -11.5 10.0625 -12.21875 C 10.0625 -13.4375 9.390625 -14.046875 8.046875 -14.046875 L 6.796875 -14.046875 Z M 6.796875 -9.90625 "/></g></g></g><g fill="#000000" fill-opacity="1"><g transform="translate(152.705555, 116.496569)"><g><path d="M 12.953125 0 L 12.078125 -3.359375 L 6.234375 -3.359375 L 5.328125 0 L 0 0 L 5.859375 -18.03125 L 12.328125 -18.03125 L 18.265625 0 Z M 11.0625 -7.34375 L 10.296875 -10.296875 C 10.109375 -10.953125 9.882812 -11.796875 9.625 -12.828125 C 9.375 -13.867188 9.207031 -14.617188 9.125 -15.078125 C 9.050781 -14.648438 8.90625 -13.957031 8.6875 -13 C 8.46875 -12.050781 7.988281 -10.164062 7.25 -7.34375 Z M 11.0625 -7.34375 "/></g></g></g><g fill="#000000" fill-opacity="1"><g transform="translate(170.96731, 116.496569)"><g><path d="M 17.28125 0 L 11.796875 0 L 8.25 -6.859375 L 6.8125 -6 L 6.8125 0 L 1.9375 0 L 1.9375 -17.953125 L 6.8125 -17.953125 L 6.8125 -10.15625 C 7.0625 -10.644531 7.554688 -11.410156 8.296875 -12.453125 L 12.078125 -17.953125 L 17.375 -17.953125 L 11.71875 -9.90625 Z M 17.28125 0 "/></g></g></g><g fill="#000000" fill-opacity="1"><g transform="translate(188.24659, 116.496569)"><g><path d="M 12.609375 0 L 1.9375 0 L 1.9375 -17.953125 L 12.609375 -17.953125 L 12.609375 -14.0625 L 6.796875 -14.0625 L 6.796875 -11.234375 L 12.171875 -11.234375 L 12.171875 -7.34375 L 6.796875 -7.34375 L 6.796875 -3.953125 L 12.609375 -3.953125 Z M 12.609375 0 "/></g></g></g><g fill="#000000" fill-opacity="1"><g transform="translate(202.050358, 116.496569)"><g><path d="M 9.859375 0 L 5.015625 0 L 5.015625 -13.984375 L 0.625 -13.984375 L 0.625 -17.953125 L 14.234375 -17.953125 L 14.234375 -13.984375 L 9.859375 -13.984375 Z M 9.859375 0 "/></g></g></g><g fill="#000000" fill-opacity="1"><g transform="translate(216.910286, 116.496569)"><g/></g></g><g fill="#000000" fill-opacity="1"><g transform="translate(223.443742, 116.496569)"><g><path d="M 11.578125 0 L 6.640625 0 L 6.640625 -9.5 C 6.640625 -10.65625 6.664062 -11.710938 6.71875 -12.671875 C 6.414062 -12.304688 6.039062 -11.921875 5.59375 -11.515625 L 3.546875 -9.84375 L 1.03125 -12.9375 L 7.203125 -17.953125 L 11.578125 -17.953125 Z M 11.578125 0 "/></g></g></g></svg>