<svg xmlns="http://www.w3.org/2000/svg" xmlns:xlink="http://www.w3.org/1999/xlink" width="500" zoomAndPan="magnify" viewBox="0 0 375 374.999991" height="500" preserveAspectRatio="xMidYMid meet" version="1.0"><defs><g/><clipPath id="1e1bda6766"><path d="M 14.738281 93 L 355.238281 93 L 355.238281 234 L 14.738281 234 Z M 14.738281 93 " clip-rule="nonzero"/></clipPath></defs><path fill="#fec75f" d="M 353.019531 163.628906 L 301.398438 95.511719 L 16.953125 95.511719 L 68.574219 163.628906 L 16.953125 231.746094 L 301.398438 231.746094 Z M 353.019531 163.628906 " fill-opacity="1" fill-rule="nonzero"/><g clip-path="url(#1e1bda6766)"><path stroke-linecap="butt" transform="matrix(8.869497, 0, 0, 8.869497, 14.737695, 81.054494)" fill="none" stroke-linejoin="round" d="M 38.139914 9.309932 L 32.319844 1.629994 L 0.249781 1.629994 L 6.069851 9.309932 L 0.249781 16.989871 L 32.319844 16.989871 Z M 38.139914 9.309932 " stroke="#010101" stroke-width="0.5" stroke-opacity="1" stroke-miterlimit="4"/></g><path stroke-linecap="butt" transform="matrix(8.869497, 0, 0, 8.869497, 14.737695, 81.054494)" fill-opacity="1" fill="#ffffff" fill-rule="nonzero" stroke-linejoin="round" d="M 7.410031 5.739937 L 11.400181 0.250177 L 26.989954 0.250177 L 30.980105 5.739937 " stroke="#010101" stroke-width="0.5" stroke-opacity="1" stroke-miterlimit="4"/><path stroke-linecap="butt" transform="matrix(8.869497, 0, 0, 8.869497, 14.737695, 81.054494)" fill-opacity="1" fill="#fec75f" fill-rule="nonzero" stroke-linejoin="round" d="M 7.410031 5.739937 L 30.980105 5.739937 L 30.980105 18.359999 L 7.410031 18.359999 Z M 7.410031 5.739937 " stroke="#010101" stroke-width="0.5" stroke-opacity="1" stroke-miterlimit="4"/><g fill="#000000" fill-opacity="1"><g transform="translate(136.814028, 116.496569)"><g><path d="M 14.96875 -12.25 C 14.96875 -10.238281 14.375 -8.6875 13.1875 -7.59375 C 12.007812 -6.5 10.332031 -5.953125 8.15625 -5.953125 L 6.796875 -5.953125 L 6.796875 0 L 1.9375 0 L 1.9375 -17.953125 L 8.15625 -17.953125 C 10.425781 -17.953125 12.128906 -17.457031 13.265625 -16.46875 C 14.398438 -15.476562 14.96875 -14.070312 14.96875 -12.25 Z M 6.796875 -9.90625 L 7.671875 -9.90625 C 8.398438 -9.90625 8.976562 -10.109375 9.40625 -10.515625 C 9.84375 -10.929688 10.0625 -11.5 10.0625 -12.21875 C 10.0625 -13.4375 9.390625 -14.046875 8.046875 -14.046875 L 6.796875 -14.046875 Z M 6.796875 -9.90625 "/></g></g></g><g fill="#000000" fill-opacity="1"><g transform="translate(152.705555, 116.496569)"><g><path d="M 12.953125 0 L 12.078125 -3.359375 L 6.234375 -3.359375 L 5.328125 0 L 0 0 L 5.859375 -18.03125 L 12.328125 -18.03125 L 18.265625 0 Z M 11.0625 -7.34375 L 10.296875 -10.296875 C 10.109375 -10.953125 9.882812 -11.796875 9.625 -12.828125 C 9.375 -13.867188 9.207031 -14.617188 9.125 -15.078125 C 9.050781 -14.648438 8.90625 -13.957031 8.6875 -13 C 8.46875 -12.050781 7.988281 -10.164062 7.25 -7.34375 Z M 11.0625 -7.34375 "/></g></g></g><g fill="#000000" fill-opacity="1"><g transform="translate(170.96731, 116.496569)"><g><path d="M 17.28125 0 L 11.796875 0 L 8.25 -6.859375 L 6.8125 -6 L 6.8125 0 L 1.9375 0 L 1.9375 -17.953125 L 6.8125 -17.953125 L 6.8125 -10.15625 C 7.0625 -10.644531 7.554688 -11.410156 8.296875 -12.453125 L 12.078125 -17.953125 L 17.375 -17.953125 L 11.71875 -9.90625 Z M 17.28125 0 "/></g></g></g><g fill="#000000" fill-opacity="1"><g transform="translate(188.24659, 116.496569)"><g><path d="M 12.609375 0 L 1.9375 0 L 1.9375 -17.953125 L 12.609375 -17.953125 L 12.609375 -14.0625 L 6.796875 -14.0625 L 6.796875 -11.234375 L 12.171875 -11.234375 L 12.171875 -7.34375 L 6.796875 -7.34375 L 6.796875 -3.953125 L 12.609375 -3.953125 Z M 12.609375 0 "/></g></g></g><g fill="#000000" fill-opacity="1"><g transform="translate(202.050358, 116.496569)"><g><path d="M 9.859375 0 L 5.015625 0 L 5.015625 -13.984375 L 0.625 -13.984375 L 0.625 -17.953125 L 14.234375 -17.953125 L 14.234375 -13.984375 L 9.859375 -13.984375 Z M 9.859375 0 "/></g></g></g><g fill="#000000" fill-opacity="1"><g transform="translate(216.910286, 116.496569)"><g/></g></g><g fill="#000000" fill-opacity="1"><g transform="translate(223.443742, 116.496569)"><g><path d="M 13.1875 -14.0625 C 13.1875 -12.945312 12.84375 -11.988281 12.15625 -11.1875 C 11.476562 -10.394531 10.5 -9.816406 9.21875 -9.453125 L 9.21875 -9.390625 C 12.207031 -9.003906 13.703125 -7.585938 13.703125 -5.140625 C 13.703125 -3.460938 13.039062 -2.144531 11.71875 -1.1875 C 10.394531 -0.226562 8.5625 0.25 6.21875 0.25 C 5.25 0.25 4.351562 0.175781 3.53125 0.03125 C 2.707031 -0.101562 1.816406 -0.351562 0.859375 -0.71875 L 0.859375 -4.75 C 1.640625 -4.351562 2.4375 -4.054688 3.25 -3.859375 C 4.070312 -3.671875 4.828125 -3.578125 5.515625 -3.578125 C 6.578125 -3.578125 7.351562 -3.722656 7.84375 -4.015625 C 8.332031 -4.316406 8.578125 -4.785156 8.578125 -5.421875 C 8.578125 -5.921875 8.445312 -6.300781 8.1875 -6.5625 C 7.9375 -6.832031 7.523438 -7.035156 6.953125 -7.171875 C 6.390625 -7.304688 5.65625 -7.375 4.75 -7.375 L 3.640625 -7.375 L 3.640625 -11.015625 L 4.78125 -11.015625 C 7.238281 -11.015625 8.46875 -11.644531 8.46875 -12.90625 C 8.46875 -13.382812 8.285156 -13.738281 7.921875 -13.96875 C 7.554688 -14.195312 7.070312 -14.3125 6.46875 -14.3125 C 5.3125 -14.3125 4.125 -13.925781 2.90625 -13.15625 L 0.890625 -16.390625 C 1.835938 -17.046875 2.804688 -17.515625 3.796875 -17.796875 C 4.796875 -18.078125 5.9375 -18.21875 7.21875 -18.21875 C 9.082031 -18.21875 10.539062 -17.847656 11.59375 -17.109375 C 12.65625 -16.367188 13.1875 -15.351562 13.1875 -14.0625 Z M 13.1875 -14.0625 "/></g></g></g></svg>