<svg xmlns="http://www.w3.org/2000/svg" xmlns:xlink="http://www.w3.org/1999/xlink" width="500" zoomAndPan="magnify" viewBox="0 0 375 374.999991" height="500" preserveAspectRatio="xMidYMid meet" version="1.0"><defs><g/><clipPath id="962aa0fb98"><path d="M 0 325 L 375 325 L 375 336.683594 L 0 336.683594 Z M 0 325 " clip-rule="nonzero"/></clipPath><clipPath id="cdba2a8f01"><path d="M 34 38.183594 L 341 38.183594 L 341 283 L 34 283 Z M 34 38.183594 " clip-rule="nonzero"/></clipPath><clipPath id="a04f563163"><path d="M 15 38.183594 L 360 38.183594 L 360 302 L 15 302 Z M 15 38.183594 " clip-rule="nonzero"/></clipPath><clipPath id="b1d06ef1c9"><path d="M 263 38.183594 L 309 38.183594 L 309 82 L 263 82 Z M 263 38.183594 " clip-rule="nonzero"/></clipPath><clipPath id="efc6ac3030"><path d="M 280 38.183594 L 326 38.183594 L 326 82 L 280 82 Z M 280 38.183594 " clip-rule="nonzero"/></clipPath><clipPath id="f3cde0aea7"><path d="M 297 38.183594 L 344 38.183594 L 344 82 L 297 82 Z M 297 38.183594 " clip-rule="nonzero"/></clipPath><clipPath id="8de43485a6"><path d="M 0 0 L 31.5 0 L 31.5 31.5 L 0 31.5 Z M 0 0 " clip-rule="nonzero"/></clipPath><clipPath id="8c0ba61678"><path d="M 94.957031 0 L 126.457031 0 L 126.457031 31.5 L 94.957031 31.5 Z M 94.957031 0 " clip-rule="nonzero"/></clipPath><clipPath id="605fd1b7be"><path d="M 187.5 0 L 219 0 L 219 31.5 L 187.5 31.5 Z M 187.5 0 " clip-rule="nonzero"/></clipPath><clipPath id="a442dbd978"><path d="M 280.84375 0 L 312.34375 0 L 312.34375 31.5 L 280.84375 31.5 Z M 280.84375 0 " clip-rule="nonzero"/></clipPath><clipPath id="31e35b950c"><path d="M 280.84375 94.957031 L 312.34375 94.957031 L 312.34375 126.457031 L 280.84375 126.457031 Z M 280.84375 94.957031 " clip-rule="nonzero"/></clipPath><clipPath id="cf2806af99"><path d="M 187.5 94.957031 L 219 94.957031 L 219 126.457031 L 187.5 126.457031 Z M 187.5 94.957031 " clip-rule="nonzero"/></clipPath><clipPath id="5d36080c37"><path d="M 94.15625 94.957031 L 125.65625 94.957031 L 125.65625 126.457031 L 94.15625 126.457031 Z M 94.15625 94.957031 " clip-rule="nonzero"/></clipPath><clipPath id="8aeca48ce3"><path d="M 0 94.957031 L 31.5 94.957031 L 31.5 126.457031 L 0 126.457031 Z M 0 94.957031 " clip-rule="nonzero"/></clipPath><clipPath id="099fff349d"><path d="M 0 187.5 L 31.5 187.5 L 31.5 219 L 0 219 Z M 0 187.5 " clip-rule="nonzero"/></clipPath><clipPath id="98cce682e1"><path d="M 94.15625 187.5 L 125.65625 187.5 L 125.65625 219 L 94.15625 219 Z M 94.15625 187.5 " clip-rule="nonzero"/></clipPath><clipPath id="1d87caa33a"><path d="M 187.5 187.5 L 219 187.5 L 219 219 L 187.5 219 Z M 187.5 187.5 " clip-rule="nonzero"/></clipPath><clipPath id="1be4a3aa66"><path d="M 280.84375 187.5 L 312.34375 187.5 L 312.34375 219 L 280.84375 219 Z M 280.84375 187.5 " clip-rule="nonzero"/></clipPath><clipPath id="21f0f55ecf"><path d="M 280.84375 280.84375 L 312.34375 280.84375 L 312.34375 312.34375 L 280.84375 312.34375 Z M 280.84375 280.84375 " clip-rule="nonzero"/></clipPath><clipPath id="58755a873c"><path d="M 187.5 280.84375 L 219 280.84375 L 219 312.34375 L 187.5 312.34375 Z M 187.5 280.84375 " clip-rule="nonzero"/></clipPath><clipPath id="f4848a5143"><path d="M 94.957031 280.84375 L 126.457031 280.84375 L 126.457031 312.34375 L 94.957031 312.34375 Z M 94.957031 280.84375 " clip-rule="nonzero"/></clipPath><clipPath id="5a07d84f8d"><path d="M 1.617188 280.84375 L 33.117188 280.84375 L 33.117188 312.34375 L 1.617188 312.34375 Z M 1.617188 280.84375 " clip-rule="nonzero"/></clipPath></defs><g clip-path="url(#962aa0fb98)"><path fill="#010101" d="M 5.902344 325.730469 L 368.910156 325.730469 C 369.265625 325.730469 369.617188 325.765625 369.964844 325.835938 C 370.3125 325.902344 370.652344 326.007812 370.980469 326.140625 C 371.308594 326.277344 371.621094 326.445312 371.917969 326.640625 C 372.210938 326.839844 372.484375 327.0625 372.738281 327.316406 C 372.988281 327.566406 373.214844 327.839844 373.410156 328.136719 C 373.609375 328.429688 373.773438 328.742188 373.910156 329.070312 C 374.046875 329.398438 374.148438 329.738281 374.21875 330.085938 C 374.289062 330.433594 374.324219 330.785156 374.324219 331.140625 C 374.324219 331.496094 374.289062 331.847656 374.21875 332.195312 C 374.148438 332.546875 374.046875 332.882812 373.910156 333.210938 C 373.773438 333.539062 373.609375 333.851562 373.410156 334.148438 C 373.214844 334.441406 372.988281 334.714844 372.738281 334.96875 C 372.484375 335.21875 372.210938 335.441406 371.917969 335.640625 C 371.621094 335.839844 371.308594 336.003906 370.980469 336.140625 C 370.652344 336.277344 370.3125 336.378906 369.964844 336.449219 C 369.617188 336.519531 369.265625 336.550781 368.910156 336.550781 L 5.902344 336.550781 C 5.546875 336.550781 5.191406 336.519531 4.84375 336.449219 C 4.496094 336.378906 4.15625 336.277344 3.828125 336.140625 C 3.5 336.003906 3.1875 335.839844 2.894531 335.640625 C 2.597656 335.441406 2.324219 335.21875 2.074219 334.96875 C 1.820312 334.714844 1.597656 334.441406 1.398438 334.148438 C 1.203125 333.851562 1.035156 333.539062 0.898438 333.210938 C 0.761719 332.882812 0.660156 332.546875 0.589844 332.195312 C 0.523438 331.847656 0.488281 331.496094 0.488281 331.140625 C 0.488281 330.785156 0.523438 330.433594 0.589844 330.085938 C 0.660156 329.738281 0.761719 329.398438 0.898438 329.070312 C 1.035156 328.742188 1.203125 328.429688 1.398438 328.136719 C 1.597656 327.839844 1.820312 327.566406 2.074219 327.316406 C 2.324219 327.0625 2.597656 326.839844 2.894531 326.640625 C 3.1875 326.445312 3.5 326.277344 3.828125 326.140625 C 4.15625 326.007812 4.496094 325.902344 4.84375 325.835938 C 5.191406 325.765625 5.546875 325.730469 5.902344 325.730469 Z M 5.902344 325.730469 " fill-opacity="1" fill-rule="nonzero"/></g><path stroke-linecap="butt" transform="matrix(2.706799, 0, 0, 2.705631, 0.0000045, 38.31095)" fill-opacity="1" fill="#615b67" fill-rule="nonzero" stroke-linejoin="round" d="M 0.249659 100.749657 L 0.249659 105.479376 C 0.249659 106.449575 1.03039 107.230643 2.00017 107.230643 L 136.529727 107.230643 C 137.499507 107.230643 138.280237 106.449575 138.280237 105.479376 L 138.280237 100.749657 Z M 0.249659 100.749657 " stroke="#010101" stroke-width="0.5" stroke-opacity="1" stroke-miterlimit="4"/><path fill="#ffffff" d="M 43.984375 64.824219 L 329.554688 64.824219 L 329.554688 276.597656 L 43.984375 276.597656 Z M 43.984375 64.824219 " fill-opacity="1" fill-rule="nonzero"/><path fill="#ffffff" d="M 43.984375 64.824219 L 329.554688 64.824219 L 329.554688 276.597656 L 43.984375 276.597656 Z M 43.984375 64.824219 " fill-opacity="1" fill-rule="nonzero"/><path stroke-linecap="butt" transform="matrix(2.706799, 0, 0, 2.705631, 0.0000045, 38.31095)" fill-opacity="1" fill="#ffffff" fill-rule="nonzero" stroke-linejoin="miter" d="M 39.459366 36.960528 L 98.549562 36.960528 L 98.549562 84.709614 L 39.459366 84.709614 Z M 39.459366 36.960528 " stroke="#010101" stroke-width="0.5" stroke-opacity="1" stroke-miterlimit="10"/><path stroke-linecap="butt" transform="matrix(2.706799, 0, 0, 2.705631, 0.0000045, 38.31095)" fill-opacity="1" fill="#ffffff" fill-rule="nonzero" stroke-linejoin="miter" d="M 39.459366 12.890357 L 98.549562 12.890357 L 98.549562 23.569763 L 39.459366 23.569763 Z M 39.459366 12.890357 " stroke="#010101" stroke-width="0.5" stroke-opacity="1" stroke-miterlimit="10"/><g clip-path="url(#cdba2a8f01)"><path fill="#615b67" d="M 39.574219 38.988281 L 335.425781 38.988281 C 335.757812 38.988281 336.085938 39.019531 336.410156 39.085938 C 336.734375 39.148438 337.046875 39.242188 337.351562 39.371094 C 337.660156 39.496094 337.949219 39.652344 338.222656 39.835938 C 338.5 40.019531 338.753906 40.226562 338.988281 40.460938 C 339.21875 40.695312 339.429688 40.949219 339.613281 41.222656 C 339.796875 41.5 339.953125 41.789062 340.078125 42.09375 C 340.203125 42.398438 340.300781 42.714844 340.363281 43.039062 C 340.429688 43.363281 340.460938 43.6875 340.460938 44.019531 L 340.460938 277.054688 C 340.460938 277.386719 340.429688 277.714844 340.363281 278.039062 C 340.300781 278.363281 340.203125 278.675781 340.078125 278.980469 C 339.953125 279.285156 339.796875 279.578125 339.613281 279.851562 C 339.429688 280.125 339.21875 280.378906 338.988281 280.613281 C 338.753906 280.847656 338.5 281.054688 338.222656 281.238281 C 337.949219 281.421875 337.660156 281.578125 337.351562 281.707031 C 337.046875 281.832031 336.734375 281.925781 336.410156 281.992188 C 336.085938 282.054688 335.757812 282.089844 335.425781 282.089844 L 39.574219 282.089844 C 39.242188 282.089844 38.914062 282.054688 38.589844 281.992188 C 38.265625 281.925781 37.953125 281.832031 37.648438 281.707031 C 37.339844 281.578125 37.050781 281.421875 36.777344 281.238281 C 36.5 281.054688 36.246094 280.847656 36.011719 280.613281 C 35.78125 280.378906 35.570312 280.125 35.386719 279.851562 C 35.203125 279.578125 35.046875 279.285156 34.921875 278.980469 C 34.796875 278.675781 34.699219 278.363281 34.636719 278.039062 C 34.570312 277.714844 34.539062 277.386719 34.539062 277.054688 L 34.539062 44.019531 C 34.539062 43.6875 34.570312 43.363281 34.636719 43.039062 C 34.699219 42.714844 34.796875 42.398438 34.921875 42.09375 C 35.046875 41.789062 35.203125 41.5 35.386719 41.222656 C 35.570312 40.949219 35.78125 40.695312 36.011719 40.460938 C 36.246094 40.226562 36.5 40.019531 36.777344 39.835938 C 37.050781 39.652344 37.339844 39.496094 37.648438 39.371094 C 37.953125 39.242188 38.265625 39.148438 38.589844 39.085938 C 38.914062 39.019531 39.242188 38.988281 39.574219 38.988281 Z M 39.574219 38.988281 " fill-opacity="1" fill-rule="nonzero"/></g><g clip-path="url(#a04f563163)"><path stroke-linecap="butt" transform="matrix(2.706799, 0, 0, 2.705631, 0.0000045, 38.31095)" fill="none" stroke-linejoin="miter" d="M 14.620298 0.250341 L 123.9197 0.250341 C 124.042366 0.250341 124.163588 0.261891 124.283368 0.286435 C 124.403147 0.309535 124.518597 0.344185 124.631161 0.391829 C 124.745168 0.438029 124.851959 0.495779 124.952978 0.563635 C 125.05544 0.631491 125.149243 0.70801 125.23583 0.794635 C 125.320975 0.881259 125.398903 0.975103 125.46673 1.076165 C 125.534557 1.178672 125.592282 1.285509 125.638462 1.398121 C 125.684642 1.510734 125.72072 1.627677 125.74381 1.747508 C 125.768343 1.86734 125.779888 1.987171 125.779888 2.109889 L 125.779888 88.239578 C 125.779888 88.362297 125.768343 88.483572 125.74381 88.603403 C 125.72072 88.723234 125.684642 88.838734 125.638462 88.951346 C 125.592282 89.063959 125.534557 89.17224 125.46673 89.273302 C 125.398903 89.374365 125.320975 89.468208 125.23583 89.554833 C 125.149243 89.641458 125.05544 89.717977 124.952978 89.785833 C 124.851959 89.853689 124.745168 89.911439 124.631161 89.959083 C 124.518597 90.005283 124.403147 90.039932 124.283368 90.064476 C 124.163588 90.087576 124.042366 90.10057 123.9197 90.10057 L 14.620298 90.10057 C 14.497632 90.10057 14.37641 90.087576 14.25663 90.064476 C 14.136851 90.039932 14.021401 90.005283 13.908837 89.959083 C 13.79483 89.911439 13.688039 89.853689 13.58702 89.785833 C 13.484558 89.717977 13.390755 89.641458 13.304168 89.554833 C 13.219023 89.468208 13.141095 89.374365 13.073268 89.273302 C 13.005441 89.17224 12.947716 89.063959 12.901536 88.951346 C 12.855356 88.838734 12.819278 88.723234 12.796188 88.603403 C 12.771655 88.483572 12.76011 88.362297 12.76011 88.239578 L 12.76011 2.109889 C 12.76011 1.987171 12.771655 1.86734 12.796188 1.747508 C 12.819278 1.627677 12.855356 1.510734 12.901536 1.398121 C 12.947716 1.285509 13.005441 1.178672 13.073268 1.076165 C 13.141095 0.975103 13.219023 0.881259 13.304168 0.794635 C 13.390755 0.70801 13.484558 0.631491 13.58702 0.563635 C 13.688039 0.495779 13.79483 0.438029 13.908837 0.391829 C 14.021401 0.344185 14.136851 0.309535 14.25663 0.286435 C 14.37641 0.261891 14.497632 0.250341 14.620298 0.250341 Z M 14.620298 0.250341 " stroke="#010101" stroke-width="0.5" stroke-opacity="1" stroke-miterlimit="10"/></g><path stroke-linecap="butt" transform="matrix(2.706799, 0, 0, 2.705631, 0.0000045, 38.31095)" fill-opacity="1" fill="#ffffff" fill-rule="nonzero" stroke-linejoin="miter" d="M 15.510706 3.589731 L 123.029292 3.589731 L 123.029292 86.759736 L 15.510706 86.759736 Z M 15.510706 3.589731 " stroke="#010101" stroke-width="0.5" stroke-opacity="1" stroke-miterlimit="10"/><path stroke-linecap="butt" transform="matrix(2.706799, 0, 0, 2.705631, 0.0000045, 38.31095)" fill-opacity="1" fill="#fec75f" fill-rule="nonzero" stroke-linejoin="miter" d="M 15.510706 82.080548 L 123.029292 82.080548 L 123.029292 86.759736 L 15.510706 86.759736 Z M 15.510706 82.080548 " stroke="#010101" stroke-width="0.5" stroke-opacity="1" stroke-miterlimit="10"/><path stroke-linecap="butt" transform="matrix(2.706799, 0, 0, 2.705631, 0.0000045, 38.31095)" fill-opacity="1" fill="#d1c4dd" fill-rule="nonzero" stroke-linejoin="miter" d="M 15.510706 3.589731 L 123.029292 3.589731 L 123.029292 9.799292 L 15.510706 9.799292 Z M 15.510706 3.589731 " stroke="#010101" stroke-width="0.5" stroke-opacity="1" stroke-miterlimit="10"/><path stroke-linecap="butt" transform="matrix(2.706799, 0, 0, 2.705631, 0.0000045, 38.31095)" fill-opacity="1" fill="#77acdd" fill-rule="nonzero" stroke-linejoin="miter" d="M 42.459622 13.580469 L 95.390562 13.580469 L 95.390562 24.830155 L 42.459622 24.830155 Z M 42.459622 13.580469 " stroke="#010101" stroke-width="0.5" stroke-opacity="1" stroke-miterlimit="10"/><path stroke-linecap="butt" transform="matrix(2.706799, 0, 0, 2.705631, 0.0000045, 38.31095)" fill-opacity="1" fill="#f47c4a" fill-rule="nonzero" stroke-linejoin="miter" d="M 42.459622 30.440561 L 95.390562 30.440561 L 95.390562 77.330617 L 42.459622 77.330617 Z M 42.459622 30.440561 " stroke="#010101" stroke-width="0.5" stroke-opacity="1" stroke-miterlimit="10"/><path stroke-linecap="butt" transform="matrix(2.706799, 0, 0, 2.705631, 0.0000045, 38.31095)" fill-opacity="1" fill="#fec75f" fill-rule="nonzero" stroke-linejoin="miter" d="M 37.819976 22.069709 C 37.819976 22.348352 37.806987 22.625552 37.779568 22.902751 C 37.752149 23.178507 37.711741 23.454263 37.656902 23.725688 C 37.602064 23.998556 37.53568 24.268537 37.454865 24.534187 C 37.37405 24.80128 37.280247 25.062599 37.173456 25.319586 C 37.066664 25.576573 36.948328 25.826342 36.817004 26.071779 C 36.687122 26.317216 36.544253 26.555435 36.389839 26.786434 C 36.233981 27.017434 36.069465 27.241215 35.893404 27.456333 C 35.715899 27.671452 35.529736 27.876464 35.333471 28.072814 C 35.137206 28.270607 34.930839 28.456851 34.715814 28.632988 C 34.500788 28.809126 34.278547 28.975157 34.046204 29.129638 C 33.815304 29.284119 33.577188 29.42705 33.331857 29.556987 C 33.086526 29.688368 32.835422 29.806756 32.578546 29.913593 C 32.321669 30.02043 32.060464 30.114274 31.794929 30.195124 C 31.527951 30.27453 31.259529 30.342386 30.986779 30.397249 C 30.714028 30.450667 30.438391 30.492536 30.162754 30.518523 C 29.885674 30.545955 29.608594 30.560392 29.330071 30.560392 C 29.051548 30.560392 28.774468 30.545955 28.497388 30.518523 C 28.221751 30.492536 27.946114 30.450667 27.673364 30.397249 C 27.400613 30.342386 27.132192 30.27453 26.865214 30.195124 C 26.599679 30.114274 26.338473 30.02043 26.081597 29.913593 C 25.82472 29.806756 25.573617 29.688368 25.328285 29.556987 C 25.082954 29.42705 24.844839 29.284119 24.612495 29.129638 C 24.381595 28.975157 24.159354 28.809126 23.944329 28.632988 C 23.729303 28.456851 23.522936 28.270607 23.326671 28.072814 C 23.130406 27.876464 22.944243 27.671452 22.766739 27.456333 C 22.590677 27.241215 22.424718 27.017434 22.270304 26.786434 C 22.115889 26.555435 21.97302 26.317216 21.843139 26.071779 C 21.711814 25.826342 21.592035 25.576573 21.486687 25.319586 C 21.379895 25.062599 21.286092 24.80128 21.205277 24.534187 C 21.124462 24.268537 21.058079 23.998556 21.00324 23.725688 C 20.948401 23.454263 20.907994 23.178507 20.880574 22.902751 C 20.853155 22.625552 20.840167 22.348352 20.840167 22.069709 C 20.840167 21.792509 20.853155 21.513866 20.880574 21.23811 C 20.907994 20.96091 20.948401 20.686598 21.00324 20.41373 C 21.058079 20.140861 21.124462 19.87088 21.205277 19.60523 C 21.286092 19.339581 21.379895 19.078262 21.486687 18.821275 C 21.592035 18.564288 21.711814 18.313076 21.843139 18.067639 C 21.97302 17.822201 22.115889 17.583983 22.270304 17.352983 C 22.424718 17.121984 22.590677 16.899646 22.766739 16.684528 C 22.944243 16.469409 23.130406 16.262953 23.326671 16.066604 C 23.522936 15.870254 23.729303 15.68401 23.944329 15.506429 C 24.159354 15.330292 24.381595 15.165705 24.612495 15.011224 C 24.844839 14.856743 25.082954 14.713811 25.328285 14.58243 C 25.573617 14.451049 25.82472 14.332662 26.081597 14.225825 C 26.338473 14.120431 26.599679 14.026587 26.865214 13.945737 C 27.132192 13.864887 27.400613 13.797031 27.673364 13.743613 C 27.946114 13.68875 28.221751 13.648325 28.497388 13.620894 C 28.774468 13.593463 29.051548 13.580469 29.330071 13.580469 C 29.608594 13.580469 29.885674 13.593463 30.162754 13.620894 C 30.438391 13.648325 30.714028 13.68875 30.986779 13.743613 C 31.259529 13.797031 31.527951 13.864887 31.794929 13.945737 C 32.060464 14.026587 32.321669 14.120431 32.578546 14.225825 C 32.835422 14.332662 33.086526 14.451049 33.331857 14.58243 C 33.577188 14.713811 33.815304 14.856743 34.046204 15.011224 C 34.278547 15.165705 34.500788 15.330292 34.715814 15.506429 C 34.930839 15.68401 35.137206 15.870254 35.333471 16.066604 C 35.529736 16.262953 35.715899 16.469409 35.893404 16.684528 C 36.069465 16.899646 36.233981 17.121984 36.389839 17.352983 C 36.544253 17.583983 36.687122 17.822201 36.817004 18.067639 C 36.948328 18.313076 37.066664 18.564288 37.173456 18.821275 C 37.280247 19.078262 37.37405 19.339581 37.454865 19.60523 C 37.53568 19.87088 37.602064 20.140861 37.656902 20.41373 C 37.711741 20.686598 37.752149 20.96091 37.779568 21.23811 C 37.806987 21.513866 37.819976 21.792509 37.819976 22.069709 Z M 37.819976 22.069709 " stroke="#010101" stroke-width="0.5" stroke-opacity="1" stroke-miterlimit="10"/><path fill="#010101" d="M 41.984375 48.023438 L 333.015625 48.023438 L 333.015625 53.433594 L 41.984375 53.433594 Z M 41.984375 48.023438 " fill-opacity="1" fill-rule="nonzero"/><path fill="#67c189" d="M 289.546875 59.117188 C 289.546875 59.585938 289.457031 60.039062 289.277344 60.472656 C 289.097656 60.90625 288.839844 61.292969 288.507812 61.625 C 288.175781 61.957031 287.792969 62.210938 287.355469 62.390625 C 286.921875 62.570312 286.46875 62.660156 286 62.660156 C 285.53125 62.660156 285.078125 62.570312 284.644531 62.390625 C 284.210938 62.210938 283.824219 61.957031 283.492188 61.625 C 283.160156 61.292969 282.90625 60.90625 282.722656 60.472656 C 282.542969 60.039062 282.453125 59.585938 282.453125 59.117188 C 282.453125 58.648438 282.542969 58.195312 282.722656 57.761719 C 282.90625 57.328125 283.160156 56.941406 283.492188 56.609375 C 283.824219 56.277344 284.210938 56.023438 284.644531 55.84375 C 285.078125 55.664062 285.53125 55.574219 286 55.574219 C 286.46875 55.574219 286.921875 55.664062 287.355469 55.84375 C 287.792969 56.023438 288.175781 56.277344 288.507812 56.609375 C 288.839844 56.941406 289.097656 57.328125 289.277344 57.761719 C 289.457031 58.195312 289.546875 58.648438 289.546875 59.117188 Z M 289.546875 59.117188 " fill-opacity="1" fill-rule="nonzero"/><g clip-path="url(#b1d06ef1c9)"><path stroke-linecap="butt" transform="matrix(2.706799, 0, 0, 2.705631, 0.0000045, 38.31095)" fill="none" stroke-linejoin="miter" d="M 106.970197 7.689976 C 106.970197 7.863226 106.937005 8.030701 106.870621 8.190957 C 106.804237 8.351213 106.708991 8.494144 106.586326 8.616863 C 106.46366 8.739581 106.322234 8.833425 106.160604 8.899837 C 106.000417 8.96625 105.833014 8.999456 105.659839 8.999456 C 105.486664 8.999456 105.319262 8.96625 105.159075 8.899837 C 104.998888 8.833425 104.856019 8.739581 104.733353 8.616863 C 104.610687 8.494144 104.516884 8.351213 104.449057 8.190957 C 104.382674 8.030701 104.349482 7.863226 104.349482 7.689976 C 104.349482 7.516726 104.382674 7.349252 104.449057 7.188996 C 104.516884 7.02874 104.610687 6.885808 104.733353 6.76309 C 104.856019 6.640371 104.998888 6.546528 105.159075 6.480115 C 105.319262 6.413703 105.486664 6.380497 105.659839 6.380497 C 105.833014 6.380497 106.000417 6.413703 106.160604 6.480115 C 106.322234 6.546528 106.46366 6.640371 106.586326 6.76309 C 106.708991 6.885808 106.804237 7.02874 106.870621 7.188996 C 106.937005 7.349252 106.970197 7.516726 106.970197 7.689976 Z M 106.970197 7.689976 " stroke="#010101" stroke-width="0.5" stroke-opacity="1" stroke-miterlimit="10"/></g><path fill="#fec75f" d="M 306.84375 59.117188 C 306.84375 59.585938 306.753906 60.039062 306.574219 60.472656 C 306.394531 60.90625 306.136719 61.292969 305.804688 61.625 C 305.472656 61.957031 305.089844 62.210938 304.652344 62.390625 C 304.21875 62.570312 303.765625 62.660156 303.296875 62.660156 C 302.828125 62.660156 302.375 62.570312 301.941406 62.390625 C 301.503906 62.210938 301.121094 61.957031 300.789062 61.625 C 300.457031 61.292969 300.199219 60.90625 300.019531 60.472656 C 299.839844 60.039062 299.75 59.585938 299.75 59.117188 C 299.75 58.648438 299.839844 58.195312 300.019531 57.761719 C 300.199219 57.328125 300.457031 56.941406 300.789062 56.609375 C 301.121094 56.277344 301.503906 56.023438 301.941406 55.84375 C 302.375 55.664062 302.828125 55.574219 303.296875 55.574219 C 303.765625 55.574219 304.21875 55.664062 304.652344 55.84375 C 305.089844 56.023438 305.472656 56.277344 305.804688 56.609375 C 306.136719 56.941406 306.394531 57.328125 306.574219 57.761719 C 306.753906 58.195312 306.84375 58.648438 306.84375 59.117188 Z M 306.84375 59.117188 " fill-opacity="1" fill-rule="nonzero"/><g clip-path="url(#efc6ac3030)"><path stroke-linecap="butt" transform="matrix(2.706799, 0, 0, 2.705631, 0.0000045, 38.31095)" fill="none" stroke-linejoin="miter" d="M 113.360354 7.689976 C 113.360354 7.863226 113.327163 8.030701 113.260779 8.190957 C 113.194395 8.351213 113.099149 8.494144 112.976483 8.616863 C 112.853818 8.739581 112.712391 8.833425 112.550761 8.899837 C 112.390574 8.96625 112.223172 8.999456 112.049997 8.999456 C 111.876822 8.999456 111.709419 8.96625 111.549233 8.899837 C 111.387603 8.833425 111.246176 8.739581 111.123511 8.616863 C 111.000845 8.494144 110.905599 8.351213 110.839215 8.190957 C 110.772831 8.030701 110.739639 7.863226 110.739639 7.689976 C 110.739639 7.516726 110.772831 7.349252 110.839215 7.188996 C 110.905599 7.02874 111.000845 6.885808 111.123511 6.76309 C 111.246176 6.640371 111.387603 6.546528 111.549233 6.480115 C 111.709419 6.413703 111.876822 6.380497 112.049997 6.380497 C 112.223172 6.380497 112.390574 6.413703 112.550761 6.480115 C 112.712391 6.546528 112.853818 6.640371 112.976483 6.76309 C 113.099149 6.885808 113.194395 7.02874 113.260779 7.188996 C 113.327163 7.349252 113.360354 7.516726 113.360354 7.689976 Z M 113.360354 7.689976 " stroke="#010101" stroke-width="0.5" stroke-opacity="1" stroke-miterlimit="10"/></g><path fill="#f47c4a" d="M 324.140625 59.117188 C 324.140625 59.585938 324.050781 60.039062 323.871094 60.472656 C 323.6875 60.90625 323.433594 61.292969 323.101562 61.625 C 322.769531 61.957031 322.382812 62.210938 321.949219 62.390625 C 321.515625 62.570312 321.0625 62.660156 320.59375 62.660156 C 320.125 62.660156 319.671875 62.570312 319.234375 62.390625 C 318.800781 62.210938 318.417969 61.957031 318.085938 61.625 C 317.753906 61.292969 317.496094 60.90625 317.316406 60.472656 C 317.136719 60.039062 317.046875 59.585938 317.046875 59.117188 C 317.046875 58.648438 317.136719 58.195312 317.316406 57.761719 C 317.496094 57.328125 317.753906 56.941406 318.085938 56.609375 C 318.417969 56.277344 318.800781 56.023438 319.234375 55.84375 C 319.671875 55.664062 320.125 55.574219 320.59375 55.574219 C 321.0625 55.574219 321.515625 55.664062 321.949219 55.84375 C 322.382812 56.023438 322.769531 56.277344 323.101562 56.609375 C 323.433594 56.941406 323.6875 57.328125 323.871094 57.761719 C 324.050781 58.195312 324.140625 58.648438 324.140625 59.117188 Z M 324.140625 59.117188 " fill-opacity="1" fill-rule="nonzero"/><g clip-path="url(#f3cde0aea7)"><path stroke-linecap="butt" transform="matrix(2.706799, 0, 0, 2.705631, 0.0000045, 38.31095)" fill="none" stroke-linejoin="miter" d="M 119.750512 7.689976 C 119.750512 7.863226 119.71732 8.030701 119.650936 8.190957 C 119.583109 8.351213 119.489306 8.494144 119.366641 8.616863 C 119.243975 8.739581 119.101106 8.833425 118.940919 8.899837 C 118.780732 8.96625 118.613329 8.999456 118.440154 8.999456 C 118.266979 8.999456 118.099577 8.96625 117.937947 8.899837 C 117.77776 8.833425 117.636334 8.739581 117.513668 8.616863 C 117.391003 8.494144 117.295756 8.351213 117.229373 8.190957 C 117.162989 8.030701 117.129797 7.863226 117.129797 7.689976 C 117.129797 7.516726 117.162989 7.349252 117.229373 7.188996 C 117.295756 7.02874 117.391003 6.885808 117.513668 6.76309 C 117.636334 6.640371 117.77776 6.546528 117.937947 6.480115 C 118.099577 6.413703 118.266979 6.380497 118.440154 6.380497 C 118.613329 6.380497 118.780732 6.413703 118.940919 6.480115 C 119.101106 6.546528 119.243975 6.640371 119.366641 6.76309 C 119.489306 6.885808 119.583109 7.02874 119.650936 7.188996 C 119.71732 7.349252 119.750512 7.516726 119.750512 7.689976 Z M 119.750512 7.689976 " stroke="#010101" stroke-width="0.5" stroke-opacity="1" stroke-miterlimit="10"/></g><path stroke-linecap="butt" transform="matrix(2.706799, 0, 0, 2.705631, 0.0000045, 38.31095)" fill-opacity="1" fill="#d1c4dd" fill-rule="nonzero" stroke-linejoin="round" d="M 127.650178 91.089537 C 126.950263 90.449957 126.029549 90.10057 125.079973 90.10057 L 13.460025 90.10057 C 12.510449 90.10057 11.589735 90.449957 10.88982 91.089537 L 0.249659 100.749657 L 138.290339 100.749657 Z M 127.650178 91.089537 " stroke="#010101" stroke-width="0.5" stroke-opacity="1" stroke-miterlimit="4"/><path stroke-linecap="butt" transform="matrix(2.706799, 0, 0, 2.705631, 0.0000045, 38.31095)" fill-opacity="1" fill="#615b67" fill-rule="nonzero" stroke-linejoin="round" d="M 124.100091 91.389837 L 14.439907 91.389837 L 8.309512 96.909287 L 130.230486 96.909287 Z M 124.100091 91.389837 " stroke="#010101" stroke-width="0.5" stroke-opacity="1" stroke-miterlimit="4"/><path stroke-linecap="butt" transform="matrix(2.706799, 0, 0, 2.705631, 0.0000045, 38.31095)" fill-opacity="1" fill="#d1c4dd" fill-rule="nonzero" stroke-linejoin="round" d="M 99.510684 97.860717 L 39.020656 97.860717 L 37.759364 99.67984 L 100.770532 99.67984 Z M 99.510684 97.860717 " stroke="#010101" stroke-width="0.5" stroke-opacity="1" stroke-miterlimit="4"/><path stroke-linecap="butt" transform="matrix(2.706799, 0, 0, 2.705631, 0.0000045, 38.31095)" fill="none" stroke-linejoin="round" d="M 11.780228 93.780684 L 126.75977 93.780684 " stroke="#010101" stroke-width="0.5" stroke-opacity="1" stroke-miterlimit="4"/><path stroke-linecap="butt" transform="matrix(2.706799, 0, 0, 2.705631, 0.0000045, 38.31095)" fill="none" stroke-linejoin="round" d="M 17.570045 96.909287 L 20.219623 93.780684 " stroke="#010101" stroke-width="0.42" stroke-opacity="1" stroke-miterlimit="4"/><path stroke-linecap="butt" transform="matrix(2.706799, 0, 0, 2.705631, 0.0000045, 38.31095)" fill="none" stroke-linejoin="round" d="M 26.210035 96.909287 L 28.419459 93.780684 " stroke="#010101" stroke-width="0.42" stroke-opacity="1" stroke-miterlimit="4"/><path stroke-linecap="butt" transform="matrix(2.706799, 0, 0, 2.705631, 0.0000045, 38.31095)" fill="none" stroke-linejoin="round" d="M 34.860126 96.909287 L 36.629397 93.780684 " stroke="#010101" stroke-width="0.42" stroke-opacity="1" stroke-miterlimit="4"/><path stroke-linecap="butt" transform="matrix(2.706799, 0, 0, 2.705631, 0.0000045, 38.31095)" fill="none" stroke-linejoin="round" d="M 43.500116 96.909287 L 44.830677 93.780684 " stroke="#010101" stroke-width="0.42" stroke-opacity="1" stroke-miterlimit="4"/><path stroke-linecap="butt" transform="matrix(2.706799, 0, 0, 2.705631, 0.0000045, 38.31095)" fill="none" stroke-linejoin="round" d="M 52.150207 96.909287 L 53.030513 93.780684 " stroke="#010101" stroke-width="0.42" stroke-opacity="1" stroke-miterlimit="4"/><path stroke-linecap="butt" transform="matrix(2.706799, 0, 0, 2.705631, 0.0000045, 38.31095)" fill="none" stroke-linejoin="round" d="M 60.790196 96.909287 L 61.240451 93.780684 " stroke="#010101" stroke-width="0.42" stroke-opacity="1" stroke-miterlimit="4"/><path stroke-linecap="butt" transform="matrix(2.706799, 0, 0, 2.705631, 0.0000045, 38.31095)" fill="none" stroke-linejoin="round" d="M 69.440288 96.909287 L 69.440288 93.780684 " stroke="#010101" stroke-width="0.42" stroke-opacity="1" stroke-miterlimit="4"/><path stroke-linecap="butt" transform="matrix(2.706799, 0, 0, 2.705631, 0.0000045, 38.31095)" fill="none" stroke-linejoin="round" d="M 78.090379 96.909287 L 77.640124 93.780684 " stroke="#010101" stroke-width="0.42" stroke-opacity="1" stroke-miterlimit="4"/><path stroke-linecap="butt" transform="matrix(2.706799, 0, 0, 2.705631, 0.0000045, 38.31095)" fill="none" stroke-linejoin="round" d="M 86.730369 96.909287 L 85.850062 93.780684 " stroke="#010101" stroke-width="0.42" stroke-opacity="1" stroke-miterlimit="4"/><path stroke-linecap="butt" transform="matrix(2.706799, 0, 0, 2.705631, 0.0000045, 38.31095)" fill="none" stroke-linejoin="round" d="M 95.38046 96.909287 L 94.049899 93.780684 " stroke="#010101" stroke-width="0.42" stroke-opacity="1" stroke-miterlimit="4"/><path stroke-linecap="butt" transform="matrix(2.706799, 0, 0, 2.705631, 0.0000045, 38.31095)" fill="none" stroke-linejoin="round" d="M 104.020449 96.909287 L 102.249735 93.780684 " stroke="#010101" stroke-width="0.42" stroke-opacity="1" stroke-miterlimit="4"/><path stroke-linecap="butt" transform="matrix(2.706799, 0, 0, 2.705631, 0.0000045, 38.31095)" fill="none" stroke-linejoin="round" d="M 112.670541 96.909287 L 110.459673 93.780684 " stroke="#010101" stroke-width="0.42" stroke-opacity="1" stroke-miterlimit="4"/><path stroke-linecap="butt" transform="matrix(2.706799, 0, 0, 2.705631, 0.0000045, 38.31095)" fill="none" stroke-linejoin="round" d="M 121.31053 96.909287 L 118.659509 93.780684 " stroke="#010101" stroke-width="0.42" stroke-opacity="1" stroke-miterlimit="4"/><path stroke-linecap="butt" transform="matrix(2.706799, 0, 0, 2.705631, 0.0000045, 38.31095)" fill="none" stroke-linejoin="round" d="M 24.209864 93.780684 L 26.029644 91.389837 " stroke="#010101" stroke-width="0.42" stroke-opacity="1" stroke-miterlimit="4"/><path stroke-linecap="butt" transform="matrix(2.706799, 0, 0, 2.705631, 0.0000045, 38.31095)" fill="none" stroke-linejoin="round" d="M 32.480413 93.780684 L 33.969718 91.389837 " stroke="#010101" stroke-width="0.42" stroke-opacity="1" stroke-miterlimit="4"/><path stroke-linecap="butt" transform="matrix(2.706799, 0, 0, 2.705631, 0.0000045, 38.31095)" fill="none" stroke-linejoin="round" d="M 40.749519 93.780684 L 41.919894 91.389837 " stroke="#010101" stroke-width="0.42" stroke-opacity="1" stroke-miterlimit="4"/><path stroke-linecap="butt" transform="matrix(2.706799, 0, 0, 2.705631, 0.0000045, 38.31095)" fill="none" stroke-linejoin="round" d="M 49.020069 93.780684 L 49.859968 91.389837 " stroke="#010101" stroke-width="0.42" stroke-opacity="1" stroke-miterlimit="4"/><path stroke-linecap="butt" transform="matrix(2.706799, 0, 0, 2.705631, 0.0000045, 38.31095)" fill="none" stroke-linejoin="round" d="M 57.30072 93.780684 L 57.800041 91.389837 " stroke="#010101" stroke-width="0.42" stroke-opacity="1" stroke-miterlimit="4"/><path stroke-linecap="butt" transform="matrix(2.706799, 0, 0, 2.705631, 0.0000045, 38.31095)" fill="none" stroke-linejoin="round" d="M 65.569826 93.780684 L 65.740115 91.389837 " stroke="#010101" stroke-width="0.42" stroke-opacity="1" stroke-miterlimit="4"/><path stroke-linecap="butt" transform="matrix(2.706799, 0, 0, 2.705631, 0.0000045, 38.31095)" fill="none" stroke-linejoin="round" d="M 73.840376 93.780684 L 73.690291 91.389837 " stroke="#010101" stroke-width="0.42" stroke-opacity="1" stroke-miterlimit="4"/><path stroke-linecap="butt" transform="matrix(2.706799, 0, 0, 2.705631, 0.0000045, 38.31095)" fill="none" stroke-linejoin="round" d="M 82.109482 93.780684 L 81.630365 91.389837 " stroke="#010101" stroke-width="0.42" stroke-opacity="1" stroke-miterlimit="4"/><path stroke-linecap="butt" transform="matrix(2.706799, 0, 0, 2.705631, 0.0000045, 38.31095)" fill="none" stroke-linejoin="round" d="M 90.380032 93.780684 L 89.570439 91.389837 " stroke="#010101" stroke-width="0.42" stroke-opacity="1" stroke-miterlimit="4"/><path stroke-linecap="butt" transform="matrix(2.706799, 0, 0, 2.705631, 0.0000045, 38.31095)" fill="none" stroke-linejoin="round" d="M 98.660683 93.780684 L 97.510512 91.389837 " stroke="#010101" stroke-width="0.42" stroke-opacity="1" stroke-miterlimit="4"/><path stroke-linecap="butt" transform="matrix(2.706799, 0, 0, 2.705631, 0.0000045, 38.31095)" fill="none" stroke-linejoin="round" d="M 106.929789 93.780684 L 105.460688 91.389837 " stroke="#010101" stroke-width="0.42" stroke-opacity="1" stroke-miterlimit="4"/><path stroke-linecap="butt" transform="matrix(2.706799, 0, 0, 2.705631, 0.0000045, 38.31095)" fill="none" stroke-linejoin="round" d="M 115.200339 93.780684 L 113.399319 91.389837 " stroke="#010101" stroke-width="0.42" stroke-opacity="1" stroke-miterlimit="4"/><path stroke-linecap="butt" transform="matrix(2.706799, 0, 0, 2.705631, 0.0000045, 38.31095)" fill="none" stroke-linejoin="round" d="M 0.249659 103.859491 L 138.290339 103.859491 " stroke="#010101" stroke-width="0.5" stroke-opacity="1" stroke-miterlimit="4"/><g clip-path="url(#8de43485a6)"><path fill="#ffffff" d="M 31.5 15.75 C 31.5 16.785156 31.398438 17.808594 31.199219 18.824219 C 30.996094 19.835938 30.695312 20.820312 30.300781 21.777344 C 29.90625 22.734375 29.421875 23.640625 28.84375 24.5 C 28.269531 25.359375 27.617188 26.15625 26.886719 26.886719 C 26.15625 27.617188 25.359375 28.269531 24.5 28.84375 C 23.640625 29.421875 22.734375 29.90625 21.777344 30.300781 C 20.820312 30.695312 19.835938 30.996094 18.824219 31.199219 C 17.808594 31.398438 16.785156 31.5 15.75 31.5 C 14.714844 31.5 13.691406 31.398438 12.675781 31.199219 C 11.664062 30.996094 10.679688 30.695312 9.722656 30.300781 C 8.765625 29.90625 7.859375 29.421875 7 28.84375 C 6.140625 28.269531 5.34375 27.617188 4.613281 26.886719 C 3.882812 26.15625 3.230469 25.359375 2.65625 24.5 C 2.078125 23.640625 1.59375 22.734375 1.199219 21.777344 C 0.804688 20.820312 0.503906 19.835938 0.300781 18.824219 C 0.101562 17.808594 0 16.785156 0 15.75 C 0 14.714844 0.101562 13.691406 0.300781 12.675781 C 0.503906 11.664062 0.804688 10.679688 1.199219 9.722656 C 1.59375 8.765625 2.078125 7.859375 2.65625 7 C 3.230469 6.140625 3.882812 5.34375 4.613281 4.613281 C 5.34375 3.882812 6.140625 3.230469 7 2.65625 C 7.859375 2.078125 8.765625 1.59375 9.722656 1.199219 C 10.679688 0.804688 11.664062 0.503906 12.675781 0.300781 C 13.691406 0.101562 14.714844 0 15.75 0 C 16.785156 0 17.808594 0.101562 18.824219 0.300781 C 19.835938 0.503906 20.820312 0.804688 21.777344 1.199219 C 22.734375 1.59375 23.640625 2.078125 24.5 2.65625 C 25.359375 3.230469 26.15625 3.882812 26.886719 4.613281 C 27.617188 5.34375 28.269531 6.140625 28.84375 7 C 29.421875 7.859375 29.90625 8.765625 30.300781 9.722656 C 30.695312 10.679688 30.996094 11.664062 31.199219 12.675781 C 31.398438 13.691406 31.5 14.714844 31.5 15.75 Z M 31.5 15.75 " fill-opacity="1" fill-rule="nonzero"/></g><g clip-path="url(#8c0ba61678)"><path fill="#ffffff" d="M 126.457031 15.75 C 126.457031 16.785156 126.359375 17.808594 126.15625 18.824219 C 125.953125 19.835938 125.65625 20.820312 125.261719 21.777344 C 124.863281 22.734375 124.378906 23.640625 123.804688 24.5 C 123.230469 25.359375 122.578125 26.15625 121.847656 26.886719 C 121.113281 27.617188 120.320312 28.269531 119.460938 28.84375 C 118.597656 29.421875 117.691406 29.90625 116.734375 30.300781 C 115.78125 30.695312 114.796875 30.996094 113.78125 31.199219 C 112.765625 31.398438 111.742188 31.5 110.707031 31.5 C 109.675781 31.5 108.652344 31.398438 107.636719 31.199219 C 106.621094 30.996094 105.636719 30.695312 104.679688 30.300781 C 103.726562 29.90625 102.820312 29.421875 101.957031 28.84375 C 101.097656 28.269531 100.304688 27.617188 99.570312 26.886719 C 98.839844 26.15625 98.1875 25.359375 97.613281 24.5 C 97.039062 23.640625 96.554688 22.734375 96.15625 21.777344 C 95.761719 20.820312 95.464844 19.835938 95.261719 18.824219 C 95.058594 17.808594 94.957031 16.785156 94.957031 15.75 C 94.957031 14.714844 95.058594 13.691406 95.261719 12.675781 C 95.464844 11.664062 95.761719 10.679688 96.15625 9.722656 C 96.554688 8.765625 97.039062 7.859375 97.613281 7 C 98.1875 6.140625 98.839844 5.34375 99.570312 4.613281 C 100.304688 3.882812 101.097656 3.230469 101.957031 2.65625 C 102.820312 2.078125 103.726562 1.59375 104.679688 1.199219 C 105.636719 0.804688 106.621094 0.503906 107.636719 0.300781 C 108.652344 0.101562 109.675781 0 110.707031 0 C 111.742188 0 112.765625 0.101562 113.78125 0.300781 C 114.796875 0.503906 115.78125 0.804688 116.734375 1.199219 C 117.691406 1.59375 118.597656 2.078125 119.460938 2.65625 C 120.320312 3.230469 121.113281 3.882812 121.847656 4.613281 C 122.578125 5.34375 123.230469 6.140625 123.804688 7 C 124.378906 7.859375 124.863281 8.765625 125.261719 9.722656 C 125.65625 10.679688 125.953125 11.664062 126.15625 12.675781 C 126.359375 13.691406 126.457031 14.714844 126.457031 15.75 Z M 126.457031 15.75 " fill-opacity="1" fill-rule="nonzero"/></g><g clip-path="url(#605fd1b7be)"><path fill="#ffffff" d="M 219 15.75 C 219 16.785156 218.898438 17.808594 218.699219 18.824219 C 218.496094 19.835938 218.195312 20.820312 217.800781 21.777344 C 217.40625 22.734375 216.921875 23.640625 216.34375 24.5 C 215.769531 25.359375 215.117188 26.15625 214.386719 26.886719 C 213.65625 27.617188 212.859375 28.269531 212 28.84375 C 211.140625 29.421875 210.234375 29.90625 209.277344 30.300781 C 208.320312 30.695312 207.335938 30.996094 206.324219 31.199219 C 205.308594 31.398438 204.285156 31.5 203.25 31.5 C 202.214844 31.5 201.191406 31.398438 200.175781 31.199219 C 199.164062 30.996094 198.179688 30.695312 197.222656 30.300781 C 196.265625 29.90625 195.359375 29.421875 194.5 28.84375 C 193.640625 28.269531 192.84375 27.617188 192.113281 26.886719 C 191.382812 26.15625 190.730469 25.359375 190.15625 24.5 C 189.578125 23.640625 189.09375 22.734375 188.699219 21.777344 C 188.304688 20.820312 188.003906 19.835938 187.800781 18.824219 C 187.601562 17.808594 187.5 16.785156 187.5 15.75 C 187.5 14.714844 187.601562 13.691406 187.800781 12.675781 C 188.003906 11.664062 188.304688 10.679688 188.699219 9.722656 C 189.09375 8.765625 189.578125 7.859375 190.15625 7 C 190.730469 6.140625 191.382812 5.34375 192.113281 4.613281 C 192.84375 3.882812 193.640625 3.230469 194.5 2.65625 C 195.359375 2.078125 196.265625 1.59375 197.222656 1.199219 C 198.179688 0.804688 199.164062 0.503906 200.175781 0.300781 C 201.191406 0.101562 202.214844 0 203.25 0 C 204.285156 0 205.308594 0.101562 206.324219 0.300781 C 207.335938 0.503906 208.320312 0.804688 209.277344 1.199219 C 210.234375 1.59375 211.140625 2.078125 212 2.65625 C 212.859375 3.230469 213.65625 3.882812 214.386719 4.613281 C 215.117188 5.34375 215.769531 6.140625 216.34375 7 C 216.921875 7.859375 217.40625 8.765625 217.800781 9.722656 C 218.195312 10.679688 218.496094 11.664062 218.699219 12.675781 C 218.898438 13.691406 219 14.714844 219 15.75 Z M 219 15.75 " fill-opacity="1" fill-rule="nonzero"/></g><g clip-path="url(#a442dbd978)"><path fill="#ffffff" d="M 312.34375 15.75 C 312.34375 16.785156 312.242188 17.808594 312.039062 18.824219 C 311.839844 19.835938 311.539062 20.820312 311.144531 21.777344 C 310.746094 22.734375 310.261719 23.640625 309.6875 24.5 C 309.113281 25.359375 308.460938 26.15625 307.730469 26.886719 C 307 27.617188 306.203125 28.269531 305.34375 28.84375 C 304.484375 29.421875 303.574219 29.90625 302.621094 30.300781 C 301.664062 30.695312 300.679688 30.996094 299.664062 31.199219 C 298.652344 31.398438 297.625 31.5 296.59375 31.5 C 295.558594 31.5 294.535156 31.398438 293.519531 31.199219 C 292.503906 30.996094 291.519531 30.695312 290.566406 30.300781 C 289.609375 29.90625 288.703125 29.421875 287.84375 28.84375 C 286.984375 28.269531 286.1875 27.617188 285.457031 26.886719 C 284.722656 26.15625 284.070312 25.359375 283.496094 24.5 C 282.921875 23.640625 282.4375 22.734375 282.042969 21.777344 C 281.644531 20.820312 281.347656 19.835938 281.144531 18.824219 C 280.945312 17.808594 280.84375 16.785156 280.84375 15.75 C 280.84375 14.714844 280.945312 13.691406 281.144531 12.675781 C 281.347656 11.664062 281.644531 10.679688 282.042969 9.722656 C 282.4375 8.765625 282.921875 7.859375 283.496094 7 C 284.070312 6.140625 284.722656 5.34375 285.457031 4.613281 C 286.1875 3.882812 286.984375 3.230469 287.84375 2.65625 C 288.703125 2.078125 289.609375 1.59375 290.566406 1.199219 C 291.519531 0.804688 292.503906 0.503906 293.519531 0.300781 C 294.535156 0.101562 295.558594 0 296.59375 0 C 297.625 0 298.652344 0.101562 299.664062 0.300781 C 300.679688 0.503906 301.664062 0.804688 302.621094 1.199219 C 303.574219 1.59375 304.484375 2.078125 305.34375 2.65625 C 306.203125 3.230469 307 3.882812 307.730469 4.613281 C 308.460938 5.34375 309.113281 6.140625 309.6875 7 C 310.261719 7.859375 310.746094 8.765625 311.144531 9.722656 C 311.539062 10.679688 311.839844 11.664062 312.039062 12.675781 C 312.242188 13.691406 312.34375 14.714844 312.34375 15.75 Z M 312.34375 15.75 " fill-opacity="1" fill-rule="nonzero"/></g><g clip-path="url(#31e35b950c)"><path fill="#ffffff" d="M 312.34375 110.707031 C 312.34375 111.742188 312.242188 112.765625 312.039062 113.78125 C 311.839844 114.796875 311.539062 115.78125 311.144531 116.734375 C 310.746094 117.691406 310.261719 118.597656 309.6875 119.460938 C 309.113281 120.320312 308.460938 121.113281 307.730469 121.847656 C 307 122.578125 306.203125 123.230469 305.34375 123.804688 C 304.484375 124.378906 303.574219 124.863281 302.621094 125.261719 C 301.664062 125.65625 300.679688 125.953125 299.664062 126.15625 C 298.652344 126.359375 297.625 126.457031 296.59375 126.457031 C 295.558594 126.457031 294.535156 126.359375 293.519531 126.15625 C 292.503906 125.953125 291.519531 125.65625 290.566406 125.261719 C 289.609375 124.863281 288.703125 124.378906 287.84375 123.804688 C 286.984375 123.230469 286.1875 122.578125 285.457031 121.847656 C 284.722656 121.113281 284.070312 120.320312 283.496094 119.460938 C 282.921875 118.597656 282.4375 117.691406 282.042969 116.734375 C 281.644531 115.78125 281.347656 114.796875 281.144531 113.78125 C 280.945312 112.765625 280.84375 111.742188 280.84375 110.707031 C 280.84375 109.675781 280.945312 108.652344 281.144531 107.636719 C 281.347656 106.621094 281.644531 105.636719 282.042969 104.679688 C 282.4375 103.726562 282.921875 102.820312 283.496094 101.957031 C 284.070312 101.097656 284.722656 100.304688 285.457031 99.570312 C 286.1875 98.839844 286.984375 98.1875 287.84375 97.613281 C 288.703125 97.039062 289.609375 96.554688 290.566406 96.15625 C 291.519531 95.761719 292.503906 95.464844 293.519531 95.261719 C 294.535156 95.058594 295.558594 94.957031 296.59375 94.957031 C 297.625 94.957031 298.652344 95.058594 299.664062 95.261719 C 300.679688 95.464844 301.664062 95.761719 302.621094 96.15625 C 303.574219 96.554688 304.484375 97.039062 305.34375 97.613281 C 306.203125 98.1875 307 98.839844 307.730469 99.570312 C 308.460938 100.304688 309.113281 101.097656 309.6875 101.957031 C 310.261719 102.820312 310.746094 103.726562 311.144531 104.679688 C 311.539062 105.636719 311.839844 106.621094 312.039062 107.636719 C 312.242188 108.652344 312.34375 109.675781 312.34375 110.707031 Z M 312.34375 110.707031 " fill-opacity="1" fill-rule="nonzero"/></g><g clip-path="url(#cf2806af99)"><path fill="#ffffff" d="M 219 110.707031 C 219 111.742188 218.898438 112.765625 218.699219 113.78125 C 218.496094 114.796875 218.195312 115.78125 217.800781 116.734375 C 217.40625 117.691406 216.921875 118.597656 216.34375 119.460938 C 215.769531 120.320312 215.117188 121.113281 214.386719 121.847656 C 213.65625 122.578125 212.859375 123.230469 212 123.804688 C 211.140625 124.378906 210.234375 124.863281 209.277344 125.261719 C 208.320312 125.65625 207.335938 125.953125 206.324219 126.15625 C 205.308594 126.359375 204.285156 126.457031 203.25 126.457031 C 202.214844 126.457031 201.191406 126.359375 200.175781 126.15625 C 199.164062 125.953125 198.179688 125.65625 197.222656 125.261719 C 196.265625 124.863281 195.359375 124.378906 194.5 123.804688 C 193.640625 123.230469 192.84375 122.578125 192.113281 121.847656 C 191.382812 121.113281 190.730469 120.320312 190.15625 119.460938 C 189.578125 118.597656 189.09375 117.691406 188.699219 116.734375 C 188.304688 115.78125 188.003906 114.796875 187.800781 113.78125 C 187.601562 112.765625 187.5 111.742188 187.5 110.707031 C 187.5 109.675781 187.601562 108.652344 187.800781 107.636719 C 188.003906 106.621094 188.304688 105.636719 188.699219 104.679688 C 189.09375 103.726562 189.578125 102.820312 190.15625 101.957031 C 190.730469 101.097656 191.382812 100.304688 192.113281 99.570312 C 192.84375 98.839844 193.640625 98.1875 194.5 97.613281 C 195.359375 97.039062 196.265625 96.554688 197.222656 96.15625 C 198.179688 95.761719 199.164062 95.464844 200.175781 95.261719 C 201.191406 95.058594 202.214844 94.957031 203.25 94.957031 C 204.285156 94.957031 205.308594 95.058594 206.324219 95.261719 C 207.335938 95.464844 208.320312 95.761719 209.277344 96.15625 C 210.234375 96.554688 211.140625 97.039062 212 97.613281 C 212.859375 98.1875 213.65625 98.839844 214.386719 99.570312 C 215.117188 100.304688 215.769531 101.097656 216.34375 101.957031 C 216.921875 102.820312 217.40625 103.726562 217.800781 104.679688 C 218.195312 105.636719 218.496094 106.621094 218.699219 107.636719 C 218.898438 108.652344 219 109.675781 219 110.707031 Z M 219 110.707031 " fill-opacity="1" fill-rule="nonzero"/></g><g clip-path="url(#5d36080c37)"><path fill="#ffffff" d="M 125.65625 110.707031 C 125.65625 111.742188 125.554688 112.765625 125.355469 113.78125 C 125.152344 114.796875 124.855469 115.78125 124.457031 116.734375 C 124.0625 117.691406 123.578125 118.597656 123.003906 119.460938 C 122.429688 120.320312 121.777344 121.113281 121.042969 121.847656 C 120.3125 122.578125 119.515625 123.230469 118.65625 123.804688 C 117.796875 124.378906 116.890625 124.863281 115.933594 125.261719 C 114.980469 125.65625 113.996094 125.953125 112.980469 126.15625 C 111.964844 126.359375 110.941406 126.457031 109.90625 126.457031 C 108.875 126.457031 107.847656 126.359375 106.835938 126.15625 C 105.820312 125.953125 104.835938 125.65625 103.878906 125.261719 C 102.925781 124.863281 102.015625 124.378906 101.15625 123.804688 C 100.296875 123.230469 99.5 122.578125 98.769531 121.847656 C 98.039062 121.113281 97.386719 120.320312 96.8125 119.460938 C 96.238281 118.597656 95.753906 117.691406 95.355469 116.734375 C 94.960938 115.78125 94.660156 114.796875 94.460938 113.78125 C 94.257812 112.765625 94.15625 111.742188 94.15625 110.707031 C 94.15625 109.675781 94.257812 108.652344 94.460938 107.636719 C 94.660156 106.621094 94.960938 105.636719 95.355469 104.679688 C 95.753906 103.726562 96.238281 102.820312 96.8125 101.957031 C 97.386719 101.097656 98.039062 100.304688 98.769531 99.570312 C 99.5 98.839844 100.296875 98.1875 101.15625 97.613281 C 102.015625 97.039062 102.925781 96.554688 103.878906 96.15625 C 104.835938 95.761719 105.820312 95.464844 106.835938 95.261719 C 107.847656 95.058594 108.875 94.957031 109.90625 94.957031 C 110.941406 94.957031 111.964844 95.058594 112.980469 95.261719 C 113.996094 95.464844 114.980469 95.761719 115.933594 96.15625 C 116.890625 96.554688 117.796875 97.039062 118.65625 97.613281 C 119.515625 98.1875 120.3125 98.839844 121.042969 99.570312 C 121.777344 100.304688 122.429688 101.097656 123.003906 101.957031 C 123.578125 102.820312 124.0625 103.726562 124.457031 104.679688 C 124.855469 105.636719 125.152344 106.621094 125.355469 107.636719 C 125.554688 108.652344 125.65625 109.675781 125.65625 110.707031 Z M 125.65625 110.707031 " fill-opacity="1" fill-rule="nonzero"/></g><g clip-path="url(#8aeca48ce3)"><path fill="#ffffff" d="M 31.5 110.707031 C 31.5 111.742188 31.398438 112.765625 31.199219 113.78125 C 30.996094 114.796875 30.695312 115.78125 30.300781 116.734375 C 29.90625 117.691406 29.421875 118.597656 28.84375 119.460938 C 28.269531 120.320312 27.617188 121.113281 26.886719 121.847656 C 26.15625 122.578125 25.359375 123.230469 24.5 123.804688 C 23.640625 124.378906 22.734375 124.863281 21.777344 125.261719 C 20.820312 125.65625 19.835938 125.953125 18.824219 126.15625 C 17.808594 126.359375 16.785156 126.457031 15.75 126.457031 C 14.714844 126.457031 13.691406 126.359375 12.675781 126.15625 C 11.664062 125.953125 10.679688 125.65625 9.722656 125.261719 C 8.765625 124.863281 7.859375 124.378906 7 123.804688 C 6.140625 123.230469 5.34375 122.578125 4.613281 121.847656 C 3.882812 121.113281 3.230469 120.320312 2.65625 119.460938 C 2.078125 118.597656 1.59375 117.691406 1.199219 116.734375 C 0.804688 115.78125 0.503906 114.796875 0.300781 113.78125 C 0.101562 112.765625 0 111.742188 0 110.707031 C 0 109.675781 0.101562 108.652344 0.300781 107.636719 C 0.503906 106.621094 0.804688 105.636719 1.199219 104.679688 C 1.59375 103.726562 2.078125 102.820312 2.65625 101.957031 C 3.230469 101.097656 3.882812 100.304688 4.613281 99.570312 C 5.34375 98.839844 6.140625 98.1875 7 97.613281 C 7.859375 97.039062 8.765625 96.554688 9.722656 96.15625 C 10.679688 95.761719 11.664062 95.464844 12.675781 95.261719 C 13.691406 95.058594 14.714844 94.957031 15.75 94.957031 C 16.785156 94.957031 17.808594 95.058594 18.824219 95.261719 C 19.835938 95.464844 20.820312 95.761719 21.777344 96.15625 C 22.734375 96.554688 23.640625 97.039062 24.5 97.613281 C 25.359375 98.1875 26.15625 98.839844 26.886719 99.570312 C 27.617188 100.304688 28.269531 101.097656 28.84375 101.957031 C 29.421875 102.820312 29.90625 103.726562 30.300781 104.679688 C 30.695312 105.636719 30.996094 106.621094 31.199219 107.636719 C 31.398438 108.652344 31.5 109.675781 31.5 110.707031 Z M 31.5 110.707031 " fill-opacity="1" fill-rule="nonzero"/></g><g clip-path="url(#099fff349d)"><path fill="#ffffff" d="M 31.5 203.25 C 31.5 204.285156 31.398438 205.308594 31.199219 206.324219 C 30.996094 207.335938 30.695312 208.320312 30.300781 209.277344 C 29.90625 210.234375 29.421875 211.140625 28.84375 212 C 28.269531 212.859375 27.617188 213.65625 26.886719 214.386719 C 26.15625 215.117188 25.359375 215.769531 24.5 216.34375 C 23.640625 216.921875 22.734375 217.40625 21.777344 217.800781 C 20.820312 218.195312 19.835938 218.496094 18.824219 218.699219 C 17.808594 218.898438 16.785156 219 15.75 219 C 14.714844 219 13.691406 218.898438 12.675781 218.699219 C 11.664062 218.496094 10.679688 218.195312 9.722656 217.800781 C 8.765625 217.40625 7.859375 216.921875 7 216.34375 C 6.140625 215.769531 5.34375 215.117188 4.613281 214.386719 C 3.882812 213.65625 3.230469 212.859375 2.65625 212 C 2.078125 211.140625 1.59375 210.234375 1.199219 209.277344 C 0.804688 208.320312 0.503906 207.335938 0.300781 206.324219 C 0.101562 205.308594 0 204.285156 0 203.25 C 0 202.214844 0.101562 201.191406 0.300781 200.175781 C 0.503906 199.164062 0.804688 198.179688 1.199219 197.222656 C 1.59375 196.265625 2.078125 195.359375 2.65625 194.5 C 3.230469 193.640625 3.882812 192.84375 4.613281 192.113281 C 5.34375 191.382812 6.140625 190.730469 7 190.15625 C 7.859375 189.578125 8.765625 189.09375 9.722656 188.699219 C 10.679688 188.304688 11.664062 188.003906 12.675781 187.800781 C 13.691406 187.601562 14.714844 187.5 15.75 187.5 C 16.785156 187.5 17.808594 187.601562 18.824219 187.800781 C 19.835938 188.003906 20.820312 188.304688 21.777344 188.699219 C 22.734375 189.09375 23.640625 189.578125 24.5 190.15625 C 25.359375 190.730469 26.15625 191.382812 26.886719 192.113281 C 27.617188 192.84375 28.269531 193.640625 28.84375 194.5 C 29.421875 195.359375 29.90625 196.265625 30.300781 197.222656 C 30.695312 198.179688 30.996094 199.164062 31.199219 200.175781 C 31.398438 201.191406 31.5 202.214844 31.5 203.25 Z M 31.5 203.25 " fill-opacity="1" fill-rule="nonzero"/></g><g clip-path="url(#98cce682e1)"><path fill="#ffffff" d="M 125.65625 203.25 C 125.65625 204.285156 125.554688 205.308594 125.355469 206.324219 C 125.152344 207.335938 124.855469 208.320312 124.457031 209.277344 C 124.0625 210.234375 123.578125 211.140625 123.003906 212 C 122.429688 212.859375 121.777344 213.65625 121.042969 214.386719 C 120.3125 215.117188 119.515625 215.769531 118.65625 216.34375 C 117.796875 216.921875 116.890625 217.40625 115.933594 217.800781 C 114.980469 218.195312 113.996094 218.496094 112.980469 218.699219 C 111.964844 218.898438 110.941406 219 109.90625 219 C 108.875 219 107.847656 218.898438 106.835938 218.699219 C 105.820312 218.496094 104.835938 218.195312 103.878906 217.800781 C 102.925781 217.40625 102.015625 216.921875 101.15625 216.34375 C 100.296875 215.769531 99.5 215.117188 98.769531 214.386719 C 98.039062 213.65625 97.386719 212.859375 96.8125 212 C 96.238281 211.140625 95.753906 210.234375 95.355469 209.277344 C 94.960938 208.320312 94.660156 207.335938 94.460938 206.324219 C 94.257812 205.308594 94.15625 204.285156 94.15625 203.25 C 94.15625 202.214844 94.257812 201.191406 94.460938 200.175781 C 94.660156 199.164062 94.960938 198.179688 95.355469 197.222656 C 95.753906 196.265625 96.238281 195.359375 96.8125 194.5 C 97.386719 193.640625 98.039062 192.84375 98.769531 192.113281 C 99.5 191.382812 100.296875 190.730469 101.15625 190.15625 C 102.015625 189.578125 102.925781 189.09375 103.878906 188.699219 C 104.835938 188.304688 105.820312 188.003906 106.835938 187.800781 C 107.847656 187.601562 108.875 187.5 109.90625 187.5 C 110.941406 187.5 111.964844 187.601562 112.980469 187.800781 C 113.996094 188.003906 114.980469 188.304688 115.933594 188.699219 C 116.890625 189.09375 117.796875 189.578125 118.65625 190.15625 C 119.515625 190.730469 120.3125 191.382812 121.042969 192.113281 C 121.777344 192.84375 122.429688 193.640625 123.003906 194.5 C 123.578125 195.359375 124.0625 196.265625 124.457031 197.222656 C 124.855469 198.179688 125.152344 199.164062 125.355469 200.175781 C 125.554688 201.191406 125.65625 202.214844 125.65625 203.25 Z M 125.65625 203.25 " fill-opacity="1" fill-rule="nonzero"/></g><g clip-path="url(#1d87caa33a)"><path fill="#ffffff" d="M 219 203.25 C 219 204.285156 218.898438 205.308594 218.699219 206.324219 C 218.496094 207.335938 218.195312 208.320312 217.800781 209.277344 C 217.40625 210.234375 216.921875 211.140625 216.34375 212 C 215.769531 212.859375 215.117188 213.65625 214.386719 214.386719 C 213.65625 215.117188 212.859375 215.769531 212 216.34375 C 211.140625 216.921875 210.234375 217.40625 209.277344 217.800781 C 208.320312 218.195312 207.335938 218.496094 206.324219 218.699219 C 205.308594 218.898438 204.285156 219 203.25 219 C 202.214844 219 201.191406 218.898438 200.175781 218.699219 C 199.164062 218.496094 198.179688 218.195312 197.222656 217.800781 C 196.265625 217.40625 195.359375 216.921875 194.5 216.34375 C 193.640625 215.769531 192.84375 215.117188 192.113281 214.386719 C 191.382812 213.65625 190.730469 212.859375 190.15625 212 C 189.578125 211.140625 189.09375 210.234375 188.699219 209.277344 C 188.304688 208.320312 188.003906 207.335938 187.800781 206.324219 C 187.601562 205.308594 187.5 204.285156 187.5 203.25 C 187.5 202.214844 187.601562 201.191406 187.800781 200.175781 C 188.003906 199.164062 188.304688 198.179688 188.699219 197.222656 C 189.09375 196.265625 189.578125 195.359375 190.15625 194.5 C 190.730469 193.640625 191.382812 192.84375 192.113281 192.113281 C 192.84375 191.382812 193.640625 190.730469 194.5 190.15625 C 195.359375 189.578125 196.265625 189.09375 197.222656 188.699219 C 198.179688 188.304688 199.164062 188.003906 200.175781 187.800781 C 201.191406 187.601562 202.214844 187.5 203.25 187.5 C 204.285156 187.5 205.308594 187.601562 206.324219 187.800781 C 207.335938 188.003906 208.320312 188.304688 209.277344 188.699219 C 210.234375 189.09375 211.140625 189.578125 212 190.15625 C 212.859375 190.730469 213.65625 191.382812 214.386719 192.113281 C 215.117188 192.84375 215.769531 193.640625 216.34375 194.5 C 216.921875 195.359375 217.40625 196.265625 217.800781 197.222656 C 218.195312 198.179688 218.496094 199.164062 218.699219 200.175781 C 218.898438 201.191406 219 202.214844 219 203.25 Z M 219 203.25 " fill-opacity="1" fill-rule="nonzero"/></g><g clip-path="url(#1be4a3aa66)"><path fill="#ffffff" d="M 312.34375 203.25 C 312.34375 204.285156 312.242188 205.308594 312.039062 206.324219 C 311.839844 207.335938 311.539062 208.320312 311.144531 209.277344 C 310.746094 210.234375 310.261719 211.140625 309.6875 212 C 309.113281 212.859375 308.460938 213.65625 307.730469 214.386719 C 307 215.117188 306.203125 215.769531 305.34375 216.34375 C 304.484375 216.921875 303.574219 217.40625 302.621094 217.800781 C 301.664062 218.195312 300.679688 218.496094 299.664062 218.699219 C 298.652344 218.898438 297.625 219 296.59375 219 C 295.558594 219 294.535156 218.898438 293.519531 218.699219 C 292.503906 218.496094 291.519531 218.195312 290.566406 217.800781 C 289.609375 217.40625 288.703125 216.921875 287.84375 216.34375 C 286.984375 215.769531 286.1875 215.117188 285.457031 214.386719 C 284.722656 213.65625 284.070312 212.859375 283.496094 212 C 282.921875 211.140625 282.4375 210.234375 282.042969 209.277344 C 281.644531 208.320312 281.347656 207.335938 281.144531 206.324219 C 280.945312 205.308594 280.84375 204.285156 280.84375 203.25 C 280.84375 202.214844 280.945312 201.191406 281.144531 200.175781 C 281.347656 199.164062 281.644531 198.179688 282.042969 197.222656 C 282.4375 196.265625 282.921875 195.359375 283.496094 194.5 C 284.070312 193.640625 284.722656 192.84375 285.457031 192.113281 C 286.1875 191.382812 286.984375 190.730469 287.84375 190.15625 C 288.703125 189.578125 289.609375 189.09375 290.566406 188.699219 C 291.519531 188.304688 292.503906 188.003906 293.519531 187.800781 C 294.535156 187.601562 295.558594 187.5 296.59375 187.5 C 297.625 187.5 298.652344 187.601562 299.664062 187.800781 C 300.679688 188.003906 301.664062 188.304688 302.621094 188.699219 C 303.574219 189.09375 304.484375 189.578125 305.34375 190.15625 C 306.203125 190.730469 307 191.382812 307.730469 192.113281 C 308.460938 192.84375 309.113281 193.640625 309.6875 194.5 C 310.261719 195.359375 310.746094 196.265625 311.144531 197.222656 C 311.539062 198.179688 311.839844 199.164062 312.039062 200.175781 C 312.242188 201.191406 312.34375 202.214844 312.34375 203.25 Z M 312.34375 203.25 " fill-opacity="1" fill-rule="nonzero"/></g><g clip-path="url(#21f0f55ecf)"><path fill="#ffffff" d="M 312.34375 296.59375 C 312.34375 297.625 312.242188 298.652344 312.039062 299.664062 C 311.839844 300.679688 311.539062 301.664062 311.144531 302.621094 C 310.746094 303.574219 310.261719 304.484375 309.6875 305.34375 C 309.113281 306.203125 308.460938 307 307.730469 307.730469 C 307 308.460938 306.203125 309.113281 305.34375 309.6875 C 304.484375 310.261719 303.574219 310.746094 302.621094 311.144531 C 301.664062 311.539062 300.679688 311.839844 299.664062 312.039062 C 298.652344 312.242188 297.625 312.34375 296.59375 312.34375 C 295.558594 312.34375 294.535156 312.242188 293.519531 312.039062 C 292.503906 311.839844 291.519531 311.539062 290.566406 311.144531 C 289.609375 310.746094 288.703125 310.261719 287.84375 309.6875 C 286.984375 309.113281 286.1875 308.460938 285.457031 307.730469 C 284.722656 307 284.070312 306.203125 283.496094 305.34375 C 282.921875 304.484375 282.4375 303.574219 282.042969 302.621094 C 281.644531 301.664062 281.347656 300.679688 281.144531 299.664062 C 280.945312 298.652344 280.84375 297.625 280.84375 296.59375 C 280.84375 295.558594 280.945312 294.535156 281.144531 293.519531 C 281.347656 292.503906 281.644531 291.519531 282.042969 290.566406 C 282.4375 289.609375 282.921875 288.703125 283.496094 287.84375 C 284.070312 286.984375 284.722656 286.1875 285.457031 285.457031 C 286.1875 284.722656 286.984375 284.070312 287.84375 283.496094 C 288.703125 282.921875 289.609375 282.4375 290.566406 282.042969 C 291.519531 281.644531 292.503906 281.347656 293.519531 281.144531 C 294.535156 280.945312 295.558594 280.84375 296.59375 280.84375 C 297.625 280.84375 298.652344 280.945312 299.664062 281.144531 C 300.679688 281.347656 301.664062 281.644531 302.621094 282.042969 C 303.574219 282.4375 304.484375 282.921875 305.34375 283.496094 C 306.203125 284.070312 307 284.722656 307.730469 285.457031 C 308.460938 286.1875 309.113281 286.984375 309.6875 287.84375 C 310.261719 288.703125 310.746094 289.609375 311.144531 290.566406 C 311.539062 291.519531 311.839844 292.503906 312.039062 293.519531 C 312.242188 294.535156 312.34375 295.558594 312.34375 296.59375 Z M 312.34375 296.59375 " fill-opacity="1" fill-rule="nonzero"/></g><g clip-path="url(#58755a873c)"><path fill="#ffffff" d="M 219 296.59375 C 219 297.625 218.898438 298.652344 218.699219 299.664062 C 218.496094 300.679688 218.195312 301.664062 217.800781 302.621094 C 217.40625 303.574219 216.921875 304.484375 216.34375 305.34375 C 215.769531 306.203125 215.117188 307 214.386719 307.730469 C 213.65625 308.460938 212.859375 309.113281 212 309.6875 C 211.140625 310.261719 210.234375 310.746094 209.277344 311.144531 C 208.320312 311.539062 207.335938 311.839844 206.324219 312.039062 C 205.308594 312.242188 204.285156 312.34375 203.25 312.34375 C 202.214844 312.34375 201.191406 312.242188 200.175781 312.039062 C 199.164062 311.839844 198.179688 311.539062 197.222656 311.144531 C 196.265625 310.746094 195.359375 310.261719 194.5 309.6875 C 193.640625 309.113281 192.84375 308.460938 192.113281 307.730469 C 191.382812 307 190.730469 306.203125 190.15625 305.34375 C 189.578125 304.484375 189.09375 303.574219 188.699219 302.621094 C 188.304688 301.664062 188.003906 300.679688 187.800781 299.664062 C 187.601562 298.652344 187.5 297.625 187.5 296.59375 C 187.5 295.558594 187.601562 294.535156 187.800781 293.519531 C 188.003906 292.503906 188.304688 291.519531 188.699219 290.566406 C 189.09375 289.609375 189.578125 288.703125 190.15625 287.84375 C 190.730469 286.984375 191.382812 286.1875 192.113281 285.457031 C 192.84375 284.722656 193.640625 284.070312 194.5 283.496094 C 195.359375 282.921875 196.265625 282.4375 197.222656 282.042969 C 198.179688 281.644531 199.164062 281.347656 200.175781 281.144531 C 201.191406 280.945312 202.214844 280.84375 203.25 280.84375 C 204.285156 280.84375 205.308594 280.945312 206.324219 281.144531 C 207.335938 281.347656 208.320312 281.644531 209.277344 282.042969 C 210.234375 282.4375 211.140625 282.921875 212 283.496094 C 212.859375 284.070312 213.65625 284.722656 214.386719 285.457031 C 215.117188 286.1875 215.769531 286.984375 216.34375 287.84375 C 216.921875 288.703125 217.40625 289.609375 217.800781 290.566406 C 218.195312 291.519531 218.496094 292.503906 218.699219 293.519531 C 218.898438 294.535156 219 295.558594 219 296.59375 Z M 219 296.59375 " fill-opacity="1" fill-rule="nonzero"/></g><g clip-path="url(#f4848a5143)"><path fill="#ffffff" d="M 126.457031 296.59375 C 126.457031 297.625 126.359375 298.652344 126.15625 299.664062 C 125.953125 300.679688 125.65625 301.664062 125.261719 302.621094 C 124.863281 303.574219 124.378906 304.484375 123.804688 305.34375 C 123.230469 306.203125 122.578125 307 121.847656 307.730469 C 121.113281 308.460938 120.320312 309.113281 119.460938 309.6875 C 118.597656 310.261719 117.691406 310.746094 116.734375 311.144531 C 115.78125 311.539062 114.796875 311.839844 113.78125 312.039062 C 112.765625 312.242188 111.742188 312.34375 110.707031 312.34375 C 109.675781 312.34375 108.652344 312.242188 107.636719 312.039062 C 106.621094 311.839844 105.636719 311.539062 104.679688 311.144531 C 103.726562 310.746094 102.820312 310.261719 101.957031 309.6875 C 101.097656 309.113281 100.304688 308.460938 99.570312 307.730469 C 98.839844 307 98.1875 306.203125 97.613281 305.34375 C 97.039062 304.484375 96.554688 303.574219 96.15625 302.621094 C 95.761719 301.664062 95.464844 300.679688 95.261719 299.664062 C 95.058594 298.652344 94.957031 297.625 94.957031 296.59375 C 94.957031 295.558594 95.058594 294.535156 95.261719 293.519531 C 95.464844 292.503906 95.761719 291.519531 96.15625 290.566406 C 96.554688 289.609375 97.039062 288.703125 97.613281 287.84375 C 98.1875 286.984375 98.839844 286.1875 99.570312 285.457031 C 100.304688 284.722656 101.097656 284.070312 101.957031 283.496094 C 102.820312 282.921875 103.726562 282.4375 104.679688 282.042969 C 105.636719 281.644531 106.621094 281.347656 107.636719 281.144531 C 108.652344 280.945312 109.675781 280.84375 110.707031 280.84375 C 111.742188 280.84375 112.765625 280.945312 113.78125 281.144531 C 114.796875 281.347656 115.78125 281.644531 116.734375 282.042969 C 117.691406 282.4375 118.597656 282.921875 119.460938 283.496094 C 120.320312 284.070312 121.113281 284.722656 121.847656 285.457031 C 122.578125 286.1875 123.230469 286.984375 123.804688 287.84375 C 124.378906 288.703125 124.863281 289.609375 125.261719 290.566406 C 125.65625 291.519531 125.953125 292.503906 126.15625 293.519531 C 126.359375 294.535156 126.457031 295.558594 126.457031 296.59375 Z M 126.457031 296.59375 " fill-opacity="1" fill-rule="nonzero"/></g><g clip-path="url(#5a07d84f8d)"><path fill="#ffffff" d="M 33.117188 296.59375 C 33.117188 297.625 33.015625 298.652344 32.8125 299.664062 C 32.613281 300.679688 32.3125 301.664062 31.917969 302.621094 C 31.523438 303.574219 31.035156 304.484375 30.460938 305.34375 C 29.886719 306.203125 29.234375 307 28.503906 307.730469 C 27.773438 308.460938 26.976562 309.113281 26.117188 309.6875 C 25.257812 310.261719 24.347656 310.746094 23.394531 311.144531 C 22.4375 311.539062 21.453125 311.839844 20.4375 312.039062 C 19.425781 312.242188 18.402344 312.34375 17.367188 312.34375 C 16.332031 312.34375 15.308594 312.242188 14.292969 312.039062 C 13.28125 311.839844 12.292969 311.539062 11.339844 311.144531 C 10.382812 310.746094 9.476562 310.261719 8.617188 309.6875 C 7.757812 309.113281 6.960938 308.460938 6.230469 307.730469 C 5.5 307 4.84375 306.203125 4.269531 305.34375 C 3.695312 304.484375 3.210938 303.574219 2.816406 302.621094 C 2.417969 301.664062 2.121094 300.679688 1.917969 299.664062 C 1.71875 298.652344 1.617188 297.625 1.617188 296.59375 C 1.617188 295.558594 1.71875 294.535156 1.917969 293.519531 C 2.121094 292.503906 2.417969 291.519531 2.816406 290.566406 C 3.210938 289.609375 3.695312 288.703125 4.269531 287.84375 C 4.84375 286.984375 5.5 286.1875 6.230469 285.457031 C 6.960938 284.722656 7.757812 284.070312 8.617188 283.496094 C 9.476562 282.921875 10.382812 282.4375 11.339844 282.042969 C 12.292969 281.644531 13.28125 281.347656 14.292969 281.144531 C 15.308594 280.945312 16.332031 280.84375 17.367188 280.84375 C 18.402344 280.84375 19.425781 280.945312 20.4375 281.144531 C 21.453125 281.347656 22.4375 281.644531 23.394531 282.042969 C 24.347656 282.4375 25.257812 282.921875 26.117188 283.496094 C 26.976562 284.070312 27.773438 284.722656 28.503906 285.457031 C 29.234375 286.1875 29.886719 286.984375 30.460938 287.84375 C 31.035156 288.703125 31.523438 289.609375 31.917969 290.566406 C 32.3125 291.519531 32.613281 292.503906 32.8125 293.519531 C 33.015625 294.535156 33.117188 295.558594 33.117188 296.59375 Z M 33.117188 296.59375 " fill-opacity="1" fill-rule="nonzero"/></g><g fill="#000000" fill-opacity="1"><g transform="translate(10.394023, 22.141512)"><g><path d="M 8.375 0 L 4.8125 0 L 4.8125 -6.890625 C 4.8125 -7.722656 4.828125 -8.488281 4.859375 -9.1875 C 4.640625 -8.914062 4.367188 -8.632812 4.046875 -8.34375 L 2.578125 -7.125 L 0.75 -9.375 L 5.21875 -13 L 8.375 -13 Z M 8.375 0 "/></g></g></g><g fill="#000000" fill-opacity="1"><g transform="translate(104.551433, 22.141512)"><g><path d="M 9.984375 0 L 0.546875 0 L 0.546875 -2.3125 L 3.71875 -5.53125 C 4.625 -6.476562 5.21875 -7.125 5.5 -7.46875 C 5.78125 -7.8125 5.972656 -8.109375 6.078125 -8.359375 C 6.191406 -8.609375 6.25 -8.867188 6.25 -9.140625 C 6.25 -9.484375 6.140625 -9.75 5.921875 -9.9375 C 5.703125 -10.132812 5.390625 -10.234375 4.984375 -10.234375 C 4.578125 -10.234375 4.164062 -10.113281 3.75 -9.875 C 3.332031 -9.644531 2.859375 -9.300781 2.328125 -8.84375 L 0.40625 -11.109375 C 1.070312 -11.710938 1.632812 -12.140625 2.09375 -12.390625 C 2.550781 -12.648438 3.046875 -12.847656 3.578125 -12.984375 C 4.117188 -13.117188 4.722656 -13.1875 5.390625 -13.1875 C 6.234375 -13.1875 6.984375 -13.035156 7.640625 -12.734375 C 8.304688 -12.441406 8.820312 -12.019531 9.1875 -11.46875 C 9.550781 -10.925781 9.734375 -10.316406 9.734375 -9.640625 C 9.734375 -9.128906 9.664062 -8.65625 9.53125 -8.21875 C 9.40625 -7.789062 9.207031 -7.363281 8.9375 -6.9375 C 8.675781 -6.519531 8.320312 -6.078125 7.875 -5.609375 C 7.4375 -5.148438 6.5 -4.273438 5.0625 -2.984375 L 5.0625 -2.90625 L 9.984375 -2.90625 Z M 9.984375 0 "/></g></g></g><g fill="#000000" fill-opacity="1"><g transform="translate(197.894024, 22.141512)"><g><path d="M 9.546875 -10.1875 C 9.546875 -9.375 9.296875 -8.675781 8.796875 -8.09375 C 8.304688 -7.519531 7.597656 -7.101562 6.671875 -6.84375 L 6.671875 -6.796875 C 8.835938 -6.523438 9.921875 -5.5 9.921875 -3.71875 C 9.921875 -2.507812 9.441406 -1.554688 8.484375 -0.859375 C 7.523438 -0.171875 6.195312 0.171875 4.5 0.171875 C 3.800781 0.171875 3.148438 0.117188 2.546875 0.015625 C 1.953125 -0.078125 1.3125 -0.257812 0.625 -0.53125 L 0.625 -3.4375 C 1.195312 -3.144531 1.773438 -2.929688 2.359375 -2.796875 C 2.953125 -2.660156 3.5 -2.59375 4 -2.59375 C 4.769531 -2.59375 5.328125 -2.695312 5.671875 -2.90625 C 6.023438 -3.125 6.203125 -3.46875 6.203125 -3.9375 C 6.203125 -4.289062 6.109375 -4.5625 5.921875 -4.75 C 5.742188 -4.945312 5.453125 -5.09375 5.046875 -5.1875 C 4.640625 -5.289062 4.101562 -5.34375 3.4375 -5.34375 L 2.640625 -5.34375 L 2.640625 -7.984375 L 3.453125 -7.984375 C 5.242188 -7.984375 6.140625 -8.4375 6.140625 -9.34375 C 6.140625 -9.6875 6.003906 -9.941406 5.734375 -10.109375 C 5.472656 -10.273438 5.117188 -10.359375 4.671875 -10.359375 C 3.847656 -10.359375 2.988281 -10.082031 2.09375 -9.53125 L 0.640625 -11.875 C 1.328125 -12.351562 2.03125 -12.691406 2.75 -12.890625 C 3.46875 -13.085938 4.296875 -13.1875 5.234375 -13.1875 C 6.578125 -13.1875 7.628906 -12.921875 8.390625 -12.390625 C 9.160156 -11.859375 9.546875 -11.125 9.546875 -10.1875 Z M 9.546875 -10.1875 "/></g></g></g><g fill="#000000" fill-opacity="1"><g transform="translate(291.236587, 22.141512)"><g><path d="M 10.40625 -2.515625 L 8.96875 -2.515625 L 8.96875 0 L 5.5 0 L 5.5 -2.515625 L 0.3125 -2.515625 L 0.3125 -5.09375 L 5.71875 -13 L 8.96875 -13 L 8.96875 -5.140625 L 10.40625 -5.140625 Z M 5.5 -5.140625 L 5.5 -6.65625 C 5.5 -6.9375 5.507812 -7.316406 5.53125 -7.796875 C 5.550781 -8.285156 5.566406 -8.539062 5.578125 -8.5625 L 5.484375 -8.5625 C 5.273438 -8.101562 5.046875 -7.675781 4.796875 -7.28125 L 3.359375 -5.140625 Z M 5.5 -5.140625 "/></g></g></g><g fill="#000000" fill-opacity="1"><g transform="translate(10.394023, 117.100362)"><g><path d="M 5.90625 -8.515625 C 6.65625 -8.515625 7.328125 -8.34375 7.921875 -8 C 8.523438 -7.65625 8.992188 -7.164062 9.328125 -6.53125 C 9.671875 -5.894531 9.84375 -5.160156 9.84375 -4.328125 C 9.84375 -2.878906 9.40625 -1.765625 8.53125 -0.984375 C 7.65625 -0.210938 6.332031 0.171875 4.5625 0.171875 C 3.039062 0.171875 1.800781 -0.0625 0.84375 -0.53125 L 0.84375 -3.40625 C 1.351562 -3.164062 1.929688 -2.96875 2.578125 -2.8125 C 3.234375 -2.664062 3.796875 -2.59375 4.265625 -2.59375 C 4.910156 -2.59375 5.410156 -2.726562 5.765625 -3 C 6.117188 -3.28125 6.296875 -3.6875 6.296875 -4.21875 C 6.296875 -4.71875 6.113281 -5.109375 5.75 -5.390625 C 5.394531 -5.671875 4.859375 -5.8125 4.140625 -5.8125 C 3.585938 -5.8125 2.988281 -5.707031 2.34375 -5.5 L 1.0625 -6.140625 L 1.546875 -13 L 8.96875 -13 L 8.96875 -10.078125 L 4.53125 -10.078125 L 4.375 -8.359375 C 4.84375 -8.453125 5.171875 -8.5 5.359375 -8.5 C 5.554688 -8.507812 5.738281 -8.515625 5.90625 -8.515625 Z M 5.90625 -8.515625 "/></g></g></g><g fill="#000000" fill-opacity="1"><g transform="translate(104.144016, 115.891501)"><g><path d="M 0.625 -5.5 C 0.625 -7.3125 0.878906 -8.78125 1.390625 -9.90625 C 1.910156 -11.03125 2.675781 -11.859375 3.6875 -12.390625 C 4.707031 -12.921875 5.957031 -13.1875 7.4375 -13.1875 C 7.96875 -13.1875 8.582031 -13.140625 9.28125 -13.046875 L 9.28125 -10.296875 C 8.6875 -10.410156 8.046875 -10.46875 7.359375 -10.46875 C 6.179688 -10.46875 5.304688 -10.207031 4.734375 -9.6875 C 4.160156 -9.164062 3.847656 -8.320312 3.796875 -7.15625 L 3.890625 -7.15625 C 4.429688 -8.164062 5.289062 -8.671875 6.46875 -8.671875 C 7.625 -8.671875 8.519531 -8.296875 9.15625 -7.546875 C 9.789062 -6.804688 10.109375 -5.773438 10.109375 -4.453125 C 10.109375 -3.015625 9.703125 -1.882812 8.890625 -1.0625 C 8.085938 -0.238281 6.96875 0.171875 5.53125 0.171875 C 3.988281 0.171875 2.785156 -0.320312 1.921875 -1.3125 C 1.054688 -2.3125 0.625 -3.707031 0.625 -5.5 Z M 5.4375 -2.609375 C 5.8125 -2.609375 6.113281 -2.75 6.34375 -3.03125 C 6.582031 -3.3125 6.703125 -3.757812 6.703125 -4.375 C 6.703125 -5.425781 6.296875 -5.953125 5.484375 -5.953125 C 5.078125 -5.953125 4.75 -5.816406 4.5 -5.546875 C 4.25 -5.273438 4.125 -4.945312 4.125 -4.5625 C 4.125 -3.988281 4.242188 -3.519531 4.484375 -3.15625 C 4.722656 -2.789062 5.039062 -2.609375 5.4375 -2.609375 Z M 5.4375 -2.609375 "/></g></g></g><g fill="#000000" fill-opacity="1"><g transform="translate(197.894024, 117.100362)"><g><path d="M 1.859375 0 L 6.328125 -10.078125 L 0.6875 -10.078125 L 0.6875 -12.984375 L 10.078125 -12.984375 L 10.078125 -10.921875 L 5.5 0 Z M 1.859375 0 "/></g></g></g><g fill="#000000" fill-opacity="1"><g transform="translate(291.236587, 115.891501)"><g><path d="M 5.375 -13.1875 C 6.738281 -13.1875 7.800781 -12.910156 8.5625 -12.359375 C 9.332031 -11.804688 9.71875 -11.023438 9.71875 -10.015625 C 9.71875 -9.328125 9.535156 -8.722656 9.171875 -8.203125 C 8.816406 -7.679688 8.25 -7.226562 7.46875 -6.84375 C 8.425781 -6.300781 9.101562 -5.757812 9.5 -5.21875 C 9.894531 -4.675781 10.09375 -4.085938 10.09375 -3.453125 C 10.09375 -2.296875 9.675781 -1.398438 8.84375 -0.765625 C 8.007812 -0.140625 6.84375 0.171875 5.34375 0.171875 C 3.8125 0.171875 2.640625 -0.132812 1.828125 -0.75 C 1.015625 -1.375 0.609375 -2.265625 0.609375 -3.421875 C 0.609375 -4.179688 0.785156 -4.820312 1.140625 -5.34375 C 1.503906 -5.875 2.113281 -6.359375 2.96875 -6.796875 C 2.28125 -7.253906 1.773438 -7.75 1.453125 -8.28125 C 1.140625 -8.8125 0.984375 -9.394531 0.984375 -10.03125 C 0.984375 -11.03125 1.367188 -11.804688 2.140625 -12.359375 C 2.921875 -12.910156 4 -13.1875 5.375 -13.1875 Z M 3.828125 -3.5625 C 3.828125 -3.195312 3.957031 -2.898438 4.21875 -2.671875 C 4.476562 -2.453125 4.835938 -2.34375 5.296875 -2.34375 C 6.347656 -2.34375 6.875 -2.726562 6.875 -3.5 C 6.875 -3.789062 6.757812 -4.078125 6.53125 -4.359375 C 6.300781 -4.640625 5.890625 -4.953125 5.296875 -5.296875 C 4.773438 -5.023438 4.398438 -4.742188 4.171875 -4.453125 C 3.941406 -4.171875 3.828125 -3.875 3.828125 -3.5625 Z M 5.359375 -10.65625 C 5.054688 -10.65625 4.800781 -10.566406 4.59375 -10.390625 C 4.382812 -10.210938 4.28125 -9.988281 4.28125 -9.71875 C 4.28125 -9.207031 4.625 -8.753906 5.3125 -8.359375 C 5.738281 -8.609375 6.023438 -8.832031 6.171875 -9.03125 C 6.328125 -9.226562 6.40625 -9.457031 6.40625 -9.71875 C 6.40625 -10 6.300781 -10.222656 6.09375 -10.390625 C 5.894531 -10.566406 5.648438 -10.65625 5.359375 -10.65625 Z M 5.359375 -10.65625 "/></g></g></g><g fill="#000000" fill-opacity="1"><g transform="translate(10.394023, 209.641502)"><g><path d="M 10.078125 -7.046875 C 10.078125 -4.503906 9.523438 -2.664062 8.421875 -1.53125 C 7.328125 -0.394531 5.578125 0.171875 3.171875 0.171875 C 2.367188 0.171875 1.765625 0.144531 1.359375 0.09375 L 1.359375 -2.703125 C 1.867188 -2.597656 2.375 -2.546875 2.875 -2.546875 C 4.132812 -2.546875 5.101562 -2.804688 5.78125 -3.328125 C 6.46875 -3.847656 6.84375 -4.671875 6.90625 -5.796875 L 6.796875 -5.796875 C 6.566406 -5.367188 6.335938 -5.054688 6.109375 -4.859375 C 5.878906 -4.671875 5.601562 -4.523438 5.28125 -4.421875 C 4.957031 -4.328125 4.550781 -4.28125 4.0625 -4.28125 C 2.9375 -4.28125 2.054688 -4.65625 1.421875 -5.40625 C 0.785156 -6.15625 0.46875 -7.191406 0.46875 -8.515625 C 0.46875 -9.960938 0.878906 -11.09375 1.703125 -11.90625 C 2.523438 -12.726562 3.648438 -13.140625 5.078125 -13.140625 C 6.671875 -13.140625 7.898438 -12.609375 8.765625 -11.546875 C 9.640625 -10.492188 10.078125 -8.992188 10.078125 -7.046875 Z M 5.171875 -10.328125 C 4.785156 -10.328125 4.472656 -10.1875 4.234375 -9.90625 C 3.992188 -9.625 3.875 -9.175781 3.875 -8.5625 C 3.875 -8.082031 3.976562 -7.695312 4.1875 -7.40625 C 4.394531 -7.113281 4.710938 -6.96875 5.140625 -6.96875 C 5.523438 -6.96875 5.859375 -7.109375 6.140625 -7.390625 C 6.429688 -7.671875 6.578125 -8.003906 6.578125 -8.390625 C 6.578125 -8.921875 6.441406 -9.375 6.171875 -9.75 C 5.910156 -10.132812 5.578125 -10.328125 5.171875 -10.328125 Z M 5.171875 -10.328125 "/></g></g></g><g fill="#000000" fill-opacity="1"><g transform="translate(99.211668, 209.641502)"><g><path d="M 8.375 0 L 4.8125 0 L 4.8125 -6.890625 C 4.8125 -7.722656 4.828125 -8.488281 4.859375 -9.1875 C 4.640625 -8.914062 4.367188 -8.632812 4.046875 -8.34375 L 2.578125 -7.125 L 0.75 -9.375 L 5.21875 -13 L 8.375 -13 Z M 8.375 0 "/></g></g></g><g fill="#000000" fill-opacity="1"><g transform="translate(109.888599, 209.641502)"><g><path d="M 10.03125 -6.484375 C 10.03125 -4.179688 9.644531 -2.492188 8.875 -1.421875 C 8.101562 -0.359375 6.925781 0.171875 5.34375 0.171875 C 3.78125 0.171875 2.601562 -0.382812 1.8125 -1.5 C 1.03125 -2.613281 0.640625 -4.273438 0.640625 -6.484375 C 0.640625 -8.796875 1.023438 -10.488281 1.796875 -11.5625 C 2.566406 -12.644531 3.75 -13.1875 5.34375 -13.1875 C 6.882812 -13.1875 8.050781 -12.625 8.84375 -11.5 C 9.632812 -10.382812 10.03125 -8.710938 10.03125 -6.484375 Z M 4.140625 -6.484375 C 4.140625 -5.015625 4.226562 -4.003906 4.40625 -3.453125 C 4.59375 -2.898438 4.90625 -2.625 5.34375 -2.625 C 5.78125 -2.625 6.085938 -2.90625 6.265625 -3.46875 C 6.441406 -4.039062 6.53125 -5.046875 6.53125 -6.484375 C 6.53125 -7.921875 6.4375 -8.925781 6.25 -9.5 C 6.070312 -10.082031 5.769531 -10.375 5.34375 -10.375 C 4.90625 -10.375 4.59375 -10.09375 4.40625 -9.53125 C 4.226562 -8.976562 4.140625 -7.960938 4.140625 -6.484375 Z M 4.140625 -6.484375 "/></g></g></g><g fill="#000000" fill-opacity="1"><g transform="translate(192.55426, 210.042209)"><g><path d="M 8.375 0 L 4.8125 0 L 4.8125 -6.890625 C 4.8125 -7.722656 4.828125 -8.488281 4.859375 -9.1875 C 4.640625 -8.914062 4.367188 -8.632812 4.046875 -8.34375 L 2.578125 -7.125 L 0.75 -9.375 L 5.21875 -13 L 8.375 -13 Z M 8.375 0 "/></g></g></g><g fill="#000000" fill-opacity="1"><g transform="translate(203.23119, 210.042209)"><g><path d="M 8.375 0 L 4.8125 0 L 4.8125 -6.890625 C 4.8125 -7.722656 4.828125 -8.488281 4.859375 -9.1875 C 4.640625 -8.914062 4.367188 -8.632812 4.046875 -8.34375 L 2.578125 -7.125 L 0.75 -9.375 L 5.21875 -13 L 8.375 -13 Z M 8.375 0 "/></g></g></g><g fill="#000000" fill-opacity="1"><g transform="translate(285.896823, 209.641502)"><g><path d="M 8.375 0 L 4.8125 0 L 4.8125 -6.890625 C 4.8125 -7.722656 4.828125 -8.488281 4.859375 -9.1875 C 4.640625 -8.914062 4.367188 -8.632812 4.046875 -8.34375 L 2.578125 -7.125 L 0.75 -9.375 L 5.21875 -13 L 8.375 -13 Z M 8.375 0 "/></g></g></g><g fill="#000000" fill-opacity="1"><g transform="translate(296.573753, 209.641502)"><g><path d="M 9.984375 0 L 0.546875 0 L 0.546875 -2.3125 L 3.71875 -5.53125 C 4.625 -6.476562 5.21875 -7.125 5.5 -7.46875 C 5.78125 -7.8125 5.972656 -8.109375 6.078125 -8.359375 C 6.191406 -8.609375 6.25 -8.867188 6.25 -9.140625 C 6.25 -9.484375 6.140625 -9.75 5.921875 -9.9375 C 5.703125 -10.132812 5.390625 -10.234375 4.984375 -10.234375 C 4.578125 -10.234375 4.164062 -10.113281 3.75 -9.875 C 3.332031 -9.644531 2.859375 -9.300781 2.328125 -8.84375 L 0.40625 -11.109375 C 1.070312 -11.710938 1.632812 -12.140625 2.09375 -12.390625 C 2.550781 -12.648438 3.046875 -12.847656 3.578125 -12.984375 C 4.117188 -13.117188 4.722656 -13.1875 5.390625 -13.1875 C 6.234375 -13.1875 6.984375 -13.035156 7.640625 -12.734375 C 8.304688 -12.441406 8.820312 -12.019531 9.1875 -11.46875 C 9.550781 -10.925781 9.734375 -10.316406 9.734375 -9.640625 C 9.734375 -9.128906 9.664062 -8.65625 9.53125 -8.21875 C 9.40625 -7.789062 9.207031 -7.363281 8.9375 -6.9375 C 8.675781 -6.519531 8.320312 -6.078125 7.875 -5.609375 C 7.4375 -5.148438 6.5 -4.273438 5.0625 -2.984375 L 5.0625 -2.90625 L 9.984375 -2.90625 Z M 9.984375 0 "/></g></g></g><g fill="#000000" fill-opacity="1"><g transform="translate(6.670535, 302.984094)"><g><path d="M 8.375 0 L 4.8125 0 L 4.8125 -6.890625 C 4.8125 -7.722656 4.828125 -8.488281 4.859375 -9.1875 C 4.640625 -8.914062 4.367188 -8.632812 4.046875 -8.34375 L 2.578125 -7.125 L 0.75 -9.375 L 5.21875 -13 L 8.375 -13 Z M 8.375 0 "/></g></g></g><g fill="#000000" fill-opacity="1"><g transform="translate(17.347466, 302.984094)"><g><path d="M 9.546875 -10.1875 C 9.546875 -9.375 9.296875 -8.675781 8.796875 -8.09375 C 8.304688 -7.519531 7.597656 -7.101562 6.671875 -6.84375 L 6.671875 -6.796875 C 8.835938 -6.523438 9.921875 -5.5 9.921875 -3.71875 C 9.921875 -2.507812 9.441406 -1.554688 8.484375 -0.859375 C 7.523438 -0.171875 6.195312 0.171875 4.5 0.171875 C 3.800781 0.171875 3.148438 0.117188 2.546875 0.015625 C 1.953125 -0.078125 1.3125 -0.257812 0.625 -0.53125 L 0.625 -3.4375 C 1.195312 -3.144531 1.773438 -2.929688 2.359375 -2.796875 C 2.953125 -2.660156 3.5 -2.59375 4 -2.59375 C 4.769531 -2.59375 5.328125 -2.695312 5.671875 -2.90625 C 6.023438 -3.125 6.203125 -3.46875 6.203125 -3.9375 C 6.203125 -4.289062 6.109375 -4.5625 5.921875 -4.75 C 5.742188 -4.945312 5.453125 -5.09375 5.046875 -5.1875 C 4.640625 -5.289062 4.101562 -5.34375 3.4375 -5.34375 L 2.640625 -5.34375 L 2.640625 -7.984375 L 3.453125 -7.984375 C 5.242188 -7.984375 6.140625 -8.4375 6.140625 -9.34375 C 6.140625 -9.6875 6.003906 -9.941406 5.734375 -10.109375 C 5.472656 -10.273438 5.117188 -10.359375 4.671875 -10.359375 C 3.847656 -10.359375 2.988281 -10.082031 2.09375 -9.53125 L 0.640625 -11.875 C 1.328125 -12.351562 2.03125 -12.691406 2.75 -12.890625 C 3.46875 -13.085938 4.296875 -13.1875 5.234375 -13.1875 C 6.578125 -13.1875 7.628906 -12.921875 8.390625 -12.390625 C 9.160156 -11.859375 9.546875 -11.125 9.546875 -10.1875 Z M 9.546875 -10.1875 "/></g></g></g><g fill="#000000" fill-opacity="1"><g transform="translate(100.013105, 302.984094)"><g><path d="M 8.375 0 L 4.8125 0 L 4.8125 -6.890625 C 4.8125 -7.722656 4.828125 -8.488281 4.859375 -9.1875 C 4.640625 -8.914062 4.367188 -8.632812 4.046875 -8.34375 L 2.578125 -7.125 L 0.75 -9.375 L 5.21875 -13 L 8.375 -13 Z M 8.375 0 "/></g></g></g><g fill="#000000" fill-opacity="1"><g transform="translate(110.690036, 302.984094)"><g><path d="M 10.40625 -2.515625 L 8.96875 -2.515625 L 8.96875 0 L 5.5 0 L 5.5 -2.515625 L 0.3125 -2.515625 L 0.3125 -5.09375 L 5.71875 -13 L 8.96875 -13 L 8.96875 -5.140625 L 10.40625 -5.140625 Z M 5.5 -5.140625 L 5.5 -6.65625 C 5.5 -6.9375 5.507812 -7.316406 5.53125 -7.796875 C 5.550781 -8.285156 5.566406 -8.539062 5.578125 -8.5625 L 5.484375 -8.5625 C 5.273438 -8.101562 5.046875 -7.675781 4.796875 -7.28125 L 3.359375 -5.140625 Z M 5.5 -5.140625 "/></g></g></g><g fill="#000000" fill-opacity="1"><g transform="translate(192.55426, 302.984094)"><g><path d="M 8.375 0 L 4.8125 0 L 4.8125 -6.890625 C 4.8125 -7.722656 4.828125 -8.488281 4.859375 -9.1875 C 4.640625 -8.914062 4.367188 -8.632812 4.046875 -8.34375 L 2.578125 -7.125 L 0.75 -9.375 L 5.21875 -13 L 8.375 -13 Z M 8.375 0 "/></g></g></g><g fill="#000000" fill-opacity="1"><g transform="translate(203.23119, 302.984094)"><g><path d="M 5.90625 -8.515625 C 6.65625 -8.515625 7.328125 -8.34375 7.921875 -8 C 8.523438 -7.65625 8.992188 -7.164062 9.328125 -6.53125 C 9.671875 -5.894531 9.84375 -5.160156 9.84375 -4.328125 C 9.84375 -2.878906 9.40625 -1.765625 8.53125 -0.984375 C 7.65625 -0.210938 6.332031 0.171875 4.5625 0.171875 C 3.039062 0.171875 1.800781 -0.0625 0.84375 -0.53125 L 0.84375 -3.40625 C 1.351562 -3.164062 1.929688 -2.96875 2.578125 -2.8125 C 3.234375 -2.664062 3.796875 -2.59375 4.265625 -2.59375 C 4.910156 -2.59375 5.410156 -2.726562 5.765625 -3 C 6.117188 -3.28125 6.296875 -3.6875 6.296875 -4.21875 C 6.296875 -4.71875 6.113281 -5.109375 5.75 -5.390625 C 5.394531 -5.671875 4.859375 -5.8125 4.140625 -5.8125 C 3.585938 -5.8125 2.988281 -5.707031 2.34375 -5.5 L 1.0625 -6.140625 L 1.546875 -13 L 8.96875 -13 L 8.96875 -10.078125 L 4.53125 -10.078125 L 4.375 -8.359375 C 4.84375 -8.453125 5.171875 -8.5 5.359375 -8.5 C 5.554688 -8.507812 5.738281 -8.515625 5.90625 -8.515625 Z M 5.90625 -8.515625 "/></g></g></g><g fill="#000000" fill-opacity="1"><g transform="translate(286.467554, 302.984094)"><g><path d="M 8.375 0 L 4.8125 0 L 4.8125 -6.890625 C 4.8125 -7.722656 4.828125 -8.488281 4.859375 -9.1875 C 4.640625 -8.914062 4.367188 -8.632812 4.046875 -8.34375 L 2.578125 -7.125 L 0.75 -9.375 L 5.21875 -13 L 8.375 -13 Z M 8.375 0 "/></g></g></g><g fill="#000000" fill-opacity="1"><g transform="translate(297.144485, 302.984094)"><g><path d="M 0.625 -5.5 C 0.625 -7.3125 0.878906 -8.78125 1.390625 -9.90625 C 1.910156 -11.03125 2.675781 -11.859375 3.6875 -12.390625 C 4.707031 -12.921875 5.957031 -13.1875 7.4375 -13.1875 C 7.96875 -13.1875 8.582031 -13.140625 9.28125 -13.046875 L 9.28125 -10.296875 C 8.6875 -10.410156 8.046875 -10.46875 7.359375 -10.46875 C 6.179688 -10.46875 5.304688 -10.207031 4.734375 -9.6875 C 4.160156 -9.164062 3.847656 -8.320312 3.796875 -7.15625 L 3.890625 -7.15625 C 4.429688 -8.164062 5.289062 -8.671875 6.46875 -8.671875 C 7.625 -8.671875 8.519531 -8.296875 9.15625 -7.546875 C 9.789062 -6.804688 10.109375 -5.773438 10.109375 -4.453125 C 10.109375 -3.015625 9.703125 -1.882812 8.890625 -1.0625 C 8.085938 -0.238281 6.96875 0.171875 5.53125 0.171875 C 3.988281 0.171875 2.785156 -0.320312 1.921875 -1.3125 C 1.054688 -2.3125 0.625 -3.707031 0.625 -5.5 Z M 5.4375 -2.609375 C 5.8125 -2.609375 6.113281 -2.75 6.34375 -3.03125 C 6.582031 -3.3125 6.703125 -3.757812 6.703125 -4.375 C 6.703125 -5.425781 6.296875 -5.953125 5.484375 -5.953125 C 5.078125 -5.953125 4.75 -5.816406 4.5 -5.546875 C 4.25 -5.273438 4.125 -4.945312 4.125 -4.5625 C 4.125 -3.988281 4.242188 -3.519531 4.484375 -3.15625 C 4.722656 -2.789062 5.039062 -2.609375 5.4375 -2.609375 Z M 5.4375 -2.609375 "/></g></g></g></svg>