<?xml version="1.0" encoding="UTF-8"?><svg id="b" xmlns="http://www.w3.org/2000/svg" xmlns:xlink="http://www.w3.org/1999/xlink" viewBox="0 0 93.94 94.44"><defs><clipPath id="d"><path d="m54.51,91.95h-15.08c-1.57,0-2.73-1.48-2.34-3.01l6.03-23.89c.27-1.07,1.24-1.82,2.34-1.82h3.01c1.11,0,2.07.75,2.34,1.82l6.03,23.89c.39,1.53-.77,3.01-2.34,3.01Z" style="fill:#d1c4dd; stroke:#010101; stroke-linejoin:round; stroke-width:.5px;"/></clipPath><clipPath id="e"><path d="m4.89,32.98c-1.75,0-2.81,1.92-1.89,3.41,9.08,14.75,25.37,24.59,43.96,24.59s34.88-9.84,43.96-24.59c.92-1.49-.14-3.41-1.89-3.41H4.89Z" style="fill:#d1c4dd; stroke:#010101; stroke-linejoin:round; stroke-width:.5px;"/></clipPath></defs><g id="c"><rect x="37.09" y="90.44" width="19.77" height="4" rx="2" ry="2" style="fill:#010101;"/><path d="m54.51,91.95h-15.08c-1.57,0-2.73-1.48-2.34-3.01l6.03-23.89c.27-1.07,1.24-1.82,2.34-1.82h3.01c1.11,0,2.07.75,2.34,1.82l6.03,23.89c.39,1.53-.77,3.01-2.34,3.01Z" style="fill:#d1c4dd;"/><g style="clip-path:url(#d);"><path d="m62.59,81.55c0-8.35-31.25-8.35-31.25,0v-27.79h31.25v27.79Z" style="fill:#615b67; stroke:#010101; stroke-linejoin:round; stroke-width:.5px;"/></g><path d="m54.51,91.95h-15.08c-1.57,0-2.73-1.48-2.34-3.01l6.03-23.89c.27-1.07,1.24-1.82,2.34-1.82h3.01c1.11,0,2.07.75,2.34,1.82l6.03,23.89c.39,1.53-.77,3.01-2.34,3.01Z" style="fill:none; stroke:#010101; stroke-linejoin:round; stroke-width:.5px;"/><circle cx="46.97" cy="60.98" r="8.27" style="fill:#615b67; stroke:#010101; stroke-miterlimit:10; stroke-width:.5px;"/><polygon points="48.8 36.59 45.13 36.59 46.16 4.59 47.77 4.59 48.8 36.59" style="fill:#d1c4dd; stroke:#010101; stroke-linejoin:round; stroke-width:.5px;"/><path d="m4.89,32.98c-1.75,0-2.81,1.92-1.89,3.41,9.08,14.75,25.37,24.59,43.96,24.59s34.88-9.84,43.96-24.59c.92-1.49-.14-3.41-1.89-3.41H4.89Z" style="fill:#d1c4dd;"/><g style="clip-path:url(#e);"><path d="m93.69,38.2c.15,23.89-93.3,23.99-93.44,0v24.14h93.44v-24.14Z" style="fill:#010101;"/><rect x=".25" y="39.15" width="93.44" height="7.8" style="fill:#f47c4a; stroke:#010101; stroke-linejoin:round; stroke-width:.5px;"/></g><path d="m4.89,32.98c-1.75,0-2.81,1.92-1.89,3.41,9.08,14.75,25.37,24.59,43.96,24.59s34.88-9.84,43.96-24.59c.92-1.49-.14-3.41-1.89-3.41H4.89Z" style="fill:none; stroke:#010101; stroke-linejoin:round; stroke-width:.5px;"/><path d="m46.97.25c-3.14,0-5.69,2.54-5.69,5.69h11.37c0-3.14-2.55-5.69-5.68-5.69Z" style="fill:#d1c4dd; stroke:#010101; stroke-linejoin:round; stroke-width:.5px;"/><rect x="41.28" y="5.94" width="11.37" height="1.6" style="fill:#615b67; stroke:#010101; stroke-linejoin:round; stroke-width:.5px;"/><rect x="46.07" y="7.54" width="1.91" height="3.28" style="fill:#010101;"/></g></svg>